<svg width="70" height="70" viewBox="0 0 70 70" fill="none" xmlns="http://www.w3.org/2000/svg">
<path d="M55.9801 15.2444C52.2887 13.5506 48.3302 12.3027 44.1913 11.588C44.116 11.5742 44.0407 11.6086 44.0018 11.6776C43.4928 12.583 42.9288 13.7643 42.5339 14.6928C38.0824 14.0263 33.6536 14.0263 29.2933 14.6928C28.8983 13.7437 28.3139 12.583 27.8026 11.6776C27.7637 11.6109 27.6884 11.5765 27.6131 11.588C23.4765 12.3004 19.518 13.5483 15.8243 15.2444C15.7924 15.2581 15.7649 15.2812 15.7468 15.311C8.23835 26.5284 6.18148 37.4701 7.19051 48.2761C7.19508 48.329 7.22476 48.3796 7.26585 48.4117C12.2197 52.0497 17.0183 54.2583 21.7278 55.7222C21.8032 55.7452 21.8831 55.7176 21.931 55.6555C23.0451 54.1342 24.0381 52.5301 24.8896 50.8431C24.9398 50.7443 24.8919 50.6271 24.7892 50.5881C23.214 49.9905 21.7141 49.262 20.2714 48.4347C20.1572 48.368 20.1481 48.2048 20.2531 48.1267C20.5567 47.8992 20.8604 47.6624 21.1503 47.4234C21.2028 47.3798 21.2758 47.3706 21.3375 47.3982C30.8159 51.7257 41.0775 51.7257 50.4441 47.3982C50.5057 47.3683 50.5788 47.3775 50.6336 47.4212C50.9235 47.6602 51.2272 47.8992 51.5331 48.1267C51.638 48.2048 51.6312 48.368 51.5171 48.4347C50.0743 49.2781 48.5744 49.9905 46.997 50.5858C46.8943 50.6248 46.8486 50.7443 46.8988 50.8431C47.7686 52.5277 48.7616 54.1318 49.8551 55.6532C49.9008 55.7176 49.9829 55.7452 50.0583 55.7222C54.7907 54.2583 59.5893 52.0497 64.5431 48.4117C64.5865 48.3796 64.6139 48.3313 64.6185 48.2784C65.8261 35.7854 62.5958 24.9335 56.0554 15.3133C56.0394 15.2812 56.0121 15.2581 55.9801 15.2444ZM26.305 41.6964C23.4514 41.6964 21.1 39.0765 21.1 35.859C21.1 32.6416 23.4058 30.0217 26.305 30.0217C29.2271 30.0217 31.5556 32.6646 31.51 35.859C31.51 39.0765 29.2042 41.6964 26.305 41.6964ZM45.5496 41.6964C42.696 41.6964 40.3447 39.0765 40.3447 35.859C40.3447 32.6416 42.6503 30.0217 45.5496 30.0217C48.4717 30.0217 50.8002 32.6646 50.7546 35.859C50.7546 39.0765 48.4717 41.6964 45.5496 41.6964Z" fill="white"/>
</svg>
