<svg width="50" height="50" viewBox="0 0 50 50" fill="none" xmlns="http://www.w3.org/2000/svg">
<path d="M43.4736 9.57343C43.1872 9.3114 42.8363 9.13032 42.4568 9.04878C42.0774 8.96725 41.683 8.9882 41.3143 9.10949L9.50037 19.5967C8.63334 19.8825 8.04539 20.6565 8.00249 21.5683C7.95966 22.4802 8.47236 23.3059 9.30865 23.6719L15.6974 26.4671L34.5071 16.0278C34.7294 15.9046 34.9884 15.8651 35.2373 15.9165C35.4862 15.9679 35.7084 16.1067 35.8637 16.3079C36.0189 16.5091 36.0969 16.7593 36.0835 17.0131C36.0701 17.2668 35.9662 17.5074 35.7907 17.6911L24.0642 29.9524L21.6592 38.6414L27.4315 34.3192L34.2573 39.9048C34.6548 40.2303 35.1408 40.4 35.6362 40.4C35.8763 40.3998 36.1146 40.3602 36.3419 40.2829C37.0603 40.0393 37.5929 39.453 37.7665 38.7146L44.1242 11.6838C44.2128 11.3059 44.1992 10.9113 44.0849 10.5404C43.9706 10.1696 43.7596 9.83579 43.4736 9.57343Z" fill="white"/>
</svg>
