<svg width="154" height="258" viewBox="0 0 154 258" fill="none" xmlns="http://www.w3.org/2000/svg">
<g filter="url(#filter0_d_1_159)">
<path d="M66.5 0.694214H74.8334H66.5ZM66.5 2.0831H74.8334H66.5ZM66.5 3.47199H74.8334H66.5ZM62.3334 4.86088H66.5H62.3334ZM70.6667 4.86088H74.8334H70.6667ZM62.3334 6.24977H66.5H62.3334ZM70.6667 6.24977H74.8334H70.6667ZM62.3334 7.63866H66.5H62.3334ZM70.6667 7.63866H74.8334H70.6667ZM58.1667 9.02755H62.3334H58.1667ZM66.5 9.02755H74.8334H66.5ZM112.333 9.02755H120.667H112.333ZM58.1667 10.4164H62.3334H58.1667ZM66.5 10.4164H74.8334H66.5ZM112.333 10.4164H120.667H112.333ZM58.1667 11.8053H62.3334H58.1667ZM66.5 11.8053H74.8334H66.5ZM112.333 11.8053H120.667H112.333ZM54 13.1942H58.1667H54ZM62.3334 13.1942H66.5H62.3334ZM70.6667 13.1942H74.8334H70.6667ZM108.167 13.1942H112.333H108.167ZM116.5 13.1942H120.667H116.5ZM54 14.5831H58.1667H54ZM62.3334 14.5831H66.5H62.3334ZM70.6667 14.5831H74.8334H70.6667ZM108.167 14.5831H112.333H108.167ZM116.5 14.5831H120.667H116.5ZM54 15.972H58.1667H54ZM62.3334 15.972H66.5H62.3334ZM70.6667 15.972H74.8334H70.6667ZM108.167 15.972H112.333H108.167ZM116.5 15.972H120.667H116.5ZM49.8334 17.3609H54H49.8334ZM58.1667 17.3609H62.3334H58.1667ZM70.6667 17.3609H74.8334H70.6667ZM104 17.3609H108.167H104ZM112.333 17.3609H120.667H112.333ZM49.8334 18.7498H54H49.8334ZM58.1667 18.7498H62.3334H58.1667ZM70.6667 18.7498H74.8334H70.6667ZM104 18.7498H108.167H104ZM112.333 18.7498H120.667H112.333ZM49.8334 20.1387H54H49.8334ZM58.1667 20.1387H62.3334H58.1667ZM70.6667 20.1387H74.8334H70.6667ZM104 20.1387H108.167H104ZM112.333 20.1387H120.667H112.333ZM49.8334 21.5276H54H49.8334ZM58.1667 21.5276H62.3334H58.1667ZM66.5 21.5276H70.6667H66.5ZM99.8334 21.5276H104H99.8334ZM108.167 21.5276H112.333H108.167ZM116.5 21.5276H120.667H116.5ZM49.8334 22.9164H54H49.8334ZM58.1667 22.9164H62.3334H58.1667ZM66.5 22.9164H70.6667H66.5ZM99.8334 22.9164H104H99.8334ZM108.167 22.9164H112.333H108.167ZM116.5 22.9164H120.667H116.5ZM49.8334 24.3053H54H49.8334ZM58.1667 24.3053H62.3334H58.1667ZM66.5 24.3053H70.6667H66.5ZM99.8334 24.3053H104H99.8334ZM108.167 24.3053H112.333H108.167ZM116.5 24.3053H120.667H116.5ZM45.6667 25.6942H49.8334H45.6667ZM54 25.6942H58.1667H54ZM66.5 25.6942H70.6667H66.5ZM95.6667 25.6942H99.8334H95.6667ZM104 25.6942H108.167H104ZM116.5 25.6942H120.667H116.5ZM45.6667 27.0831H49.8334H45.6667ZM54 27.0831H58.1667H54ZM66.5 27.0831H70.6667H66.5ZM95.6667 27.0831H99.8334H95.6667ZM104 27.0831H108.167H104ZM116.5 27.0831H120.667H116.5ZM45.6667 28.472H49.8334H45.6667ZM54 28.472H58.1667H54ZM66.5 28.472H70.6667H66.5ZM95.6667 28.472H99.8334H95.6667ZM104 28.472H108.167H104ZM116.5 28.472H120.667H116.5ZM45.6667 29.8609H49.8334H45.6667ZM54 29.8609H58.1667H54ZM66.5 29.8609H70.6667H66.5ZM95.6667 29.8609H99.8334H95.6667ZM104 29.8609H108.167H104ZM112.333 29.8609H116.5H112.333ZM45.6667 31.2498H49.8334H45.6667ZM54 31.2498H58.1667H54ZM66.5 31.2498H70.6667H66.5ZM95.6667 31.2498H99.8334H95.6667ZM104 31.2498H108.167H104ZM112.333 31.2498H116.5H112.333ZM45.6667 32.6387H49.8334H45.6667ZM54 32.6387H58.1667H54ZM66.5 32.6387H70.6667H66.5ZM95.6667 32.6387H99.8334H95.6667ZM104 32.6387H108.167H104ZM112.333 32.6387H116.5H112.333ZM41.5 34.0276H45.6667H41.5ZM49.8334 34.0276H54H49.8334ZM62.3334 34.0276H66.5H62.3334ZM91.5 34.0276H95.6667H91.5ZM99.8334 34.0276H104H99.8334ZM112.333 34.0276H116.5H112.333ZM41.5 35.4165H45.6667H41.5ZM49.8334 35.4165H54H49.8334ZM62.3334 35.4165H66.5H62.3334ZM91.5 35.4165H95.6667H91.5ZM99.8334 35.4165H104H99.8334ZM112.333 35.4165H116.5H112.333ZM41.5 36.8053H45.6667H41.5ZM49.8334 36.8053H54H49.8334ZM62.3334 36.8053H66.5H62.3334ZM91.5 36.8053H95.6667H91.5ZM99.8334 36.8053H104H99.8334ZM112.333 36.8053H116.5H112.333ZM37.3333 38.1942H41.5H37.3333ZM49.8334 38.1942H54H49.8334ZM62.3334 38.1942H66.5H62.3334ZM91.5 38.1942H95.6667H91.5ZM99.8334 38.1942H104H99.8334ZM112.333 38.1942H116.5H112.333ZM37.3333 39.5831H41.5H37.3333ZM49.8334 39.5831H54H49.8334ZM62.3334 39.5831H66.5H62.3334ZM91.5 39.5831H95.6667H91.5ZM99.8334 39.5831H104H99.8334ZM112.333 39.5831H116.5H112.333ZM37.3333 40.972H41.5H37.3333ZM49.8334 40.972H54H49.8334ZM62.3334 40.972H66.5H62.3334ZM91.5 40.972H95.6667H91.5ZM99.8334 40.972H104H99.8334ZM112.333 40.972H116.5H112.333ZM37.3333 42.3609H41.5H37.3333ZM45.6667 42.3609H49.8334H45.6667ZM66.5 42.3609H70.6667H66.5ZM87.3334 42.3609H91.5H87.3334ZM95.6667 42.3609H99.8334H95.6667ZM108.167 42.3609H112.333H108.167ZM37.3333 43.7498H41.5H37.3333ZM45.6667 43.7498H49.8334H45.6667ZM66.5 43.7498H70.6667H66.5ZM87.3334 43.7498H91.5H87.3334ZM95.6667 43.7498H99.8334H95.6667ZM108.167 43.7498H112.333H108.167ZM37.3333 45.1387H41.5H37.3333ZM45.6667 45.1387H49.8334H45.6667ZM66.5 45.1387H70.6667H66.5ZM87.3334 45.1387H91.5H87.3334ZM95.6667 45.1387H99.8334H95.6667ZM108.167 45.1387H112.333H108.167ZM37.3333 46.5276H41.5H37.3333ZM45.6667 46.5276H49.8334H45.6667ZM62.3334 46.5276H66.5H62.3334ZM83.1667 46.5276H87.3334H83.1667ZM95.6667 46.5276H99.8334H95.6667ZM108.167 46.5276H112.333H108.167ZM37.3333 47.9165H41.5H37.3333ZM45.6667 47.9165H49.8334H45.6667ZM62.3334 47.9165H66.5H62.3334ZM83.1667 47.9165H87.3334H83.1667ZM95.6667 47.9165H99.8334H95.6667ZM108.167 47.9165H112.333H108.167ZM37.3333 49.3053H41.5H37.3333ZM45.6667 49.3053H49.8334H45.6667ZM62.3334 49.3053H66.5H62.3334ZM83.1667 49.3053H87.3334H83.1667ZM95.6667 49.3053H99.8334H95.6667ZM108.167 49.3053H112.333H108.167ZM37.3333 50.6942H41.5H37.3333ZM45.6667 50.6942H49.8334H45.6667ZM66.5 50.6942H70.6667H66.5ZM83.1667 50.6942H87.3334H83.1667ZM91.5 50.6942H95.6667H91.5ZM112.333 50.6942H116.5H112.333ZM37.3333 52.0831H41.5H37.3333ZM45.6667 52.0831H49.8334H45.6667ZM66.5 52.0831H70.6667H66.5ZM83.1667 52.0831H87.3334H83.1667ZM91.5 52.0831H95.6667H91.5ZM112.333 52.0831H116.5H112.333ZM37.3333 53.472H41.5H37.3333ZM45.6667 53.472H49.8334H45.6667ZM66.5 53.472H70.6667H66.5ZM83.1667 53.472H87.3334H83.1667ZM91.5 53.472H95.6667H91.5ZM112.333 53.472H116.5H112.333ZM37.3333 54.8609H41.5H37.3333ZM45.6667 54.8609H49.8334H45.6667ZM62.3334 54.8609H66.5H62.3334ZM74.8334 54.8609H79H74.8334ZM83.1667 54.8609H87.3334H83.1667ZM91.5 54.8609H95.6667H91.5ZM108.167 54.8609H112.333H108.167ZM37.3333 56.2498H41.5H37.3333ZM45.6667 56.2498H49.8334H45.6667ZM62.3334 56.2498H66.5H62.3334ZM74.8334 56.2498H79H74.8334ZM83.1667 56.2498H87.3334H83.1667ZM91.5 56.2498H95.6667H91.5ZM108.167 56.2498H112.333H108.167ZM37.3333 57.6387H41.5H37.3333ZM45.6667 57.6387H49.8334H45.6667ZM62.3334 57.6387H66.5H62.3334ZM74.8334 57.6387H79H74.8334ZM83.1667 57.6387H87.3334H83.1667ZM91.5 57.6387H95.6667H91.5ZM108.167 57.6387H112.333H108.167ZM41.5 59.0276H45.6667H41.5ZM49.8334 59.0276H54H49.8334ZM62.3334 59.0276H87.3334H62.3334ZM91.5 59.0276H95.6667H91.5ZM112.333 59.0276H116.5H112.333ZM41.5 60.4165H45.6667H41.5ZM49.8334 60.4165H54H49.8334ZM62.3334 60.4165H87.3334H62.3334ZM91.5 60.4165H95.6667H91.5ZM112.333 60.4165H116.5H112.333ZM41.5 61.8054H45.6667H41.5ZM49.8334 61.8054H54H49.8334ZM62.3334 61.8054H87.3334H62.3334ZM91.5 61.8054H95.6667H91.5ZM112.333 61.8054H116.5H112.333ZM41.5 63.1942H45.6667H41.5ZM54 63.1942H66.5H54ZM70.6667 63.1942H79H70.6667ZM83.1667 63.1942H95.6667H83.1667ZM108.167 63.1942H112.333H108.167ZM41.5 64.5831H45.6667H41.5ZM54 64.5831H66.5H54ZM70.6667 64.5831H79H70.6667ZM83.1667 64.5831H95.6667H83.1667ZM108.167 64.5831H112.333H108.167ZM41.5 65.972H45.6667H41.5ZM54 65.972H66.5H54ZM70.6667 65.972H79H70.6667ZM83.1667 65.972H95.6667H83.1667ZM108.167 65.972H112.333H108.167ZM45.6667 67.3609H49.8334H45.6667ZM54 67.3609H58.1667H54ZM62.3334 67.3609H66.5H62.3334ZM87.3334 67.3609H91.5H87.3334ZM95.6667 67.3609H99.8334H95.6667ZM104 67.3609H108.167H104ZM45.6667 68.7498H49.8334H45.6667ZM54 68.7498H58.1667H54ZM62.3334 68.7498H66.5H62.3334ZM87.3334 68.7498H91.5H87.3334ZM95.6667 68.7498H99.8334H95.6667ZM104 68.7498H108.167H104ZM45.6667 70.1387H49.8334H45.6667ZM54 70.1387H58.1667H54ZM62.3334 70.1387H66.5H62.3334ZM87.3334 70.1387H91.5H87.3334ZM95.6667 70.1387H99.8334H95.6667ZM104 70.1387H108.167H104ZM49.8334 71.5276H54H49.8334ZM99.8334 71.5276H104H99.8334ZM49.8334 72.9165H54H49.8334ZM99.8334 72.9165H104H99.8334ZM49.8334 74.3054H54H49.8334ZM99.8334 74.3054H104H99.8334ZM49.8334 75.6943H54H49.8334ZM58.1667 75.6943H66.5H58.1667ZM95.6667 75.6943H104H95.6667ZM49.8334 77.0831H54H49.8334ZM58.1667 77.0831H66.5H58.1667ZM95.6667 77.0831H104H95.6667ZM49.8334 78.472H54H49.8334ZM58.1667 78.472H66.5H58.1667ZM95.6667 78.472H104H95.6667ZM45.6667 79.8609H49.8334H45.6667ZM66.5 79.8609H74.8334H66.5ZM87.3334 79.8609H95.6667H87.3334ZM104 79.8609H108.167H104ZM45.6667 81.2498H49.8334H45.6667ZM66.5 81.2498H74.8334H66.5ZM87.3334 81.2498H95.6667H87.3334ZM104 81.2498H108.167H104ZM45.6667 82.6387H49.8334H45.6667ZM66.5 82.6387H74.8334H66.5ZM87.3334 82.6387H95.6667H87.3334ZM104 82.6387H108.167H104ZM45.6667 84.0276H49.8334H45.6667ZM62.3334 84.0276H79H62.3334ZM83.1667 84.0276H99.8334H83.1667ZM104 84.0276H108.167H104ZM45.6667 85.4165H49.8334H45.6667ZM62.3334 85.4165H79H62.3334ZM83.1667 85.4165H99.8334H83.1667ZM104 85.4165H108.167H104ZM45.6667 86.8054H49.8334H45.6667ZM62.3334 86.8054H79H62.3334ZM83.1667 86.8054H99.8334H83.1667ZM104 86.8054H108.167H104ZM45.6667 88.1943H49.8334H45.6667ZM58.1667 88.1943H62.3334H58.1667ZM70.6667 88.1943H91.5H70.6667ZM99.8334 88.1943H108.167H99.8334ZM45.6667 89.5831H49.8334H45.6667ZM58.1667 89.5831H62.3334H58.1667ZM70.6667 89.5831H91.5H70.6667ZM99.8334 89.5831H108.167H99.8334ZM45.6667 90.972H49.8334H45.6667ZM58.1667 90.972H62.3334H58.1667ZM70.6667 90.972H91.5H70.6667ZM99.8334 90.972H108.167H99.8334ZM45.6667 92.3609H54H45.6667ZM58.1667 92.3609H62.3334H58.1667ZM74.8334 92.3609H91.5H74.8334ZM104 92.3609H108.167H104ZM45.6667 93.7498H54H45.6667ZM58.1667 93.7498H62.3334H58.1667ZM74.8334 93.7498H91.5H74.8334ZM104 93.7498H108.167H104ZM45.6667 95.1387H54H45.6667ZM58.1667 95.1387H62.3334H58.1667ZM74.8334 95.1387H91.5H74.8334ZM104 95.1387H108.167H104ZM45.6667 96.5276H58.1667H45.6667ZM79 96.5276H87.3334H79ZM104 96.5276H108.167H104ZM45.6667 97.9165H58.1667H45.6667ZM79 97.9165H87.3334H79ZM104 97.9165H108.167H104ZM45.6667 99.3054H58.1667H45.6667ZM79 99.3054H87.3334H79ZM104 99.3054H108.167H104ZM45.6667 100.694H58.1667H45.6667ZM79 100.694H87.3334H79ZM104 100.694H108.167H104ZM45.6667 102.083H58.1667H45.6667ZM79 102.083H87.3334H79ZM104 102.083H108.167H104ZM45.6667 103.472H58.1667H45.6667ZM79 103.472H87.3334H79ZM104 103.472H108.167H104ZM45.6667 104.861H54H45.6667ZM104 104.861H108.167H104ZM45.6667 106.25H54H45.6667ZM104 106.25H108.167H104ZM45.6667 107.639H54H45.6667ZM104 107.639H108.167H104ZM37.3333 109.028H58.1667H37.3333ZM62.3334 109.028H70.6667H62.3334ZM83.1667 109.028H91.5H83.1667ZM104 109.028H116.5H104ZM37.3333 110.416H58.1667H37.3333ZM62.3334 110.416H70.6667H62.3334ZM83.1667 110.416H91.5H83.1667ZM104 110.416H116.5H104ZM37.3333 111.805H58.1667H37.3333ZM62.3334 111.805H70.6667H62.3334ZM83.1667 111.805H91.5H83.1667ZM104 111.805H116.5H104ZM29 113.194H37.3333H29ZM54 113.194H70.6667H54ZM83.1667 113.194H91.5H83.1667ZM99.8334 113.194H104H99.8334ZM116.5 113.194H124.833H116.5ZM29 114.583H37.3333H29ZM54 114.583H70.6667H54ZM83.1667 114.583H91.5H83.1667ZM99.8334 114.583H104H99.8334ZM116.5 114.583H124.833H116.5ZM29 115.972H37.3333H29ZM54 115.972H70.6667H54ZM83.1667 115.972H91.5H83.1667ZM99.8334 115.972H104H99.8334ZM116.5 115.972H124.833H116.5ZM24.8333 117.361H29H24.8333ZM66.5 117.361H99.8334H66.5ZM124.833 117.361H129H124.833ZM24.8333 118.75H29H24.8333ZM66.5 118.75H99.8334H66.5ZM124.833 118.75H129H124.833ZM24.8333 120.139H29H24.8333ZM66.5 120.139H99.8334H66.5ZM124.833 120.139H129H124.833ZM20.6667 121.528H24.8333H20.6667ZM129 121.528H133.167H129ZM20.6667 122.916H24.8333H20.6667ZM129 122.916H133.167H129ZM20.6667 124.305H24.8333H20.6667ZM129 124.305H133.167H129ZM20.6667 125.694H24.8333H20.6667ZM37.3333 125.694H49.8334H37.3333ZM108.167 125.694H120.667H108.167ZM129 125.694H133.167H129ZM20.6667 127.083H24.8333H20.6667ZM37.3333 127.083H49.8334H37.3333ZM108.167 127.083H120.667H108.167ZM129 127.083H133.167H129ZM20.6667 128.472H24.8333H20.6667ZM37.3333 128.472H49.8334H37.3333ZM108.167 128.472H120.667H108.167ZM129 128.472H133.167H129ZM20.6667 129.861H24.8333H20.6667ZM41.5 129.861H45.6667H41.5ZM112.333 129.861H116.5H112.333ZM129 129.861H133.167H129ZM20.6667 131.25H24.8333H20.6667ZM41.5 131.25H45.6667H41.5ZM112.333 131.25H116.5H112.333ZM129 131.25H133.167H129ZM20.6667 132.639H24.8333H20.6667ZM41.5 132.639H45.6667H41.5ZM112.333 132.639H116.5H112.333ZM129 132.639H133.167H129ZM20.6667 134.028H24.8333H20.6667ZM45.6667 134.028H66.5H45.6667ZM99.8334 134.028H112.333H99.8334ZM129 134.028H133.167H129ZM20.6667 135.417H24.8333H20.6667ZM45.6667 135.417H66.5H45.6667ZM99.8334 135.417H112.333H99.8334ZM129 135.417H133.167H129ZM20.6667 136.805H24.8333H20.6667ZM45.6667 136.805H66.5H45.6667ZM99.8334 136.805H112.333H99.8334ZM129 136.805H133.167H129ZM24.8333 138.194H29H24.8333ZM62.3334 138.194H66.5H62.3334ZM99.8334 138.194H104H99.8334ZM124.833 138.194H129H124.833ZM24.8333 139.583H29H24.8333ZM62.3334 139.583H66.5H62.3334ZM99.8334 139.583H104H99.8334ZM124.833 139.583H129H124.833ZM24.8333 140.972H29H24.8333ZM62.3334 140.972H66.5H62.3334ZM99.8334 140.972H104H99.8334ZM124.833 140.972H129H124.833ZM29 142.361H70.6667H29ZM83.1667 142.361H91.5H83.1667ZM99.8334 142.361H124.833H99.8334ZM29 143.75H70.6667H29ZM83.1667 143.75H91.5H83.1667ZM99.8334 143.75H124.833H99.8334ZM29 145.139H70.6667H29ZM83.1667 145.139H91.5H83.1667ZM99.8334 145.139H124.833H99.8334ZM62.3334 146.528H66.5H62.3334ZM70.6667 146.528H74.8334H70.6667ZM83.1667 146.528H104H83.1667ZM62.3334 147.917H66.5H62.3334ZM70.6667 147.917H74.8334H70.6667ZM83.1667 147.917H104H83.1667ZM62.3334 149.305H66.5H62.3334ZM70.6667 149.305H74.8334H70.6667ZM83.1667 149.305H104H83.1667ZM58.1667 150.694H62.3334H58.1667ZM74.8334 150.694H79H74.8334ZM83.1667 150.694H91.5H83.1667ZM99.8334 150.694H104H99.8334ZM58.1667 152.083H62.3334H58.1667ZM74.8334 152.083H79H74.8334ZM83.1667 152.083H91.5H83.1667ZM99.8334 152.083H104H99.8334ZM58.1667 153.472H62.3334H58.1667ZM74.8334 153.472H79H74.8334ZM83.1667 153.472H91.5H83.1667ZM99.8334 153.472H104H99.8334ZM54 154.861H58.1667H54ZM66.5 154.861H70.6667H66.5ZM79 154.861H104H79ZM54 156.25H58.1667H54ZM66.5 156.25H70.6667H66.5ZM79 156.25H104H79ZM54 157.639H58.1667H54ZM66.5 157.639H70.6667H66.5ZM79 157.639H104H79ZM49.8334 159.028H58.1667H49.8334ZM62.3334 159.028H66.5H62.3334ZM70.6667 159.028H74.8334H70.6667ZM87.3334 159.028H99.8334H87.3334ZM49.8334 160.417H58.1667H49.8334ZM62.3334 160.417H66.5H62.3334ZM70.6667 160.417H74.8334H70.6667ZM87.3334 160.417H99.8334H87.3334ZM49.8334 161.805H58.1667H49.8334ZM62.3334 161.805H66.5H62.3334ZM70.6667 161.805H74.8334H70.6667ZM87.3334 161.805H99.8334H87.3334ZM45.6667 163.194H49.8334H45.6667ZM54 163.194H58.1667H54ZM62.3334 163.194H66.5H62.3334ZM74.8334 163.194H79H74.8334ZM91.5 163.194H95.6667H91.5ZM45.6667 164.583H49.8334H45.6667ZM54 164.583H58.1667H54ZM62.3334 164.583H66.5H62.3334ZM74.8334 164.583H79H74.8334ZM91.5 164.583H95.6667H91.5ZM45.6667 165.972H49.8334H45.6667ZM54 165.972H58.1667H54ZM62.3334 165.972H66.5H62.3334ZM74.8334 165.972H79H74.8334ZM91.5 165.972H95.6667H91.5ZM45.6667 167.361H49.8334H45.6667ZM54 167.361H58.1667H54ZM66.5 167.361H70.6667H66.5ZM79 167.361H112.333H79ZM45.6667 168.75H49.8334H45.6667ZM54 168.75H58.1667H54ZM66.5 168.75H70.6667H66.5ZM79 168.75H112.333H79ZM45.6667 170.139H49.8334H45.6667ZM54 170.139H58.1667H54ZM66.5 170.139H70.6667H66.5ZM79 170.139H112.333H79ZM24.8333 171.528H41.5H24.8333ZM45.6667 171.528H49.8334H45.6667ZM58.1667 171.528H62.3334H58.1667ZM70.6667 171.528H74.8334H70.6667ZM112.333 171.528H116.5H112.333ZM24.8333 172.917H41.5H24.8333ZM45.6667 172.917H49.8334H45.6667ZM58.1667 172.917H62.3334H58.1667ZM70.6667 172.917H74.8334H70.6667ZM112.333 172.917H116.5H112.333ZM24.8333 174.305H41.5H24.8333ZM45.6667 174.305H49.8334H45.6667ZM58.1667 174.305H62.3334H58.1667ZM70.6667 174.305H74.8334H70.6667ZM112.333 174.305H116.5H112.333ZM20.6667 175.694H24.8333H20.6667ZM41.5 175.694H45.6667H41.5ZM49.8334 175.694H54H49.8334ZM58.1667 175.694H62.3334H58.1667ZM74.8334 175.694H108.167H74.8334ZM116.5 175.694H120.667H116.5ZM20.6667 177.083H24.8333H20.6667ZM41.5 177.083H45.6667H41.5ZM49.8334 177.083H54H49.8334ZM58.1667 177.083H62.3334H58.1667ZM74.8334 177.083H108.167H74.8334ZM116.5 177.083H120.667H116.5ZM20.6667 178.472H24.8333H20.6667ZM41.5 178.472H45.6667H41.5ZM49.8334 178.472H54H49.8334ZM58.1667 178.472H62.3334H58.1667ZM74.8334 178.472H108.167H74.8334ZM116.5 178.472H120.667H116.5ZM16.5 179.861H20.6667H16.5ZM45.6667 179.861H62.3334H45.6667ZM91.5 179.861H95.6667H91.5ZM104 179.861H112.333H104ZM120.667 179.861H124.833H120.667ZM16.5 181.25H20.6667H16.5ZM45.6667 181.25H62.3334H45.6667ZM91.5 181.25H95.6667H91.5ZM104 181.25H112.333H104ZM120.667 181.25H124.833H120.667ZM16.5 182.639H20.6667H16.5ZM45.6667 182.639H62.3334H45.6667ZM91.5 182.639H95.6667H91.5ZM104 182.639H112.333H104ZM120.667 182.639H124.833H120.667ZM12.3333 184.028H16.5H12.3333ZM62.3334 184.028H66.5H62.3334ZM91.5 184.028H95.6667H91.5ZM104 184.028H108.167H104ZM112.333 184.028H116.5H112.333ZM120.667 184.028H124.833H120.667ZM12.3333 185.417H16.5H12.3333ZM62.3334 185.417H66.5H62.3334ZM91.5 185.417H95.6667H91.5ZM104 185.417H108.167H104ZM112.333 185.417H116.5H112.333ZM120.667 185.417H124.833H120.667ZM12.3333 186.805H16.5H12.3333ZM62.3334 186.805H66.5H62.3334ZM91.5 186.805H95.6667H91.5ZM104 186.805H108.167H104ZM112.333 186.805H116.5H112.333ZM120.667 186.805H124.833H120.667ZM8.16667 188.194H12.3333H8.16667ZM41.5 188.194H62.3334H41.5ZM87.3334 188.194H91.5H87.3334ZM99.8334 188.194H104H99.8334ZM108.167 188.194H112.333H108.167ZM120.667 188.194H124.833H120.667ZM8.16667 189.583H12.3333H8.16667ZM41.5 189.583H62.3334H41.5ZM87.3334 189.583H91.5H87.3334ZM99.8334 189.583H104H99.8334ZM108.167 189.583H112.333H108.167ZM120.667 189.583H124.833H120.667ZM8.16667 190.972H12.3333H8.16667ZM41.5 190.972H62.3334H41.5ZM87.3334 190.972H91.5H87.3334ZM99.8334 190.972H104H99.8334ZM108.167 190.972H112.333H108.167ZM120.667 190.972H124.833H120.667ZM8.16667 192.361H12.3333H8.16667ZM29 192.361H33.1667H29ZM37.3333 192.361H41.5H37.3333ZM49.8334 192.361H54H49.8334ZM58.1667 192.361H62.3334H58.1667ZM70.6667 192.361H79H70.6667ZM87.3334 192.361H91.5H87.3334ZM99.8334 192.361H112.333H99.8334ZM116.5 192.361H120.667H116.5ZM8.16667 193.75H12.3333H8.16667ZM29 193.75H33.1667H29ZM37.3333 193.75H41.5H37.3333ZM49.8334 193.75H54H49.8334ZM58.1667 193.75H62.3334H58.1667ZM70.6667 193.75H79H70.6667ZM87.3334 193.75H91.5H87.3334ZM99.8334 193.75H112.333H99.8334ZM116.5 193.75H120.667H116.5ZM8.16667 195.139H12.3333H8.16667ZM29 195.139H33.1667H29ZM37.3333 195.139H41.5H37.3333ZM49.8334 195.139H54H49.8334ZM58.1667 195.139H62.3334H58.1667ZM70.6667 195.139H79H70.6667ZM87.3334 195.139H91.5H87.3334ZM99.8334 195.139H112.333H99.8334ZM116.5 195.139H120.667H116.5ZM4 196.528H8.16667H4ZM16.5 196.528H20.6667H16.5ZM24.8333 196.528H29H24.8333ZM33.1667 196.528H37.3333H33.1667ZM49.8334 196.528H62.3334H49.8334ZM66.5 196.528H70.6667H66.5ZM79 196.528H83.1667H79ZM87.3334 196.528H91.5H87.3334ZM104 196.528H108.167H104ZM112.333 196.528H116.5H112.333ZM4 197.917H8.16667H4ZM16.5 197.917H20.6667H16.5ZM24.8333 197.917H29H24.8333ZM33.1667 197.917H37.3333H33.1667ZM49.8334 197.917H62.3334H49.8334ZM66.5 197.917H70.6667H66.5ZM79 197.917H83.1667H79ZM87.3334 197.917H91.5H87.3334ZM104 197.917H108.167H104ZM112.333 197.917H116.5H112.333ZM4 199.305H8.16667H4ZM16.5 199.305H20.6667H16.5ZM24.8333 199.305H29H24.8333ZM33.1667 199.305H37.3333H33.1667ZM49.8334 199.305H62.3334H49.8334ZM66.5 199.305H70.6667H66.5ZM79 199.305H83.1667H79ZM87.3334 199.305H91.5H87.3334ZM104 199.305H108.167H104ZM112.333 199.305H116.5H112.333ZM4 200.694H16.5H4ZM20.6667 200.694H24.8333H20.6667ZM29 200.694H33.1667H29ZM54 200.694H58.1667H54ZM62.3334 200.694H66.5H62.3334ZM83.1667 200.694H87.3334H83.1667ZM91.5 200.694H95.6667H91.5ZM104 200.694H112.333H104ZM4 202.083H16.5H4ZM20.6667 202.083H24.8333H20.6667ZM29 202.083H33.1667H29ZM54 202.083H58.1667H54ZM62.3334 202.083H66.5H62.3334ZM83.1667 202.083H87.3334H83.1667ZM91.5 202.083H95.6667H91.5ZM104 202.083H112.333H104ZM4 203.472H16.5H4ZM20.6667 203.472H24.8333H20.6667ZM29 203.472H33.1667H29ZM54 203.472H58.1667H54ZM62.3334 203.472H66.5H62.3334ZM83.1667 203.472H87.3334H83.1667ZM91.5 203.472H95.6667H91.5ZM104 203.472H112.333H104ZM4 204.861H8.16667H4ZM12.3333 204.861H20.6667H12.3333ZM49.8334 204.861H54H49.8334ZM58.1667 204.861H62.3334H58.1667ZM83.1667 204.861H87.3334H83.1667ZM91.5 204.861H95.6667H91.5ZM4 206.25H8.16667H4ZM12.3333 206.25H20.6667H12.3333ZM49.8334 206.25H54H49.8334ZM58.1667 206.25H62.3334H58.1667ZM83.1667 206.25H87.3334H83.1667ZM91.5 206.25H95.6667H91.5ZM4 207.639H8.16667H4ZM12.3333 207.639H20.6667H12.3333ZM49.8334 207.639H54H49.8334ZM58.1667 207.639H62.3334H58.1667ZM83.1667 207.639H87.3334H83.1667ZM91.5 207.639H95.6667H91.5ZM12.3333 209.028H16.5H12.3333ZM45.6667 209.028H49.8334H45.6667ZM54 209.028H58.1667H54ZM70.6667 209.028H87.3334H70.6667ZM91.5 209.028H95.6667H91.5ZM116.5 209.028H137.333H116.5ZM12.3333 210.417H16.5H12.3333ZM45.6667 210.417H49.8334H45.6667ZM54 210.417H58.1667H54ZM70.6667 210.417H87.3334H70.6667ZM91.5 210.417H95.6667H91.5ZM116.5 210.417H137.333H116.5ZM12.3333 211.805H16.5H12.3333ZM45.6667 211.805H49.8334H45.6667ZM54 211.805H58.1667H54ZM70.6667 211.805H87.3334H70.6667ZM91.5 211.805H95.6667H91.5ZM116.5 211.805H137.333H116.5ZM45.6667 213.194H49.8334H45.6667ZM54 213.194H58.1667H54ZM66.5 213.194H70.6667H66.5ZM83.1667 213.194H87.3334H83.1667ZM91.5 213.194H95.6667H91.5ZM112.333 213.194H116.5H112.333ZM137.333 213.194H141.5H137.333ZM45.6667 214.583H49.8334H45.6667ZM54 214.583H58.1667H54ZM66.5 214.583H70.6667H66.5ZM83.1667 214.583H87.3334H83.1667ZM91.5 214.583H95.6667H91.5ZM112.333 214.583H116.5H112.333ZM137.333 214.583H141.5H137.333ZM45.6667 215.972H49.8334H45.6667ZM54 215.972H58.1667H54ZM66.5 215.972H70.6667H66.5ZM83.1667 215.972H87.3334H83.1667ZM91.5 215.972H95.6667H91.5ZM112.333 215.972H116.5H112.333ZM137.333 215.972H141.5H137.333ZM58.1667 217.361H66.5H58.1667ZM83.1667 217.361H87.3334H83.1667ZM95.6667 217.361H112.333H95.6667ZM129 217.361H133.167H129ZM141.5 217.361H145.667H141.5ZM58.1667 218.75H66.5H58.1667ZM83.1667 218.75H87.3334H83.1667ZM95.6667 218.75H112.333H95.6667ZM129 218.75H133.167H129ZM141.5 218.75H145.667H141.5ZM58.1667 220.139H66.5H58.1667ZM83.1667 220.139H87.3334H83.1667ZM95.6667 220.139H112.333H95.6667ZM129 220.139H133.167H129ZM141.5 220.139H145.667H141.5ZM83.1667 221.528H87.3334H83.1667ZM133.167 221.528H137.333H133.167ZM145.667 221.528H149.833H145.667ZM83.1667 222.917H87.3334H83.1667ZM133.167 222.917H137.333H133.167ZM145.667 222.917H149.833H145.667ZM83.1667 224.305H87.3334H83.1667ZM133.167 224.305H137.333H133.167ZM145.667 224.305H149.833H145.667ZM49.8334 225.694H66.5H49.8334ZM70.6667 225.694H87.3334H70.6667ZM91.5 225.694H112.333H91.5ZM116.5 225.694H149.833H116.5ZM49.8334 227.083H66.5H49.8334ZM70.6667 227.083H87.3334H70.6667ZM91.5 227.083H112.333H91.5ZM116.5 227.083H149.833H116.5ZM49.8334 228.472H66.5H49.8334ZM70.6667 228.472H87.3334H70.6667ZM91.5 228.472H112.333H91.5ZM116.5 228.472H149.833H116.5Z" fill="black"/>
<path fill-rule="evenodd" clip-rule="evenodd" d="M74.8334 0V20.8333H70.6667V12.5H66.5V8.33334H70.6667V4.16667H66.5V0H74.8334ZM62.3334 8.33334H66.5V4.16667H62.3334V8.33334ZM62.3334 12.5V8.33334H58.1667V12.5H54V16.6667H49.8334V25H45.6667V33.3334H41.5V37.5H37.3333V58.3334H41.5V66.6667H45.6667V70.8334H49.8334V79.1667H45.6667V108.333H37.3333V112.5H29V116.667H24.8333V120.833H20.6667V137.5H24.8333V141.667H29V145.833H62.3334V150H58.1667V154.167H54V158.333H49.8334V162.5H45.6667V175H41.5V170.833H24.8333V175H20.6667V179.167H16.5V183.333H12.3333V187.5H8.16667V195.833H4V208.333H8.16667V204.167H12.3333V212.5H16.5V208.333H20.6667V204.167H24.8333V200H29V204.167H33.1667V200H37.3333V195.833H41.5V191.667H49.8334V200H54V204.167H49.8334V208.333H45.6667V216.667H49.8334V208.333H54V216.667H58.1667V220.833H66.5V216.667H70.6667V212.5H83.1667V225H70.6667V229.167H87.3334V200H91.5V216.667H95.6667V220.833H112.333V216.667H116.5V212.5H137.333V216.667H141.5V220.833H145.667V225H137.333V220.833H133.167V216.667H129V220.833H133.167V225H116.5V229.167H149.833V220.833H145.667V216.667H141.5V212.5H137.333V208.333H116.5V212.5H112.333V216.667H95.6667V200H91.5V187.5H95.6667V179.167H104V187.5H99.8334V195.833H104V204.167H112.333V200H116.5V195.833H120.667V191.667H124.833V179.167H120.667V175H116.5V170.833H112.333V166.667H95.6667V162.5H99.8334V158.333H104V145.833H124.833V141.667H129V137.5H133.167V120.833H129V116.667H124.833V112.5H116.5V108.333H108.167V79.1667H104V70.8334H108.167V66.6667H112.333V62.5H116.5V58.3334H112.333V54.1667H116.5V50H112.333V41.6667H116.5V29.1667H120.667V8.33334H112.333V12.5H108.167V16.6667H104V20.8333H99.8334V25H95.6667V33.3334H91.5V41.6667H87.3334V45.8334H83.1667V58.3334H79V54.1667H74.8334V58.3334H66.5V54.1667H70.6667V50H66.5V45.8334H70.6667V41.6667H66.5V33.3334H70.6667V20.8333H66.5V33.3334H62.3334V41.6667H66.5V45.8334H62.3334V50H66.5V54.1667H62.3334V62.5H54V58.3334H49.8334V41.6667H54V33.3334H58.1667V25H62.3334V16.6667H66.5V12.5H62.3334ZM58.1667 16.6667V12.5H62.3334V16.6667H58.1667ZM58.1667 16.6667H54V25H49.8334V33.3334H45.6667V37.5H41.5V58.3334H45.6667V66.6667H49.8334V70.8334H54V79.1667H49.8334V91.6667H54V95.8334H58.1667V104.167H54V108.333H58.1667V112.5H62.3334V108.333H70.6667V116.667H83.1667V108.333H91.5V116.667H99.8334V120.833H66.5V116.667H54V112.5H37.3333V116.667H29V120.833H24.8333V137.5H29V141.667H62.3334V137.5H45.6667V133.333H66.5V141.667H70.6667V145.833H66.5V150H62.3334V154.167H58.1667V170.833H54V162.5H49.8334V175H45.6667V179.167H41.5V175H24.8333V179.167H20.6667V183.333H16.5V187.5H12.3333V195.833H8.16667V200H16.5V204.167H20.6667V200H24.8333V195.833H29V200H33.1667V195.833H37.3333V191.667H41.5V187.5H62.3334V200H58.1667V204.167H54V208.333H58.1667V216.667H66.5V212.5H70.6667V208.333H83.1667V200H87.3334V187.5H91.5V179.167H74.8334V175H108.167V179.167H112.333V183.333H108.167V187.5H104V191.667H108.167V187.5H112.333V195.833H108.167V200H112.333V195.833H116.5V191.667H120.667V179.167H116.5V175H112.333V170.833H79V166.667H91.5V162.5H87.3334V158.333H79V154.167H83.1667V141.667H91.5V145.833H99.8334V133.333H112.333V137.5H104V141.667H124.833V137.5H129V120.833H124.833V116.667H116.5V112.5H104V91.6667H99.8334V87.5H104V79.1667H95.6667V75H99.8334V70.8334H104V66.6667H108.167V62.5H112.333V58.3334H108.167V54.1667H112.333V50H108.167V41.6667H112.333V29.1667H116.5V20.8333H112.333V16.6667H116.5V12.5H112.333V16.6667H108.167V20.8333H104V25H99.8334V33.3334H95.6667V41.6667H91.5V45.8334H87.3334V62.5H91.5V50H95.6667V66.6667H91.5V70.8334H87.3334V66.6667H83.1667V62.5H79V66.6667H70.6667V62.5H66.5V70.8334H62.3334V66.6667H58.1667V70.8334H54V62.5H49.8334V58.3334H45.6667V41.6667H49.8334V33.3334H54V25H58.1667V16.6667ZM99.8334 41.6667V33.3334H104V41.6667H99.8334ZM108.167 25V20.8333H112.333V25H108.167ZM99.8334 41.6667H95.6667V50H99.8334V41.6667ZM95.6667 66.6667V70.8334H99.8334V66.6667H95.6667ZM104 33.3334V25H108.167V33.3334H104ZM66.5 79.1667V75H58.1667V79.1667H66.5ZM62.3334 87.5H58.1667V95.8334H62.3334V87.5ZM99.8334 87.5V83.3334H95.6667V79.1667H87.3334V83.3334H83.1667V87.5H79V83.3334H74.8334V79.1667H66.5V83.3334H62.3334V87.5H70.6667V91.6667H74.8334V95.8334H79V104.167H87.3334V95.8334H91.5V87.5H99.8334ZM112.333 133.333H116.5V129.167H120.667V125H108.167V129.167H112.333V133.333ZM74.8334 150H79V154.167H74.8334V150ZM74.8334 150V145.833H70.6667V150H74.8334ZM74.8334 162.5H79V166.667H74.8334V162.5ZM70.6667 158.333H74.8334V162.5H70.6667V158.333ZM66.5 158.333V154.167H70.6667V158.333H66.5ZM66.5 158.333H62.3334V166.667H66.5V170.833H70.6667V175H74.8334V170.833H70.6667V166.667H66.5V158.333ZM112.333 187.5V183.333H116.5V187.5H112.333ZM79 195.833H83.1667V200H79V195.833ZM70.6667 195.833V191.667H79V195.833H70.6667ZM70.6667 195.833H66.5V200H62.3334V204.167H58.1667V208.333H62.3334V204.167H66.5V200H70.6667V195.833ZM62.3334 183.333H66.5V187.5H62.3334V183.333ZM62.3334 183.333V170.833H58.1667V179.167H54V175H49.8334V179.167H45.6667V183.333H62.3334ZM33.1667 195.833H29V191.667H33.1667V195.833ZM20.6667 200H16.5V195.833H20.6667V200ZM104 112.5V116.667H99.8334V112.5H104ZM45.6667 133.333V129.167H49.8334V125H37.3333V129.167H41.5V133.333H45.6667ZM91.5 150V154.167H99.8334V150H91.5ZM58.1667 191.667H54V195.833H58.1667V191.667ZM66.5 225V229.167H49.8334V225H66.5ZM112.333 225V229.167H91.5V225H112.333Z" fill="#341C27"/>
<path d="M66.4999 4.86108H70.6665H66.4999ZM66.4999 6.24997H70.6665H66.4999ZM66.4999 7.63886H70.6665H66.4999ZM62.3332 9.02775H66.4999H62.3332ZM62.3332 10.4166H66.4999H62.3332ZM62.3332 11.8055H66.4999H62.3332ZM58.1665 13.1944H62.3332H58.1665ZM112.333 13.1944H116.5H112.333ZM58.1665 14.5833H62.3332H58.1665ZM112.333 14.5833H116.5H112.333ZM58.1665 15.9722H62.3332H58.1665ZM112.333 15.9722H116.5H112.333ZM53.9999 17.3611H58.1665H53.9999ZM108.167 17.3611H112.333H108.167ZM53.9999 18.75H58.1665H53.9999ZM108.167 18.75H112.333H108.167ZM53.9999 20.1389H58.1665H53.9999ZM108.167 20.1389H112.333H108.167ZM53.9999 21.5278H58.1665H53.9999ZM104 21.5278H108.167H104ZM53.9999 22.9166H58.1665H53.9999ZM104 22.9166H108.167H104ZM53.9999 24.3055H58.1665H53.9999ZM104 24.3055H108.167H104ZM49.8332 25.6944H53.9999H49.8332ZM99.8332 25.6944H104H99.8332ZM49.8332 27.0833H53.9999H49.8332ZM99.8332 27.0833H104H99.8332ZM49.8332 28.4722H53.9999H49.8332ZM99.8332 28.4722H104H99.8332ZM49.8332 29.8611H53.9999H49.8332ZM99.8332 29.8611H104H99.8332ZM49.8332 31.25H53.9999H49.8332ZM99.8332 31.25H104H99.8332ZM49.8332 32.6389H53.9999H49.8332ZM99.8332 32.6389H104H99.8332ZM45.6665 34.0278H49.8332H45.6665ZM95.6665 34.0278H99.8332H95.6665ZM45.6665 35.4167H49.8332H45.6665ZM95.6665 35.4167H99.8332H95.6665ZM45.6665 36.8055H49.8332H45.6665ZM95.6665 36.8055H99.8332H95.6665ZM41.4999 38.1944H49.8332H41.4999ZM95.6665 38.1944H99.8332H95.6665ZM41.4999 39.5833H49.8332H41.4999ZM95.6665 39.5833H99.8332H95.6665ZM41.4999 40.9722H49.8332H41.4999ZM95.6665 40.9722H99.8332H95.6665ZM41.4999 42.3611H45.6665H41.4999ZM91.4999 42.3611H95.6665H91.4999ZM41.4999 43.75H45.6665H41.4999ZM91.4999 43.75H95.6665H91.4999ZM41.4999 45.1389H45.6665H41.4999ZM91.4999 45.1389H95.6665H91.4999ZM41.4999 46.5278H45.6665H41.4999ZM87.3332 46.5278H95.6665H87.3332ZM41.4999 47.9167H45.6665H41.4999ZM87.3332 47.9167H95.6665H87.3332ZM41.4999 49.3055H45.6665H41.4999ZM87.3332 49.3055H95.6665H87.3332ZM41.4999 50.6944H45.6665H41.4999ZM87.3332 50.6944H91.4999H87.3332ZM41.4999 52.0833H45.6665H41.4999ZM87.3332 52.0833H91.4999H87.3332ZM41.4999 53.4722H45.6665H41.4999ZM87.3332 53.4722H91.4999H87.3332ZM41.4999 54.8611H45.6665H41.4999ZM87.3332 54.8611H91.4999H87.3332ZM41.4999 56.25H45.6665H41.4999ZM87.3332 56.25H91.4999H87.3332ZM41.4999 57.6389H45.6665H41.4999ZM87.3332 57.6389H91.4999H87.3332ZM45.6665 59.0278H49.8332H45.6665ZM87.3332 59.0278H91.4999H87.3332ZM45.6665 60.4167H49.8332H45.6665ZM87.3332 60.4167H91.4999H87.3332ZM45.6665 61.8055H49.8332H45.6665ZM87.3332 61.8055H91.4999H87.3332ZM45.6665 63.1944H53.9999H45.6665ZM66.4999 63.1944H70.6665H66.4999ZM78.9999 63.1944H83.1665H78.9999ZM45.6665 64.5833H53.9999H45.6665ZM66.4999 64.5833H70.6665H66.4999ZM78.9999 64.5833H83.1665H78.9999ZM45.6665 65.9722H53.9999H45.6665ZM66.4999 65.9722H70.6665H66.4999ZM78.9999 65.9722H83.1665H78.9999ZM49.8332 67.3611H53.9999H49.8332ZM58.1665 67.3611H62.3332H58.1665ZM66.4999 67.3611H74.8332H66.4999ZM78.9999 67.3611H87.3332H78.9999ZM91.4999 67.3611H95.6665H91.4999ZM49.8332 68.75H53.9999H49.8332ZM58.1665 68.75H62.3332H58.1665ZM66.4999 68.75H74.8332H66.4999ZM78.9999 68.75H87.3332H78.9999ZM91.4999 68.75H95.6665H91.4999ZM49.8332 70.1389H53.9999H49.8332ZM58.1665 70.1389H62.3332H58.1665ZM66.4999 70.1389H74.8332H66.4999ZM78.9999 70.1389H87.3332H78.9999ZM91.4999 70.1389H95.6665H91.4999ZM53.9999 71.5278H99.8332H53.9999ZM53.9999 72.9167H99.8332H53.9999ZM53.9999 74.3056H99.8332H53.9999ZM53.9999 75.6944H58.1665H53.9999ZM66.4999 75.6944H95.6665H66.4999ZM53.9999 77.0833H58.1665H53.9999ZM66.4999 77.0833H95.6665H66.4999ZM53.9999 78.4722H58.1665H53.9999ZM66.4999 78.4722H95.6665H66.4999ZM49.8332 79.8611H66.4999H49.8332ZM74.8332 79.8611H87.3332H74.8332ZM95.6665 79.8611H104H95.6665ZM49.8332 81.25H66.4999H49.8332ZM74.8332 81.25H87.3332H74.8332ZM95.6665 81.25H104H95.6665ZM49.8332 82.6389H66.4999H49.8332ZM74.8332 82.6389H87.3332H74.8332ZM95.6665 82.6389H104H95.6665ZM49.8332 84.0278H62.3332H49.8332ZM78.9999 84.0278H83.1665H78.9999ZM99.8332 84.0278H104H99.8332ZM49.8332 85.4167H62.3332H49.8332ZM78.9999 85.4167H83.1665H78.9999ZM99.8332 85.4167H104H99.8332ZM49.8332 86.8056H62.3332H49.8332ZM78.9999 86.8056H83.1665H78.9999ZM99.8332 86.8056H104H99.8332ZM49.8332 88.1945H58.1665H49.8332ZM49.8332 89.5833H58.1665H49.8332ZM49.8332 90.9722H58.1665H49.8332ZM53.9999 92.3611H58.1665H53.9999ZM53.9999 93.75H58.1665H53.9999ZM53.9999 95.1389H58.1665H53.9999ZM66.4999 146.528H70.6665H66.4999ZM66.4999 147.917H70.6665H66.4999ZM66.4999 149.306H70.6665H66.4999ZM62.3332 150.694H74.8332H62.3332ZM62.3332 152.083H74.8332H62.3332ZM62.3332 153.472H74.8332H62.3332ZM58.1665 154.861H66.4999H58.1665ZM70.6665 154.861H78.9999H70.6665ZM58.1665 156.25H66.4999H58.1665ZM70.6665 156.25H78.9999H70.6665ZM58.1665 157.639H66.4999H58.1665ZM70.6665 157.639H78.9999H70.6665ZM58.1665 159.028H62.3332H58.1665ZM66.4999 159.028H70.6665H66.4999ZM74.8332 159.028H78.9999H74.8332ZM58.1665 160.417H62.3332H58.1665ZM66.4999 160.417H70.6665H66.4999ZM74.8332 160.417H78.9999H74.8332ZM58.1665 161.806H62.3332H58.1665ZM66.4999 161.806H70.6665H66.4999ZM74.8332 161.806H78.9999H74.8332ZM49.8332 163.194H53.9999H49.8332ZM58.1665 163.194H62.3332H58.1665ZM66.4999 163.194H74.8332H66.4999ZM49.8332 164.583H53.9999H49.8332ZM58.1665 164.583H62.3332H58.1665ZM66.4999 164.583H74.8332H66.4999ZM49.8332 165.972H53.9999H49.8332ZM58.1665 165.972H62.3332H58.1665ZM66.4999 165.972H74.8332H66.4999ZM49.8332 167.361H53.9999H49.8332ZM58.1665 167.361H66.4999H58.1665ZM70.6665 167.361H78.9999H70.6665ZM49.8332 168.75H53.9999H49.8332ZM58.1665 168.75H66.4999H58.1665ZM70.6665 168.75H78.9999H70.6665ZM49.8332 170.139H53.9999H49.8332ZM58.1665 170.139H66.4999H58.1665ZM70.6665 170.139H78.9999H70.6665ZM49.8332 171.528H58.1665H49.8332ZM62.3332 171.528H70.6665H62.3332ZM74.8332 171.528H112.333H74.8332ZM49.8332 172.917H58.1665H49.8332ZM62.3332 172.917H70.6665H62.3332ZM74.8332 172.917H112.333H74.8332ZM49.8332 174.306H58.1665H49.8332ZM62.3332 174.306H70.6665H62.3332ZM74.8332 174.306H112.333H74.8332ZM24.8332 175.694H41.4999H24.8332ZM53.9999 175.694H58.1665H53.9999ZM62.3332 175.694H74.8332H62.3332ZM108.167 175.694H116.5H108.167ZM24.8332 177.083H41.4999H24.8332ZM53.9999 177.083H58.1665H53.9999ZM62.3332 177.083H74.8332H62.3332ZM108.167 177.083H116.5H108.167ZM24.8332 178.472H41.4999H24.8332ZM53.9999 178.472H58.1665H53.9999ZM62.3332 178.472H74.8332H62.3332ZM108.167 178.472H116.5H108.167ZM20.6665 179.861H45.6665H20.6665ZM62.3332 179.861H83.1665H62.3332ZM112.333 179.861H120.667H112.333ZM20.6665 181.25H45.6665H20.6665ZM62.3332 181.25H83.1665H62.3332ZM112.333 181.25H120.667H112.333ZM20.6665 182.639H45.6665H20.6665ZM62.3332 182.639H83.1665H62.3332ZM112.333 182.639H120.667H112.333ZM16.4998 184.028H62.3332H16.4998ZM66.4999 184.028H87.3332H66.4999ZM108.167 184.028H112.333H108.167ZM116.5 184.028H120.667H116.5ZM16.4998 185.417H62.3332H16.4998ZM66.4999 185.417H87.3332H66.4999ZM108.167 185.417H112.333H108.167ZM116.5 185.417H120.667H116.5ZM16.4998 186.806H62.3332H16.4998ZM66.4999 186.806H87.3332H66.4999ZM108.167 186.806H112.333H108.167ZM116.5 186.806H120.667H116.5ZM12.3332 188.194H41.4999H12.3332ZM62.3332 188.194H87.3332H62.3332ZM104 188.194H108.167H104ZM112.333 188.194H120.667H112.333ZM12.3332 189.583H41.4999H12.3332ZM62.3332 189.583H87.3332H62.3332ZM104 189.583H108.167H104ZM112.333 189.583H120.667H112.333ZM12.3332 190.972H41.4999H12.3332ZM62.3332 190.972H87.3332H62.3332ZM104 190.972H108.167H104ZM112.333 190.972H120.667H112.333ZM12.3332 192.361H28.9998H12.3332ZM33.1665 192.361H37.3332H33.1665ZM53.9999 192.361H58.1665H53.9999ZM62.3332 192.361H70.6665H62.3332ZM78.9999 192.361H87.3332H78.9999ZM112.333 192.361H116.5H112.333ZM12.3332 193.75H28.9998H12.3332ZM33.1665 193.75H37.3332H33.1665ZM53.9999 193.75H58.1665H53.9999ZM62.3332 193.75H70.6665H62.3332ZM78.9999 193.75H87.3332H78.9999ZM112.333 193.75H116.5H112.333ZM12.3332 195.139H28.9998H12.3332ZM33.1665 195.139H37.3332H33.1665ZM53.9999 195.139H58.1665H53.9999ZM62.3332 195.139H70.6665H62.3332ZM78.9999 195.139H87.3332H78.9999ZM112.333 195.139H116.5H112.333ZM8.1665 196.528H16.4998H8.1665ZM20.6665 196.528H24.8332H20.6665ZM28.9998 196.528H33.1665H28.9998ZM62.3332 196.528H66.4999H62.3332ZM83.1665 196.528H87.3332H83.1665ZM108.167 196.528H112.333H108.167ZM8.1665 197.917H16.4998H8.1665ZM20.6665 197.917H24.8332H20.6665ZM28.9998 197.917H33.1665H28.9998ZM62.3332 197.917H66.4999H62.3332ZM83.1665 197.917H87.3332H83.1665ZM108.167 197.917H112.333H108.167ZM8.1665 199.306H16.4998H8.1665ZM20.6665 199.306H24.8332H20.6665ZM28.9998 199.306H33.1665H28.9998ZM62.3332 199.306H66.4999H62.3332ZM83.1665 199.306H87.3332H83.1665ZM108.167 199.306H112.333H108.167ZM16.4998 200.694H20.6665H16.4998ZM58.1665 200.694H62.3332H58.1665ZM87.3332 200.694H91.4999H87.3332ZM16.4998 202.083H20.6665H16.4998ZM58.1665 202.083H62.3332H58.1665ZM87.3332 202.083H91.4999H87.3332ZM16.4998 203.472H20.6665H16.4998ZM58.1665 203.472H62.3332H58.1665ZM87.3332 203.472H91.4999H87.3332ZM53.9999 204.861H58.1665H53.9999ZM87.3332 204.861H91.4999H87.3332ZM53.9999 206.25H58.1665H53.9999ZM87.3332 206.25H91.4999H87.3332ZM53.9999 207.639H58.1665H53.9999ZM87.3332 207.639H91.4999H87.3332ZM49.8332 209.028H53.9999H49.8332ZM87.3332 209.028H91.4999H87.3332ZM49.8332 210.417H53.9999H49.8332ZM87.3332 210.417H91.4999H87.3332ZM49.8332 211.806H53.9999H49.8332ZM87.3332 211.806H91.4999H87.3332ZM49.8332 213.195H53.9999H49.8332ZM70.6665 213.195H83.1665H70.6665ZM87.3332 213.195H91.4999H87.3332ZM116.5 213.195H137.333H116.5ZM49.8332 214.583H53.9999H49.8332ZM70.6665 214.583H83.1665H70.6665ZM87.3332 214.583H91.4999H87.3332ZM116.5 214.583H137.333H116.5ZM49.8332 215.972H53.9999H49.8332ZM70.6665 215.972H83.1665H70.6665ZM87.3332 215.972H91.4999H87.3332ZM116.5 215.972H137.333H116.5ZM49.8332 217.361H58.1665H49.8332ZM70.6665 217.361H83.1665H70.6665ZM91.4999 217.361H95.6665H91.4999ZM116.5 217.361H129H116.5ZM133.167 217.361H141.5H133.167ZM49.8332 218.75H58.1665H49.8332ZM70.6665 218.75H83.1665H70.6665ZM91.4999 218.75H95.6665H91.4999ZM116.5 218.75H129H116.5ZM133.167 218.75H141.5H133.167ZM49.8332 220.139H58.1665H49.8332ZM70.6665 220.139H83.1665H70.6665ZM91.4999 220.139H95.6665H91.4999ZM116.5 220.139H129H116.5ZM133.167 220.139H141.5H133.167ZM49.8332 221.528H66.4999H49.8332ZM70.6665 221.528H83.1665H70.6665ZM91.4999 221.528H112.333H91.4999ZM116.5 221.528H133.167H116.5ZM137.333 221.528H145.667H137.333ZM49.8332 222.917H66.4999H49.8332ZM70.6665 222.917H83.1665H70.6665ZM91.4999 222.917H112.333H91.4999ZM116.5 222.917H133.167H116.5ZM137.333 222.917H145.667H137.333ZM49.8332 224.306H66.4999H49.8332ZM70.6665 224.306H83.1665H70.6665ZM91.4999 224.306H112.333H91.4999ZM116.5 224.306H133.167H116.5ZM137.333 224.306H145.667H137.333Z" fill="black"/>
<path fill-rule="evenodd" clip-rule="evenodd" d="M70.6665 4.16687V8.33354H66.4999V4.16687H70.6665ZM62.3332 12.5002V8.33354H66.4999V12.5002H62.3332ZM62.3332 12.5002H58.1665V16.6669H53.9999V25.0002H49.8332V33.3336H45.6665V37.5002H41.4999V58.3336H45.6665V66.6669H49.8332V70.8336H53.9999V79.1669H49.8332V91.6669H53.9999V95.8336H58.1665V87.5002H62.3332V83.3336H66.4999V79.1669H74.8332V83.3336H78.9999V87.5002H83.1665V83.3336H87.3332V79.1669H95.6665V83.3336H99.8332V87.5002H104V79.1669H95.6665V75.0002H99.8332V70.8336H95.6665V66.6669H91.4999V70.8336H87.3332V66.6669H83.1665V62.5002H78.9999V70.8336H74.8332V66.6669H70.6665V62.5002H66.4999V70.8336H62.3332V66.6669H58.1665V70.8336H53.9999V62.5002H49.8332V58.3336H45.6665V41.6669H49.8332V33.3336H53.9999V25.0002H58.1665V16.6669H62.3332V12.5002ZM66.4999 79.1669V75.0002H58.1665V79.1669H66.4999ZM116.5 12.5002V16.6669H112.333V12.5002H116.5ZM108.167 20.8335V16.6669H112.333V20.8335H108.167ZM108.167 20.8335H104V25.0002H99.8332V33.3336H95.6665V41.6669H91.4999V45.8336H87.3332V62.5002H91.4999V50.0002H95.6665V41.6669H99.8332V33.3336H104V25.0002H108.167V20.8335ZM70.6665 145.834V150H74.8332V154.167H78.9999V162.5H74.8332V158.334H70.6665V154.167H66.4999V158.334H62.3332V166.667H66.4999V170.834H70.6665V175H74.8332V179.167H83.1665V183.334H87.3332V200H83.1665V195.834H78.9999V191.667H70.6665V195.834H66.4999V200H62.3332V187.5H66.4999V183.334H62.3332V170.834H58.1665V154.167H62.3332V150H66.4999V145.834H70.6665ZM16.4998 200V204.167H20.6665V200H24.8332V195.834H28.9998V200H33.1665V195.834H37.3332V191.667H41.4999V187.5H62.3332V183.334H45.6665V179.167H41.4999V175H24.8332V179.167H20.6665V183.334H16.4998V187.5H12.3332V195.834H8.1665V200H16.4998ZM33.1665 195.834H28.9998V191.667H33.1665V195.834ZM16.4998 200H20.6665V195.834H16.4998V200ZM58.1665 170.834H53.9999V162.5H49.8332V175H53.9999V179.167H58.1665V170.834ZM58.1665 204.167V200H62.3332V204.167H58.1665ZM58.1665 204.167H53.9999V208.334H49.8332V225H66.4999V220.834H58.1665V216.667H53.9999V208.334H58.1665V204.167ZM91.4999 216.667H87.3332V200H91.4999V216.667ZM91.4999 216.667V225H112.333V220.834H95.6665V216.667H91.4999ZM112.333 183.334H108.167V187.5H104V191.667H108.167V187.5H112.333V195.834H108.167V200H112.333V195.834H116.5V191.667H120.667V179.167H116.5V175H112.333V170.834H78.9999V166.667H74.8332V162.5H70.6665V158.334H66.4999V166.667H70.6665V170.834H74.8332V175H108.167V179.167H112.333V183.334ZM112.333 187.5H116.5V183.334H112.333V187.5ZM58.1665 191.667V195.834H53.9999V191.667H58.1665ZM83.1665 212.5V225H70.6665V212.5H83.1665ZM137.333 212.5V216.667H141.5V220.834H145.667V225H137.333V220.834H133.167V216.667H129V220.834H133.167V225H116.5V212.5H137.333Z" fill="#884B2B"/>
<path d="M66.5002 13.1941H70.6668H66.5002ZM66.5002 14.583H70.6668H66.5002ZM66.5002 15.9719H70.6668H66.5002ZM62.3335 17.3608H70.6668H62.3335ZM62.3335 18.7497H70.6668H62.3335ZM62.3335 20.1385H70.6668H62.3335ZM62.3335 21.5274H66.5002H62.3335ZM112.334 21.5274H116.5H112.334ZM62.3335 22.9163H66.5002H62.3335ZM112.334 22.9163H116.5H112.334ZM62.3335 24.3052H66.5002H62.3335ZM112.334 24.3052H116.5H112.334ZM58.1668 25.6941H66.5002H58.1668ZM108.167 25.6941H116.5H108.167ZM58.1668 27.083H66.5002H58.1668ZM108.167 27.083H116.5H108.167ZM58.1668 28.4719H66.5002H58.1668ZM108.167 28.4719H116.5H108.167ZM58.1668 29.8608H66.5002H58.1668ZM108.167 29.8608H112.334H108.167ZM58.1668 31.2497H66.5002H58.1668ZM108.167 31.2497H112.334H108.167ZM58.1668 32.6385H66.5002H58.1668ZM108.167 32.6385H112.334H108.167ZM54.0002 34.0274H62.3335H54.0002ZM104 34.0274H112.334H104ZM54.0002 35.4163H62.3335H54.0002ZM104 35.4163H112.334H104ZM54.0002 36.8052H62.3335H54.0002ZM104 36.8052H112.334H104ZM54.0002 38.1941H62.3335H54.0002ZM104 38.1941H112.334H104ZM54.0002 39.583H62.3335H54.0002ZM104 39.583H112.334H104ZM54.0002 40.9719H62.3335H54.0002ZM104 40.9719H112.334H104ZM49.8335 42.3608H66.5002H49.8335ZM99.8335 42.3608H108.167H99.8335ZM49.8335 43.7497H66.5002H49.8335ZM99.8335 43.7497H108.167H99.8335ZM49.8335 45.1386H66.5002H49.8335ZM99.8335 45.1386H108.167H99.8335ZM49.8335 46.5274H62.3335H49.8335ZM99.8335 46.5274H108.167H99.8335ZM49.8335 47.9163H62.3335H49.8335ZM99.8335 47.9163H108.167H99.8335ZM49.8335 49.3052H62.3335H49.8335ZM99.8335 49.3052H108.167H99.8335ZM49.8335 50.6941H66.5002H49.8335ZM95.6669 50.6941H112.334H95.6669ZM49.8335 52.083H66.5002H49.8335ZM95.6669 52.083H112.334H95.6669ZM49.8335 53.4719H66.5002H49.8335ZM95.6669 53.4719H112.334H95.6669ZM49.8335 54.8608H62.3335H49.8335ZM95.6669 54.8608H108.167H95.6669ZM49.8335 56.2497H62.3335H49.8335ZM95.6669 56.2497H108.167H95.6669ZM49.8335 57.6386H62.3335H49.8335ZM95.6669 57.6386H108.167H95.6669ZM54.0002 59.0275H62.3335H54.0002ZM95.6669 59.0275H112.334H95.6669ZM54.0002 60.4163H62.3335H54.0002ZM95.6669 60.4163H112.334H95.6669ZM54.0002 61.8052H62.3335H54.0002ZM95.6669 61.8052H112.334H95.6669ZM95.6669 63.1941H108.167H95.6669ZM95.6669 64.583H108.167H95.6669ZM95.6669 65.9719H108.167H95.6669ZM99.8335 67.3608H104H99.8335ZM99.8335 68.7497H104H99.8335ZM99.8335 70.1386H104H99.8335ZM37.3335 113.194H54.0002H37.3335ZM104 113.194H116.5H104ZM37.3335 114.583H54.0002H37.3335ZM104 114.583H116.5H104ZM37.3335 115.972H54.0002H37.3335ZM104 115.972H116.5H104ZM29.0002 117.361H66.5002H29.0002ZM99.8335 117.361H124.834H99.8335ZM29.0002 118.75H66.5002H29.0002ZM99.8335 118.75H124.834H99.8335ZM29.0002 120.139H66.5002H29.0002ZM99.8335 120.139H124.834H99.8335ZM24.8335 121.527H129H24.8335ZM24.8335 122.916H129H24.8335ZM24.8335 124.305H129H24.8335ZM24.8335 125.694H37.3335H24.8335ZM49.8335 125.694H108.167H49.8335ZM120.667 125.694H129H120.667ZM24.8335 127.083H37.3335H24.8335ZM49.8335 127.083H108.167H49.8335ZM120.667 127.083H129H120.667ZM24.8335 128.472H37.3335H24.8335ZM49.8335 128.472H108.167H49.8335ZM120.667 128.472H129H120.667ZM24.8335 129.861H41.5002H24.8335ZM45.6668 129.861H112.334H45.6668ZM116.5 129.861H129H116.5ZM24.8335 131.25H41.5002H24.8335ZM45.6668 131.25H112.334H45.6668ZM116.5 131.25H129H116.5ZM24.8335 132.639H41.5002H24.8335ZM45.6668 132.639H112.334H45.6668ZM116.5 132.639H129H116.5ZM24.8335 134.027H45.6668H24.8335ZM66.5002 134.027H99.8335H66.5002ZM112.334 134.027H129H112.334ZM24.8335 135.416H45.6668H24.8335ZM66.5002 135.416H99.8335H66.5002ZM112.334 135.416H129H112.334ZM24.8335 136.805H45.6668H24.8335ZM66.5002 136.805H99.8335H66.5002ZM112.334 136.805H129H112.334ZM29.0002 138.194H62.3335H29.0002ZM66.5002 138.194H99.8335H66.5002ZM104 138.194H124.834H104ZM29.0002 139.583H62.3335H29.0002ZM66.5002 139.583H99.8335H66.5002ZM104 139.583H124.834H104ZM29.0002 140.972H62.3335H29.0002ZM66.5002 140.972H99.8335H66.5002ZM104 140.972H124.834H104ZM70.6668 142.361H83.1669H70.6668ZM91.5002 142.361H99.8335H91.5002ZM70.6668 143.75H83.1669H70.6668ZM91.5002 143.75H99.8335H91.5002ZM70.6668 145.139H83.1669H70.6668ZM91.5002 145.139H99.8335H91.5002ZM74.8335 146.527H83.1669H74.8335ZM74.8335 147.916H83.1669H74.8335ZM74.8335 149.305H83.1669H74.8335ZM79.0002 150.694H83.1669H79.0002ZM79.0002 152.083H83.1669H79.0002ZM79.0002 153.472H83.1669H79.0002ZM79.0002 159.028H87.3335H79.0002ZM79.0002 160.416H87.3335H79.0002ZM79.0002 161.805H87.3335H79.0002ZM79.0002 163.194H91.5002H79.0002ZM79.0002 164.583H91.5002H79.0002ZM79.0002 165.972H91.5002H79.0002ZM83.1669 179.861H91.5002H83.1669ZM83.1669 181.25H91.5002H83.1669ZM83.1669 182.639H91.5002H83.1669ZM87.3335 184.028H91.5002H87.3335ZM87.3335 185.416H91.5002H87.3335ZM87.3335 186.805H91.5002H87.3335Z" fill="black"/>
<path fill-rule="evenodd" clip-rule="evenodd" d="M70.6668 12.5006V20.8339H66.5002V33.334H62.3335V41.6673H66.5002V45.834H62.3335V50.0006H66.5002V54.1673H62.3335V62.5006H54.0002V58.334H49.8335V41.6673H54.0002V33.334H58.1668V25.0006H62.3335V16.6673H66.5002V12.5006H70.6668ZM116.5 20.8339V29.1673H112.334V41.6673H108.167V50.0006H112.334V54.1673H108.167V58.334H112.334V62.5006H108.167V66.6673H104V70.834H99.8335V66.6673H95.6669V50.0006H99.8335V41.6673H104V33.334H108.167V25.0006H112.334V20.8339H116.5ZM54.0002 112.501V116.667H66.5002V120.834H99.8335V116.667H104V112.501H116.5V116.667H124.834V120.834H129V137.501H124.834V141.667H104V137.501H112.334V133.334H116.5V129.167H120.667V125.001H108.167V129.167H112.334V133.334H99.8335V145.834H91.5002V141.667H83.1669V154.167H79.0002V150.001H74.8335V145.834H70.6668V141.667H66.5002V133.334H45.6668V129.167H49.8335V125.001H37.3335V129.167H41.5002V133.334H45.6668V137.501H62.3335V141.667H29.0002V137.501H24.8335V120.834H29.0002V116.667H37.3335V112.501H54.0002ZM87.3335 158.334V162.501H91.5002V166.667H79.0002V158.334H87.3335ZM91.5002 179.167V187.501H87.3335V183.334H83.1669V179.167H91.5002Z" fill="#D7B594"/>
<path d="M74.833 67.3611H78.9997H74.833ZM74.833 68.75H78.9997H74.833ZM74.833 70.1389H78.9997H74.833Z" fill="black"/>
<path fill-rule="evenodd" clip-rule="evenodd" d="M78.9997 66.6669V70.8335H74.833V66.6669H78.9997Z" fill="#241527"/>
<path d="M62.3333 88.1947H70.6667H62.3333ZM91.5 88.1947H99.8334H91.5ZM62.3333 89.5836H70.6667H62.3333ZM91.5 89.5836H99.8334H91.5ZM62.3333 90.9725H70.6667H62.3333ZM91.5 90.9725H99.8334H91.5ZM62.3333 92.3614H74.8333H62.3333ZM91.5 92.3614H104H91.5ZM62.3333 93.7503H74.8333H62.3333ZM91.5 93.7503H104H91.5ZM62.3333 95.1391H74.8333H62.3333ZM91.5 95.1391H104H91.5ZM58.1667 96.528H79H58.1667ZM87.3334 96.528H104H87.3334ZM58.1667 97.9169H79H58.1667ZM87.3334 97.9169H104H87.3334ZM58.1667 99.3058H79H58.1667ZM87.3334 99.3058H104H87.3334ZM58.1667 100.695H79H58.1667ZM87.3334 100.695H104H87.3334ZM58.1667 102.084H79H58.1667ZM87.3334 102.084H104H87.3334ZM58.1667 103.472H79H58.1667ZM87.3334 103.472H104H87.3334ZM54 104.861H104H54ZM54 106.25H104H54ZM54 107.639H104H54ZM58.1667 109.028H62.3333H58.1667ZM70.6667 109.028H83.1667H70.6667ZM91.5 109.028H104H91.5ZM58.1667 110.417H62.3333H58.1667ZM70.6667 110.417H83.1667H70.6667ZM91.5 110.417H104H91.5ZM58.1667 111.806H62.3333H58.1667ZM70.6667 111.806H83.1667H70.6667ZM91.5 111.806H104H91.5ZM70.6667 113.195H83.1667H70.6667ZM91.5 113.195H99.8334H91.5ZM70.6667 114.584H83.1667H70.6667ZM91.5 114.584H99.8334H91.5ZM70.6667 115.972H83.1667H70.6667ZM91.5 115.972H99.8334H91.5ZM91.5 150.695H99.8334H91.5ZM91.5 152.084H99.8334H91.5ZM91.5 153.473H99.8334H91.5ZM54 238.195H62.3333H54ZM74.8333 238.195H83.1667H74.8333ZM95.6667 238.195H104H95.6667ZM129 238.195H137.333H129ZM54 239.584H62.3333H54ZM74.8333 239.584H83.1667H74.8333ZM95.6667 239.584H104H95.6667ZM129 239.584H137.333H129ZM54 240.973H62.3333H54ZM74.8333 240.973H83.1667H74.8333ZM95.6667 240.973H104H95.6667ZM129 240.973H137.333H129ZM54 242.361H62.3333H54ZM74.8333 242.361H83.1667H74.8333ZM95.6667 242.361H104H95.6667ZM129 242.361H137.333H129ZM54 243.75H62.3333H54ZM74.8333 243.75H83.1667H74.8333ZM95.6667 243.75H104H95.6667ZM129 243.75H137.333H129ZM54 245.139H62.3333H54ZM74.8333 245.139H83.1667H74.8333ZM95.6667 245.139H104H95.6667ZM129 245.139H137.333H129Z" fill="black"/>
<path fill-rule="evenodd" clip-rule="evenodd" d="M70.6667 87.4998V91.6664H74.8333V95.8331H79V104.166H87.3334V95.8331H91.5V87.4998H99.8334V91.6664H104V112.5H99.8334V116.666H91.5V108.333H83.1667V116.666H70.6667V108.333H62.3333V112.5H58.1667V108.333H54V104.166H58.1667V95.8331H62.3333V87.4998H70.6667ZM99.8334 150V154.166H91.5V150H99.8334ZM62.3333 237.5V245.833H54V237.5H62.3333ZM83.1667 237.5V245.833H74.8333V237.5H83.1667ZM104 237.5V245.833H95.6667V237.5H104ZM137.333 237.5V245.833H129V237.5H137.333Z" fill="#EBEDE9"/>
<path d="M45.6665 217.361H49.8332H45.6665ZM87.3332 217.361H91.4999H87.3332ZM45.6665 218.75H49.8332H45.6665ZM87.3332 218.75H91.4999H87.3332ZM45.6665 220.139H49.8332H45.6665ZM87.3332 220.139H91.4999H87.3332ZM45.6665 221.528H49.8332H45.6665ZM87.3332 221.528H91.4999H87.3332ZM45.6665 222.917H49.8332H45.6665ZM87.3332 222.917H91.4999H87.3332ZM45.6665 224.305H49.8332H45.6665ZM87.3332 224.305H91.4999H87.3332ZM45.6665 225.694H49.8332H45.6665ZM87.3332 225.694H91.4999H87.3332ZM45.6665 227.083H49.8332H45.6665ZM87.3332 227.083H91.4999H87.3332ZM45.6665 228.472H49.8332H45.6665ZM87.3332 228.472H91.4999H87.3332ZM45.6665 229.861H83.1665H45.6665ZM87.3332 229.861H145.667H87.3332ZM45.6665 231.25H83.1665H45.6665ZM87.3332 231.25H145.667H87.3332ZM45.6665 232.639H83.1665H45.6665ZM87.3332 232.639H145.667H87.3332Z" fill="black"/>
<path fill-rule="evenodd" clip-rule="evenodd" d="M49.8332 216.667V229.167H83.1665V233.333H45.6665V216.667H49.8332ZM91.4999 216.667V229.167H145.667V233.333H87.3332V216.667H91.4999Z" fill="#E6120B"/>
<path d="M66.5 217.361H70.6667H66.5ZM112.333 217.361H116.5H112.333ZM66.5 218.75H70.6667H66.5ZM112.333 218.75H116.5H112.333ZM66.5 220.139H70.6667H66.5ZM112.333 220.139H116.5H112.333ZM66.5 221.528H70.6667H66.5ZM112.333 221.528H116.5H112.333ZM66.5 222.917H70.6667H66.5ZM112.333 222.917H116.5H112.333ZM66.5 224.305H70.6667H66.5ZM112.333 224.305H116.5H112.333ZM66.5 225.694H70.6667H66.5ZM112.333 225.694H116.5H112.333ZM66.5 227.083H70.6667H66.5ZM112.333 227.083H116.5H112.333ZM66.5 228.472H70.6667H66.5ZM112.333 228.472H116.5H112.333Z" fill="black"/>
<path fill-rule="evenodd" clip-rule="evenodd" d="M70.6667 216.667V229.167H66.5V216.667H70.6667ZM116.5 216.667V229.167H112.333V216.667H116.5Z" fill="#DA863E"/>
<path d="M54.0002 234.028H62.3335H54.0002ZM74.8335 234.028H83.1668H74.8335ZM95.6668 234.028H104H95.6668ZM129 234.028H137.334H129ZM54.0002 235.416H62.3335H54.0002ZM74.8335 235.416H83.1668H74.8335ZM95.6668 235.416H104H95.6668ZM129 235.416H137.334H129ZM54.0002 236.805H62.3335H54.0002ZM74.8335 236.805H83.1668H74.8335ZM95.6668 236.805H104H95.6668ZM129 236.805H137.334H129ZM49.8335 238.194H54.0002H49.8335ZM62.3335 238.194H66.5002H62.3335ZM70.6668 238.194H74.8335H70.6668ZM83.1668 238.194H87.3335H83.1668ZM91.5002 238.194H95.6668H91.5002ZM104 238.194H108.167H104ZM124.834 238.194H129H124.834ZM137.334 238.194H141.5H137.334ZM49.8335 239.583H54.0002H49.8335ZM62.3335 239.583H66.5002H62.3335ZM70.6668 239.583H74.8335H70.6668ZM83.1668 239.583H87.3335H83.1668ZM91.5002 239.583H95.6668H91.5002ZM104 239.583H108.167H104ZM124.834 239.583H129H124.834ZM137.334 239.583H141.5H137.334ZM49.8335 240.972H54.0002H49.8335ZM62.3335 240.972H66.5002H62.3335ZM70.6668 240.972H74.8335H70.6668ZM83.1668 240.972H87.3335H83.1668ZM91.5002 240.972H95.6668H91.5002ZM104 240.972H108.167H104ZM124.834 240.972H129H124.834ZM137.334 240.972H141.5H137.334ZM49.8335 242.361H54.0002H49.8335ZM62.3335 242.361H66.5002H62.3335ZM70.6668 242.361H74.8335H70.6668ZM83.1668 242.361H87.3335H83.1668ZM91.5002 242.361H95.6668H91.5002ZM104 242.361H108.167H104ZM124.834 242.361H129H124.834ZM137.334 242.361H141.5H137.334ZM49.8335 243.75H54.0002H49.8335ZM62.3335 243.75H66.5002H62.3335ZM70.6668 243.75H74.8335H70.6668ZM83.1668 243.75H87.3335H83.1668ZM91.5002 243.75H95.6668H91.5002ZM104 243.75H108.167H104ZM124.834 243.75H129H124.834ZM137.334 243.75H141.5H137.334ZM49.8335 245.139H54.0002H49.8335ZM62.3335 245.139H66.5002H62.3335ZM70.6668 245.139H74.8335H70.6668ZM83.1668 245.139H87.3335H83.1668ZM91.5002 245.139H95.6668H91.5002ZM104 245.139H108.167H104ZM124.834 245.139H129H124.834ZM137.334 245.139H141.5H137.334ZM54.0002 246.528H62.3335H54.0002ZM74.8335 246.528H83.1668H74.8335ZM95.6668 246.528H104H95.6668ZM129 246.528H137.334H129ZM54.0002 247.916H62.3335H54.0002ZM74.8335 247.916H83.1668H74.8335ZM95.6668 247.916H104H95.6668ZM129 247.916H137.334H129ZM54.0002 249.305H62.3335H54.0002ZM74.8335 249.305H83.1668H74.8335ZM95.6668 249.305H104H95.6668ZM129 249.305H137.334H129Z" fill="black"/>
<path fill-rule="evenodd" clip-rule="evenodd" d="M62.3335 233.333V237.5H54.0002V233.333H62.3335ZM54.0002 245.833H49.8335V237.5H54.0002V245.833ZM62.3335 245.833V250H54.0002V245.833H62.3335ZM62.3335 245.833V237.5H66.5002V245.833H62.3335ZM83.1668 233.333V237.5H74.8335V233.333H83.1668ZM74.8335 245.833H70.6668V237.5H74.8335V245.833ZM83.1668 245.833V250H74.8335V245.833H83.1668ZM83.1668 245.833V237.5H87.3335V245.833H83.1668ZM104 233.333V237.5H95.6668V233.333H104ZM95.6668 245.833H91.5002V237.5H95.6668V245.833ZM104 245.833V250H95.6668V245.833H104ZM104 245.833V237.5H108.167V245.833H104ZM137.334 233.333V237.5H129V233.333H137.334ZM129 245.833H124.834V237.5H129V245.833ZM137.334 245.833V250H129V245.833H137.334ZM137.334 245.833V237.5H141.5V245.833H137.334Z" fill="#090A14"/>
</g>
<defs>
<filter id="filter0_d_1_159" x="0" y="0" width="153.833" height="258" filterUnits="userSpaceOnUse" color-interpolation-filters="sRGB">
<feFlood flood-opacity="0" result="BackgroundImageFix"/>
<feColorMatrix in="SourceAlpha" type="matrix" values="0 0 0 0 0 0 0 0 0 0 0 0 0 0 0 0 0 0 127 0" result="hardAlpha"/>
<feOffset dy="4"/>
<feGaussianBlur stdDeviation="2"/>
<feComposite in2="hardAlpha" operator="out"/>
<feColorMatrix type="matrix" values="0 0 0 0 0 0 0 0 0 0 0 0 0 0 0 0 0 0 0.25 0"/>
<feBlend mode="normal" in2="BackgroundImageFix" result="effect1_dropShadow_1_159"/>
<feBlend mode="normal" in="SourceGraphic" in2="effect1_dropShadow_1_159" result="shape"/>
</filter>
</defs>
</svg>
