<svg width="90" height="91" viewBox="0 0 90 91" fill="none" xmlns="http://www.w3.org/2000/svg">
<path d="M41.3214 1L44.5 1L41.3214 1ZM45.5595 1H47.6786H45.5595ZM41.3214 1.38941L44.5 1.38941L41.3214 1.38941ZM45.5595 1.38941H47.6786H45.5595ZM41.3214 1.77883L44.5 1.77883L41.3214 1.77883ZM45.5595 1.77883H47.6786H45.5595ZM41.3214 2.16824H42.381H41.3214ZM44.5 2.16824H47.6786H44.5ZM41.3214 2.55765H42.381H41.3214ZM44.5 2.55765H47.6786H44.5ZM41.3214 2.94706H42.381H41.3214ZM44.5 2.94706H47.6786H44.5ZM41.3214 3.33648H42.381H41.3214ZM46.619 3.33648H47.6786H46.619ZM41.3214 3.72589H42.381H41.3214ZM46.619 3.72589H47.6786H46.619ZM41.3214 4.1153H42.381H41.3214ZM46.619 4.1153H47.6786H46.619ZM41.3214 4.50472H42.381H41.3214ZM46.619 4.50472H47.6786H46.619ZM41.3214 4.89413H42.381H41.3214ZM46.619 4.89413H47.6786H46.619ZM41.3214 5.28354H42.381H41.3214ZM46.619 5.28354H47.6786H46.619ZM0 5.67296L89 5.67296L0 5.67296ZM0 6.06237L89 6.06237L0 6.06237ZM0 6.45178L89 6.45178L0 6.45178ZM0 6.84119H1.05952H0ZM87.9405 6.84119H89H87.9405ZM0 7.23061H1.05952H0ZM87.9405 7.23061H89H87.9405ZM0 7.62002H1.05952H0ZM87.9405 7.62002H89H87.9405ZM0 8.00943H1.05952H0ZM87.9405 8.00943H89H87.9405ZM0 8.39885H1.05952H0ZM87.9405 8.39885H89H87.9405ZM0 8.78826H1.05952H0ZM87.9405 8.78826H89H87.9405ZM0 9.17767H1.05952H0ZM86.881 9.17767H87.9405H86.881ZM0 9.56708H1.05952H0ZM86.881 9.56708H87.9405H86.881ZM0 9.9565H1.05952H0ZM86.881 9.9565H87.9405H86.881ZM0 10.3459H1.05952H0ZM87.9405 10.3459H89H87.9405ZM0 10.7353H1.05952H0ZM87.9405 10.7353H89H87.9405ZM0 11.1247H1.05952H0ZM87.9405 11.1247H89H87.9405ZM0 11.5141H1.05952H0ZM87.9405 11.5141H89H87.9405ZM0 11.9036H1.05952H0ZM87.9405 11.9036H89H87.9405ZM0 12.293H1.05952H0ZM87.9405 12.293H89H87.9405ZM1.05952 12.6824H3.17857H1.05952ZM87.9405 12.6824H89H87.9405ZM1.05952 13.0718H3.17857H1.05952ZM87.9405 13.0718H89H87.9405ZM1.05952 13.4612H3.17857H1.05952ZM87.9405 13.4612H89H87.9405ZM1.05952 13.8506H2.11905H1.05952ZM85.8214 13.8506H89H85.8214ZM1.05952 14.24H2.11905H1.05952ZM85.8214 14.24H89H85.8214ZM1.05952 14.6295H2.11905H1.05952ZM85.8214 14.6295H89H85.8214ZM1.05952 15.0189H2.11905H1.05952ZM86.881 15.0189H87.9405H86.881ZM1.05952 15.4083H2.11905H1.05952ZM86.881 15.4083H87.9405H86.881ZM1.05952 15.7977H2.11905H1.05952ZM86.881 15.7977H87.9405H86.881ZM1.05952 16.1871H4.2381H1.05952ZM86.881 16.1871H87.9405H86.881ZM1.05952 16.5765H4.2381H1.05952ZM86.881 16.5765H87.9405H86.881ZM1.05952 16.9659H4.2381H1.05952ZM86.881 16.9659H87.9405H86.881ZM0 17.3553H1.05952H0ZM85.8214 17.3553H87.9405H85.8214ZM0 17.7448H1.05952H0ZM85.8214 17.7448H87.9405H85.8214ZM0 18.1342H1.05952H0ZM85.8214 18.1342H87.9405H85.8214ZM0 18.5236H1.05952H0ZM87.9405 18.5236H89H87.9405ZM0 18.913H1.05952H0ZM87.9405 18.913H89H87.9405ZM0 19.3024H1.05952H0ZM87.9405 19.3024H89H87.9405ZM0 19.6918H1.05952H0ZM87.9405 19.6918H89H87.9405ZM0 20.0812H1.05952H0ZM87.9405 20.0812H89H87.9405ZM0 20.4706H1.05952H0ZM87.9405 20.4706H89H87.9405ZM0 20.8601H1.05952H0ZM87.9405 20.8601H89H87.9405ZM0 21.2495H1.05952H0ZM87.9405 21.2495H89H87.9405ZM0 21.6389H1.05952H0ZM87.9405 21.6389H89H87.9405ZM1.05952 22.0283H2.11905H1.05952ZM87.9405 22.0283H89H87.9405ZM1.05952 22.4177H2.11905H1.05952ZM87.9405 22.4177H89H87.9405ZM1.05952 22.8071H2.11905H1.05952ZM87.9405 22.8071H89H87.9405ZM1.05952 23.1965H2.11905H1.05952ZM87.9405 23.1965H89H87.9405ZM1.05952 23.5859H2.11905H1.05952ZM87.9405 23.5859H89H87.9405ZM1.05952 23.9754H2.11905H1.05952ZM87.9405 23.9754H89H87.9405ZM1.05952 24.3648H12.7143H1.05952ZM86.881 24.3648H87.9405H86.881ZM1.05952 24.7542H12.7143H1.05952ZM86.881 24.7542H87.9405H86.881ZM1.05952 25.1436H12.7143H1.05952ZM86.881 25.1436H87.9405H86.881ZM0 25.533H1.05952H0ZM70.9881 25.533H75.2262H70.9881ZM77.3452 25.533H82.6429H77.3452ZM85.8214 25.533H86.881H85.8214ZM0 25.9224H1.05952H0ZM70.9881 25.9224H75.2262H70.9881ZM77.3452 25.9224H82.6429H77.3452ZM85.8214 25.9224H86.881H85.8214ZM0 26.3118H1.05952H0ZM70.9881 26.3118H75.2262H70.9881ZM77.3452 26.3118H82.6429H77.3452ZM85.8214 26.3118H86.881H85.8214ZM0 26.7013H1.05952H0ZM86.881 26.7013H87.9405H86.881ZM0 27.0907H1.05952H0ZM86.881 27.0907H87.9405H86.881ZM0 27.4801H1.05952H0ZM86.881 27.4801H87.9405H86.881ZM0 27.8695H1.05952H0ZM86.881 27.8695H87.9405H86.881ZM0 28.2589H1.05952H0ZM86.881 28.2589H87.9405H86.881ZM0 28.6483H1.05952H0ZM86.881 28.6483H87.9405H86.881ZM0 29.0377H1.05952H0ZM87.9405 29.0377H89H87.9405ZM0 29.4271H1.05952H0ZM87.9405 29.4271H89H87.9405ZM0 29.8166H1.05952H0ZM87.9405 29.8166H89H87.9405ZM0 30.206H1.05952H0ZM87.9405 30.206H89H87.9405ZM0 30.5954H1.05952H0ZM87.9405 30.5954H89H87.9405ZM0 30.9848H1.05952H0ZM87.9405 30.9848H89H87.9405ZM0 31.3742H1.05952H0ZM87.9405 31.3742H89H87.9405ZM0 31.7636H1.05952H0ZM87.9405 31.7636H89H87.9405ZM0 32.153H1.05952H0ZM87.9405 32.153H89H87.9405ZM1.05952 32.5424H3.17857H1.05952ZM13.7738 32.5424H16.9524H13.7738ZM87.9405 32.5424H89H87.9405ZM1.05952 32.9319H3.17857H1.05952ZM13.7738 32.9319H16.9524H13.7738ZM87.9405 32.9319H89H87.9405ZM1.05952 33.3213H3.17857H1.05952ZM13.7738 33.3213H16.9524H13.7738ZM87.9405 33.3213H89H87.9405ZM0 33.7107H1.05952H0ZM87.9405 33.7107H89H87.9405ZM0 34.1001H1.05952H0ZM87.9405 34.1001H89H87.9405ZM0 34.4895H1.05952H0ZM87.9405 34.4895H89H87.9405ZM0 34.8789H1.05952H0ZM87.9405 34.8789H89H87.9405ZM0 35.2683H1.05952H0ZM87.9405 35.2683H89H87.9405ZM0 35.6577H1.05952H0ZM87.9405 35.6577H89H87.9405ZM0 36.0472H1.05952H0ZM87.9405 36.0472H89H87.9405ZM0 36.4366H1.05952H0ZM87.9405 36.4366H89H87.9405ZM0 36.826H1.05952H0ZM87.9405 36.826H89H87.9405ZM0 37.2154H1.05952H0ZM87.9405 37.2154H89H87.9405ZM0 37.6048H1.05952H0ZM87.9405 37.6048H89H87.9405ZM0 37.9942H1.05952H0ZM87.9405 37.9942H89H87.9405ZM0 38.3836H1.05952H0ZM87.9405 38.3836H89H87.9405ZM0 38.7731H1.05952H0ZM87.9405 38.7731H89H87.9405ZM0 39.1625H1.05952H0ZM87.9405 39.1625H89H87.9405ZM0 39.5519H1.05952H0ZM87.9405 39.5519H89H87.9405ZM0 39.9413H1.05952H0ZM87.9405 39.9413H89H87.9405ZM0 40.3307H1.05952H0ZM87.9405 40.3307H89H87.9405ZM0 40.7201H1.05952H0ZM87.9405 40.7201H89H87.9405ZM0 41.1095H1.05952H0ZM87.9405 41.1095H89H87.9405ZM0 41.4989H1.05952H0ZM87.9405 41.4989H89H87.9405ZM0 41.8884H1.05952H0ZM87.9405 41.8884H89H87.9405ZM0 42.2778H1.05952H0ZM87.9405 42.2778H89H87.9405ZM0 42.6672H1.05952H0ZM87.9405 42.6672H89H87.9405ZM0 43.0566H1.05952H0ZM77.3452 43.0566H87.9405H77.3452ZM0 43.446H1.05952H0ZM77.3452 43.446H87.9405H77.3452ZM0 43.8354H1.05952H0ZM77.3452 43.8354H87.9405H77.3452ZM1.05952 44.2248H9.53571H1.05952ZM87.9405 44.2248H89H87.9405ZM1.05952 44.6142H9.53571H1.05952ZM87.9405 44.6142H89H87.9405ZM1.05952 45.0037H9.53571H1.05952ZM87.9405 45.0037H89H87.9405ZM0 45.3931H1.05952H0ZM87.9405 45.3931H89H87.9405ZM0 45.7825H1.05952H0ZM87.9405 45.7825H89H87.9405ZM0 46.1719H1.05952H0ZM87.9405 46.1719H89H87.9405ZM0 46.5613H1.05952H0ZM87.9405 46.5613H89H87.9405ZM0 46.9507H1.05952H0ZM87.9405 46.9507H89H87.9405ZM0 47.3401H1.05952H0ZM87.9405 47.3401H89H87.9405ZM0 47.7295H1.05952H0ZM87.9405 47.7295H89H87.9405ZM0 48.119H1.05952H0ZM87.9405 48.119H89H87.9405ZM0 48.5084H1.05952H0ZM87.9405 48.5084H89H87.9405ZM0 48.8978H1.05952H0ZM87.9405 48.8978H89H87.9405ZM0 49.2872H1.05952H0ZM87.9405 49.2872H89H87.9405ZM0 49.6766H1.05952H0ZM87.9405 49.6766H89H87.9405ZM0 50.066H1.05952H0ZM87.9405 50.066H89H87.9405ZM0 50.4554H1.05952H0ZM87.9405 50.4554H89H87.9405ZM0 50.8449H1.05952H0ZM87.9405 50.8449H89H87.9405ZM0 51.2343H1.05952H0ZM87.9405 51.2343H89H87.9405ZM0 51.6237H1.05952H0ZM87.9405 51.6237H89H87.9405ZM0 52.0131H1.05952H0ZM87.9405 52.0131H89H87.9405ZM1.05952 52.4025H2.11905H1.05952ZM84.7619 52.4025H87.9405H84.7619ZM1.05952 52.7919H2.11905H1.05952ZM84.7619 52.7919H87.9405H84.7619ZM1.05952 53.1813H2.11905H1.05952ZM84.7619 53.1813H87.9405H84.7619ZM1.05952 53.5707H2.11905H1.05952ZM86.881 53.5707H87.9405H86.881ZM1.05952 53.9602H2.11905H1.05952ZM86.881 53.9602H87.9405H86.881ZM1.05952 54.3496H2.11905H1.05952ZM86.881 54.3496H87.9405H86.881ZM1.05952 54.739H3.17857H1.05952ZM7.41667 54.739H14.8333H7.41667ZM86.881 54.739H87.9405H86.881ZM1.05952 55.1284H3.17857H1.05952ZM7.41667 55.1284H14.8333H7.41667ZM86.881 55.1284H87.9405H86.881ZM1.05952 55.5178H3.17857H1.05952ZM7.41667 55.5178H14.8333H7.41667ZM86.881 55.5178H87.9405H86.881ZM0 55.9072H1.05952H0ZM85.8214 55.9072H87.9405H85.8214ZM0 56.2966H1.05952H0ZM85.8214 56.2966H87.9405H85.8214ZM0 56.686H1.05952H0ZM85.8214 56.686H87.9405H85.8214ZM0 57.0755H1.05952H0ZM87.9405 57.0755H89H87.9405ZM0 57.4649H1.05952H0ZM87.9405 57.4649H89H87.9405ZM0 57.8543H1.05952H0ZM87.9405 57.8543H89H87.9405ZM0 58.2437H1.05952H0ZM87.9405 58.2437H89H87.9405ZM0 58.6331H1.05952H0ZM87.9405 58.6331H89H87.9405ZM0 59.0225H1.05952H0ZM87.9405 59.0225H89H87.9405ZM1.05952 59.4119H2.11905H1.05952ZM87.9405 59.4119H89H87.9405ZM1.05952 59.8013H2.11905H1.05952ZM87.9405 59.8013H89H87.9405ZM1.05952 60.1908H2.11905H1.05952ZM87.9405 60.1908H89H87.9405ZM0 60.5802H1.05952H0ZM86.881 60.5802H87.9405H86.881ZM0 60.9696H1.05952H0ZM86.881 60.9696H87.9405H86.881ZM0 61.359H1.05952H0ZM86.881 61.359H87.9405H86.881ZM0 61.7484H1.05952H0ZM86.881 61.7484H87.9405H86.881ZM0 62.1378H1.05952H0ZM86.881 62.1378H87.9405H86.881ZM0 62.5272H1.05952H0ZM86.881 62.5272H87.9405H86.881ZM0 62.9167H87.9405H0ZM0 63.3061H87.9405H0ZM0 63.6955H87.9405H0ZM41.3214 64.0849H47.6786H41.3214ZM41.3214 64.4743H47.6786H41.3214ZM41.3214 64.8637H47.6786H41.3214ZM41.3214 65.2531H42.381H41.3214ZM44.5 65.2531H47.6786H44.5ZM41.3214 65.6425H42.381H41.3214ZM44.5 65.6425H47.6786H44.5ZM41.3214 66.032H42.381H41.3214ZM44.5 66.032H47.6786H44.5ZM41.3214 66.4214H42.381H41.3214ZM46.619 66.4214H47.6786H46.619ZM41.3214 66.8108H42.381H41.3214ZM46.619 66.8108H47.6786H46.619ZM41.3214 67.2002H42.381H41.3214ZM46.619 67.2002H47.6786H46.619ZM41.3214 67.5896H42.381H41.3214ZM46.619 67.5896H47.6786H46.619ZM41.3214 67.979H42.381H41.3214ZM46.619 67.979H47.6786H46.619ZM41.3214 68.3684H42.381H41.3214ZM46.619 68.3684H47.6786H46.619ZM41.3214 68.7578H42.381H41.3214ZM46.619 68.7578H47.6786H46.619ZM41.3214 69.1473H42.381H41.3214ZM46.619 69.1473H47.6786H46.619ZM41.3214 69.5367H42.381H41.3214ZM46.619 69.5367H47.6786H46.619ZM41.3214 69.9261H42.381H41.3214ZM46.619 69.9261H47.6786H46.619ZM41.3214 70.3155H42.381H41.3214ZM46.619 70.3155H47.6786H46.619ZM41.3214 70.7049H42.381H41.3214ZM46.619 70.7049H47.6786H46.619ZM41.3214 71.0943H42.381H41.3214ZM46.619 71.0943H47.6786H46.619ZM41.3214 71.4837H42.381H41.3214ZM46.619 71.4837H47.6786H46.619ZM41.3214 71.8731H42.381H41.3214ZM46.619 71.8731H47.6786H46.619ZM41.3214 72.2626H42.381H41.3214ZM46.619 72.2626H47.6786H46.619ZM41.3214 72.652H42.381H41.3214ZM46.619 72.652H47.6786H46.619ZM41.3214 73.0414H42.381H41.3214ZM46.619 73.0414H47.6786H46.619ZM41.3214 73.4308H42.381H41.3214ZM46.619 73.4308H47.6786H46.619ZM41.3214 73.8202H42.381H41.3214ZM46.619 73.8202H47.6786H46.619ZM41.3214 74.2096H42.381H41.3214ZM46.619 74.2096H47.6786H46.619ZM41.3214 74.599H42.381H41.3214ZM46.619 74.599H47.6786H46.619ZM41.3214 74.9884H42.381H41.3214ZM46.619 74.9884H47.6786H46.619ZM41.3214 75.3779H42.381H41.3214ZM46.619 75.3779H47.6786H46.619ZM41.3214 75.7673H42.381H41.3214ZM46.619 75.7673H47.6786H46.619ZM41.3214 76.1567H42.381H41.3214ZM46.619 76.1567H47.6786H46.619ZM41.3214 76.5461H42.381H41.3214ZM46.619 76.5461H47.6786H46.619ZM41.3214 76.9355H42.381H41.3214ZM46.619 76.9355H47.6786H46.619ZM41.3214 77.3249H42.381H41.3214ZM46.619 77.3249H47.6786H46.619ZM41.3214 77.7143H42.381H41.3214ZM46.619 77.7143H47.6786H46.619ZM41.3214 78.1038H42.381H41.3214ZM46.619 78.1038H47.6786H46.619ZM41.3214 78.4932H42.381H41.3214ZM46.619 78.4932H47.6786H46.619ZM41.3214 78.8826H42.381H41.3214ZM46.619 78.8826H47.6786H46.619ZM41.3214 79.272H42.381H41.3214ZM46.619 79.272H47.6786H46.619ZM41.3214 79.6614H42.381H41.3214ZM46.619 79.6614H47.6786H46.619ZM41.3214 80.0508H42.381H41.3214ZM46.619 80.0508H47.6786H46.619ZM41.3214 80.4402H42.381H41.3214ZM46.619 80.4402H47.6786H46.619ZM41.3214 80.8296H42.381H41.3214ZM46.619 80.8296H47.6786H46.619ZM41.3214 81.2191H42.381H41.3214ZM46.619 81.2191H47.6786H46.619ZM41.3214 81.6085H42.381H41.3214ZM46.619 81.6085H47.6786H46.619ZM41.3214 81.9979H42.381H41.3214ZM46.619 81.9979H47.6786H46.619ZM41.3214 82.3873H42.381H41.3214ZM46.619 82.3873H47.6786H46.619ZM41.3214 82.7767H42.381H41.3214ZM46.619 82.7767H47.6786H46.619ZM41.3214 83.1661H42.381H41.3214ZM46.619 83.1661H47.6786H46.619ZM41.3214 83.5555H42.381H41.3214ZM46.619 83.5555H47.6786H46.619ZM41.3214 83.9449H42.381H41.3214ZM46.619 83.9449H47.6786H46.619ZM41.3214 84.3344H42.381H41.3214ZM46.619 84.3344H47.6786H46.619ZM41.3214 84.7238H42.381H41.3214ZM46.619 84.7238H47.6786H46.619ZM41.3214 85.1132H42.381H41.3214ZM46.619 85.1132H47.6786H46.619ZM41.3214 85.5026H42.381H41.3214ZM46.619 85.5026H47.6786H46.619ZM41.3214 85.892H42.381H41.3214ZM46.619 85.892H47.6786H46.619ZM41.3214 86.2814H42.381H41.3214ZM46.619 86.2814H47.6786H46.619ZM41.3214 86.6708H42.381H41.3214ZM46.619 86.6708H47.6786H46.619ZM41.3214 87.0602H42.381H41.3214ZM46.619 87.0602H47.6786H46.619ZM41.3214 87.4497H42.381H41.3214ZM46.619 87.4497H47.6786H46.619ZM41.3214 87.8391H42.381H41.3214ZM46.619 87.8391H47.6786H46.619ZM41.3214 88.2285H42.381H41.3214ZM46.619 88.2285H47.6786H46.619ZM41.3214 88.6179H47.6786H41.3214ZM41.3214 89.0073H47.6786H41.3214ZM41.3214 89.3967H47.6786H41.3214Z" fill="black"/>
<path d="M41.3214 1L44.5 1M45.5595 1H47.6786M41.3214 1.38941L44.5 1.38941M45.5595 1.38941H47.6786M41.3214 1.77883L44.5 1.77883M45.5595 1.77883H47.6786M41.3214 2.16824H42.381M44.5 2.16824H47.6786M41.3214 2.55765H42.381M44.5 2.55765H47.6786M41.3214 2.94706H42.381M44.5 2.94706H47.6786M41.3214 3.33648H42.381M46.619 3.33648H47.6786M41.3214 3.72589H42.381M46.619 3.72589H47.6786M41.3214 4.1153H42.381M46.619 4.1153H47.6786M41.3214 4.50472H42.381M46.619 4.50472H47.6786M41.3214 4.89413H42.381M46.619 4.89413H47.6786M41.3214 5.28354H42.381M46.619 5.28354H47.6786M0 5.67295L89 5.67295M0 6.06237L89 6.06237M0 6.45178L89 6.45178M0 6.84119H1.05952M87.9405 6.84119H89M0 7.23061H1.05952M87.9405 7.23061H89M0 7.62002H1.05952M87.9405 7.62002H89M0 8.00943H1.05952M87.9405 8.00943H89M0 8.39885H1.05952M87.9405 8.39885H89M0 8.78826H1.05952M87.9405 8.78826H89M0 9.17767H1.05952M86.881 9.17767H87.9405M0 9.56708H1.05952M86.881 9.56708H87.9405M0 9.9565H1.05952M86.881 9.9565H87.9405M0 10.3459H1.05952M87.9405 10.3459H89M0 10.7353H1.05952M87.9405 10.7353H89M0 11.1247H1.05952M87.9405 11.1247H89M0 11.5141H1.05952M87.9405 11.5141H89M0 11.9036H1.05952M87.9405 11.9036H89M0 12.293H1.05952M87.9405 12.293H89M1.05952 12.6824H3.17857M87.9405 12.6824H89M1.05952 13.0718H3.17857M87.9405 13.0718H89M1.05952 13.4612H3.17857M87.9405 13.4612H89M1.05952 13.8506H2.11905M85.8214 13.8506H89M1.05952 14.24H2.11905M85.8214 14.24H89M1.05952 14.6295H2.11905M85.8214 14.6295H89M1.05952 15.0189H2.11905M86.881 15.0189H87.9405M1.05952 15.4083H2.11905M86.881 15.4083H87.9405M1.05952 15.7977H2.11905M86.881 15.7977H87.9405M1.05952 16.1871H4.2381M86.881 16.1871H87.9405M1.05952 16.5765H4.2381M86.881 16.5765H87.9405M1.05952 16.9659H4.2381M86.881 16.9659H87.9405M0 17.3553H1.05952M85.8214 17.3553H87.9405M0 17.7448H1.05952M85.8214 17.7448H87.9405M0 18.1342H1.05952M85.8214 18.1342H87.9405M0 18.5236H1.05952M87.9405 18.5236H89M0 18.913H1.05952M87.9405 18.913H89M0 19.3024H1.05952M87.9405 19.3024H89M0 19.6918H1.05952M87.9405 19.6918H89M0 20.0812H1.05952M87.9405 20.0812H89M0 20.4706H1.05952M87.9405 20.4706H89M0 20.8601H1.05952M87.9405 20.8601H89M0 21.2495H1.05952M87.9405 21.2495H89M0 21.6389H1.05952M87.9405 21.6389H89M1.05952 22.0283H2.11905M87.9405 22.0283H89M1.05952 22.4177H2.11905M87.9405 22.4177H89M1.05952 22.8071H2.11905M87.9405 22.8071H89M1.05952 23.1965H2.11905M87.9405 23.1965H89M1.05952 23.5859H2.11905M87.9405 23.5859H89M1.05952 23.9754H2.11905M87.9405 23.9754H89M1.05952 24.3648H12.7143M86.881 24.3648H87.9405M1.05952 24.7542H12.7143M86.881 24.7542H87.9405M1.05952 25.1436H12.7143M86.881 25.1436H87.9405M0 25.533H1.05952M70.9881 25.533H75.2262M77.3452 25.533H82.6429M85.8214 25.533H86.881M0 25.9224H1.05952M70.9881 25.9224H75.2262M77.3452 25.9224H82.6429M85.8214 25.9224H86.881M0 26.3118H1.05952M70.9881 26.3118H75.2262M77.3452 26.3118H82.6429M85.8214 26.3118H86.881M0 26.7013H1.05952M86.881 26.7013H87.9405M0 27.0907H1.05952M86.881 27.0907H87.9405M0 27.4801H1.05952M86.881 27.4801H87.9405M0 27.8695H1.05952M86.881 27.8695H87.9405M0 28.2589H1.05952M86.881 28.2589H87.9405M0 28.6483H1.05952M86.881 28.6483H87.9405M0 29.0377H1.05952M87.9405 29.0377H89M0 29.4271H1.05952M87.9405 29.4271H89M0 29.8166H1.05952M87.9405 29.8166H89M0 30.206H1.05952M87.9405 30.206H89M0 30.5954H1.05952M87.9405 30.5954H89M0 30.9848H1.05952M87.9405 30.9848H89M0 31.3742H1.05952M87.9405 31.3742H89M0 31.7636H1.05952M87.9405 31.7636H89M0 32.153H1.05952M87.9405 32.153H89M1.05952 32.5424H3.17857M13.7738 32.5424H16.9524M87.9405 32.5424H89M1.05952 32.9319H3.17857M13.7738 32.9319H16.9524M87.9405 32.9319H89M1.05952 33.3213H3.17857M13.7738 33.3213H16.9524M87.9405 33.3213H89M0 33.7107H1.05952M87.9405 33.7107H89M0 34.1001H1.05952M87.9405 34.1001H89M0 34.4895H1.05952M87.9405 34.4895H89M0 34.8789H1.05952M87.9405 34.8789H89M0 35.2683H1.05952M87.9405 35.2683H89M0 35.6577H1.05952M87.9405 35.6577H89M0 36.0472H1.05952M87.9405 36.0472H89M0 36.4366H1.05952M87.9405 36.4366H89M0 36.826H1.05952M87.9405 36.826H89M0 37.2154H1.05952M87.9405 37.2154H89M0 37.6048H1.05952M87.9405 37.6048H89M0 37.9942H1.05952M87.9405 37.9942H89M0 38.3836H1.05952M87.9405 38.3836H89M0 38.7731H1.05952M87.9405 38.7731H89M0 39.1625H1.05952M87.9405 39.1625H89M0 39.5519H1.05952M87.9405 39.5519H89M0 39.9413H1.05952M87.9405 39.9413H89M0 40.3307H1.05952M87.9405 40.3307H89M0 40.7201H1.05952M87.9405 40.7201H89M0 41.1095H1.05952M87.9405 41.1095H89M0 41.4989H1.05952M87.9405 41.4989H89M0 41.8884H1.05952M87.9405 41.8884H89M0 42.2778H1.05952M87.9405 42.2778H89M0 42.6672H1.05952M87.9405 42.6672H89M0 43.0566H1.05952M77.3452 43.0566H87.9405M0 43.446H1.05952M77.3452 43.446H87.9405M0 43.8354H1.05952M77.3452 43.8354H87.9405M1.05952 44.2248H9.53571M87.9405 44.2248H89M1.05952 44.6142H9.53571M87.9405 44.6142H89M1.05952 45.0037H9.53571M87.9405 45.0037H89M0 45.3931H1.05952M87.9405 45.3931H89M0 45.7825H1.05952M87.9405 45.7825H89M0 46.1719H1.05952M87.9405 46.1719H89M0 46.5613H1.05952M87.9405 46.5613H89M0 46.9507H1.05952M87.9405 46.9507H89M0 47.3401H1.05952M87.9405 47.3401H89M0 47.7295H1.05952M87.9405 47.7295H89M0 48.119H1.05952M87.9405 48.119H89M0 48.5084H1.05952M87.9405 48.5084H89M0 48.8978H1.05952M87.9405 48.8978H89M0 49.2872H1.05952M87.9405 49.2872H89M0 49.6766H1.05952M87.9405 49.6766H89M0 50.066H1.05952M87.9405 50.066H89M0 50.4554H1.05952M87.9405 50.4554H89M0 50.8449H1.05952M87.9405 50.8449H89M0 51.2343H1.05952M87.9405 51.2343H89M0 51.6237H1.05952M87.9405 51.6237H89M0 52.0131H1.05952M87.9405 52.0131H89M1.05952 52.4025H2.11905M84.7619 52.4025H87.9405M1.05952 52.7919H2.11905M84.7619 52.7919H87.9405M1.05952 53.1813H2.11905M84.7619 53.1813H87.9405M1.05952 53.5707H2.11905M86.881 53.5707H87.9405M1.05952 53.9602H2.11905M86.881 53.9602H87.9405M1.05952 54.3496H2.11905M86.881 54.3496H87.9405M1.05952 54.739H3.17857M7.41667 54.739H14.8333M86.881 54.739H87.9405M1.05952 55.1284H3.17857M7.41667 55.1284H14.8333M86.881 55.1284H87.9405M1.05952 55.5178H3.17857M7.41667 55.5178H14.8333M86.881 55.5178H87.9405M0 55.9072H1.05952M85.8214 55.9072H87.9405M0 56.2966H1.05952M85.8214 56.2966H87.9405M0 56.686H1.05952M85.8214 56.686H87.9405M0 57.0755H1.05952M87.9405 57.0755H89M0 57.4649H1.05952M87.9405 57.4649H89M0 57.8543H1.05952M87.9405 57.8543H89M0 58.2437H1.05952M87.9405 58.2437H89M0 58.6331H1.05952M87.9405 58.6331H89M0 59.0225H1.05952M87.9405 59.0225H89M1.05952 59.4119H2.11905M87.9405 59.4119H89M1.05952 59.8013H2.11905M87.9405 59.8013H89M1.05952 60.1908H2.11905M87.9405 60.1908H89M0 60.5802H1.05952M86.881 60.5802H87.9405M0 60.9696H1.05952M86.881 60.9696H87.9405M0 61.359H1.05952M86.881 61.359H87.9405M0 61.7484H1.05952M86.881 61.7484H87.9405M0 62.1378H1.05952M86.881 62.1378H87.9405M0 62.5272H1.05952M86.881 62.5272H87.9405M0 62.9167H87.9405M0 63.3061H87.9405M0 63.6955H87.9405M41.3214 64.0849H47.6786M41.3214 64.4743H47.6786M41.3214 64.8637H47.6786M41.3214 65.2531H42.381M44.5 65.2531H47.6786M41.3214 65.6425H42.381M44.5 65.6425H47.6786M41.3214 66.032H42.381M44.5 66.032H47.6786M41.3214 66.4214H42.381M46.619 66.4214H47.6786M41.3214 66.8108H42.381M46.619 66.8108H47.6786M41.3214 67.2002H42.381M46.619 67.2002H47.6786M41.3214 67.5896H42.381M46.619 67.5896H47.6786M41.3214 67.979H42.381M46.619 67.979H47.6786M41.3214 68.3684H42.381M46.619 68.3684H47.6786M41.3214 68.7578H42.381M46.619 68.7578H47.6786M41.3214 69.1473H42.381M46.619 69.1473H47.6786M41.3214 69.5367H42.381M46.619 69.5367H47.6786M41.3214 69.9261H42.381M46.619 69.9261H47.6786M41.3214 70.3155H42.381M46.619 70.3155H47.6786M41.3214 70.7049H42.381M46.619 70.7049H47.6786M41.3214 71.0943H42.381M46.619 71.0943H47.6786M41.3214 71.4837H42.381M46.619 71.4837H47.6786M41.3214 71.8731H42.381M46.619 71.8731H47.6786M41.3214 72.2626H42.381M46.619 72.2626H47.6786M41.3214 72.652H42.381M46.619 72.652H47.6786M41.3214 73.0414H42.381M46.619 73.0414H47.6786M41.3214 73.4308H42.381M46.619 73.4308H47.6786M41.3214 73.8202H42.381M46.619 73.8202H47.6786M41.3214 74.2096H42.381M46.619 74.2096H47.6786M41.3214 74.599H42.381M46.619 74.599H47.6786M41.3214 74.9885H42.381M46.619 74.9885H47.6786M41.3214 75.3779H42.381M46.619 75.3779H47.6786M41.3214 75.7673H42.381M46.619 75.7673H47.6786M41.3214 76.1567H42.381M46.619 76.1567H47.6786M41.3214 76.5461H42.381M46.619 76.5461H47.6786M41.3214 76.9355H42.381M46.619 76.9355H47.6786M41.3214 77.3249H42.381M46.619 77.3249H47.6786M41.3214 77.7143H42.381M46.619 77.7143H47.6786M41.3214 78.1038H42.381M46.619 78.1038H47.6786M41.3214 78.4932H42.381M46.619 78.4932H47.6786M41.3214 78.8826H42.381M46.619 78.8826H47.6786M41.3214 79.272H42.381M46.619 79.272H47.6786M41.3214 79.6614H42.381M46.619 79.6614H47.6786M41.3214 80.0508H42.381M46.619 80.0508H47.6786M41.3214 80.4402H42.381M46.619 80.4402H47.6786M41.3214 80.8296H42.381M46.619 80.8296H47.6786M41.3214 81.2191H42.381M46.619 81.2191H47.6786M41.3214 81.6085H42.381M46.619 81.6085H47.6786M41.3214 81.9979H42.381M46.619 81.9979H47.6786M41.3214 82.3873H42.381M46.619 82.3873H47.6786M41.3214 82.7767H42.381M46.619 82.7767H47.6786M41.3214 83.1661H42.381M46.619 83.1661H47.6786M41.3214 83.5555H42.381M46.619 83.5555H47.6786M41.3214 83.9449H42.381M46.619 83.9449H47.6786M41.3214 84.3344H42.381M46.619 84.3344H47.6786M41.3214 84.7238H42.381M46.619 84.7238H47.6786M41.3214 85.1132H42.381M46.619 85.1132H47.6786M41.3214 85.5026H42.381M46.619 85.5026H47.6786M41.3214 85.892H42.381M46.619 85.892H47.6786M41.3214 86.2814H42.381M46.619 86.2814H47.6786M41.3214 86.6708H42.381M46.619 86.6708H47.6786M41.3214 87.0603H42.381M46.619 87.0603H47.6786M41.3214 87.4497H42.381M46.619 87.4497H47.6786M41.3214 87.8391H42.381M46.619 87.8391H47.6786M41.3214 88.2285H42.381M46.619 88.2285H47.6786M41.3214 88.6179H47.6786M41.3214 89.0073H47.6786M41.3214 89.3967H47.6786" stroke="#602C2C"/>
<path d="M42.381 2.16797H44.5H42.381ZM42.381 2.55738H44.5H42.381ZM42.381 2.94679H44.5H42.381ZM42.381 3.33621H46.6191H42.381ZM42.381 3.72562H46.6191H42.381ZM42.381 4.11503H46.6191H42.381ZM42.381 4.50445H46.6191H42.381ZM42.381 4.89386H46.6191H42.381ZM42.381 5.28327H46.6191H42.381ZM1.05957 6.84092L87.9405 6.84092L1.05957 6.84092ZM1.05957 7.23034L87.9405 7.23034L1.05957 7.23034ZM1.05957 7.61975L87.9405 7.61975L1.05957 7.61975ZM1.05957 8.00916L87.9405 8.00916L1.05957 8.00916ZM1.05957 8.39857L87.9405 8.39857L1.05957 8.39857ZM1.05957 8.78799L87.9405 8.78799L1.05957 8.78799ZM1.05957 9.1774L86.881 9.1774L1.05957 9.1774ZM1.05957 9.56681L86.881 9.56681L1.05957 9.56681ZM1.05957 9.95623L86.881 9.95623L1.05957 9.95623ZM1.05957 10.3456L87.9405 10.3456L1.05957 10.3456ZM1.05957 10.7351L87.9405 10.7351L1.05957 10.7351ZM1.05957 11.1245L87.9405 11.1245L1.05957 11.1245ZM1.05957 11.5139L87.9405 11.5139L1.05957 11.5139ZM1.05957 11.9033L87.9405 11.9033L1.05957 11.9033ZM1.05957 12.2927L87.9405 12.2927L1.05957 12.2927ZM3.17862 12.6821L87.9405 12.6821L3.17862 12.6821ZM3.17862 13.0715L87.9405 13.0715L3.17862 13.0715ZM3.17862 13.4609L87.9405 13.4609L3.17862 13.4609ZM2.11909 13.8504L85.8215 13.8504L2.11909 13.8504ZM2.11909 14.2398L85.8215 14.2398L2.11909 14.2398ZM2.11909 14.6292L85.8215 14.6292L2.11909 14.6292ZM2.11909 15.0186L86.881 15.0186L2.11909 15.0186ZM2.11909 15.408L86.881 15.408L2.11909 15.408ZM2.11909 15.7974L86.881 15.7974L2.11909 15.7974ZM4.23814 16.1868L86.881 16.1868L4.23814 16.1868ZM4.23814 16.5762L86.881 16.5762L4.23814 16.5762ZM4.23814 16.9657L86.881 16.9657L4.23814 16.9657ZM1.05957 17.3551L85.8215 17.3551L1.05957 17.3551ZM1.05957 17.7445L85.8215 17.7445L1.05957 17.7445ZM1.05957 18.1339L85.8215 18.1339L1.05957 18.1339ZM1.05957 18.5233L87.9405 18.5233L1.05957 18.5233ZM1.05957 18.9127L87.9405 18.9127L1.05957 18.9127ZM1.05957 19.3021L87.9405 19.3021L1.05957 19.3021ZM1.05957 19.6915L87.9405 19.6915L1.05957 19.6915ZM1.05957 20.081L87.9405 20.081L1.05957 20.081ZM1.05957 20.4704L87.9405 20.4704L1.05957 20.4704ZM1.05957 20.8598L87.9405 20.8598L1.05957 20.8598ZM1.05957 21.2492L87.9405 21.2492L1.05957 21.2492ZM1.05957 21.6386L87.9405 21.6386L1.05957 21.6386ZM2.11909 22.028L87.9405 22.028L2.11909 22.028ZM2.11909 22.4174L87.9405 22.4174L2.11909 22.4174ZM2.11909 22.8069L87.9405 22.8069L2.11909 22.8069ZM2.11909 23.1963L87.9405 23.1963L2.11909 23.1963ZM2.11909 23.5857L87.9405 23.5857L2.11909 23.5857ZM2.11909 23.9751L87.9405 23.9751L2.11909 23.9751ZM12.7143 24.3645L86.881 24.3645L12.7143 24.3645ZM12.7143 24.7539L86.881 24.7539L12.7143 24.7539ZM12.7143 25.1433L86.881 25.1433L12.7143 25.1433ZM1.05957 25.5327L70.9881 25.5327L1.05957 25.5327ZM75.2262 25.5327H77.3453H75.2262ZM82.6429 25.5327L85.8215 25.5327L82.6429 25.5327ZM1.05957 25.9222L70.9881 25.9222L1.05957 25.9222ZM75.2262 25.9222H77.3453H75.2262ZM82.6429 25.9222L85.8215 25.9222L82.6429 25.9222ZM1.05957 26.3116L70.9881 26.3116L1.05957 26.3116ZM75.2262 26.3116H77.3453H75.2262ZM82.6429 26.3116L85.8215 26.3116L82.6429 26.3116ZM1.05957 26.701L86.881 26.701L1.05957 26.701ZM1.05957 27.0904L86.881 27.0904L1.05957 27.0904ZM1.05957 27.4798L86.881 27.4798L1.05957 27.4798ZM1.05957 27.8692L86.881 27.8692L1.05957 27.8692ZM1.05957 28.2586L86.881 28.2586L1.05957 28.2586ZM1.05957 28.648L86.881 28.648L1.05957 28.648ZM1.05957 29.0375L87.9405 29.0375L1.05957 29.0375ZM1.05957 29.4269L87.9405 29.4269L1.05957 29.4269ZM1.05957 29.8163L87.9405 29.8163L1.05957 29.8163ZM1.05957 30.2057L87.9405 30.2057L1.05957 30.2057ZM1.05957 30.5951L87.9405 30.5951L1.05957 30.5951ZM1.05957 30.9845L87.9405 30.9845L1.05957 30.9845ZM1.05957 31.3739L87.9405 31.3739L1.05957 31.3739ZM1.05957 31.7633L87.9405 31.7633L1.05957 31.7633ZM1.05957 32.1528L87.9405 32.1528L1.05957 32.1528ZM3.17862 32.5422H13.7739H3.17862ZM16.9524 32.5422L87.9405 32.5422L16.9524 32.5422ZM3.17862 32.9316H13.7739H3.17862ZM16.9524 32.9316L87.9405 32.9316L16.9524 32.9316ZM3.17862 33.321H13.7739H3.17862ZM16.9524 33.321L87.9405 33.321L16.9524 33.321ZM1.05957 33.7104L87.9405 33.7104L1.05957 33.7104ZM1.05957 34.0998L87.9405 34.0998L1.05957 34.0998ZM1.05957 34.4892L87.9405 34.4892L1.05957 34.4892ZM1.05957 34.8787L87.9405 34.8787L1.05957 34.8787ZM1.05957 35.2681L87.9405 35.2681L1.05957 35.2681ZM1.05957 35.6575L87.9405 35.6575L1.05957 35.6575ZM1.05957 36.0469L87.9405 36.0469L1.05957 36.0469ZM1.05957 36.4363L87.9405 36.4363L1.05957 36.4363ZM1.05957 36.8257L87.9405 36.8257L1.05957 36.8257ZM1.05957 37.2151L87.9405 37.2151L1.05957 37.2151ZM1.05957 37.6045L87.9405 37.6045L1.05957 37.6045ZM1.05957 37.994L87.9405 37.994L1.05957 37.994ZM1.05957 38.3834L87.9405 38.3834L1.05957 38.3834ZM1.05957 38.7728L87.9405 38.7728L1.05957 38.7728ZM1.05957 39.1622L87.9405 39.1622L1.05957 39.1622ZM1.05957 39.5516L87.9405 39.5516L1.05957 39.5516ZM1.05957 39.941L87.9405 39.941L1.05957 39.941ZM1.05957 40.3304L87.9405 40.3304L1.05957 40.3304ZM1.05957 40.7198L87.9405 40.7198L1.05957 40.7198ZM1.05957 41.1093L87.9405 41.1093L1.05957 41.1093ZM1.05957 41.4987L87.9405 41.4987L1.05957 41.4987ZM1.05957 41.8881L87.9405 41.8881L1.05957 41.8881ZM1.05957 42.2775L87.9405 42.2775L1.05957 42.2775ZM1.05957 42.6669L87.9405 42.6669L1.05957 42.6669ZM1.05957 43.0563L77.3453 43.0563L1.05957 43.0563ZM1.05957 43.4457L77.3453 43.4457L1.05957 43.4457ZM1.05957 43.8351L77.3453 43.8351L1.05957 43.8351ZM9.53576 44.2246L87.9405 44.2246L9.53576 44.2246ZM9.53576 44.614L87.9405 44.614L9.53576 44.614ZM9.53576 45.0034L87.9405 45.0034L9.53576 45.0034ZM1.05957 45.3928L87.9405 45.3928L1.05957 45.3928ZM1.05957 45.7822L87.9405 45.7822L1.05957 45.7822ZM1.05957 46.1716L87.9405 46.1716L1.05957 46.1716ZM1.05957 46.561L87.9405 46.561L1.05957 46.561ZM1.05957 46.9505L87.9405 46.9505L1.05957 46.9505ZM1.05957 47.3399L87.9405 47.3399L1.05957 47.3399ZM1.05957 47.7293L87.9405 47.7293L1.05957 47.7293ZM1.05957 48.1187L87.9405 48.1187L1.05957 48.1187ZM1.05957 48.5081L87.9405 48.5081L1.05957 48.5081ZM1.05957 48.8975L87.9405 48.8975L1.05957 48.8975ZM1.05957 49.2869L87.9405 49.2869L1.05957 49.2869ZM1.05957 49.6763L87.9405 49.6763L1.05957 49.6763ZM1.05957 50.0658L87.9405 50.0658L1.05957 50.0658ZM1.05957 50.4552L87.9405 50.4552L1.05957 50.4552ZM1.05957 50.8446L87.9405 50.8446L1.05957 50.8446ZM1.05957 51.234L87.9405 51.234L1.05957 51.234ZM1.05957 51.6234L87.9405 51.6234L1.05957 51.6234ZM1.05957 52.0128L87.9405 52.0128L1.05957 52.0128ZM2.11909 52.4022L84.7619 52.4022L2.11909 52.4022ZM2.11909 52.7916L84.7619 52.7916L2.11909 52.7916ZM2.11909 53.1811L84.7619 53.1811L2.11909 53.1811ZM2.11909 53.5705L86.881 53.5705L2.11909 53.5705ZM2.11909 53.9599L86.881 53.9599L2.11909 53.9599ZM2.11909 54.3493L86.881 54.3493L2.11909 54.3493ZM3.17862 54.7387H7.41671H3.17862ZM14.8334 54.7387L86.881 54.7387L14.8334 54.7387ZM3.17862 55.1281H7.41671H3.17862ZM14.8334 55.1281L86.881 55.1281L14.8334 55.1281ZM3.17862 55.5175H7.41671H3.17862ZM14.8334 55.5175L86.881 55.5175L14.8334 55.5175ZM1.05957 55.9069L85.8215 55.9069L1.05957 55.9069ZM1.05957 56.2964L85.8215 56.2964L1.05957 56.2964ZM1.05957 56.6858L85.8215 56.6858L1.05957 56.6858ZM1.05957 57.0752L87.9405 57.0752L1.05957 57.0752ZM1.05957 57.4646L87.9405 57.4646L1.05957 57.4646ZM1.05957 57.854L87.9405 57.854L1.05957 57.854ZM1.05957 58.2434L87.9405 58.2434L1.05957 58.2434ZM1.05957 58.6328L87.9405 58.6328L1.05957 58.6328ZM1.05957 59.0222L87.9405 59.0222L1.05957 59.0222ZM2.11909 59.4117L87.9405 59.4117L2.11909 59.4117ZM2.11909 59.8011L87.9405 59.8011L2.11909 59.8011ZM2.11909 60.1905L87.9405 60.1905L2.11909 60.1905ZM1.05957 60.5799L86.881 60.5799L1.05957 60.5799ZM1.05957 60.9693L86.881 60.9693L1.05957 60.9693ZM1.05957 61.3587L86.881 61.3587L1.05957 61.3587ZM1.05957 61.7481L86.881 61.7481L1.05957 61.7481ZM1.05957 62.1376L86.881 62.1376L1.05957 62.1376ZM1.05957 62.527L86.881 62.527L1.05957 62.527ZM42.381 65.2529H44.5H42.381ZM42.381 65.6423H44.5H42.381ZM42.381 66.0317H44.5H42.381ZM42.381 66.4211H46.6191H42.381ZM42.381 66.8105H46.6191H42.381ZM42.381 67.1999H46.6191H42.381ZM42.381 67.5893H46.6191H42.381ZM42.381 67.9787H46.6191H42.381ZM42.381 68.3682H46.6191H42.381ZM42.381 68.7576H46.6191H42.381ZM42.381 69.147H46.6191H42.381ZM42.381 69.5364H46.6191H42.381ZM42.381 69.9258H46.6191H42.381ZM42.381 70.3152H46.6191H42.381ZM42.381 70.7046H46.6191H42.381ZM42.381 71.094H46.6191H42.381ZM42.381 71.4835H46.6191H42.381ZM42.381 71.8729H46.6191H42.381ZM42.381 72.2623H46.6191H42.381ZM42.381 72.6517H46.6191H42.381ZM42.381 73.0411H46.6191H42.381ZM42.381 73.4305H46.6191H42.381ZM42.381 73.8199H46.6191H42.381ZM42.381 74.2094H46.6191H42.381ZM42.381 74.5988H46.6191H42.381ZM42.381 74.9882H46.6191H42.381ZM42.381 75.3776H46.6191H42.381ZM42.381 75.767H46.6191H42.381ZM42.381 76.1564H46.6191H42.381ZM42.381 76.5458H46.6191H42.381ZM42.381 76.9352H46.6191H42.381ZM42.381 77.3247H46.6191H42.381ZM42.381 77.7141H46.6191H42.381ZM42.381 78.1035H46.6191H42.381ZM42.381 78.4929H46.6191H42.381ZM42.381 78.8823H46.6191H42.381ZM42.381 79.2717H46.6191H42.381ZM42.381 79.6611H46.6191H42.381ZM42.381 80.0505H46.6191H42.381ZM42.381 80.44H46.6191H42.381ZM42.381 80.8294H46.6191H42.381ZM42.381 81.2188H46.6191H42.381ZM42.381 81.6082H46.6191H42.381ZM42.381 81.9976H46.6191H42.381ZM42.381 82.387H46.6191H42.381ZM42.381 82.7764H46.6191H42.381ZM42.381 83.1658H46.6191H42.381ZM42.381 83.5553H46.6191H42.381ZM42.381 83.9447H46.6191H42.381ZM42.381 84.3341H46.6191H42.381ZM42.381 84.7235H46.6191H42.381ZM42.381 85.1129H46.6191H42.381ZM42.381 85.5023H46.6191H42.381ZM42.381 85.8917H46.6191H42.381ZM42.381 86.2812H46.6191H42.381ZM42.381 86.6706H46.6191H42.381ZM42.381 87.06H46.6191H42.381ZM42.381 87.4494H46.6191H42.381ZM42.381 87.8388H46.6191H42.381ZM42.381 88.2282H46.6191H42.381Z" fill="black"/>
<g filter="url(#filter0_d_1_767)">
<path fill-rule="evenodd" clip-rule="evenodd" d="M44.5 1.97412V3.14236H46.6191V5.47884H42.381V1.97412H44.5ZM87.9405 6.64708V8.98355H86.881V10.1518H87.9405V13.6565H85.8215V14.8247H86.881V17.1612H85.8215V18.3295H87.9405V24.1707H86.881V25.3389H85.8215V26.5071H86.881V28.8436H87.9405V42.8625H77.3453V44.0307H87.9405V52.2084H84.7619V53.3766H86.881V55.7131H85.8215V56.8813H87.9405V60.386H86.881V62.7225L1.05957 62.7225V60.386H2.11909V59.2178H1.05957V55.7131H3.17862V54.5449H2.11909V52.2084H1.05957V45.1989H9.53576V44.0307H1.05957V33.5166H3.17862V32.3483H1.05957V25.3389H12.7143V24.1707H2.11909V21.8342H1.05957V17.1612H4.23814V15.993H2.11909V13.6565H3.17862V12.4883H1.05957V6.64708L87.9405 6.64708ZM75.2262 25.3389H70.9881V26.5071H75.2262V25.3389ZM82.6429 25.3389H77.3453V26.5071H82.6429V25.3389ZM16.9524 32.3483H13.7739V33.5166H16.9524V32.3483ZM14.8334 54.5449H7.41671V55.7131H14.8334V54.5449ZM44.5 65.059V66.2272H46.6191V88.4238H42.381V65.059H44.5Z" fill="#884B2B"/>
</g>
<g filter="url(#filter1_d_1_767)">
<mask id="path-5-outside-1_1_767" maskUnits="userSpaceOnUse" x="35" y="19" width="19" height="29" fill="black">
<rect fill="white" x="35" y="19" width="19" height="29"/>
<path d="M37.75 46V42.5H41.25V28.5H37.75V25H41.25V21.5H48.25V42.5H51.75V46H37.75Z"/>
</mask>
<path d="M37.75 46V42.5H41.25V28.5H37.75V25H41.25V21.5H48.25V42.5H51.75V46H37.75Z" fill="white"/>
<path d="M37.75 46H35.75V48H37.75V46ZM37.75 42.5V40.5H35.75V42.5H37.75ZM41.25 42.5V44.5H43.25V42.5H41.25ZM41.25 28.5H43.25V26.5H41.25V28.5ZM37.75 28.5H35.75V30.5H37.75V28.5ZM37.75 25V23H35.75V25H37.75ZM41.25 25V27H43.25V25H41.25ZM41.25 21.5V19.5H39.25V21.5H41.25ZM48.25 21.5H50.25V19.5H48.25V21.5ZM48.25 42.5H46.25V44.5H48.25V42.5ZM51.75 42.5H53.75V40.5H51.75V42.5ZM51.75 46V48H53.75V46H51.75ZM39.75 46V42.5H35.75V46H39.75ZM37.75 44.5H41.25V40.5H37.75V44.5ZM43.25 42.5V28.5H39.25V42.5H43.25ZM41.25 26.5H37.75V30.5H41.25V26.5ZM39.75 28.5V25H35.75V28.5H39.75ZM37.75 27H41.25V23H37.75V27ZM43.25 25V21.5H39.25V25H43.25ZM41.25 23.5H48.25V19.5H41.25V23.5ZM46.25 21.5V42.5H50.25V21.5H46.25ZM48.25 44.5H51.75V40.5H48.25V44.5ZM49.75 42.5V46H53.75V42.5H49.75ZM51.75 44H37.75V48H51.75V44Z" fill="black" mask="url(#path-5-outside-1_1_767)"/>
</g>
<defs>
<filter id="filter0_d_1_767" x="1.05957" y="1.97412" width="88.8809" height="88.4497" filterUnits="userSpaceOnUse" color-interpolation-filters="sRGB">
<feFlood flood-opacity="0" result="BackgroundImageFix"/>
<feColorMatrix in="SourceAlpha" type="matrix" values="0 0 0 0 0 0 0 0 0 0 0 0 0 0 0 0 0 0 127 0" result="hardAlpha"/>
<feOffset dx="2" dy="2"/>
<feComposite in2="hardAlpha" operator="out"/>
<feColorMatrix type="matrix" values="0 0 0 0 0 0 0 0 0 0 0 0 0 0 0 0 0 0 1 0"/>
<feBlend mode="normal" in2="BackgroundImageFix" result="effect1_dropShadow_1_767"/>
<feBlend mode="normal" in="SourceGraphic" in2="effect1_dropShadow_1_767" result="shape"/>
</filter>
<filter id="filter1_d_1_767" x="37.75" y="21.5" width="18" height="28.5" filterUnits="userSpaceOnUse" color-interpolation-filters="sRGB">
<feFlood flood-opacity="0" result="BackgroundImageFix"/>
<feColorMatrix in="SourceAlpha" type="matrix" values="0 0 0 0 0 0 0 0 0 0 0 0 0 0 0 0 0 0 127 0" result="hardAlpha"/>
<feOffset dx="4" dy="4"/>
<feComposite in2="hardAlpha" operator="out"/>
<feColorMatrix type="matrix" values="0 0 0 0 0 0 0 0 0 0 0 0 0 0 0 0 0 0 1 0"/>
<feBlend mode="normal" in2="BackgroundImageFix" result="effect1_dropShadow_1_767"/>
<feBlend mode="normal" in="SourceGraphic" in2="effect1_dropShadow_1_767" result="shape"/>
</filter>
</defs>
</svg>
