<svg width="89" height="91" viewBox="0 0 89 91" fill="none" xmlns="http://www.w3.org/2000/svg">
<path d="M41.3214 1.39648L44.5 1.39648L41.3214 1.39648ZM45.5595 1.39648H47.6786H45.5595ZM41.3214 1.7859L44.5 1.7859L41.3214 1.7859ZM45.5595 1.7859H47.6786H45.5595ZM41.3214 2.17531L44.5 2.17531L41.3214 2.17531ZM45.5595 2.17531H47.6786H45.5595ZM41.3214 2.56472H42.381H41.3214ZM44.5 2.56472H47.6786H44.5ZM41.3214 2.95414H42.381H41.3214ZM44.5 2.95414H47.6786H44.5ZM41.3214 3.34355H42.381H41.3214ZM44.5 3.34355H47.6786H44.5ZM41.3214 3.73296H42.381H41.3214ZM46.619 3.73296H47.6786H46.619ZM41.3214 4.12237H42.381H41.3214ZM46.619 4.12237H47.6786H46.619ZM41.3214 4.51179H42.381H41.3214ZM46.619 4.51179H47.6786H46.619ZM41.3214 4.9012H42.381H41.3214ZM46.619 4.9012H47.6786H46.619ZM41.3214 5.29061H42.381H41.3214ZM46.619 5.29061H47.6786H46.619ZM41.3214 5.68003H42.381H41.3214ZM46.619 5.68003H47.6786H46.619ZM0 6.06944L89 6.06944L0 6.06944ZM0 6.45885L89 6.45885L0 6.45885ZM0 6.84827L89 6.84827L0 6.84827ZM0 7.23768H1.05952H0ZM87.9405 7.23768H89H87.9405ZM0 7.62709H1.05952H0ZM87.9405 7.62709H89H87.9405ZM0 8.0165H1.05952H0ZM87.9405 8.0165H89H87.9405ZM0 8.40592H1.05952H0ZM87.9405 8.40592H89H87.9405ZM0 8.79533H1.05952H0ZM87.9405 8.79533H89H87.9405ZM0 9.18474H1.05952H0ZM87.9405 9.18474H89H87.9405ZM0 9.57416H1.05952H0ZM86.881 9.57416H87.9405H86.881ZM0 9.96357H1.05952H0ZM86.881 9.96357H87.9405H86.881ZM0 10.353H1.05952H0ZM86.881 10.353H87.9405H86.881ZM0 10.7424H1.05952H0ZM87.9405 10.7424H89H87.9405ZM0 11.1318H1.05952H0ZM87.9405 11.1318H89H87.9405ZM0 11.5212H1.05952H0ZM87.9405 11.5212H89H87.9405ZM0 11.9106H1.05952H0ZM87.9405 11.9106H89H87.9405ZM0 12.3H1.05952H0ZM87.9405 12.3H89H87.9405ZM0 12.6895H1.05952H0ZM87.9405 12.6895H89H87.9405ZM1.05952 13.0789H3.17857H1.05952ZM87.9405 13.0789H89H87.9405ZM1.05952 13.4683H3.17857H1.05952ZM87.9405 13.4683H89H87.9405ZM1.05952 13.8577H3.17857H1.05952ZM87.9405 13.8577H89H87.9405ZM1.05952 14.2471H2.11905H1.05952ZM85.8214 14.2471H89H85.8214ZM1.05952 14.6365H2.11905H1.05952ZM85.8214 14.6365H89H85.8214ZM1.05952 15.0259H2.11905H1.05952ZM85.8214 15.0259H89H85.8214ZM1.05952 15.4153H2.11905H1.05952ZM86.881 15.4153H87.9405H86.881ZM1.05952 15.8048H2.11905H1.05952ZM86.881 15.8048H87.9405H86.881ZM1.05952 16.1942H2.11905H1.05952ZM86.881 16.1942H87.9405H86.881ZM1.05952 16.5836H4.2381H1.05952ZM86.881 16.5836H87.9405H86.881ZM1.05952 16.973H4.2381H1.05952ZM86.881 16.973H87.9405H86.881ZM1.05952 17.3624H4.2381H1.05952ZM86.881 17.3624H87.9405H86.881ZM0 17.7518H1.05952H0ZM85.8214 17.7518H87.9405H85.8214ZM0 18.1412H1.05952H0ZM85.8214 18.1412H87.9405H85.8214ZM0 18.5307H1.05952H0ZM85.8214 18.5307H87.9405H85.8214ZM0 18.9201H1.05952H0ZM87.9405 18.9201H89H87.9405ZM0 19.3095H1.05952H0ZM87.9405 19.3095H89H87.9405ZM0 19.6989H1.05952H0ZM87.9405 19.6989H89H87.9405ZM0 20.0883H1.05952H0ZM87.9405 20.0883H89H87.9405ZM0 20.4777H1.05952H0ZM87.9405 20.4777H89H87.9405ZM0 20.8671H1.05952H0ZM87.9405 20.8671H89H87.9405ZM0 21.2565H1.05952H0ZM87.9405 21.2565H89H87.9405ZM0 21.646H1.05952H0ZM87.9405 21.646H89H87.9405ZM0 22.0354H1.05952H0ZM87.9405 22.0354H89H87.9405ZM1.05952 22.4248H2.11905H1.05952ZM87.9405 22.4248H89H87.9405ZM1.05952 22.8142H2.11905H1.05952ZM87.9405 22.8142H89H87.9405ZM1.05952 23.2036H2.11905H1.05952ZM87.9405 23.2036H89H87.9405ZM1.05952 23.593H2.11905H1.05952ZM87.9405 23.593H89H87.9405ZM1.05952 23.9824H2.11905H1.05952ZM87.9405 23.9824H89H87.9405ZM1.05952 24.3718H2.11905H1.05952ZM87.9405 24.3718H89H87.9405ZM1.05952 24.7613H12.7143H1.05952ZM86.881 24.7613H87.9405H86.881ZM1.05952 25.1507H12.7143H1.05952ZM86.881 25.1507H87.9405H86.881ZM1.05952 25.5401H12.7143H1.05952ZM86.881 25.5401H87.9405H86.881ZM0 25.9295H1.05952H0ZM70.9881 25.9295H75.2262H70.9881ZM77.3452 25.9295H82.6429H77.3452ZM85.8214 25.9295H86.881H85.8214ZM0 26.3189H1.05952H0ZM70.9881 26.3189H75.2262H70.9881ZM77.3452 26.3189H82.6429H77.3452ZM85.8214 26.3189H86.881H85.8214ZM0 26.7083H1.05952H0ZM70.9881 26.7083H75.2262H70.9881ZM77.3452 26.7083H82.6429H77.3452ZM85.8214 26.7083H86.881H85.8214ZM0 27.0977H1.05952H0ZM86.881 27.0977H87.9405H86.881ZM0 27.4872H1.05952H0ZM86.881 27.4872H87.9405H86.881ZM0 27.8766H1.05952H0ZM86.881 27.8766H87.9405H86.881ZM0 28.266H1.05952H0ZM86.881 28.266H87.9405H86.881ZM0 28.6554H1.05952H0ZM86.881 28.6554H87.9405H86.881ZM0 29.0448H1.05952H0ZM86.881 29.0448H87.9405H86.881ZM0 29.4342H1.05952H0ZM87.9405 29.4342H89H87.9405ZM0 29.8236H1.05952H0ZM87.9405 29.8236H89H87.9405ZM0 30.213H1.05952H0ZM87.9405 30.213H89H87.9405ZM0 30.6025H1.05952H0ZM87.9405 30.6025H89H87.9405ZM0 30.9919H1.05952H0ZM87.9405 30.9919H89H87.9405ZM0 31.3813H1.05952H0ZM87.9405 31.3813H89H87.9405ZM0 31.7707H1.05952H0ZM87.9405 31.7707H89H87.9405ZM0 32.1601H1.05952H0ZM87.9405 32.1601H89H87.9405ZM0 32.5495H1.05952H0ZM87.9405 32.5495H89H87.9405ZM1.05952 32.9389H3.17857H1.05952ZM13.7738 32.9389H16.9524H13.7738ZM87.9405 32.9389H89H87.9405ZM1.05952 33.3283H3.17857H1.05952ZM13.7738 33.3283H16.9524H13.7738ZM87.9405 33.3283H89H87.9405ZM1.05952 33.7178H3.17857H1.05952ZM13.7738 33.7178H16.9524H13.7738ZM87.9405 33.7178H89H87.9405ZM0 34.1072H1.05952H0ZM87.9405 34.1072H89H87.9405ZM0 34.4966H1.05952H0ZM87.9405 34.4966H89H87.9405ZM0 34.886H1.05952H0ZM87.9405 34.886H89H87.9405ZM0 35.2754H1.05952H0ZM87.9405 35.2754H89H87.9405ZM0 35.6648H1.05952H0ZM87.9405 35.6648H89H87.9405ZM0 36.0542H1.05952H0ZM87.9405 36.0542H89H87.9405ZM0 36.4436H1.05952H0ZM87.9405 36.4436H89H87.9405ZM0 36.8331H1.05952H0ZM87.9405 36.8331H89H87.9405ZM0 37.2225H1.05952H0ZM87.9405 37.2225H89H87.9405ZM0 37.6119H1.05952H0ZM87.9405 37.6119H89H87.9405ZM0 38.0013H1.05952H0ZM87.9405 38.0013H89H87.9405ZM0 38.3907H1.05952H0ZM87.9405 38.3907H89H87.9405ZM0 38.7801H1.05952H0ZM87.9405 38.7801H89H87.9405ZM0 39.1695H1.05952H0ZM87.9405 39.1695H89H87.9405ZM0 39.5589H1.05952H0ZM87.9405 39.5589H89H87.9405ZM0 39.9484H1.05952H0ZM87.9405 39.9484H89H87.9405ZM0 40.3378H1.05952H0ZM87.9405 40.3378H89H87.9405ZM0 40.7272H1.05952H0ZM87.9405 40.7272H89H87.9405ZM0 41.1166H1.05952H0ZM87.9405 41.1166H89H87.9405ZM0 41.506H1.05952H0ZM87.9405 41.506H89H87.9405ZM0 41.8954H1.05952H0ZM87.9405 41.8954H89H87.9405ZM0 42.2848H1.05952H0ZM87.9405 42.2848H89H87.9405ZM0 42.6743H1.05952H0ZM87.9405 42.6743H89H87.9405ZM0 43.0637H1.05952H0ZM87.9405 43.0637H89H87.9405ZM0 43.4531H1.05952H0ZM77.3452 43.4531H87.9405H77.3452ZM0 43.8425H1.05952H0ZM77.3452 43.8425H87.9405H77.3452ZM0 44.2319H1.05952H0ZM77.3452 44.2319H87.9405H77.3452ZM1.05952 44.6213H9.53571H1.05952ZM87.9405 44.6213H89H87.9405ZM1.05952 45.0107H9.53571H1.05952ZM87.9405 45.0107H89H87.9405ZM1.05952 45.4001H9.53571H1.05952ZM87.9405 45.4001H89H87.9405ZM0 45.7896H1.05952H0ZM87.9405 45.7896H89H87.9405ZM0 46.179H1.05952H0ZM87.9405 46.179H89H87.9405ZM0 46.5684H1.05952H0ZM87.9405 46.5684H89H87.9405ZM0 46.9578H1.05952H0ZM87.9405 46.9578H89H87.9405ZM0 47.3472H1.05952H0ZM87.9405 47.3472H89H87.9405ZM0 47.7366H1.05952H0ZM87.9405 47.7366H89H87.9405ZM0 48.126H1.05952H0ZM87.9405 48.126H89H87.9405ZM0 48.5154H1.05952H0ZM87.9405 48.5154H89H87.9405ZM0 48.9049H1.05952H0ZM87.9405 48.9049H89H87.9405ZM0 49.2943H1.05952H0ZM87.9405 49.2943H89H87.9405ZM0 49.6837H1.05952H0ZM87.9405 49.6837H89H87.9405ZM0 50.0731H1.05952H0ZM87.9405 50.0731H89H87.9405ZM0 50.4625H1.05952H0ZM87.9405 50.4625H89H87.9405ZM0 50.8519H1.05952H0ZM87.9405 50.8519H89H87.9405ZM0 51.2413H1.05952H0ZM87.9405 51.2413H89H87.9405ZM0 51.6307H1.05952H0ZM87.9405 51.6307H89H87.9405ZM0 52.0202H1.05952H0ZM87.9405 52.0202H89H87.9405ZM0 52.4096H1.05952H0ZM87.9405 52.4096H89H87.9405ZM1.05952 52.799H2.11905H1.05952ZM84.7619 52.799H87.9405H84.7619ZM1.05952 53.1884H2.11905H1.05952ZM84.7619 53.1884H87.9405H84.7619ZM1.05952 53.5778H2.11905H1.05952ZM84.7619 53.5778H87.9405H84.7619ZM1.05952 53.9672H2.11905H1.05952ZM86.881 53.9672H87.9405H86.881ZM1.05952 54.3566H2.11905H1.05952ZM86.881 54.3566H87.9405H86.881ZM1.05952 54.7461H2.11905H1.05952ZM86.881 54.7461H87.9405H86.881ZM1.05952 55.1355H3.17857H1.05952ZM7.41667 55.1355H14.8333H7.41667ZM86.881 55.1355H87.9405H86.881ZM1.05952 55.5249H3.17857H1.05952ZM7.41667 55.5249H14.8333H7.41667ZM86.881 55.5249H87.9405H86.881ZM1.05952 55.9143H3.17857H1.05952ZM7.41667 55.9143H14.8333H7.41667ZM86.881 55.9143H87.9405H86.881ZM0 56.3037H1.05952H0ZM85.8214 56.3037H87.9405H85.8214ZM0 56.6931H1.05952H0ZM85.8214 56.6931H87.9405H85.8214ZM0 57.0825H1.05952H0ZM85.8214 57.0825H87.9405H85.8214ZM0 57.4719H1.05952H0ZM87.9405 57.4719H89H87.9405ZM0 57.8614H1.05952H0ZM87.9405 57.8614H89H87.9405ZM0 58.2508H1.05952H0ZM87.9405 58.2508H89H87.9405ZM0 58.6402H1.05952H0ZM87.9405 58.6402H89H87.9405ZM0 59.0296H1.05952H0ZM87.9405 59.0296H89H87.9405ZM0 59.419H1.05952H0ZM87.9405 59.419H89H87.9405ZM1.05952 59.8084H2.11905H1.05952ZM87.9405 59.8084H89H87.9405ZM1.05952 60.1978H2.11905H1.05952ZM87.9405 60.1978H89H87.9405ZM1.05952 60.5872H2.11905H1.05952ZM87.9405 60.5872H89H87.9405ZM0 60.9767H1.05952H0ZM86.881 60.9767H87.9405H86.881ZM0 61.3661H1.05952H0ZM86.881 61.3661H87.9405H86.881ZM0 61.7555H1.05952H0ZM86.881 61.7555H87.9405H86.881ZM0 62.1449H1.05952H0ZM86.881 62.1449H87.9405H86.881ZM0 62.5343H1.05952H0ZM86.881 62.5343H87.9405H86.881ZM0 62.9237H1.05952H0ZM86.881 62.9237H87.9405H86.881ZM0 63.3131H87.9405H0ZM0 63.7025H87.9405H0ZM0 64.092H87.9405H0ZM41.3214 64.4814H47.6786H41.3214ZM41.3214 64.8708H47.6786H41.3214ZM41.3214 65.2602H47.6786H41.3214ZM41.3214 65.6496H42.381H41.3214ZM44.5 65.6496H47.6786H44.5ZM41.3214 66.039H42.381H41.3214ZM44.5 66.039H47.6786H44.5ZM41.3214 66.4284H42.381H41.3214ZM44.5 66.4284H47.6786H44.5ZM41.3214 66.8179H42.381H41.3214ZM46.619 66.8179H47.6786H46.619ZM41.3214 67.2073H42.381H41.3214ZM46.619 67.2073H47.6786H46.619ZM41.3214 67.5967H42.381H41.3214ZM46.619 67.5967H47.6786H46.619ZM41.3214 67.9861H42.381H41.3214ZM46.619 67.9861H47.6786H46.619ZM41.3214 68.3755H42.381H41.3214ZM46.619 68.3755H47.6786H46.619ZM41.3214 68.7649H42.381H41.3214ZM46.619 68.7649H47.6786H46.619ZM41.3214 69.1543H42.381H41.3214ZM46.619 69.1543H47.6786H46.619ZM41.3214 69.5437H42.381H41.3214ZM46.619 69.5437H47.6786H46.619ZM41.3214 69.9332H42.381H41.3214ZM46.619 69.9332H47.6786H46.619ZM41.3214 70.3226H42.381H41.3214ZM46.619 70.3226H47.6786H46.619ZM41.3214 70.712H42.381H41.3214ZM46.619 70.712H47.6786H46.619ZM41.3214 71.1014H42.381H41.3214ZM46.619 71.1014H47.6786H46.619ZM41.3214 71.4908H42.381H41.3214ZM46.619 71.4908H47.6786H46.619ZM41.3214 71.8802H42.381H41.3214ZM46.619 71.8802H47.6786H46.619ZM41.3214 72.2696H42.381H41.3214ZM46.619 72.2696H47.6786H46.619ZM41.3214 72.659H42.381H41.3214ZM46.619 72.659H47.6786H46.619ZM41.3214 73.0485H42.381H41.3214ZM46.619 73.0485H47.6786H46.619ZM41.3214 73.4379H42.381H41.3214ZM46.619 73.4379H47.6786H46.619ZM41.3214 73.8273H42.381H41.3214ZM46.619 73.8273H47.6786H46.619ZM41.3214 74.2167H42.381H41.3214ZM46.619 74.2167H47.6786H46.619ZM41.3214 74.6061H42.381H41.3214ZM46.619 74.6061H47.6786H46.619ZM41.3214 74.9955H42.381H41.3214ZM46.619 74.9955H47.6786H46.619ZM41.3214 75.3849H42.381H41.3214ZM46.619 75.3849H47.6786H46.619ZM41.3214 75.7744H42.381H41.3214ZM46.619 75.7744H47.6786H46.619ZM41.3214 76.1638H42.381H41.3214ZM46.619 76.1638H47.6786H46.619ZM41.3214 76.5532H42.381H41.3214ZM46.619 76.5532H47.6786H46.619ZM41.3214 76.9426H42.381H41.3214ZM46.619 76.9426H47.6786H46.619ZM41.3214 77.332H42.381H41.3214ZM46.619 77.332H47.6786H46.619ZM41.3214 77.7214H42.381H41.3214ZM46.619 77.7214H47.6786H46.619ZM41.3214 78.1108H42.381H41.3214ZM46.619 78.1108H47.6786H46.619ZM41.3214 78.5002H42.381H41.3214ZM46.619 78.5002H47.6786H46.619ZM41.3214 78.8897H42.381H41.3214ZM46.619 78.8897H47.6786H46.619ZM41.3214 79.2791H42.381H41.3214ZM46.619 79.2791H47.6786H46.619ZM41.3214 79.6685H42.381H41.3214ZM46.619 79.6685H47.6786H46.619ZM41.3214 80.0579H42.381H41.3214ZM46.619 80.0579H47.6786H46.619ZM41.3214 80.4473H42.381H41.3214ZM46.619 80.4473H47.6786H46.619ZM41.3214 80.8367H42.381H41.3214ZM46.619 80.8367H47.6786H46.619ZM41.3214 81.2261H42.381H41.3214ZM46.619 81.2261H47.6786H46.619ZM41.3214 81.6155H42.381H41.3214ZM46.619 81.6155H47.6786H46.619ZM41.3214 82.005H42.381H41.3214ZM46.619 82.005H47.6786H46.619ZM41.3214 82.3944H42.381H41.3214ZM46.619 82.3944H47.6786H46.619ZM41.3214 82.7838H42.381H41.3214ZM46.619 82.7838H47.6786H46.619ZM41.3214 83.1732H42.381H41.3214ZM46.619 83.1732H47.6786H46.619ZM41.3214 83.5626H42.381H41.3214ZM46.619 83.5626H47.6786H46.619ZM41.3214 83.952H42.381H41.3214ZM46.619 83.952H47.6786H46.619ZM41.3214 84.3414H42.381H41.3214ZM46.619 84.3414H47.6786H46.619ZM41.3214 84.7309H42.381H41.3214ZM46.619 84.7309H47.6786H46.619ZM41.3214 85.1203H42.381H41.3214ZM46.619 85.1203H47.6786H46.619ZM41.3214 85.5097H42.381H41.3214ZM46.619 85.5097H47.6786H46.619ZM41.3214 85.8991H42.381H41.3214ZM46.619 85.8991H47.6786H46.619ZM41.3214 86.2885H42.381H41.3214ZM46.619 86.2885H47.6786H46.619ZM41.3214 86.6779H42.381H41.3214ZM46.619 86.6779H47.6786H46.619ZM41.3214 87.0673H42.381H41.3214ZM46.619 87.0673H47.6786H46.619ZM41.3214 87.4567H42.381H41.3214ZM46.619 87.4567H47.6786H46.619ZM41.3214 87.8462H42.381H41.3214ZM46.619 87.8462H47.6786H46.619ZM41.3214 88.2356H42.381H41.3214ZM46.619 88.2356H47.6786H46.619ZM41.3214 88.625H42.381H41.3214ZM46.619 88.625H47.6786H46.619ZM41.3214 89.0144H47.6786H41.3214ZM41.3214 89.4038H47.6786H41.3214ZM41.3214 89.7932H47.6786H41.3214Z" fill="black"/>
<path d="M41.3214 1.39648L44.5 1.39648M45.5595 1.39648H47.6786M41.3214 1.7859L44.5 1.7859M45.5595 1.7859H47.6786M41.3214 2.17531L44.5 2.17531M45.5595 2.17531H47.6786M41.3214 2.56472H42.381M44.5 2.56472H47.6786M41.3214 2.95414H42.381M44.5 2.95414H47.6786M41.3214 3.34355H42.381M44.5 3.34355H47.6786M41.3214 3.73296H42.381M46.619 3.73296H47.6786M41.3214 4.12237H42.381M46.619 4.12237H47.6786M41.3214 4.51179H42.381M46.619 4.51179H47.6786M41.3214 4.9012H42.381M46.619 4.9012H47.6786M41.3214 5.29061H42.381M46.619 5.29061H47.6786M41.3214 5.68003H42.381M46.619 5.68003H47.6786M0 6.06944L89 6.06944M0 6.45885L89 6.45885M0 6.84827L89 6.84827M0 7.23768H1.05952M87.9405 7.23768H89M0 7.62709H1.05952M87.9405 7.62709H89M0 8.0165H1.05952M87.9405 8.0165H89M0 8.40592H1.05952M87.9405 8.40592H89M0 8.79533H1.05952M87.9405 8.79533H89M0 9.18474H1.05952M87.9405 9.18474H89M0 9.57416H1.05952M86.881 9.57416H87.9405M0 9.96357H1.05952M86.881 9.96357H87.9405M0 10.353H1.05952M86.881 10.353H87.9405M0 10.7424H1.05952M87.9405 10.7424H89M0 11.1318H1.05952M87.9405 11.1318H89M0 11.5212H1.05952M87.9405 11.5212H89M0 11.9106H1.05952M87.9405 11.9106H89M0 12.3H1.05952M87.9405 12.3H89M0 12.6895H1.05952M87.9405 12.6895H89M1.05952 13.0789H3.17857M87.9405 13.0789H89M1.05952 13.4683H3.17857M87.9405 13.4683H89M1.05952 13.8577H3.17857M87.9405 13.8577H89M1.05952 14.2471H2.11905M85.8214 14.2471H89M1.05952 14.6365H2.11905M85.8214 14.6365H89M1.05952 15.0259H2.11905M85.8214 15.0259H89M1.05952 15.4153H2.11905M86.881 15.4153H87.9405M1.05952 15.8048H2.11905M86.881 15.8048H87.9405M1.05952 16.1942H2.11905M86.881 16.1942H87.9405M1.05952 16.5836H4.2381M86.881 16.5836H87.9405M1.05952 16.973H4.2381M86.881 16.973H87.9405M1.05952 17.3624H4.2381M86.881 17.3624H87.9405M0 17.7518H1.05952M85.8214 17.7518H87.9405M0 18.1412H1.05952M85.8214 18.1412H87.9405M0 18.5307H1.05952M85.8214 18.5307H87.9405M0 18.9201H1.05952M87.9405 18.9201H89M0 19.3095H1.05952M87.9405 19.3095H89M0 19.6989H1.05952M87.9405 19.6989H89M0 20.0883H1.05952M87.9405 20.0883H89M0 20.4777H1.05952M87.9405 20.4777H89M0 20.8671H1.05952M87.9405 20.8671H89M0 21.2565H1.05952M87.9405 21.2565H89M0 21.646H1.05952M87.9405 21.646H89M0 22.0354H1.05952M87.9405 22.0354H89M1.05952 22.4248H2.11905M87.9405 22.4248H89M1.05952 22.8142H2.11905M87.9405 22.8142H89M1.05952 23.2036H2.11905M87.9405 23.2036H89M1.05952 23.593H2.11905M87.9405 23.593H89M1.05952 23.9824H2.11905M87.9405 23.9824H89M1.05952 24.3718H2.11905M87.9405 24.3718H89M1.05952 24.7613H12.7143M86.881 24.7613H87.9405M1.05952 25.1507H12.7143M86.881 25.1507H87.9405M1.05952 25.5401H12.7143M86.881 25.5401H87.9405M0 25.9295H1.05952M70.9881 25.9295H75.2262M77.3452 25.9295H82.6429M85.8214 25.9295H86.881M0 26.3189H1.05952M70.9881 26.3189H75.2262M77.3452 26.3189H82.6429M85.8214 26.3189H86.881M0 26.7083H1.05952M70.9881 26.7083H75.2262M77.3452 26.7083H82.6429M85.8214 26.7083H86.881M0 27.0977H1.05952M86.881 27.0977H87.9405M0 27.4871H1.05952M86.881 27.4871H87.9405M0 27.8766H1.05952M86.881 27.8766H87.9405M0 28.266H1.05952M86.881 28.266H87.9405M0 28.6554H1.05952M86.881 28.6554H87.9405M0 29.0448H1.05952M86.881 29.0448H87.9405M0 29.4342H1.05952M87.9405 29.4342H89M0 29.8236H1.05952M87.9405 29.8236H89M0 30.213H1.05952M87.9405 30.213H89M0 30.6025H1.05952M87.9405 30.6025H89M0 30.9919H1.05952M87.9405 30.9919H89M0 31.3813H1.05952M87.9405 31.3813H89M0 31.7707H1.05952M87.9405 31.7707H89M0 32.1601H1.05952M87.9405 32.1601H89M0 32.5495H1.05952M87.9405 32.5495H89M1.05952 32.9389H3.17857M13.7738 32.9389H16.9524M87.9405 32.9389H89M1.05952 33.3283H3.17857M13.7738 33.3283H16.9524M87.9405 33.3283H89M1.05952 33.7178H3.17857M13.7738 33.7178H16.9524M87.9405 33.7178H89M0 34.1072H1.05952M87.9405 34.1072H89M0 34.4966H1.05952M87.9405 34.4966H89M0 34.886H1.05952M87.9405 34.886H89M0 35.2754H1.05952M87.9405 35.2754H89M0 35.6648H1.05952M87.9405 35.6648H89M0 36.0542H1.05952M87.9405 36.0542H89M0 36.4436H1.05952M87.9405 36.4436H89M0 36.8331H1.05952M87.9405 36.8331H89M0 37.2225H1.05952M87.9405 37.2225H89M0 37.6119H1.05952M87.9405 37.6119H89M0 38.0013H1.05952M87.9405 38.0013H89M0 38.3907H1.05952M87.9405 38.3907H89M0 38.7801H1.05952M87.9405 38.7801H89M0 39.1695H1.05952M87.9405 39.1695H89M0 39.5589H1.05952M87.9405 39.5589H89M0 39.9484H1.05952M87.9405 39.9484H89M0 40.3378H1.05952M87.9405 40.3378H89M0 40.7272H1.05952M87.9405 40.7272H89M0 41.1166H1.05952M87.9405 41.1166H89M0 41.506H1.05952M87.9405 41.506H89M0 41.8954H1.05952M87.9405 41.8954H89M0 42.2848H1.05952M87.9405 42.2848H89M0 42.6743H1.05952M87.9405 42.6743H89M0 43.0637H1.05952M87.9405 43.0637H89M0 43.4531H1.05952M77.3452 43.4531H87.9405M0 43.8425H1.05952M77.3452 43.8425H87.9405M0 44.2319H1.05952M77.3452 44.2319H87.9405M1.05952 44.6213H9.53571M87.9405 44.6213H89M1.05952 45.0107H9.53571M87.9405 45.0107H89M1.05952 45.4001H9.53571M87.9405 45.4001H89M0 45.7896H1.05952M87.9405 45.7896H89M0 46.179H1.05952M87.9405 46.179H89M0 46.5684H1.05952M87.9405 46.5684H89M0 46.9578H1.05952M87.9405 46.9578H89M0 47.3472H1.05952M87.9405 47.3472H89M0 47.7366H1.05952M87.9405 47.7366H89M0 48.126H1.05952M87.9405 48.126H89M0 48.5154H1.05952M87.9405 48.5154H89M0 48.9049H1.05952M87.9405 48.9049H89M0 49.2943H1.05952M87.9405 49.2943H89M0 49.6837H1.05952M87.9405 49.6837H89M0 50.0731H1.05952M87.9405 50.0731H89M0 50.4625H1.05952M87.9405 50.4625H89M0 50.8519H1.05952M87.9405 50.8519H89M0 51.2413H1.05952M87.9405 51.2413H89M0 51.6307H1.05952M87.9405 51.6307H89M0 52.0202H1.05952M87.9405 52.0202H89M0 52.4096H1.05952M87.9405 52.4096H89M1.05952 52.799H2.11905M84.7619 52.799H87.9405M1.05952 53.1884H2.11905M84.7619 53.1884H87.9405M1.05952 53.5778H2.11905M84.7619 53.5778H87.9405M1.05952 53.9672H2.11905M86.881 53.9672H87.9405M1.05952 54.3566H2.11905M86.881 54.3566H87.9405M1.05952 54.7461H2.11905M86.881 54.7461H87.9405M1.05952 55.1355H3.17857M7.41667 55.1355H14.8333M86.881 55.1355H87.9405M1.05952 55.5249H3.17857M7.41667 55.5249H14.8333M86.881 55.5249H87.9405M1.05952 55.9143H3.17857M7.41667 55.9143H14.8333M86.881 55.9143H87.9405M0 56.3037H1.05952M85.8214 56.3037H87.9405M0 56.6931H1.05952M85.8214 56.6931H87.9405M0 57.0825H1.05952M85.8214 57.0825H87.9405M0 57.4719H1.05952M87.9405 57.4719H89M0 57.8614H1.05952M87.9405 57.8614H89M0 58.2508H1.05952M87.9405 58.2508H89M0 58.6402H1.05952M87.9405 58.6402H89M0 59.0296H1.05952M87.9405 59.0296H89M0 59.419H1.05952M87.9405 59.419H89M1.05952 59.8084H2.11905M87.9405 59.8084H89M1.05952 60.1978H2.11905M87.9405 60.1978H89M1.05952 60.5872H2.11905M87.9405 60.5872H89M0 60.9767H1.05952M86.881 60.9767H87.9405M0 61.3661H1.05952M86.881 61.3661H87.9405M0 61.7555H1.05952M86.881 61.7555H87.9405M0 62.1449H1.05952M86.881 62.1449H87.9405M0 62.5343H1.05952M86.881 62.5343H87.9405M0 62.9237H1.05952M86.881 62.9237H87.9405M0 63.3131H87.9405M0 63.7025H87.9405M0 64.092H87.9405M41.3214 64.4814H47.6786M41.3214 64.8708H47.6786M41.3214 65.2602H47.6786M41.3214 65.6496H42.381M44.5 65.6496H47.6786M41.3214 66.039H42.381M44.5 66.039H47.6786M41.3214 66.4284H42.381M44.5 66.4284H47.6786M41.3214 66.8179H42.381M46.619 66.8179H47.6786M41.3214 67.2073H42.381M46.619 67.2073H47.6786M41.3214 67.5967H42.381M46.619 67.5967H47.6786M41.3214 67.9861H42.381M46.619 67.9861H47.6786M41.3214 68.3755H42.381M46.619 68.3755H47.6786M41.3214 68.7649H42.381M46.619 68.7649H47.6786M41.3214 69.1543H42.381M46.619 69.1543H47.6786M41.3214 69.5437H42.381M46.619 69.5437H47.6786M41.3214 69.9332H42.381M46.619 69.9332H47.6786M41.3214 70.3226H42.381M46.619 70.3226H47.6786M41.3214 70.712H42.381M46.619 70.712H47.6786M41.3214 71.1014H42.381M46.619 71.1014H47.6786M41.3214 71.4908H42.381M46.619 71.4908H47.6786M41.3214 71.8802H42.381M46.619 71.8802H47.6786M41.3214 72.2696H42.381M46.619 72.2696H47.6786M41.3214 72.659H42.381M46.619 72.659H47.6786M41.3214 73.0485H42.381M46.619 73.0485H47.6786M41.3214 73.4379H42.381M46.619 73.4379H47.6786M41.3214 73.8273H42.381M46.619 73.8273H47.6786M41.3214 74.2167H42.381M46.619 74.2167H47.6786M41.3214 74.6061H42.381M46.619 74.6061H47.6786M41.3214 74.9955H42.381M46.619 74.9955H47.6786M41.3214 75.3849H42.381M46.619 75.3849H47.6786M41.3214 75.7744H42.381M46.619 75.7744H47.6786M41.3214 76.1638H42.381M46.619 76.1638H47.6786M41.3214 76.5532H42.381M46.619 76.5532H47.6786M41.3214 76.9426H42.381M46.619 76.9426H47.6786M41.3214 77.332H42.381M46.619 77.332H47.6786M41.3214 77.7214H42.381M46.619 77.7214H47.6786M41.3214 78.1108H42.381M46.619 78.1108H47.6786M41.3214 78.5002H42.381M46.619 78.5002H47.6786M41.3214 78.8897H42.381M46.619 78.8897H47.6786M41.3214 79.2791H42.381M46.619 79.2791H47.6786M41.3214 79.6685H42.381M46.619 79.6685H47.6786M41.3214 80.0579H42.381M46.619 80.0579H47.6786M41.3214 80.4473H42.381M46.619 80.4473H47.6786M41.3214 80.8367H42.381M46.619 80.8367H47.6786M41.3214 81.2261H42.381M46.619 81.2261H47.6786M41.3214 81.6155H42.381M46.619 81.6155H47.6786M41.3214 82.005H42.381M46.619 82.005H47.6786M41.3214 82.3944H42.381M46.619 82.3944H47.6786M41.3214 82.7838H42.381M46.619 82.7838H47.6786M41.3214 83.1732H42.381M46.619 83.1732H47.6786M41.3214 83.5626H42.381M46.619 83.5626H47.6786M41.3214 83.952H42.381M46.619 83.952H47.6786M41.3214 84.3414H42.381M46.619 84.3414H47.6786M41.3214 84.7308H42.381M46.619 84.7308H47.6786M41.3214 85.1203H42.381M46.619 85.1203H47.6786M41.3214 85.5097H42.381M46.619 85.5097H47.6786M41.3214 85.8991H42.381M46.619 85.8991H47.6786M41.3214 86.2885H42.381M46.619 86.2885H47.6786M41.3214 86.6779H42.381M46.619 86.6779H47.6786M41.3214 87.0673H42.381M46.619 87.0673H47.6786M41.3214 87.4567H42.381M46.619 87.4567H47.6786M41.3214 87.8462H42.381M46.619 87.8462H47.6786M41.3214 88.2356H42.381M46.619 88.2356H47.6786M41.3214 88.625H42.381M46.619 88.625H47.6786M41.3214 89.0144H47.6786M41.3214 89.4038H47.6786M41.3214 89.7932H47.6786" stroke="#602C2C"/>
<path d="M42.381 2.56445H44.5H42.381ZM42.381 2.95387H44.5H42.381ZM42.381 3.34328H44.5H42.381ZM42.381 3.73269H46.6191H42.381ZM42.381 4.1221H46.6191H42.381ZM42.381 4.51152H46.6191H42.381ZM42.381 4.90093H46.6191H42.381ZM42.381 5.29034H46.6191H42.381ZM42.381 5.67976H46.6191H42.381ZM1.05957 7.23741L87.9405 7.23741L1.05957 7.23741ZM1.05957 7.62682L87.9405 7.62682L1.05957 7.62682ZM1.05957 8.01623L87.9405 8.01623L1.05957 8.01623ZM1.05957 8.40565L87.9405 8.40565L1.05957 8.40565ZM1.05957 8.79506L87.9405 8.79506L1.05957 8.79506ZM1.05957 9.18447L87.9405 9.18447L1.05957 9.18447ZM1.05957 9.57388L86.881 9.57388L1.05957 9.57388ZM1.05957 9.9633L86.881 9.9633L1.05957 9.9633ZM1.05957 10.3527L86.881 10.3527L1.05957 10.3527ZM1.05957 10.7421L87.9405 10.7421L1.05957 10.7421ZM1.05957 11.1315L87.9405 11.1315L1.05957 11.1315ZM1.05957 11.5209L87.9405 11.5209L1.05957 11.5209ZM1.05957 11.9104L87.9405 11.9104L1.05957 11.9104ZM1.05957 12.2998L87.9405 12.2998L1.05957 12.2998ZM1.05957 12.6892L87.9405 12.6892L1.05957 12.6892ZM3.17862 13.0786L87.9405 13.0786L3.17862 13.0786ZM3.17862 13.468L87.9405 13.468L3.17862 13.468ZM3.17862 13.8574L87.9405 13.8574L3.17862 13.8574ZM2.11909 14.2468L85.8215 14.2468L2.11909 14.2468ZM2.11909 14.6363L85.8215 14.6363L2.11909 14.6363ZM2.11909 15.0257L85.8215 15.0257L2.11909 15.0257ZM2.11909 15.4151L86.881 15.4151L2.11909 15.4151ZM2.11909 15.8045L86.881 15.8045L2.11909 15.8045ZM2.11909 16.1939L86.881 16.1939L2.11909 16.1939ZM4.23814 16.5833L86.881 16.5833L4.23814 16.5833ZM4.23814 16.9727L86.881 16.9727L4.23814 16.9727ZM4.23814 17.3621L86.881 17.3621L4.23814 17.3621ZM1.05957 17.7516L85.8215 17.7516L1.05957 17.7516ZM1.05957 18.141L85.8215 18.141L1.05957 18.141ZM1.05957 18.5304L85.8215 18.5304L1.05957 18.5304ZM1.05957 18.9198L87.9405 18.9198L1.05957 18.9198ZM1.05957 19.3092L87.9405 19.3092L1.05957 19.3092ZM1.05957 19.6986L87.9405 19.6986L1.05957 19.6986ZM1.05957 20.088L87.9405 20.088L1.05957 20.088ZM1.05957 20.4774L87.9405 20.4774L1.05957 20.4774ZM1.05957 20.8669L87.9405 20.8669L1.05957 20.8669ZM1.05957 21.2563L87.9405 21.2563L1.05957 21.2563ZM1.05957 21.6457L87.9405 21.6457L1.05957 21.6457ZM1.05957 22.0351L87.9405 22.0351L1.05957 22.0351ZM2.11909 22.4245L87.9405 22.4245L2.11909 22.4245ZM2.11909 22.8139L87.9405 22.8139L2.11909 22.8139ZM2.11909 23.2033L87.9405 23.2033L2.11909 23.2033ZM2.11909 23.5927L87.9405 23.5927L2.11909 23.5927ZM2.11909 23.9822L87.9405 23.9822L2.11909 23.9822ZM2.11909 24.3716L87.9405 24.3716L2.11909 24.3716ZM12.7143 24.761L86.881 24.761L12.7143 24.761ZM12.7143 25.1504L86.881 25.1504L12.7143 25.1504ZM12.7143 25.5398L86.881 25.5398L12.7143 25.5398ZM1.05957 25.9292L70.9881 25.9292L1.05957 25.9292ZM75.2262 25.9292H77.3453H75.2262ZM82.6429 25.9292L85.8215 25.9292L82.6429 25.9292ZM1.05957 26.3186L70.9881 26.3186L1.05957 26.3186ZM75.2262 26.3186H77.3453H75.2262ZM82.6429 26.3186L85.8215 26.3186L82.6429 26.3186ZM1.05957 26.7081L70.9881 26.7081L1.05957 26.7081ZM75.2262 26.7081H77.3453H75.2262ZM82.6429 26.7081L85.8215 26.7081L82.6429 26.7081ZM1.05957 27.0975L86.881 27.0975L1.05957 27.0975ZM1.05957 27.4869L86.881 27.4869L1.05957 27.4869ZM1.05957 27.8763L86.881 27.8763L1.05957 27.8763ZM1.05957 28.2657L86.881 28.2657L1.05957 28.2657ZM1.05957 28.6551L86.881 28.6551L1.05957 28.6551ZM1.05957 29.0445L86.881 29.0445L1.05957 29.0445ZM1.05957 29.4339L87.9405 29.4339L1.05957 29.4339ZM1.05957 29.8234L87.9405 29.8234L1.05957 29.8234ZM1.05957 30.2128L87.9405 30.2128L1.05957 30.2128ZM1.05957 30.6022L87.9405 30.6022L1.05957 30.6022ZM1.05957 30.9916L87.9405 30.9916L1.05957 30.9916ZM1.05957 31.381L87.9405 31.381L1.05957 31.381ZM1.05957 31.7704L87.9405 31.7704L1.05957 31.7704ZM1.05957 32.1598L87.9405 32.1598L1.05957 32.1598ZM1.05957 32.5492L87.9405 32.5492L1.05957 32.5492ZM3.17862 32.9387H13.7739H3.17862ZM16.9524 32.9387L87.9405 32.9387L16.9524 32.9387ZM3.17862 33.3281H13.7739H3.17862ZM16.9524 33.3281L87.9405 33.3281L16.9524 33.3281ZM3.17862 33.7175H13.7739H3.17862ZM16.9524 33.7175L87.9405 33.7175L16.9524 33.7175ZM1.05957 34.1069L87.9405 34.1069L1.05957 34.1069ZM1.05957 34.4963L87.9405 34.4963L1.05957 34.4963ZM1.05957 34.8857L87.9405 34.8857L1.05957 34.8857ZM1.05957 35.2751L87.9405 35.2751L1.05957 35.2751ZM1.05957 35.6645L87.9405 35.6645L1.05957 35.6645ZM1.05957 36.054L87.9405 36.054L1.05957 36.054ZM1.05957 36.4434L87.9405 36.4434L1.05957 36.4434ZM1.05957 36.8328L87.9405 36.8328L1.05957 36.8328ZM1.05957 37.2222L87.9405 37.2222L1.05957 37.2222ZM1.05957 37.6116L87.9405 37.6116L1.05957 37.6116ZM1.05957 38.001L87.9405 38.001L1.05957 38.001ZM1.05957 38.3904L87.9405 38.3904L1.05957 38.3904ZM1.05957 38.7799L87.9405 38.7799L1.05957 38.7799ZM1.05957 39.1693L87.9405 39.1693L1.05957 39.1693ZM1.05957 39.5587L87.9405 39.5587L1.05957 39.5587ZM1.05957 39.9481L87.9405 39.9481L1.05957 39.9481ZM1.05957 40.3375L87.9405 40.3375L1.05957 40.3375ZM1.05957 40.7269L87.9405 40.7269L1.05957 40.7269ZM1.05957 41.1163L87.9405 41.1163L1.05957 41.1163ZM1.05957 41.5057L87.9405 41.5057L1.05957 41.5057ZM1.05957 41.8952L87.9405 41.8952L1.05957 41.8952ZM1.05957 42.2846L87.9405 42.2846L1.05957 42.2846ZM1.05957 42.674L87.9405 42.674L1.05957 42.674ZM1.05957 43.0634L87.9405 43.0634L1.05957 43.0634ZM1.05957 43.4528L77.3453 43.4528L1.05957 43.4528ZM1.05957 43.8422L77.3453 43.8422L1.05957 43.8422ZM1.05957 44.2316L77.3453 44.2316L1.05957 44.2316ZM9.53576 44.621L87.9405 44.621L9.53576 44.621ZM9.53576 45.0105L87.9405 45.0105L9.53576 45.0105ZM9.53576 45.3999L87.9405 45.3999L9.53576 45.3999ZM1.05957 45.7893L87.9405 45.7893L1.05957 45.7893ZM1.05957 46.1787L87.9405 46.1787L1.05957 46.1787ZM1.05957 46.5681L87.9405 46.5681L1.05957 46.5681ZM1.05957 46.9575L87.9405 46.9575L1.05957 46.9575ZM1.05957 47.3469L87.9405 47.3469L1.05957 47.3469ZM1.05957 47.7363L87.9405 47.7363L1.05957 47.7363ZM1.05957 48.1258L87.9405 48.1258L1.05957 48.1258ZM1.05957 48.5152L87.9405 48.5152L1.05957 48.5152ZM1.05957 48.9046L87.9405 48.9046L1.05957 48.9046ZM1.05957 49.294L87.9405 49.294L1.05957 49.294ZM1.05957 49.6834L87.9405 49.6834L1.05957 49.6834ZM1.05957 50.0728L87.9405 50.0728L1.05957 50.0728ZM1.05957 50.4622L87.9405 50.4622L1.05957 50.4622ZM1.05957 50.8517L87.9405 50.8517L1.05957 50.8517ZM1.05957 51.2411L87.9405 51.2411L1.05957 51.2411ZM1.05957 51.6305L87.9405 51.6305L1.05957 51.6305ZM1.05957 52.0199L87.9405 52.0199L1.05957 52.0199ZM1.05957 52.4093L87.9405 52.4093L1.05957 52.4093ZM2.11909 52.7987L84.7619 52.7987L2.11909 52.7987ZM2.11909 53.1881L84.7619 53.1881L2.11909 53.1881ZM2.11909 53.5775L84.7619 53.5775L2.11909 53.5775ZM2.11909 53.967L86.881 53.967L2.11909 53.967ZM2.11909 54.3564L86.881 54.3564L2.11909 54.3564ZM2.11909 54.7458L86.881 54.7458L2.11909 54.7458ZM3.17862 55.1352H7.41671H3.17862ZM14.8334 55.1352L86.881 55.1352L14.8334 55.1352ZM3.17862 55.5246H7.41671H3.17862ZM14.8334 55.5246L86.881 55.5246L14.8334 55.5246ZM3.17862 55.914H7.41671H3.17862ZM14.8334 55.914L86.881 55.914L14.8334 55.914ZM1.05957 56.3034L85.8215 56.3034L1.05957 56.3034ZM1.05957 56.6928L85.8215 56.6928L1.05957 56.6928ZM1.05957 57.0823L85.8215 57.0823L1.05957 57.0823ZM1.05957 57.4717L87.9405 57.4717L1.05957 57.4717ZM1.05957 57.8611L87.9405 57.8611L1.05957 57.8611ZM1.05957 58.2505L87.9405 58.2505L1.05957 58.2505ZM1.05957 58.6399L87.9405 58.6399L1.05957 58.6399ZM1.05957 59.0293L87.9405 59.0293L1.05957 59.0293ZM1.05957 59.4187L87.9405 59.4187L1.05957 59.4187ZM2.11909 59.8081L87.9405 59.8081L2.11909 59.8081ZM2.11909 60.1976L87.9405 60.1976L2.11909 60.1976ZM2.11909 60.587L87.9405 60.587L2.11909 60.587ZM1.05957 60.9764L86.881 60.9764L1.05957 60.9764ZM1.05957 61.3658L86.881 61.3658L1.05957 61.3658ZM1.05957 61.7552L86.881 61.7552L1.05957 61.7552ZM1.05957 62.1446L86.881 62.1446L1.05957 62.1446ZM1.05957 62.534L86.881 62.534L1.05957 62.534ZM1.05957 62.9235L86.881 62.9235L1.05957 62.9235ZM42.381 65.6493H44.5H42.381ZM42.381 66.0388H44.5H42.381ZM42.381 66.4282H44.5H42.381ZM42.381 66.8176H46.6191H42.381ZM42.381 67.207H46.6191H42.381ZM42.381 67.5964H46.6191H42.381ZM42.381 67.9858H46.6191H42.381ZM42.381 68.3752H46.6191H42.381ZM42.381 68.7646H46.6191H42.381ZM42.381 69.1541H46.6191H42.381ZM42.381 69.5435H46.6191H42.381ZM42.381 69.9329H46.6191H42.381ZM42.381 70.3223H46.6191H42.381ZM42.381 70.7117H46.6191H42.381ZM42.381 71.1011H46.6191H42.381ZM42.381 71.4905H46.6191H42.381ZM42.381 71.8799H46.6191H42.381ZM42.381 72.2694H46.6191H42.381ZM42.381 72.6588H46.6191H42.381ZM42.381 73.0482H46.6191H42.381ZM42.381 73.4376H46.6191H42.381ZM42.381 73.827H46.6191H42.381ZM42.381 74.2164H46.6191H42.381ZM42.381 74.6058H46.6191H42.381ZM42.381 74.9952H46.6191H42.381ZM42.381 75.3847H46.6191H42.381ZM42.381 75.7741H46.6191H42.381ZM42.381 76.1635H46.6191H42.381ZM42.381 76.5529H46.6191H42.381ZM42.381 76.9423H46.6191H42.381ZM42.381 77.3317H46.6191H42.381ZM42.381 77.7211H46.6191H42.381ZM42.381 78.1105H46.6191H42.381ZM42.381 78.5H46.6191H42.381ZM42.381 78.8894H46.6191H42.381ZM42.381 79.2788H46.6191H42.381ZM42.381 79.6682H46.6191H42.381ZM42.381 80.0576H46.6191H42.381ZM42.381 80.447H46.6191H42.381ZM42.381 80.8364H46.6191H42.381ZM42.381 81.2259H46.6191H42.381ZM42.381 81.6153H46.6191H42.381ZM42.381 82.0047H46.6191H42.381ZM42.381 82.3941H46.6191H42.381ZM42.381 82.7835H46.6191H42.381ZM42.381 83.1729H46.6191H42.381ZM42.381 83.5623H46.6191H42.381ZM42.381 83.9517H46.6191H42.381ZM42.381 84.3412H46.6191H42.381ZM42.381 84.7306H46.6191H42.381ZM42.381 85.12H46.6191H42.381ZM42.381 85.5094H46.6191H42.381ZM42.381 85.8988H46.6191H42.381ZM42.381 86.2882H46.6191H42.381ZM42.381 86.6776H46.6191H42.381ZM42.381 87.067H46.6191H42.381ZM42.381 87.4565H46.6191H42.381ZM42.381 87.8459H46.6191H42.381ZM42.381 88.2353H46.6191H42.381ZM42.381 88.6247H46.6191H42.381Z" fill="black"/>
<path fill-rule="evenodd" clip-rule="evenodd" d="M44.5 2.37061V3.53884H46.6191V5.87532H42.381V2.37061H44.5ZM87.9405 7.04356V9.38004H86.881V10.5483H87.9405V14.053H85.8215V15.2212H86.881V17.5577H85.8215V18.7259H87.9405V24.5671H86.881V25.7354H85.8215V26.9036H86.881V29.2401H87.9405V43.259H77.3453V44.4272H87.9405V52.6049H84.7619V53.7731H86.881V56.1096H85.8215V57.2778H87.9405V60.7825H86.881V63.119L1.05957 63.119V60.7825H2.11909V59.6143H1.05957V56.1096H3.17862V54.9413H2.11909V52.6049H1.05957V45.5954H9.53576V44.4272H1.05957V33.913H3.17862V32.7448H1.05957V25.7354H12.7143V24.5671H2.11909V22.2307H1.05957V17.5577H4.23814V16.3895H2.11909V14.053H3.17862V12.8848H1.05957V7.04356L87.9405 7.04356ZM75.2262 25.7354H70.9881V26.9036H75.2262V25.7354ZM82.6429 25.7354H77.3453V26.9036H82.6429V25.7354ZM16.9524 32.7448H13.7739V33.913H16.9524V32.7448ZM14.8334 54.9413H7.41671V56.1096H14.8334V54.9413ZM44.5 65.4555V66.6237H46.6191V88.8203H42.381V65.4555H44.5Z" fill="#884B2B"/>
<g filter="url(#filter0_d_1_809)">
<mask id="path-5-outside-1_1_809" maskUnits="userSpaceOnUse" x="32" y="21.3965" width="22" height="29" fill="black">
<rect fill="white" x="32" y="21.3965" width="22" height="29"/>
<path d="M44.5 48.3965V41.3965H34V34.3965H37.5V30.8965H41V37.8965H44.5V30.8965H41V27.3965H44.5V23.8965H51.5V48.3965H44.5Z"/>
</mask>
<path d="M44.5 48.3965V41.3965H34V34.3965H37.5V30.8965H41V37.8965H44.5V30.8965H41V27.3965H44.5V23.8965H51.5V48.3965H44.5Z" fill="white"/>
<path d="M44.5 48.3965H42.5V50.3965H44.5V48.3965ZM44.5 41.3965H46.5V39.3965H44.5V41.3965ZM34 41.3965H32V43.3965H34V41.3965ZM34 34.3965V32.3965H32V34.3965H34ZM37.5 34.3965V36.3965H39.5V34.3965H37.5ZM37.5 30.8965V28.8965H35.5V30.8965H37.5ZM41 30.8965H43V28.8965H41V30.8965ZM41 37.8965H39V39.8965H41V37.8965ZM44.5 37.8965V39.8965H46.5V37.8965H44.5ZM44.5 30.8965H46.5V28.8965H44.5V30.8965ZM41 30.8965H39V32.8965H41V30.8965ZM41 27.3965V25.3965H39V27.3965H41ZM44.5 27.3965V29.3965H46.5V27.3965H44.5ZM44.5 23.8965V21.8965H42.5V23.8965H44.5ZM51.5 23.8965H53.5V21.8965H51.5V23.8965ZM51.5 48.3965V50.3965H53.5V48.3965H51.5ZM46.5 48.3965V41.3965H42.5V48.3965H46.5ZM44.5 39.3965H34V43.3965H44.5V39.3965ZM36 41.3965V34.3965H32V41.3965H36ZM34 36.3965H37.5V32.3965H34V36.3965ZM39.5 34.3965V30.8965H35.5V34.3965H39.5ZM37.5 32.8965H41V28.8965H37.5V32.8965ZM39 30.8965V37.8965H43V30.8965H39ZM41 39.8965H44.5V35.8965H41V39.8965ZM46.5 37.8965V30.8965H42.5V37.8965H46.5ZM44.5 28.8965H41V32.8965H44.5V28.8965ZM43 30.8965V27.3965H39V30.8965H43ZM41 29.3965H44.5V25.3965H41V29.3965ZM46.5 27.3965V23.8965H42.5V27.3965H46.5ZM44.5 25.8965H51.5V21.8965H44.5V25.8965ZM49.5 23.8965V48.3965H53.5V23.8965H49.5ZM51.5 46.3965H44.5V50.3965H51.5V46.3965Z" fill="black" mask="url(#path-5-outside-1_1_809)"/>
</g>
<defs>
<filter id="filter0_d_1_809" x="34" y="23.8965" width="21.5" height="28.5" filterUnits="userSpaceOnUse" color-interpolation-filters="sRGB">
<feFlood flood-opacity="0" result="BackgroundImageFix"/>
<feColorMatrix in="SourceAlpha" type="matrix" values="0 0 0 0 0 0 0 0 0 0 0 0 0 0 0 0 0 0 127 0" result="hardAlpha"/>
<feOffset dx="4" dy="4"/>
<feComposite in2="hardAlpha" operator="out"/>
<feColorMatrix type="matrix" values="0 0 0 0 0 0 0 0 0 0 0 0 0 0 0 0 0 0 1 0"/>
<feBlend mode="normal" in2="BackgroundImageFix" result="effect1_dropShadow_1_809"/>
<feBlend mode="normal" in="SourceGraphic" in2="effect1_dropShadow_1_809" result="shape"/>
</filter>
</defs>
</svg>
