<svg version="1.2" xmlns="http://www.w3.org/2000/svg" viewBox="0 0 492 62" width="492" height="62">
	<title>image</title>
	<defs>
		<clipPath clipPathUnits="userSpaceOnUse" id="cp1">
			<path d="m190 0h185v62h-185z"/>
		</clipPath>
		<clipPath clipPathUnits="userSpaceOnUse" id="cp2">
			<path d="m431 2h61v59h-61z"/>
		</clipPath>
		<clipPath clipPathUnits="userSpaceOnUse" id="cp3">
			<path d="m111 25h52v26h-52z"/>
		</clipPath>
	</defs>
	<style>
		.s0 { fill: #000000 } 
		.s1 { fill: #090a14 } 
		.s2 { fill: #a8b5b2 } 
		.s3 { fill: #5b0000 } 
		.s4 { fill: #602c2c } 
		.s5 { fill: #e6120b } 
		.s6 { fill: #be772b } 
		.s7 { fill: #884b2b } 
		.s8 { fill: #ebede9 } 
		.s9 { fill: #ffd500 } 
		.s10 { fill: #341c27 } 
		.s11 { fill: #a53030 } 
		.s12 { fill: #ffffff } 
		.s13 { fill: #ba9a09 } 
		.s14 { fill: #7a3d2d } 
		.s15 { fill: #c97460 } 
		.s16 { fill: #a65440 } 
	</style>
	<g id="Clip-Path" clip-path="url(#cp1)">
		<g id="Layer">
			<path id="Layer" class="s0" d="m228.2 0.3h8.1zm0 0.5h8zm0 0.5h8zm0 0.5h8.1zm0 0.5h2zm8 0h4.1zm-8.1 0.5h2zm8.1 0h4zm-8.1 0.5h2.1zm8 0h4zm-8 0.5h2zm8 0h4.1zm-8.1 0.5h2zm12.1 0h2zm-12.1 0.5h2zm12.1 0h2zm-12 0.5h2zm12 0h2zm-12 0.5h2zm12.1 0h2zm-12.1 0.5h2zm14.1 0h2zm-14.1 0.5h2zm14.1 0h2zm-14.1 0.5h2.1zm14 0h2zm-14 0.5h2zm14.1 0h2zm-14.1 0.5h2zm16.1 0h2zm-16.1 0.5h2zm16.1 0h2zm-16.1 0.5h2zm16.1 0h2zm-16 0.5h2zm16.1 0h2zm-16.1 0.5h2zm18.1 0h2zm-18.1 0.5h2zm18.1 0h2zm-18.1 0.5h2zm18.1 0h2zm-18.1 0.5h2.1zm18 0h2.1zm-18.1 0.5h2zm20.1 0h4zm-20.1 0.5h2zm20.1 0h4zm-20.1 0.5h2zm20.1 0h4.1zm-20.1 0.5h2zm20.1 0h4zm-18.1 0.5h2zm22.1 0h2zm-22.1 0.5h2zm22.2 0h2zm-22.2 0.5h2.1zm22.1 0h2zm-22.1 0.5h2zm22.1 0h2zm-22.1 0.5h2zm0 0.5h2zm0 0.5h2zm0 0.5h2zm0 26.4l2 0.1zm0 0.5h2.1zm0 0.5h2zm0 0.5h2zm0 0.5h2zm22.1 0h2zm-22.1 0.5h2zm22.1 0h2zm-22.1 0.5h2zm22.2 0h2zm-22.2 0.5h2.1zm22.1 0h2zm-24.1 0.5h2zm20.1 0h4zm-20.1 0.5h2zm20.1 0h4zm-20.1 0.5h2zm20.1 0h4.1zm-20.1 0.5h2zm20.1 0h4zm-20.1 0.5h2zm18.1 0h2zm-18.1 0.5h2zm18.1 0h2zm-18.1 0.5h2zm18.1 0h2zm-18.1 0.5h2.1zm18.1 0h2zm-18.1 0.5h2zm16.1 0h2zm-16.1 0.5h2zm16.1 0h2zm-16.1 0.5h2zm16.1 0h2zm-16.1 0.5h2zm16.1 0h2zm-16 0.5h2zm14 0h2.1zm-14.1 0.5h2zm14.1 0h2zm-14.1 0.5h2zm14.1 0h2zm-14.1 0.5h2zm14.1 0h2zm-14.1 0.5h2.1zm12 0h2zm-12 0.5h2zm12 0h2.1zm-12.1 0.5h2zm12.1 0h2zm-12.1 0.5h2zm12.1 0h2zm-12.1 0.5h2zm8.1 0h4zm-8 0.5h2zm8 0h4zm-8 0.5h2zm8.1 0h4zm-8.1 0.5h2zm8.1 0h4zm-8 0.5h8zm0 0.5h8.1zm0 0.5h8zm0 0.5h8z"/>
			<path id="Layer" fill-rule="evenodd" class="s1" d="m236.3 0l-0.1 2h-6v12h-2v-14zm4 4h-4v-2h4zm2 2h-2v-2h2zm2 2h-2v-2h2zm2.1 2h-2.1v-2h2.1zm2 2h-2v-2h2zm4 2h-4v-2h4zm2 0v2h-2v-2zm-22.1 0v4h-2v-4zm0 30v4h-2v-4zm4 16v2h-8.1v-14h2v12zm4.1-2v2h-4.1v-2zm2.1-2v2h-2.1v-2zm2.1-2v2h-2.1v-2zm2.1-2v2h-2.1v-2zm2.1-2v2h-2.1v-2zm4.1-2v2h-4.1v-2zm0-2h2.1v2h-2.1z"/>
			<path id="Layer" class="s0" d="m230.2 2.3h6.1zm0 0.5h6zm0 0.5h6zm0 0.5h6zm0 0.5h10.1zm0 0.5h10.1zm0 0.5h10zm0 0.5h10.1zm0 0.5h12zm0 0.5h12.1zm0 0.5h12.1zm0 0.5h12zm0 0.5h14.1zm0 0.5h14.1zm0 0.5h14.1zm0 0.5h14zm0 0.5h16.1zm0 0.5h16.1zm0 0.5h16.1zm0 0.5h16.1zm0 0.5h18.1zm0 0.5h18.1zm0 0.5h18.1zm0 0.5h18.1zm2 0.5h20.1zm0 0.5h20.1zm0 0.5h20.1zm0 0.5h20.1zm0 0.5h6zm0 0.5h6.1zm0 0.5h6zm0 0.5h6zm0 26.4l6.1 0.1zm0 0.5h6zm0 0.5h6zm0 0.5h6.1zm0 0.5h20.1zm0 0.5h20.1zm0 0.5h20.1zm0 0.5h20.1zm-2 0.5h18.1zm0 0.5h18.1zm0 0.5h18.1zm0 0.5h18.1zm0 0.5h16.1zm0 0.5h16.1zm0 0.5h16zm0 0.5h16.1zm0 0.5h14.1zm0 0.5h14.1zm0 0.5h14.1zm0 0.5h14zm0 0.5h12.1zm0 0.5h12.1zm0 0.5h12zm0 0.5h12.1zm0 0.5h10zm0 0.5h10.1zm0 0.5h10.1zm0 0.5h10zm0 0.5h6zm0 0.5h6.1zm0 0.5h6zm0 0.5h6z"/>
			<path id="Layer" fill-rule="evenodd" class="s2" d="m230.2 2v12h2v4h6.1v-2h14v-2h-4v-2h-2v-2h-2v-2h-2v-2h-2v-2h-4v-2zm2 42v4h-2v12h6v-2h4v-2h2v-2h2v-2h2v-2h2v-2h4.1v-2h-14.1v-2z"/>
			<path id="Layer" class="s0" d="m334.8 10.3l8-0.1zm0 0.5h8.1zm0 0.5h8zm0 0.5h8.1zm0 0.5h2zm8 0h4zm-8 0.5h2zm8 0h4.1zm-8.1 0.5h2zm8.1 0h4zm-8 0.5h2zm8 0h4zm-8 0.5h2zm12.1 0h4zm-12.1 0.5h2zm12.1 0h4zm-12 0.5h2zm12 0h4.1zm-12.1 0.5h2zm12.1 0h4zm-108.6 0.5h98.5zm112.6 0h4.1zm-112.6 0.5h98.5zm112.6 0h4zm-112.6 0.5h98.5zm112.6 0h4.1zm-112.6 0.5h98.5zm112.6 0h4zm-118.6 0.5h6zm102.6 0h2zm20.1 0h2zm-122.7 0.5h6.1zm102.5 0h2zm20.1 0h2.1zm-122.7 0.5h6zm102.6 0h2zm20.1 0h2zm-122.7 0.5h6.1zm102.5 0h2zm20.1 0h2.1zm-122.7 0.5h2zm102.6 0h2zm22.1 0h4zm-124.7 0.5h2zm102.6 0h2zm22.1 0h4.1zm-124.7 0.5h2zm102.5 0h2.1zm22.1 0h4zm-124.7 0.5h2zm102.6 0h2zm22.1 0h4zm-124.6 0.5h2zm102.5 0h2zm26.2 0h4zm-128.7 0.5h2zm102.6 0h2zm26.1 0h4zm-128.6 0.5h2zm102.5 0h2zm26.2 0h4zm-128.7 0.5h2zm102.6 0h2zm26.1 0h4zm-128.7 0.5h2.1zm102.5 0h2zm30.2 0h2zm-132.7 0.5h2zm102.5 0h2zm30.2 0h2zm-132.7 0.5h2zm102.6 0h2zm30.1 0h2.1zm-132.8 0.5h2zm102.6 0h2zm30.2 0h2zm-132.7 0.5h2zm102.5 0h2zm32.2 0h4zm-134.7 0.5h2zm102.6 0h2zm32.2 0h4zm-134.7 0.5h2zm102.5 0h2zm32.2 0h4zm-134.7 0.5h2zm102.6 0h2zm32.1 0h4.1zm-134.8 0.5h2.1zm102.5 0h2zm36.2 0h2zm-138.7 0.5h2zm102.5 0h2zm36.2 0h2.1zm-138.8 0.5h2zm102.6 0h2zm36.2 0h2zm-138.8 0.5h2zm102.6 0h2zm36.2 0h2zm-138.7 0.5h2zm102.5 0h2zm38.2 0h2.1zm-140.8 0.5h2zm102.6 0h2zm38.2 0h2zm-140.8 0.5h2zm102.6 0h2zm38.2 0h2zm-140.7 0.5h2zm102.5 0h2zm38.2 0h2.1zm-140.8 0.5h2zm102.6 0h2zm36.2 0h2zm-138.8 0.5h2zm102.6 0h2zm36.2 0h2zm-138.7 0.5h2zm102.5 0h2zm36.2 0h2zm-138.7 0.5h2zm102.5 0h2.1zm36.2 0h2zm-138.8 0.5h2zm102.6 0h2zm32.2 0h4zm-134.7 0.5h2zm102.5 0h2zm32.2 0h4zm-134.7 0.5h2zm102.6 0h2zm32.2 0h4zm-134.8 0.5h2.1zm102.5 0h2zm32.2 0h4zm-134.7 0.5h2zm102.6 0h2zm30.1 0h2zm-132.7 0.5h2zm102.6 0h2zm30.2 0h2zm-132.7 0.5h2zm102.5 0h2zm30.2 0h2zm-132.7 0.5h2zm102.5 0h2.1zm30.1 0h2zm-132.7 0.5h2zm102.6 0h2zm26.1 0h4.1zm-128.7 0.5h2zm102.5 0h2zm26.2 0h4zm-128.7 0.5h2zm102.6 0h2zm26.1 0h4zm-128.7 0.5h2.1zm102.5 0h2zm26.2 0h4zm-128.7 0.5h2zm102.6 0h2zm22.1 0h4zm-124.7 0.5h2zm102.6 0h2zm22.1 0h4zm-124.6 0.5h2zm102.5 0h2zm22.2 0h4zm-124.7 0.5h2zm102.6 0h2zm22.1 0h4zm-124.6 0.5h6zm102.5 0h2.1zm20.1 0h2zm-122.7 0.5h6zm102.6 0h2zm20.1 0h2zm-122.6 0.5h6zm102.6 0h2zm20.1 0h2zm-122.7 0.5h6.1zm102.5 0h2zm20.1 0h2zm-116.6 0.5h98.5zm112.6 0h4.1zm-112.6 0.5h98.5zm112.6 0h4zm-112.6 0.5h98.5zm112.7 0h4zm-112.6 0.5h98.5zm112.6 0h4zm-16.1 0.5h2.1zm12 0h4zm-12 0.5h2zm12.1 0h4zm-12.1 0.5h2zm12.1 0h4zm-12.1 0.5h2.1zm12 0h4zm-12 0.5h2zm8 0h4.1zm-8.1 0.5h2zm8.1 0h4zm-8.1 0.5h2.1zm8 0h4zm-8 0.5h2zm8 0h4.1zm-8.1 0.5h8.1zm0 0.5h8zm0 0.5h8zm0 0.5h8.1z"/>
			<path id="Layer" fill-rule="evenodd" class="s3" d="m342.8 10v2h-6v38h6v2h-8v-6h-96.5v-2h96.5v-26h-96.5v-2h96.5v-6zm-104.6 8v2h-4v22h4v2h-6v-26zm108.6 30v2h-4v-2zm4-2v2h-4v-2zm4-2v2h-4v-2zm2-2v2h-2v-2zm4-2v2h-4v-2zm4-2v2h-4v-2zm2-2v2h-2v-2zm4-2v2h-4v-2zm2-2v2h-2v-2zm0-2h2v2h-2zm-2.1-2h2.1v2h-2.1zm-4-2h4v2h-4zm-2-2h2v2h-2zm-4-2h4v2h-4zm-4-2h4v2h-4zm-2-2h2v2h-2zm-4.1-2h4.1v2h-4.1zm-4-2h4v2h-4zm-4 0v-2h4v2z"/>
			<path id="Layer" class="s0" d="m194 12.3l2-0.1zm0 0.5h2zm0 0.5h2.1zm0 0.5h2zm-2 0.5h2zm4 0h2zm-4 0.5h2zm4 0h2zm-4 0.5h2zm4 0h2zm-4 0.5h2zm4.1 0h2zm-6.1 0.5h2zm6.1 0h2zm-6.1 0.5h2.1zm6 0h2zm-6 0.5h2zm6 0h2zm-6 0.5h2zm6 0h2zm-4 0.5h2zm6.1 0h2zm-6.1 0.5h2.1zm6 0h2zm-6 0.5h2zm6 0h2zm-6 0.5h2zm6 0h2zm-4 0.5h2zm6.1 0h2zm-6.1 0.5h2.1zm6 0h2zm-6 0.5h2zm6 0h2zm-6 0.5h2zm6 0h2zm-4 0.5h2zm6.1 0h2zm-6.1 0.5h2.1zm6 0h2zm-6 0.5h2zm6 0h2zm-6 0.5h2zm6 0h2zm-4 0.5h2zm6.1 0h4zm-6.1 0.5h2.1zm6 0h4zm-6 0.5h2zm6 0h4zm-6 0.5h2zm6.1 0h4zm-4 0.5h2zm8 0h4zm-8 0.5h2zm8 0h4.1zm-8.1 0.5h2zm8.1 0h4zm-8 0.5h2zm8 0h4zm-6 0.5h4zm10.1 0h10zm-10 0.5h4zm10.1 0h10zm-10 0.5h4zm10 0h10.1zm-10.1 0.5h4.1zm10 0h10.1zm-6.1 0.5h4zm16.1 0h10.1zm-16.1 0.5h4zm16.1 0h10.1zm-16.1 0.5h4zm16.1 0h10zm-16 0.5h4zm16.1 0h10zm-12 0.5h10zm0 0.5h10.1zm0 0.5h10zm0 0.5h10.1zm10 0.5h12.1zm0 0.5h12.1zm0 0.5h12zm0 0.5h12.1z"/>
			<path id="Layer" fill-rule="evenodd" class="s4" d="m196 12v2h-2v-2zm-4 4v-2h2v2zm0 2h2v2h2v2h2v2h2.1v2h2v2h4v2h4v2h10.1v2h12v2h-12v-2h-10.1v-2h-4v-2h-4v-2h-2v-2h-2.1v-2h-2v-2h-2v-2h-2v-2h-2v-2h2zm6 0h-2v-4h2zm2.1 2h-2.1v-2h2.1zm2 2h-2v-2h2zm2 2h-2v-2h2zm4 2h-4v-2h4zm4 2h-4v-2h4zm10.1 2h-10.1v-2h10.1zm10 0v2h-10v-2z"/>
			<path id="Layer" class="s0" d="m336.8 12.3l6-0.1zm0 0.5h6.1zm0 0.5h6zm0 0.5h6zm0 0.5h10.1zm0 0.5h10zm0 0.5h10.1zm0 0.5h10zm0 0.5h14.1zm0 0.5h14.1zm0 0.5h14.1zm0 0.5h14zm-98.5 0.5h96.5zm98.6 0h18.1zm-98.6 0.5h96.6zm98.5 0h18.1zm-98.6 0.5h96.6zm98.5 0h18.1zm-98.5 0.5h96.5zm98.5 0h18.1zm-102.5 0.5h100.5zm102.6 0h20.1zm-102.6 0.5h100.6zm102.5 0h20.1zm-102.5 0.5h100.5zm102.6 0h20.1zm-102.6 0.5h100.6zm102.5 0h20.1zm-102.5 0.5h30.1zm34.2 0h8.1zm15 0h2.1zm5 0h9zm12.1 0h2zm12.1 0h22.1zm24.1 0h24.2zm-102.6 0.5h30.2zm34.1 0h8.1zm15.1 0h2zm5 0h9.1zm12 0h2zm12.1 0h22.1zm24.2 0h24.1zm-102.6 0.5h30.2zm34.2 0h8zm15.1 0h2zm5 0h9.1zm12.1 0h2zm12 0h22.1zm24.2 0h24.1zm-102.5 0.5h30.1zm34.2 0h8zm15.1 0h2zm5.1 0h9zm12.1 0h2zm12.1 0h22.1zm24.1 0h24.1zm-102.5 0.5h30.1zm34.2 0h8.1zm15.1 0h2zm7 0h5zm10.1 0h2zm12.1 0h22.1zm24.1 0h28.2zm-102.6 0.5h30.2zm34.2 0h8zm15.1 0h2zm7 0h5.1zm10 0h2zm12.1 0h22.1zm24.1 0h28.2zm-102.6 0.5h27.2zm30.1 0h4.1zm7 0h2zm5 0h9.1zm14.1 0h5zm10 0h2.1zm5 0h29.1zm31.2 0h28.2zm-102.6 0.5h27.2zm30.1 0h4zm7.1 0h2zm5 0h9.1zm14 0h5.1zm10 0h2zm5.1 0h29.1zm31.2 0h28.1zm-102.5 0.5h27.1zm30.2 0h4zm7.1 0h2zm5 0h9zm14.1 0h5zm10.1 0h2zm5 0h29.2zm31.2 0h30.1zm-102.5 0.5h27.1zm30.2 0h4zm7 0h2.1zm5 0h9zm14.1 0h5zm10.1 0h2zm5 0h29.2zm31.2 0h30.1zm-102.5 0.5h16zm17.1 0h10.1zm13.1 0h4zm7 0h2zm5.1 0h9zm12.1 0h2zm7 0h2zm5.1 0h2zm5 0h18.1zm19.1 0h10.1zm12 0h30.2zm-102.6 0.5h16.1zm17.1 0h10.1zm13 0h4.1zm7 0h2zm5 0h9.1zm12 0h2.1zm7 0h2zm5 0h2zm5.1 0h18.1zm19.1 0h10zm12.1 0h30.2zm-102.6 0.5h15.1zm17.1 0h10zm13.1 0h4zm7.1 0h2zm5 0h9zm12.1 0h2zm7.1 0h2zm5 0h2zm5 0h17.1zm19.1 0h10.1zm12.1 0h34.1zm-102.5 0.5h15.1zm17.1 0h10zm13.1 0h4zm7 0h2.1zm5 0h9zm12.1 0h2zm7 0h2.1zm5 0h2zm5 0h17.1zm19.1 0h10.1zm12 0h34.2zm-102.5 0.5h15zm17.1 0h10.1zm20.1 0h2zm5 0h9.1zm12.1 0h2zm7 0h2zm5 0h2.1zm10 0h12.1zm14 0h10.1zm12.1 0h34.2zm-102.6 0.5h15.1zm17.1 0h10zm20.1 0h2zm5.1 0h9zm12.1 0h2zm7 0h2zm5.1 0h2zm10 0h12.1zm14.1 0h10zm12.1 0h34.2zm-102.6 0.5h12.1zm21.1 0h6zm16.1 0h2zm5.1 0h9zm12.1 0h9zm12.1 0h2zm10.1 0h9zm18.1 0h6zm8.1 0h36.2zm-102.6 0.5h12.1zm21.1 0h6zm16.1 0h2zm5.1 0h9zm12.1 0h9zm12.1 0h2zm10.1 0h9zm18.1 0h6zm8.1 0h36.2zm-102.6 0.5h13.1zm20.1 0h7zm17.1 0h2zm5.1 0h9zm12.1 0h9zm12.1 0h2zm10.1 0h10zm17.1 0h7zm9.1 0h36.2zm-102.6 0.5h13.1zm20.1 0h7.1zm17 0h2.1zm5 0h9zm12.1 0h9zm12.1 0h2zm10.1 0h10zm17.1 0h7.1zm9 0h36.2zm-102.5 0.5h14zm19.1 0h8.1zm11 0h4.1zm7 0h2zm5 0h9.1zm12 0h9.1zm12.1 0h2zm5 0h16.1zm21.1 0h8zm10.1 0h34.2zm-102.6 0.5h14.1zm19.1 0h8zm11.1 0h4zm7.1 0h2zm5 0h9.1zm12 0h9.1zm12 0h2zm5.1 0h16.1zm21.1 0h8zm10.1 0h34.2zm-102.6 0.5h13.1zm18.1 0h9zm12.1 0h4zm7 0h2.1zm5 0h9zm12.1 0h9zm12.1 0h2zm5 0h15.1zm20.1 0h9.1zm11 0h34.2zm-102.5 0.5h13zm18.1 0h9.1zm12.1 0h4zm7 0h2zm5.1 0h9zm12.1 0h9zm12.1 0h2zm5 0h15.1zm20.1 0h9.1zm11 0h34.2zm-102.5 0.5h13zm15.1 0h2zm4 0h8.1zm11 0h4.1zm7 0h2zm5 0h9.1zm12.1 0h9zm12.1 0h2zm5 0h15.1zm17.1 0h2zm4 0h8.1zm10 0h30.2zm-102.6 0.5h13.1zm15.1 0h2zm4 0h8zm11.1 0h4zm7.1 0h2zm5 0h9.1zm12 0h9.1zm12 0h2zm5.1 0h15.1zm17 0h2.1zm4 0h8zm10.1 0h30.1zm-102.5 0.5h18.1zm19.1 0h8zm11.1 0h4zm7 0h2.1zm5 0h9zm12.1 0h9zm12.1 0h2zm5.1 0h20.1zm21.1 0h8zm10.1 0h30.1zm-102.5 0.5h18.1zm19.1 0h8zm11.1 0h4zm7 0h2.1zm5 0h9zm12.1 0h9zm12.1 0h2zm5 0h20.2zm21.1 0h8zm10.1 0h30.1zm-102.5 0.5h27.1zm30.2 0h4zm7 0h5.1zm12 0h2.1zm5 0h9zm12.1 0h2zm12.1 0h22.1zm24.1 0h28.2zm-102.6 0.5h27.2zm30.1 0h4.1zm7 0h5zm12.1 0h2zm5 0h9.1zm12 0h2zm12.1 0h22.1zm24.2 0h28.1zm-102.5 0.5h27.1zm30.2 0h4zm7 0h5.1zm12 0h2zm5.1 0h9zm12.1 0h2zm12 0h22.2zm24.1 0h28.2zm-102.6 0.5h27.1zm30.2 0h4zm7.1 0h5zm12.1 0h2zm5 0h9zm12.1 0h2zm12.1 0h22.1zm24.1 0h28.2zm-102.6 0.5h27.2zm30.1 0h4.1zm7 0h5zm12.1 0h2zm5 0h9.1zm12.1 0h2zm12 0h22.1zm24.2 0h24.1zm-102.5 0.5h27.1zm30.2 0h4zm7 0h5.1zm12 0h2zm5.1 0h9zm12.1 0h2zm12 0h22.2zm24.1 0h24.1zm-102.5 0.5h100.5zm102.6 0h24.1zm-102.6 0.5h100.6zm102.5 0h24.2zm-102.6 0.5h100.6zm102.5 0h20.1zm-102.5 0.5h100.5zm102.6 0h20.1zm-102.6 0.5h100.6zm102.5 0h20.1zm-102.5 0.5h100.5zm102.6 0h20.1zm-98.6 0.5h96.6zm98.5 0h18.1zm-98.5 0.5h96.5zm98.5 0h18.1zm-98.5 0.5h96.5zm98.5 0h18.1zm-98.5 0.5h96.5zm98.6 0h18.1zm0 0.5h14zm0 0.5h14.1zm0 0.5h14.1zm0 0.5h14.1zm0 0.5h10zm0 0.5h10.1zm0 0.5h10zm0 0.5h10.1zm0 0.5h6zm0 0.5h6zm0 0.5h6.1zm0 0.5h6z"/>
			<path id="Layer" fill-rule="evenodd" class="s5" d="m342.8 12v2h4v2h4.1v2h4v2h2v2h4v2h4v2h2.1v2h4v2h2v2h-2v2h-4v2h-2.1v2h-4v2h-4v2h-2v2h-4v2h-4.1v2h-4v2h-6v-38zm-8 6v26h-96.6v-2h-4v-22h4v-2zm-66.3 4h-4.1v3h-3v14h3v-7h4.1v7h3v-14h-3zm0 3v4h-4.1v-4zm15.1-3h-7v3h-3v11h3v3h7v-3h-7v-11h7zm5.1 0h-3.1v17h3.1v-12h2v3h5v-3h2v12h3v-17h-3v2h-2v3h-5v-3h-2zm24.1 0h-10.1v17h10.1v-3h-7.1v-4h5.1v-3h-5.1v-4h7.1zm-61.3 5h-1.1v1h-1v2h-3v1h1v1h1v1h-1v2h2v-1h2.1v1h1v1h1v-2h-1v-1h1v-1h1v-1h1v-1h-4zm73.4 0h-1.1v1h-1v2h-3v1h1v1h1v1h-1v2h2v-1h2.1v1h1v1h1v-2h-1v-1h1v-1h1v-1h1v-1h-4z"/>
			<path id="Layer" class="s0" d="m194 14.3l2-0.1zm0 0.5h2zm0 0.5h2.1zm0 0.5h2zm-2 0.5h2zm0 0.5h2zm0 0.5h2zm0 0.5h2zm2 0.5h2zm0 0.5h2zm0 0.5h2zm0 0.5h2zm4.1 0.5h2zm0 0.5h2zm0 0.5h2zm0 0.5h2zm0 0.5h2zm0 0.5h2zm0 0.5h2zm0 0.5h2.1zm4 0.5h2zm0 0.5h2zm0 0.5h2zm0 0.5h2zm0 0.5h2zm4.1 0h2zm-4.1 0.5h2.1zm4 0h2zm-4 0.5h2zm4 0h2zm-4 0.5h2zm4 0h2zm0 0.5h2zm4.1 0h2zm-4 0.5h2zm4 0h2zm-4 0.5h2zm4 0h2zm-4 0.5h2zm4 0h2zm0 0.5h2zm4.1 0h2zm4 0h4zm-8 0.5h2zm4 0h2zm4 0h4.1zm-8.1 0.5h2zm4.1 0h2zm4 0h4zm-8 0.5h2zm4 0h2zm4 0h4.1zm2 0.5h2zm4 0h4zm6 0h2.1zm-10.1 0.5h2zm4 0h4.1zm6 0h2zm-10.1 0.5h2.1zm4 0h4zm6 0h2zm-10 0.5h2zm4 0h4zm6.1 0h2z"/>
			<path id="Layer" fill-rule="evenodd" class="s6" d="m196 14v2h-2v-2zm-2 4h-2v-2h2zm2 0v2h-2v-2zm4 2v4h-2v-4zm4 4v4h-2v-4zm4.1 2v4h-2.1v-4zm4.1 2v4h-2v-4zm4 2v2h-2v-2zm6 0v4h-2v-2h-2v-2zm6 2v2h-4v-2zm4 0v2h-2v-2z"/>
			<path id="Layer" class="s0" d="m194 16.3l2-0.1zm0 0.5h2zm0 0.5h2.1zm0 0.5h2zm2 0.5h2zm0 0.5h2zm0 0.5h2zm0 0.5h2zm0 0.5h2zm0 0.5h2zm0 0.5h2.1zm0 0.5h2zm4 0.5h2zm0 0.5h2zm0 0.5h2zm0 0.5h2zm0 0.5h2zm0 0.5h2.1zm0 0.5h2zm0 0.5h2zm4 0.5h2zm0 0.5h2zm0 0.5h2zm0 0.5h2zm4.1 0.5h2zm0 0.5h2zm0 0.5h2zm0 0.5h2zm4 0.5h2zm4.1 0h2zm-4.1 0.5h2.1zm4 0h2zm-4 0.5h2zm4 0h2zm-4 0.5h2zm4 0h2zm6.1 0.5h2zm6 0h2zm-6 0.5h2zm6 0h2zm-6 0.5h2zm6.1 0h2zm-6.1 0.5h2zm6.1 0h2z"/>
			<path id="Layer" fill-rule="evenodd" class="s7" d="m196 16v2h-2v-2zm2 2v4h-2v-4zm4 4v4h-2v-4zm4.1 4v2h-2.1v-2zm4.1 2v2h-2v-2zm4 2v2h-2v-2zm4 0v2h-2v-2zm6 2v2h-2v-2zm6 0v2h-2v-2z"/>
			<path id="Layer" class="s0" d="m264.4 22.3l4-0.1zm12.1 0h7zm9.1 0h3zm12.1 0h3zm5 0h10.1zm-38.3 0.5h4.1zm12 0h7.1zm9 0h3zm12.1 0h3zm5 0h10.1zm-38.2 0.5h4zm12.1 0h7zm9.1 0h3zm12.1 0h3zm5 0h10zm-38.2 0.5h4.1zm12 0h7.1zm9 0h3zm12.1 0h3zm5 0h10.1zm-38.2 0.5h4zm12.1 0h7zm9.1 0h5zm10 0h5.1zm7 0h10.1zm-38.2 0.5h4zm12 0h7.1zm9 0h5.1zm10 0h5zm7.1 0h10zm-41.2 0.5h3zm7.1 0h3zm5 0h3zm12.1 0h5zm10.1 0h5zm7 0h3.1zm-41.3 0.5h3zm7.1 0h3zm5 0h3zm12.1 0h5zm10.1 0h5zm7.1 0h3zm-41.3 0.5h3.1zm7 0h3zm5 0h3.1zm12 0h5.1zm10 0h5zm7.1 0h3zm-41.2 0.5h3zm7 0h3zm5.1 0h3zm12 0h5.1zm10 0h5.1zm7 0h3zm-41.2 0.5h3zm7 0h3.1zm5 0h3zm12.1 0h3zm5 0h5zm7.1 0h3zm5 0h3zm-41.2 0.5h3zm7.1 0h3zm5 0h3zm12.1 0h3zm5 0h5.1zm7 0h3zm5 0h3.1zm-41.3 0.5h3zm7.1 0h3zm5 0h3zm12.1 0h3zm5.1 0h5zm7 0h3zm5.1 0h3zm-41.2 0.5h3zm7 0h3zm5.1 0h3zm12 0h3.1zm5 0h5zm7 0h3.1zm5 0h3zm-41.2 0.5h10zm12.1 0h3zm12.1 0h3zm5 0h5.1zm7 0h3zm5 0h8.1zm-41.2 0.5h10zm12.1 0h3zm12.1 0h3zm5 0h5zm7.1 0h3zm5 0h8.1zm-41.3 0.5h10.1zm12 0h3.1zm12 0h3zm12.1 0h3zm5.1 0h8zm-41.2 0.5h10zm12.1 0h3zm12.1 0h3zm12.1 0h3zm5 0h8zm-41.2 0.5h10.1zm12 0h3.1zm12 0h3zm12.1 0h3zm5 0h8.1zm-41.2 0.5h10zm12.1 0h3zm12.1 0h3zm12 0h3.1zm5 0h8zm-41.2 0.5h3zm7.1 0h3zm5 0h3zm12.1 0h3zm12.1 0h3zm5 0h3zm-41.2 0.5h3zm7.1 0h3zm5 0h3zm12.1 0h3zm12.1 0h3zm5 0h3zm-41.2 0.5h3zm7.1 0h3zm5 0h3zm12.1 0h3zm12.1 0h3zm5 0h3zm-41.2 0.5h3zm7.1 0h3zm5 0h3zm12.1 0h3zm12.1 0h3zm5 0h3zm-41.2 0.5h3zm7.1 0h3zm5 0h3zm12.1 0h3zm12.1 0h3zm5 0h3zm-41.2 0.5h3zm7.1 0h3zm5 0h3zm12.1 0h3zm12.1 0h3zm5 0h3zm-41.2 0.5h3zm7 0h3.1zm5 0h3zm12.1 0h3zm12.1 0h3zm5 0h3zm-41.2 0.5h3zm7 0h3.1zm5 0h3zm12.1 0h3zm12.1 0h3zm5 0h3zm-41.2 0.5h3zm7 0h3.1zm8 0h7zm9.1 0h3zm12.1 0h3zm5 0h10.1zm-41.3 0.5h3.1zm7 0h3zm8.1 0h7zm9 0h3.1zm12 0h3zm5.1 0h10zm-41.2 0.5h3zm7.1 0h3zm8 0h7.1zm9 0h3zm12.1 0h3zm5 0h10.1zm-41.2 0.5h3zm7 0h3zm8.1 0h7zm9.1 0h3zm12 0h3.1zm5 0h10zm-41.2 0.5h3zm7.1 0h3zm8 0h7.1zm9 0h3zm12.1 0h3zm5 0h10.1zm-41.2 0.5h3zm7 0h3zm8.1 0h7zm9.1 0h3zm12.1 0h3zm5 0h10.1z"/>
			<path id="Layer" fill-rule="evenodd" class="s8" d="m264.4 22v3h4v-3zm-3 3v14h3v-7h4v7h3.1v-14h-3.1v4h-4v-4zm15.1-3v3h7v-3zm0 3h-3v11h3zm0 11v3h7.1v-3zm9-14v17h3v-12h2.1v-3h-2.1v-2zm5.1 5v3h5v-3zm5 0h2v12h3.1v-17h-3.1v2h-2zm7.1-5v17h10v-3h-7v-4h5v-3h-5v-4h7v-3z"/>
			<path id="Layer" class="s0" d="m250.3 27.3l1-0.1zm73.4 0h1zm-73.4 0.5h1zm73.4 0h1zm-74.4 0.5h2.1zm73.4 0h2zm-73.4 0.5h2zm73.4 0h2zm-73.4 0.5h2zm73.4 0h2zm-73.4 0.5h2zm73.4 0h2zm-76.4 0.5h9.1zm73.4 0h9zm-73.4 0.5h9.1zm73.4 0h9zm-72.4 0.5h7.1zm73.4 0h7zm-73.4 0.5h7zm73.4 0h7.1zm-72.4 0.5h5zm73.4 0h5zm-73.4 0.5h5.1zm73.4 0h5zm-74.4 0.5h5zm73.4 0h5zm-73.4 0.5h5.1zm73.4 0h5zm-73.4 0.5h2zm4 0h2zm69.4 0h2zm4 0h2zm-77.4 0.5h2zm4.1 0h2zm69.3 0h2.1zm4 0h2zm-72.4 0.5h1zm73.4 0h1zm-73.4 0.5h1zm73.4 0h1z"/>
			<path id="Layer" fill-rule="evenodd" class="s9" d="m251.3 27v3h4.1v1h-1.1v1h-1v1h-1v1h1v2h-1v-1h-1v-1h-2v1h-2v-2h1v-1h-1v-1h-1v-1h3v-2h1v-1zm73.4 0v3h4v1h-1v1h-1v1h-1v1h1v2h-1v-1h-1v-1h-2v1h-2v-2h1v-1h-1v-1h-1v-1h3v-2h1v-1z"/>
		</g>
	</g>
	<g id="Clip-Path" clip-path="url(#cp2)">
		<g id="Layer">
			<path id="Layer" class="s0" d="m432.3 2.2h58.4zm0 0.4h58.5zm0 0.5h58.4zm-1.2 0.4h1.2zm7.7 0h1.2zm44.5 0h1.3zm7.6 0h1.3zm-59.7 0.4h1.2zm7.7 0h1.2zm44.5 0h1.3zm7.6 0h1.3zm-59.8 0.5h1.3zm7.6 0h1.3zm44.5 0h1.3zm7.6 0h1.3zm-59.8 0.4h1.3zm7.6 0h1.3zm44.5 0h1.2zm7.7 0h1.2zm-59.7 0.4h1.3zm7.6 0h1.3zm44.5 0h1.2zm7.7 0h1.2zm-59.7 0.4h1.3zm7.6 0h1.3zm44.4 0h1.3zm7.6 0h1.3zm-59.7 0.5h1.2zm7.7 0h1.2zm44.5 0h1.3zm7.6 0h1.3zm-59.7 0.4h1.2zm7.7 0h1.2zm44.5 0h1.3zm7.6 0h1.3zm-59.8 0.4h1.3zm7.6 0h1.3zm44.5 0h1.3zm7.6 0h1.3zm-59.8 0.4h1.3zm7.6 0h1.3zm44.5 0h1.2zm7.7 0h1.2zm-59.7 0.5h1.3zm7.6 0h1.3zm44.5 0h1.2zm7.7 0h1.2zm-59.7 0.4h1.3zm7.6 0h1.3zm44.4 0h1.3zm7.6 0h1.3zm-59.7 0.4h1.3zm7.6 0h1.2zm44.5 0h1.3zm7.6 0h1.3zm-59.7 0.5h1.2zm7.7 0h1.2zm44.5 0h1.3zm7.6 0h1.3zm-59.7 0.4h1.2zm7.6 0h1.3zm44.5 0h1.3zm7.6 0h1.3zm-59.8 0.4h1.3zm7.6 0h1.3zm44.5 0h1.3zm7.6 0h1.2zm-59.7 0.4h1.3zm7.6 0h1.3zm44.5 0h1.2zm7.7 0h1.2zm-59.7 0.5h1.3zm7.6 0h1.3zm44.4 0h1.3zm7.6 0h1.3zm-59.7 0.4h1.3zm7.6 0h45.7zm52.1 0h1.3zm-59.7 0.4h1.2zm7.7 0h45.7zm52.1 0h1.3zm-59.7 0.4h1.2zm7.7 0h45.7zm52.1 0h1.3zm-59.7 0.5h1.2zm7.7 0h1.2zm3.8 0h1.3zm6.4 0h1.2zm7.7 0h1.2zm8.9 0h1.3zm14 0h1.2zm3.9 0h1.2zm7.7 0h1.2zm-59.7 0.4h1.3zm7.6 0h1.3zm3.8 0h1.2zm6.4 0h1.3zm7.6 0h1.3zm8.9 0h1.2zm14 0h1.3zm3.8 0h1.3zm7.6 0h1.3zm-59.8 0.4h1.3zm7.6 0h1.3zm3.8 0h1.3zm6.3 0h1.3zm7.6 0h1.3zm8.9 0h1.3zm14 0h1.2zm3.8 0h1.3zm7.6 0h1.3zm-59.7 0.5h1.2zm7.7 0h1.2zm10.2 0h1.3zm7.6 0h1.3zm8.9 0h1.2zm14 0h1.3zm3.8 0h1.3zm7.6 0h1.3zm-59.8 0.4h1.3zm7.6 0h1.3zm10.2 0h1.2zm7.7 0h1.2zm8.9 0h1.3zm14 0h1.3zm3.8 0h1.2zm7.7 0h1.2zm-59.7 0.4h1.3zm7.6 0h1.3zm10.1 0h1.3zm7.6 0h1.3zm8.9 0h1.3zm13.9 0h1.3zm3.8 0h1.3zm7.6 0h1.3zm-59.7 0.4h1.2zm7.7 0h1.2zm10.2 0h1.3zm34.3 0h1.3zm7.6 0h1.3zm-59.8 0.5h1.3zm7.6 0h1.3zm10.2 0h1.2zm34.3 0h1.3zm7.6 0h1.3zm-59.7 0.4h1.2zm7.7 0h1.2zm10.2 0h1.3zm34.3 0h1.3zm7.6 0h1.3zm-59.8 0.4h1.3zm7.6 0h1.3zm44.5 0h1.2zm7.7 0h1.2zm-59.7 0.4h1.3zm7.6 0h1.3zm44.5 0h1.2zm7.7 0h1.2zm-59.7 0.5h1.3zm7.6 0h1.3zm44.4 0h1.3zm7.6 0h1.3zm-59.7 0.4h1.3zm7.6 0h1.2zm10.2 0h1.3zm41.9 0h1.3zm-59.7 0.4h1.2zm7.7 0h1.2zm10.2 0h1.3zm41.9 0h1.3zm-59.8 0.5h1.3zm7.6 0h1.3zm10.2 0h1.3zm41.9 0h1.3zm-59.8 0.4h1.3zm7.6 0h1.3zm52.1 0h1.3zm-59.8 0.4h1.3zm7.6 0h1.3zm52.1 0h1.3zm-59.7 0.4h1.2zm7.7 0h1.2zm52.1 0h1.3zm-59.7 0.5h1.2zm7.7 0h1.2zm44.5 0h1.3zm7.6 0h1.3zm-59.7 0.4h1.2zm7.7 0h1.2zm44.5 0h1.3zm7.6 0h1.3zm-59.8 0.4h1.3zm7.6 0h1.3zm44.5 0h1.3zm7.6 0h1.3zm-59.8 0.5h1.3zm7.6 0h1.3zm44.5 0h1.2zm7.7 0h1.2zm-59.7 0.4h1.3zm7.6 0h1.3zm44.5 0h1.2zm7.6 0h1.3zm-59.7 0.4h1.3zm7.6 0h1.3zm44.4 0h1.3zm7.6 0h1.3zm-59.7 0.4h1.2zm7.7 0h1.2zm3.9 0h1.2zm6.4 0h1.2zm34.4 0h1.2zm7.7 0h1.2zm-59.7 0.5h1.3zm7.6 0h1.3zm3.8 0h1.2zm6.4 0h1.3zm34.3 0h1.3zm7.6 0h1.3zm-59.8 0.4h1.3zm7.6 0h1.3zm3.8 0h1.3zm6.3 0h1.3zm34.3 0h1.3zm7.6 0h1.3zm-59.8 0.4h1.3zm7.6 0h1.3zm3.8 0h1.3zm6.4 0h1.2zm7.6 0h1.3zm8.9 0h1.3zm7.6 0h1.3zm6.3 0h1.3zm3.8 0h1.3zm7.6 0h1.3zm-59.7 0.4h1.2zm7.6 0h1.3zm3.8 0h1.3zm6.4 0h1.2zm7.7 0h1.2zm8.9 0h1.3zm7.6 0h1.3zm6.3 0h1.3zm3.8 0h1.3zm7.6 0h1.3zm-59.7 0.5h1.2zm7.7 0h1.2zm3.8 0h1.3zm6.4 0h1.2zm7.7 0h1.2zm8.9 0h1.3zm7.6 0h1.3zm6.3 0h1.3zm3.8 0h1.3zm7.6 0h1.3zm-59.7 0.4h1.2zm7.7 0h1.2zm3.8 0h1.3zm6.4 0h1.2zm16.6 0h1.2zm7.7 0h1.2zm6.4 0h1.2zm3.9 0h1.2zm7.7 0h1.2zm-59.7 0.4h1.3zm7.6 0h1.3zm3.8 0h1.2zm6.4 0h1.3zm16.5 0h1.3zm7.6 0h1.3zm6.3 0h1.3zm3.8 0h1.3zm7.6 0h1.3zm-59.8 0.5h1.3zm7.6 0h1.3zm3.8 0h1.3zm6.3 0h1.3zm16.5 0h1.3zm7.6 0h1.3zm6.3 0h1.3zm3.8 0h1.3zm7.6 0h1.3zm-59.7 0.4h1.2zm7.7 0h1.2zm3.8 0h1.3zm22.9 0h1.3zm13.9 0h1.3zm3.8 0h1.3zm7.6 0h1.3zm-59.7 0.4h1.2zm7.7 0h1.2zm3.8 0h1.3zm22.9 0h1.3zm13.9 0h1.3zm3.8 0h1.3zm7.6 0h1.3zm-59.7 0.4h1.2zm7.7 0h1.2zm3.8 0h1.3zm22.9 0h1.3zm13.9 0h1.3zm3.8 0h1.3zm7.6 0h1.3zm-59.7 0.5h1.2zm7.7 0h1.2zm3.8 0h1.3zm36.9 0h1.2zm3.8 0h1.3zm7.6 0h1.3zm-59.7 0.4h1.2zm7.7 0h1.2zm3.9 0h1.2zm36.9 0h1.3zm3.8 0h1.2zm7.7 0h1.2zm-59.7 0.4h1.3zm7.6 0h1.3zm3.8 0h1.3zm36.8 0h1.3zm3.8 0h1.3zm7.6 0h1.3zm-59.8 0.4h1.3zm7.6 0h1.3zm3.8 0h1.3zm22.9 0h1.2zm14 0h1.3zm3.8 0h1.3zm7.6 0h1.3zm-59.8 0.5h1.3zm7.6 0h1.3zm3.8 0h1.3zm22.8 0h1.3zm14 0h1.3zm3.8 0h1.2zm7.7 0h1.2zm-59.7 0.4h1.3zm7.6 0h1.3zm3.8 0h1.3zm22.8 0h1.3zm14 0h1.3zm3.8 0h1.2zm7.7 0h1.2zm-59.7 0.4h1.3zm7.6 0h1.3zm3.8 0h1.3zm22.8 0h1.3zm14 0h1.3zm3.8 0h1.2zm7.7 0h1.2zm-59.7 0.5h1.3zm7.6 0h1.3zm3.8 0h1.3zm22.8 0h1.3zm14 0h1.3zm3.8 0h1.2zm7.7 0h1.2zm-59.7 0.4h1.3zm7.6 0h1.3zm3.8 0h1.3zm22.8 0h1.3zm14 0h1.2zm3.9 0h1.2zm7.7 0h1.2zm-59.7 0.4h1.3zm7.6 0h1.3zm3.8 0h1.2zm36.9 0h1.3zm3.8 0h1.3zm7.6 0h1.2zm-59.7 0.4h1.3zm7.6 0h1.3zm3.8 0h1.3zm36.8 0h1.3zm3.8 0h1.3zm7.6 0h1.3zm-59.8 0.5h1.3zm7.6 0h1.3zm3.8 0h1.3zm36.8 0h1.3zm3.8 0h1.3zm7.6 0h1.3zm-59.7 0.4h1.2zm7.7 0h1.2zm3.8 0h1.3zm36.9 0h1.2zm3.9 0h1.2zm7.7 0h1.2zm-59.7 0.4h1.3zm7.6 0h1.3zm3.8 0h1.2zm36.9 0h1.3zm3.8 0h1.2zm7.7 0h1.2zm-59.7 0.5h1.3zm7.6 0h1.3zm3.8 0h1.3zm36.8 0h1.3zm3.8 0h1.3zm7.6 0h1.3zm-59.8 0.4h1.3zm7.6 0h1.3zm3.8 0h1.3zm6.3 0h1.3zm24.2 0h1.2zm6.4 0h1.3zm3.8 0h1.2zm7.7 0h1.2zm-59.7 0.4h1.3zm7.6 0h1.3zm3.8 0h1.3zm6.3 0h1.3zm24.1 0h1.3zm6.3 0h1.3zm3.8 0h1.3zm7.6 0h1.3zm-59.7 0.4h1.2zm7.7 0h1.2zm3.8 0h1.3zm6.4 0h1.2zm24.2 0h1.3zm6.3 0h1.3zm3.8 0h1.3zm7.6 0h1.3zm-59.8 0.5h1.3zm7.6 0h1.3zm3.8 0h1.3zm6.3 0h1.3zm7.6 0h1.3zm8.9 0h1.3zm7.6 0h1.3zm6.3 0h1.3zm3.8 0h1.3zm7.6 0h1.3zm-59.8 0.4h1.3zm7.6 0h1.3zm3.8 0h1.3zm6.3 0h1.3zm7.6 0h1.3zm8.9 0h1.3zm7.6 0h1.3zm6.3 0h1.3zm3.8 0h1.3zm7.6 0h1.3zm-59.8 0.4h1.3zm7.6 0h1.3zm3.8 0h1.3zm6.3 0h1.3zm7.6 0h1.3zm8.9 0h1.3zm7.6 0h1.3zm6.3 0h1.3zm3.8 0h1.3zm7.6 0h1.3zm-59.7 0.4h1.2zm7.6 0h1.3zm3.8 0h1.3zm6.4 0h1.2zm7.6 0h1.3zm8.9 0h1.3zm7.6 0h1.3zm6.3 0h1.3zm3.8 0h1.3zm7.6 0h1.3zm-59.7 0.5h1.2zm7.7 0h1.2zm3.8 0h1.3zm6.4 0h1.2zm7.7 0h1.2zm8.9 0h1.3zm7.6 0h1.3zm6.3 0h1.3zm3.8 0h1.3zm7.6 0h1.3zm-59.7 0.4h1.2zm7.7 0h1.2zm3.8 0h1.3zm6.4 0h1.2zm7.7 0h1.2zm8.9 0h1.3zm7.6 0h1.3zm6.3 0h1.3zm3.8 0h1.3zm7.6 0h1.3zm-59.7 0.4h1.2zm7.7 0h1.2zm3.8 0h1.3zm36.9 0h1.2zm3.9 0h1.2zm7.7 0h1.2zm-59.7 0.5h1.3zm7.6 0h1.3zm3.8 0h1.2zm36.9 0h1.3zm3.8 0h1.2zm7.7 0h1.2zm-59.7 0.4h1.3zm7.6 0h1.3zm3.8 0h1.3zm36.8 0h1.3zm3.8 0h1.3zm7.6 0h1.3zm-59.8 0.4h1.3zm7.6 0h1.3zm3.8 0h1.3zm36.8 0h1.3zm3.8 0h1.3zm7.6 0h1.3zm-59.7 0.4h1.2zm7.7 0h1.2zm3.8 0h1.3zm36.9 0h1.2zm3.9 0h1.2zm7.6 0h1.3zm-59.7 0.5h1.3zm7.6 0h1.3zm3.8 0h1.2zm36.9 0h1.3zm3.8 0h1.2zm7.7 0h1.2zm-59.7 0.4h1.3zm7.6 0h1.3zm3.8 0h1.3zm36.8 0h1.3zm3.8 0h1.3zm7.6 0h1.3zm-59.8 0.4h1.3zm7.6 0h1.3zm3.8 0h1.3zm36.8 0h1.3zm3.8 0h1.3zm7.6 0h1.3zm-59.7 0.4h1.2zm7.7 0h1.2zm3.8 0h1.3zm36.9 0h1.2zm3.8 0h1.3zm7.6 0h1.3zm-59.7 0.5h1.3zm7.6 0h1.3zm3.8 0h1.2zm22.9 0h1.3zm14 0h1.2zm3.8 0h1.3zm7.6 0h1.3zm-59.7 0.4h1.3zm7.6 0h1.2zm3.9 0h1.2zm22.9 0h1.3zm14 0h1.2zm3.8 0h1.3zm7.6 0h1.3zm-59.7 0.4h1.2zm7.7 0h1.2zm3.9 0h1.2zm22.9 0h1.3zm13.9 0h1.3zm3.8 0h1.3zm7.6 0h1.3zm-59.7 0.5h1.2zm7.7 0h1.2zm3.8 0h1.3zm22.9 0h1.3zm13.9 0h1.3zm3.8 0h1.3zm7.6 0h1.3zm-59.7 0.4h1.2zm7.7 0h1.2zm3.8 0h1.3zm22.9 0h1.3zm13.9 0h1.3zm3.8 0h1.3zm7.6 0h1.3zm-59.7 0.4h1.2zm7.7 0h1.2zm3.8 0h1.3zm22.9 0h1.3zm13.9 0h1.3zm3.8 0h1.3zm7.6 0h1.3zm-59.7 0.4h1.2zm7.7 0h1.2zm3.8 0h1.3zm22.9 0h1.2zm14 0h1.3zm3.8 0h1.3zm7.6 0h1.3zm-59.8 0.5h1.3zm7.6 0h1.3zm3.8 0h1.3zm22.9 0h1.2zm14 0h1.3zm3.8 0h1.3zm7.6 0h1.3zm-59.8 0.4h1.3zm7.6 0h1.3zm3.8 0h1.3zm22.9 0h1.2zm14 0h1.3zm3.8 0h1.3zm7.6 0h1.3zm-59.8 0.4h1.3zm7.6 0h1.3zm3.8 0h1.3zm22.9 0h1.2zm14 0h1.3zm3.8 0h1.3zm7.6 0h1.3zm-59.8 0.4h1.3zm7.6 0h1.3zm3.8 0h1.3zm22.9 0h1.2zm14 0h1.3zm3.8 0h1.3zm7.6 0h1.3zm-59.8 0.5h1.3zm7.6 0h1.3zm3.8 0h1.3zm22.9 0h1.2zm14 0h1.3zm3.8 0h1.3zm7.6 0h1.3zm-59.8 0.4h1.3zm7.6 0h1.3zm3.8 0h1.3zm6.3 0h1.3zm7.6 0h1.3zm8.9 0h1.3zm7.6 0h1.3zm6.3 0h1.3zm3.8 0h1.3zm7.6 0h1.3zm-59.8 0.4h1.3zm7.6 0h1.3zm3.8 0h1.3zm6.3 0h1.3zm7.6 0h1.3zm8.9 0h1.3zm7.6 0h1.3zm6.3 0h1.3zm3.8 0h1.3zm7.6 0h1.3zm-59.8 0.5h1.3zm7.6 0h1.3zm3.8 0h1.3zm6.3 0h1.3zm7.6 0h1.3zm8.9 0h1.3zm7.6 0h1.3zm6.3 0h1.3zm3.8 0h1.3zm7.6 0h1.3zm-59.8 0.4h1.3zm7.6 0h1.3zm3.8 0h1.3zm6.3 0h1.3zm7.6 0h1.3zm8.9 0h1.3zm7.6 0h1.3zm6.3 0h1.3zm3.8 0h1.3zm7.6 0h1.3zm-59.8 0.4h1.3zm7.6 0h1.3zm3.8 0h1.3zm6.4 0h1.2zm7.6 0h1.3zm8.9 0h1.3zm7.6 0h1.3zm6.3 0h1.3zm3.8 0h1.3zm7.6 0h1.3zm-59.7 0.4h1.2zm7.7 0h1.2zm3.8 0h1.3zm6.4 0h1.2zm7.7 0h1.2zm8.9 0h1.3zm7.6 0h1.3zm6.3 0h1.3zm3.8 0h1.3zm7.6 0h1.3zm-59.7 0.5h1.2zm7.7 0h1.2zm3.8 0h1.3zm6.4 0h1.2zm7.7 0h1.2zm8.9 0h1.3zm7.6 0h1.3zm6.3 0h1.3zm3.8 0h1.3zm7.6 0h1.3zm-59.7 0.4h1.2zm7.7 0h1.2zm3.8 0h1.3zm6.4 0h1.2zm7.7 0h1.2zm8.9 0h1.3zm7.6 0h1.3zm6.4 0h1.2zm3.8 0h1.3zm7.6 0h1.3zm-59.7 0.4h1.2zm7.7 0h1.2zm3.9 0h1.2zm6.4 0h1.2zm7.7 0h1.2zm8.9 0h1.3zm7.6 0h1.3zm6.4 0h1.2zm3.8 0h1.3zm7.6 0h1.3zm-59.7 0.5h1.2zm7.7 0h45.7zm52.1 0h1.3zm-59.7 0.4h1.2zm7.7 0h45.7zm52.1 0h1.3zm-59.7 0.4h1.2zm7.7 0h45.7zm52.1 0h1.3zm-59.7 0.4h1.2zm7.7 0h1.2zm44.5 0h1.3zm7.6 0h1.3zm-59.8 0.5h1.3zm7.6 0h1.3zm44.5 0h1.3zm7.6 0h1.3zm-59.8 0.4h1.3zm7.6 0h1.3zm44.5 0h1.2zm7.7 0h1.2zm-59.7 0.4h1.3zm7.6 0h1.3zm44.5 0h1.2zm7.6 0h1.3zm-59.7 0.4h1.3zm7.6 0h1.3zm44.4 0h1.3zm7.6 0h1.3zm-59.7 0.5h1.2zm7.7 0h1.2zm44.5 0h1.3zm7.6 0h1.3zm-59.7 0.4h1.2zm7.7 0h1.2zm44.5 0h1.3zm7.6 0h1.3zm-59.8 0.4h1.3zm7.6 0h1.3zm44.5 0h1.3zm7.6 0h1.3zm-59.8 0.5h1.3zm7.6 0h1.3zm44.5 0h1.2zm7.7 0h1.2zm-59.7 0.4h1.3zm7.6 0h1.3zm44.5 0h1.2zm7.7 0h1.2zm-59.7 0.4h1.3zm7.6 0h1.3zm44.4 0h1.3zm7.6 0h1.3zm-59.7 0.4h1.2zm7.7 0h1.2zm44.5 0h1.3zm7.6 0h1.3zm-59.7 0.5h1.2zm7.7 0h1.2zm44.5 0h1.3zm7.6 0h1.3zm-59.8 0.4h1.3zm7.6 0h1.3zm44.5 0h1.3zm7.6 0h1.3zm-59.8 0.4h1.3zm7.6 0h1.3zm44.5 0h1.2zm7.7 0h1.2zm-59.7 0.4h1.3zm7.6 0h1.3zm44.5 0h1.2zm7.7 0h1.2zm-59.7 0.5h1.3zm7.6 0h1.3zm44.4 0h1.3zm7.6 0h1.3zm-59.7 0.4h1.3zm7.6 0h1.2zm44.5 0h1.3zm7.6 0h1.3zm-58.5 0.4h58.5zm0 0.5h58.5zm0 0.4h58.4z"/>
			<path id="Layer" fill-rule="evenodd" class="s10" d="m490.7 2v1.3h-6.3v14.1h-1.3v-5.1h-2.5v2.5h-1.3v-2.5h-12.7v2.5h-1.3v-2.5h-7.6v2.5h-1.3v-2.5h-6.3v3.8h-1.3v-3.8h-5.1v1.2h-1.3v-1.2h-2.5v38.4h2.5v-28.2h1.3v28.2h5.1v-3.8h1.3v3.8h6.3v-3.8h1.3v3.8h7.6v-8.9h1.3v8.9h6.3v-3.8h1.3v3.8h5.1v-26.9h1.3v26.9h2.5v-30.7h1.3v39.7h6.3v1.3h-58.4v-1.3h6.3v-56.4h-6.3v-1.3zm-58.5 1.3v56.4h-1.3v-56.4zm58.5 0h1.3v56.4h-1.3zm-7.6 0h-43.2v7.7h43.2zm-33.1 14.1v1.3h-1.2v-1.3zm0 5.2v3.8h-1.3v-3.8zm7.6 1.2v1.3h-1.3v-1.3zm8.9 0v3.9h-1.2v-3.9zm7.6 0v2.6h-1.3v-2.6zm-7.6 5.2v2.5h-1.3v-2.5zm-16.5 5.1v3.8h-1.3v-3.8zm24.2 0v3.8h-1.3v-3.8zm-16.5 1.3v2.5h-1.3v-2.5zm8.9 0v2.5h-1.3v-2.5zm16.6 16.7h-43.2v7.6h43.2z"/>
			<path id="Layer" class="s0" d="m432.3 3.5h6.3zm7.6 0h43.3zm44.4 0h6.4zm-52.1 0.4h6.3zm7.7 0h43.2zm44.5 0h6.3zm-52.1 0.5h6.4zm7.6 0h43.2zm44.5 0h6.3zm-52.1 0.4h2.6zm3.8 0h2.5zm3.8 0h43.2zm44.5 0h2.6zm3.8 0h2.5zm-55.9 0.4h2.5zm3.8 0h2.6zm3.8 0h43.2zm44.5 0h2.5zm3.8 0h2.6zm-55.9 0.4h2.5zm3.8 0h2.6zm3.8 0h43.2zm44.5 0h2.5zm3.8 0h2.6zm-56 0.5h1.3zm5.1 0h1.3zm2.5 0h43.2zm44.5 0h1.3zm5 0h1.3zm-57.2 0.4h1.3zm5.1 0h1.3zm2.5 0h43.2zm44.5 0h1.3zm5 0h1.3zm-57.2 0.4h1.3zm5.1 0h1.2zm2.6 0h43.2zm44.5 0h1.2zm5.1 0h1.3zm-57.2 0.4h2.6zm3.8 0h2.5zm3.8 0h43.2zm44.5 0h2.5zm3.9 0h2.5zm-55.9 0.5h2.5zm3.8 0h2.6zm3.8 0h43.2zm44.5 0h2.5zm3.8 0h2.6zm-55.9 0.4h2.5zm3.8 0h2.6zm3.8 0h43.2zm44.5 0h2.5zm3.8 0h2.6zm-56 0.4h6.4zm7.6 0h43.2zm44.5 0h6.4zm-52.1 0.5h6.3zm7.6 0h43.2zm44.5 0h6.4zm-52.1 0.4h6.3zm7.6 0h43.3zm44.4 0h6.4zm-52.1 0.4h6.3zm7.7 0h43.2zm44.4 0h6.4zm-52.1 0.4h6.4zm7.6 0h43.2zm44.5 0h6.3zm-52.1 0.5h6.4zm7.6 0h43.2zm44.5 0h6.3zm-52.1 0.4h6.4zm52.1 0h6.3zm-52.1 0.4h6.4zm52.1 0h6.4zm-52.2 0.4h6.4zm52.1 0h6.4zm-52.1 0.5h6.3zm52.1 0h6.4zm-52.1 0.4h6.3zm52.1 0h6.4zm-52.1 0.4h6.3zm52.1 0h6.4zm-52.1 0.5h6.3zm52.1 0h6.4zm-52.1 0.4h6.3zm52.1 0h6.4zm-52.1 0.4h6.3zm52.2 0h6.3zm-52.1 0.4h6.4zm52.1 0h6.3zm-52.1 0.5h6.4zm52.1 0h6.3zm-52.1 0.4h6.4zm52.1 0h6.3zm-52.1 0.4h6.4zm52.1 0h6.3zm-52.1 0.4h6.4zm52.1 0h6.3zm-52.1 0.5h6.4zm52.1 0h6.4zm-52.1 0.4h6.3zm52.1 0h6.4zm-52.1 0.4h6.3zm52.1 0h6.4zm-52.1 0.5h6.3zm52.1 0h6.4zm-52.1 0.4h6.3zm52.1 0h6.4zm-52.1 0.4h6.3zm52.1 0h6.4zm-52.1 0.4h6.3zm52.1 0h6.4zm-52.1 0.5h6.4zm52.1 0h6.3zm-52.1 0.4h6.4zm52.1 0h6.3zm-52.1 0.4h6.4zm52.1 0h6.3zm-52.1 0.5h6.4zm52.1 0h6.3zm-52.1 0.4h6.4zm52.1 0h6.3zm-52.1 0.4h6.4zm52.1 0h6.4zm-52.2 0.4h6.4zm52.1 0h6.4zm-52.1 0.5h6.3zm52.1 0h6.4zm-52.1 0.4h6.3zm52.1 0h6.4zm-52.1 0.4h6.3zm52.1 0h6.4zm-52.1 0.4h6.3zm52.1 0h6.4zm-52.1 0.5h6.3zm52.1 0h6.4zm-52.1 0.4h6.3zm52.2 0h6.3zm-52.1 0.4h6.4zm52.1 0h6.3zm-52.1 0.5h6.4zm52.1 0h6.3zm-52.1 0.4h6.4zm52.1 0h6.3zm-52.1 0.4h6.4zm52.1 0h6.3zm-52.1 0.4h6.4zm52.1 0h6.3zm-52.1 0.5h6.4zm52.1 0h6.4zm-52.1 0.4h6.3zm52.1 0h6.4zm-52.1 0.4h6.3zm52.1 0h6.4zm-52.1 0.4h6.3zm52.1 0h6.4zm-52.1 0.5h6.3zm52.1 0h6.4zm-52.1 0.4h6.3zm52.1 0h6.4zm-52.1 0.4h6.3zm52.1 0h6.4zm-52.1 0.5h6.4zm52.1 0h6.3zm-52.1 0.4h6.4zm52.1 0h6.3zm-52.1 0.4h6.4zm52.1 0h6.3zm-52.1 0.4h6.4zm52.1 0h6.3zm-52.1 0.5h6.4zm52.1 0h6.3zm-52.1 0.4h6.4zm52.1 0h6.4zm-52.2 0.4h6.4zm52.1 0h6.4zm-52.1 0.5h6.3zm52.1 0h6.4zm-52.1 0.4h6.3zm52.1 0h6.4zm-52.1 0.4h6.3zm52.1 0h6.4zm-52.1 0.4h6.3zm52.1 0h6.4zm-52.1 0.5h6.3zm52.1 0h6.4zm-52.1 0.4h6.3zm52.2 0h6.3zm-52.1 0.4h6.4zm52.1 0h6.3zm-52.1 0.4h6.4zm52.1 0h6.3zm-52.1 0.5h6.4zm52.1 0h6.3zm-52.1 0.4h6.4zm52.1 0h6.3zm-52.1 0.4h6.4zm52.1 0h6.3zm-52.1 0.5h6.4zm52.1 0h6.4zm-52.1 0.4h6.3zm52.1 0h6.4zm-52.1 0.4h6.3zm52.1 0h6.4zm-52.1 0.4h6.3zm52.1 0h6.4zm-52.1 0.5h6.3zm52.1 0h6.4zm-52.1 0.4h6.3zm52.1 0h6.4zm-52.1 0.4h6.3zm52.1 0h6.4zm-52.1 0.4h6.4zm52.1 0h6.3zm-52.1 0.5h6.4zm52.1 0h6.3zm-52.1 0.4h6.4zm52.1 0h6.3zm-52.1 0.4h6.4zm52.1 0h6.3zm-52.1 0.5h6.4zm52.1 0h6.3zm-52.1 0.4h6.4zm52.1 0h6.4zm-52.2 0.4h6.4zm52.1 0h6.4zm-52.1 0.4h6.3zm52.1 0h6.4zm-52.1 0.5h6.3zm52.1 0h6.4zm-52.1 0.4h6.3zm52.1 0h6.4zm-52.1 0.4h6.3zm52.1 0h6.4zm-52.1 0.4h6.3zm52.1 0h6.4zm-52.1 0.5h6.3zm52.2 0h6.3zm-52.1 0.4h6.4zm52.1 0h6.3zm-52.1 0.4h6.4zm52.1 0h6.3zm-52.1 0.5h6.4zm52.1 0h6.3zm-52.1 0.4h6.4zm52.1 0h6.3zm-52.1 0.4h6.4zm52.1 0h6.3zm-52.1 0.4h6.4zm52.1 0h6.4zm-52.1 0.5h6.3zm52.1 0h6.4zm-52.1 0.4h6.3zm52.1 0h6.4zm-52.1 0.4h6.3zm52.1 0h6.4zm-52.1 0.5h6.3zm52.1 0h6.4zm-52.1 0.4h6.3zm52.1 0h6.4zm-52.1 0.4h6.3zm52.1 0h6.4zm-52.1 0.4h6.4zm7.6 0h43.2zm44.5 0h6.3zm-52.1 0.5h6.4zm7.6 0h43.2zm44.5 0h6.3zm-52.1 0.4h6.4zm7.6 0h43.2zm44.5 0h6.4zm-52.2 0.4h6.4zm7.6 0h43.2zm44.5 0h6.4zm-52.1 0.4h6.3zm7.6 0h43.3zm44.4 0h6.4zm-52.1 0.5h6.3zm7.7 0h43.2zm44.4 0h6.4zm-52.1 0.4h2.5zm3.8 0h2.6zm3.8 0h43.2zm44.5 0h2.5zm3.8 0h2.6zm-55.9 0.4h2.5zm3.8 0h2.6zm3.8 0h43.2zm44.5 0h2.5zm3.8 0h2.6zm-56 0.5h2.6zm3.8 0h2.5zm3.9 0h43.2zm44.4 0h2.6zm3.8 0h2.5zm-55.9 0.4h1.3zm5.1 0h1.2zm2.6 0h43.2zm44.5 0h1.2zm5.1 0h1.3zm-57.2 0.4h1.3zm5.1 0h1.2zm2.6 0h43.2zm44.5 0h1.2zm5.1 0h1.3zm-57.2 0.4h1.3zm5.1 0h1.2zm2.6 0h43.2zm44.5 0h1.2zm5.1 0h1.3zm-57.2 0.5h2.5zm3.8 0h2.6zm3.8 0h43.2zm44.5 0h2.5zm3.8 0h2.6zm-55.9 0.4h2.5zm3.8 0h2.6zm3.8 0h43.2zm44.5 0h2.5zm3.8 0h2.6zm-56 0.4h2.6zm3.8 0h2.5zm3.8 0h43.3zm44.4 0h2.6zm3.8 0h2.5zm-55.9 0.4h6.4zm7.6 0h43.2zm44.5 0h6.3zm-52.1 0.5h6.4zm7.6 0h43.2zm44.5 0h6.3zm-52.1 0.4h6.4zm7.6 0h43.2zm44.5 0h6.4z"/>
			<path id="Layer" fill-rule="evenodd" class="s6" d="m438.6 3.3v56.4h-6.3v-56.4zm44.4 0v7.7h-43.2v-7.7zm7.7 0v56.4h-6.4v-56.4zm-54.6 1.3h-1.3v1.2h-1.3v1.3h1.3v1.3h1.3v-1.3h1.2v-1.3h-1.2zm52.1 0h-1.3v1.3h-1.3v1.3h1.3v1.3h1.3v-1.3h1.2v-1.3h-1.2zm-5.1 47.5v7.7h-43.2v-7.7zm-47 2.6h-1.3v1.2h-1.3v1.3h1.3v1.3h1.3v-1.3h1.2v-1.3h-1.2zm52.1 0h-1.3v1.3h-1.3v1.3h1.3v1.3h1.3v-1.3h1.2v-1.3h-1.2z"/>
			<path id="Layer" class="s0" d="m434.8 4.8h1.3zm52.1 0h1.3zm-52.1 0.4h1.2zm52.1 0h1.3zm-52.1 0.4h1.3zm52.1 0h1.2zm-53.3 0.5h3.8zm52.1 0h3.8zm-52.1 0.4h3.8zm52.1 0h3.8zm-52.1 0.4h3.8zm52.1 0h3.8zm-50.8 0.4h1.3zm52.1 0h1.3zm-52.1 0.5h1.2zm52.1 0h1.3zm-52.1 0.4h1.3zm52.1 0h1.2zm-52.1 46.6h1.3zm52.1 0h1.3zm-52.1 0.4h1.3zm52.1 0h1.2zm-52.1 0.5h1.3zm52.1 0h1.3zm-53.4 0.4h3.8zm52.1 0h3.8zm-52.1 0.4h3.8zm52.1 0h3.8zm-52.1 0.4h3.9zm52.1 0h3.8zm-50.9 0.5h1.3zm52.1 0h1.3zm-52.1 0.4h1.3zm52.1 0h1.2zm-52.1 0.4h1.3zm52.1 0h1.3z"/>
			<path id="Layer" fill-rule="evenodd" class="s8" d="m436.1 4.6v1.2h1.3v1.3h-1.3v1.3h-1.3v-1.3h-1.3v-1.3h1.3v-1.2zm52.1 0v1.2h1.3v1.3h-1.3v1.3h-1.3v-1.3h-1.2v-1.3h1.2v-1.2zm-52.1 50v1.3h1.3v1.3h-1.3v1.2h-1.2v-1.2h-1.3v-1.3h1.3v-1.3zm52.1 0v1.3h1.2v1.3h-1.2v1.2h-1.3v-1.2h-1.3v-1.3h1.3v-1.3z"/>
			<path id="Layer" class="s0" d="m439.9 12.5h1.3zm3.8 0h5.1zm6.3 0h6.4zm7.6 0h7.6zm8.9 0h2.6zm3.8 0h1.2zm3.9 0h5zm6.4 0h2.5zm-40.6 0.4h1.2zm3.8 0h5.1zm6.4 0h6.3zm7.7 0h7.6zm8.9 0h2.5zm3.8 0h1.3zm3.8 0h5.1zm6.4 0h2.5zm-40.7 0.4h1.3zm3.8 0h5.1zm6.4 0h6.3zm7.6 0h7.7zm8.9 0h2.5zm3.8 0h1.3zm3.8 0h5.1zm6.3 0h2.6zm-36.9 0.5h5.1zm6.4 0h6.3zm7.6 0h7.7zm8.9 0h1.2zm8.9 0h3.8zm5.1 0h2.6zm-36.9 0.4h5.1zm6.3 0h6.4zm7.6 0h7.6zm8.9 0h1.3zm8.9 0h3.8zm5.1 0h2.5zm-36.8 0.4h5.1zm6.3 0h6.4zm7.6 0h7.6zm8.9 0h1.3zm8.9 0h3.8zm5.1 0h2.5zm-34.3 0.4h2.6zm7.6 0h2.5zm3.8 0h1.3zm3.8 0h3.8zm14 0h2.6zm6.3 0h1.3zm-35.6 0.5h2.5zm7.7 0h2.5zm3.8 0h1.3zm3.8 0h3.8zm14 0h2.5zm6.4 0h1.3zm-35.6 0.4h2.5zm7.6 0h2.6zm3.8 0h1.3zm3.8 0h3.8zm14 0h2.5zm6.4 0h1.2zm-34.3 0.4h1.3zm15.2 0h1.3zm12.7 0h1.3zm-28 0.4h1.3zm15.3 0h1.2zm12.7 0h1.3zm-28 0.5h1.3zm15.3 0h1.2zm12.7 0h1.3zm-31.8 1.7h1.3zm15.3 0h1.2zm7.7 0h1.2zm-22.8 0.4h1.2zm15.3 0h1.2zm7.7 0h1.2zm-22.8 0.4h1.2zm15.3 0h1.3zm7.6 0h1.3zm-22.9 0.5h1.3zm15.2 0h1.3zm-15.3 0.4h1.3zm15.2 0h1.3zm-15.2 0.4h1.2zm15.3 0h1.3zm-15.3 0.5h1.3zm15.2 0h1.3zm-15.3 0.4h1.3zm15.3 0h1.2zm-15.2 0.4h1.3zm15.2 0h1.3zm-19.1 0.4h1.3zm3.8 0h2.5zm3.9 0h1.2zm7.7 0h1.2zm2.6 0h3.8zm5.1 0h2.5zm7.6 0h1.3zm5.1 0h2.5zm6.4 0h1.2zm-41.9 0.5h1.3zm3.8 0h2.5zm3.8 0h1.3zm7.6 0h1.3zm2.6 0h3.8zm5.1 0h2.5zm7.6 0h1.3zm5.1 0h2.5zm6.4 0h1.2zm-41.9 0.4h1.3zm3.8 0h2.5zm3.8 0h1.3zm7.6 0h1.3zm2.5 0h3.9zm5 0h2.6zm7.6 0h1.3zm5.1 0h2.5zm6.4 0h1.2zm-41.9 0.4h2.5zm3.8 0h5.1zm6.4 0h6.3zm8.9 0h3.8zm5.1 0h1.3zm2.5 0h2.6zm3.8 0h2.5zm3.8 0h5.1zm6.4 0h2.5zm-40.6 0.4h2.5zm3.8 0h5.1zm6.3 0h6.4zm8.9 0h3.8zm5.1 0h1.3zm2.5 0h2.5zm3.9 0h2.5zm3.8 0h5.1zm6.4 0h2.5zm-40.7 0.5h2.6zm3.8 0h5.1zm6.3 0h6.4zm8.9 0h3.8zm5.1 0h1.2zm2.6 0h2.5zm3.8 0h2.6zm3.8 0h5.1zm6.3 0h2.6zm-40.7 0.4h2.5zm3.9 0h5zm6.4 0h6.3zm10.2 0h1.3zm6.3 0h1.3zm5.1 0h1.3zm2.5 0h5.1zm6.3 0h2.6zm-40.7 0.4h2.6zm3.8 0h5.1zm6.3 0h6.4zm10.1 0h1.3zm6.4 0h1.2zm5.1 0h1.3zm2.5 0h5.1zm6.4 0h2.5zm-40.7 0.5h2.6zm3.8 0h5.1zm6.3 0h6.4zm10.1 0h1.3zm6.4 0h1.2zm5.1 0h1.3zm2.5 0h5.1zm6.4 0h2.5zm-40.7 0.4h2.6zm3.8 0h5.1zm6.3 0h3.8zm5.1 0h1.3zm3.8 0h2.6zm7.6 0h1.3zm7.6 0h5.1zm6.3 0h2.6zm-40.7 0.4h2.5zm3.8 0h5.1zm6.4 0h3.8zm5.1 0h1.2zm3.9 0h2.5zm7.6 0h1.3zm7.6 0h5.1zm6.4 0h2.5zm-40.7 0.4h2.6zm3.8 0h5.1zm6.3 0h3.8zm5.1 0h1.3zm3.8 0h2.5zm7.7 0h1.2zm7.7 0h5.1zm6.3 0h2.5zm-40.6 0.5h2.5zm3.8 0h3.8zm7.7 0h1.2zm15.3 0h1.3zm8.9 0h3.8zm5.1 0h2.5zm-40.7 0.4h2.6zm3.8 0h3.8zm7.6 0h1.3zm15.2 0h1.3zm8.9 0h3.8zm5.1 0h2.5zm-40.6 0.4h2.5zm3.8 0h3.8zm7.7 0h1.2zm15.3 0h1.3zm8.9 0h3.8zm5.1 0h2.5zm-40.7 0.4h2.6zm3.8 0h3.8zm16.5 0h1.3zm6.3 0h1.3zm10.2 0h2.5zm3.8 0h2.6zm-40.7 0.5h2.6zm3.8 0h3.8zm16.5 0h1.3zm6.3 0h1.3zm10.2 0h2.5zm3.8 0h2.6zm-40.7 0.4h2.5zm3.8 0h3.9zm16.5 0h1.2zm6.4 0h1.3zm10.1 0h2.6zm3.8 0h2.5zm-40.6 0.4h2.5zm3.8 0h3.8zm16.6 0h1.2zm11.5 0h1.2zm5.1 0h2.6zm3.8 0h2.5zm-40.7 0.5h2.6zm3.8 0h3.8zm16.5 0h1.3zm11.4 0h1.3zm5.1 0h2.5zm3.9 0h2.5zm-40.7 0.4h2.6zm3.8 0h3.8zm16.5 0h1.3zm11.4 0h1.3zm5.1 0h2.5zm3.8 0h2.6zm-40.7 0.4h2.5zm3.9 0h3.8zm16.5 0h1.3zm11.4 0h1.3zm5.1 0h2.5zm3.8 0h2.6zm-40.7 0.4h2.5zm3.8 0h3.9zm16.5 0h1.2zm11.5 0h1.3zm5 0h2.6zm3.8 0h2.5zm-40.6 0.5h2.5zm3.8 0h3.8zm16.6 0h1.2zm11.5 0h1.2zm5.1 0h2.6zm3.8 0h2.5zm-40.7 0.4h2.6zm3.8 0h5.1zm17.8 0h1.2zm10.2 0h1.3zm5.1 0h2.5zm3.8 0h2.6zm-40.7 0.4h2.5zm3.8 0h5.1zm17.8 0h1.3zm10.2 0h1.2zm5.1 0h2.6zm3.8 0h2.5zm-40.7 0.5h2.6zm3.8 0h5.1zm17.8 0h1.2zm10.2 0h1.3zm5.1 0h2.5zm3.8 0h2.6zm-40.7 0.4h2.5zm3.8 0h5.1zm7.7 0h1.2zm2.6 0h2.5zm6.4 0h3.8zm6.3 0h2.6zm3.8 0h2.5zm5.1 0h3.8zm5.1 0h2.5zm-40.6 0.4h2.5zm3.8 0h5.1zm7.6 0h1.3zm2.5 0h2.6zm6.3 0h3.9zm6.3 0h2.6zm3.8 0h2.5zm5.1 0h3.8zm5.1 0h2.5zm-40.6 0.4h2.5zm3.8 0h5.1zm7.6 0h1.3zm2.5 0h2.6zm6.3 0h3.8zm6.4 0h2.5zm3.8 0h2.6zm5.1 0h3.8zm5.1 0h2.5zm-40.7 0.5h2.6zm3.8 0h5.1zm6.3 0h6.4zm7.6 0h7.6zm8.9 0h6.4zm7.6 0h5.1zm6.4 0h2.5zm-40.7 0.4h2.6zm3.8 0h5.1zm6.3 0h6.4zm7.6 0h7.6zm8.9 0h6.4zm7.6 0h5.1zm6.3 0h2.6zm-40.7 0.4h2.5zm3.9 0h5zm6.4 0h6.4zm7.6 0h7.6zm8.9 0h6.4zm7.6 0h5.1zm6.3 0h2.6zm-40.7 0.4h2.5zm3.8 0h5.1zm6.4 0h6.3zm7.7 0h7.6zm8.9 0h6.3zm7.7 0h5zm6.4 0h2.5zm-40.6 0.5h2.5zm3.8 0h5.1zm6.4 0h6.3zm7.6 0h7.7zm8.9 0h6.3zm7.6 0h5.1zm6.4 0h2.5zm-40.6 0.4h2.5zm3.8 0h5.1zm6.3 0h6.4zm7.6 0h7.6zm8.9 0h6.4zm7.6 0h5.1zm6.4 0h2.5zm-40.7 0.4h2.6zm3.8 0h5.1zm8.9 0h3.8zm7.6 0h2.5zm3.9 0h1.2zm3.8 0h3.9zm7.6 0h3.8zm5.1 0h2.5zm-40.6 0.5h2.5zm3.8 0h5.1zm8.9 0h3.8zm7.6 0h2.6zm3.8 0h1.2zm3.9 0h3.8zm7.6 0h3.8zm5.1 0h2.5zm-40.6 0.4h2.5zm3.8 0h5.1zm8.9 0h3.8zm7.6 0h2.6zm3.8 0h1.3zm3.8 0h3.8zm7.6 0h3.8zm5.1 0h2.5zm-40.6 0.4h2.5zm3.8 0h3.8zm10.2 0h1.3zm15.2 0h1.3zm7.6 0h2.6zm3.8 0h2.5zm-40.6 0.4h2.5zm3.8 0h3.8zm10.2 0h1.3zm15.2 0h1.3zm7.6 0h2.6zm3.8 0h2.5zm-40.7 0.5h2.6zm3.8 0h3.8zm10.2 0h1.2zm15.3 0h1.3zm7.6 0h2.5zm3.8 0h2.6zm-40.7 0.4h2.6zm3.8 0h2.5zm8.9 0h3.8zm25.4 0h1.3zm2.5 0h2.6zm-40.7 0.4h2.6zm3.8 0h2.5zm8.9 0h3.8zm25.4 0h1.3zm2.6 0h2.5zm-40.7 0.4h2.6zm3.8 0h2.5zm8.9 0h3.8zm25.5 0h1.2zm2.6 0h2.5zm-40.7 0.5h2.6zm3.8 0h2.5zm6.4 0h2.5zm3.8 0h1.3zm12.7 0h1.3zm11.4 0h1.3zm2.5 0h2.6zm-40.7 0.4h2.6zm3.8 0h2.5zm6.4 0h2.5zm3.8 0h1.3zm12.7 0h1.3zm11.4 0h1.3zm2.5 0h2.6zm-40.7 0.4h2.5zm3.9 0h2.5zm6.3 0h2.6zm3.8 0h1.3zm12.7 0h1.3zm11.4 0h1.3zm2.5 0h2.5zm-40.6 0.5h2.5zm3.8 0h2.6zm22.8 0h2.6zm10.2 0h2.5zm3.8 0h2.6zm-40.7 0.4h2.5zm3.8 0h2.6zm22.9 0h2.5zm10.2 0h2.5zm3.8 0h2.6zm-40.7 0.4h2.5zm3.8 0h2.6zm22.9 0h2.5zm10.2 0h2.5zm3.8 0h2.6zm-40.7 0.4h2.5zm3.9 0h3.8zm10.1 0h1.3zm12.7 0h3.8zm10.2 0h2.5zm3.8 0h2.6zm-40.7 0.5h2.6zm3.8 0h3.8zm10.2 0h1.2zm12.7 0h3.8zm10.2 0h2.6zm3.8 0h2.5zm-40.7 0.4h2.6zm3.8 0h3.8zm10.2 0h1.2zm12.8 0h3.8zm10.1 0h2.6zm3.8 0h2.5zm-40.6 0.4h2.5zm3.8 0h5.1zm8.9 0h3.8zm8.9 0h1.3zm2.5 0h1.3zm2.5 0h5.1zm8.9 0h3.8zm5.1 0h2.5zm-40.6 0.4h2.5zm3.8 0h5.1zm8.9 0h3.8zm8.9 0h1.3zm2.5 0h1.3zm2.5 0h5.1zm8.9 0h3.8zm5.1 0h2.6zm-40.7 0.5h2.5zm3.8 0h5.1zm8.9 0h3.8zm8.9 0h1.3zm2.5 0h1.3zm2.6 0h5zm8.9 0h3.8zm5.1 0h2.6zm-40.7 0.4h2.5zm3.9 0h5zm6.4 0h6.4zm7.6 0h7.6zm8.9 0h6.4zm7.6 0h5.1zm6.3 0h2.6zm-40.7 0.4h2.5zm3.8 0h5.1zm6.4 0h6.3zm7.7 0h7.6zm8.9 0h6.3zm7.7 0h5zm6.4 0h2.5zm-40.6 0.5h2.5zm3.8 0h5.1zm6.4 0h6.3zm7.6 0h7.7zm8.9 0h6.3zm7.6 0h5.1zm6.4 0h2.5zm-40.6 0.4h2.5zm3.8 0h5.1zm6.3 0h6.4zm7.6 0h7.6zm8.9 0h6.4zm7.6 0h5.1zm6.4 0h2.5zm-40.7 0.4h2.6zm3.8 0h5.1zm6.3 0h6.4zm7.6 0h7.6zm8.9 0h6.4zm7.6 0h5.1zm6.3 0h2.6zm-40.7 0.4h2.6zm3.8 0h5.1zm6.3 0h6.4zm7.6 0h7.6zm8.9 0h6.4zm7.6 0h5.1zm6.3 0h2.6zm-40.7 0.5h2.5zm3.9 0h5zm6.4 0h6.3zm7.7 0h7.6zm8.9 0h6.3zm7.7 0h5.1zm6.3 0h2.5zm-40.6 0.4h2.5zm3.8 0h5.1zm6.4 0h6.3zm7.7 0h7.6zm8.9 0h6.3zm7.7 0h5zm6.4 0h2.5zm-40.6 0.4h2.5zm3.8 0h5.1zm6.4 0h6.3zm7.6 0h7.7zm8.9 0h6.3zm7.6 0h5.1zm6.4 0h2.5z"/>
			<path id="Layer" fill-rule="evenodd" class="s7" d="m441.2 12.3v1.2h-1.3v-1.2zm7.6 0v5.1h-1.2v-1.3h-1.3v-1.3h-2.6v-2.5zm7.7 0v3.8h-2.6v-1.3h-3.8v-2.5zm8.9 0v3.8h-1.3v1.3h-1.2v-1.3h-1.3v-1.3h-2.5v1.3h-1.3v-3.8zm3.8 0v1.2h-1.3v1.3h-1.2v-2.5zm2.5 0v1.2h-1.3v-1.2zm7.6 0v2.5h-1.2v1.3h-1.3v1.3h-1.3v-3.9h-1.2v-1.2zm3.8 0v3.8h-1.3v-1.3h-1.3v-2.5zm-38.1 6.4v3.8h1.3v1.3h1.3v-1.3h1.2v5.2h-1.2v5.1h1.2v6.4h-1.2v1.3h-1.3v3.8h1.3v1.3h1.2v5.1h-5.1v-32zm15.3 0v3.8h1.3v1.3h1.2v1.3h-1.2v2.6h-2.6v-1.3h1.3v-1.3h-1.3v-1.3h-1.3v-1.3h1.3v-3.8zm2.6 3.8h2.5v2.6h-1.3v-1.3h-1.2zm5-3.8v1.2h-1.2v-1.2zm-26.7 3.8v1.3h1.3v26.9h-2.6v-28.2zm15.3 0v5.1h-1.3v-1.2h-1.3v1.2h-1.2v1.3h-1.3v-1.3h-1.3v-3.8h5.1v-1.3zm15.2 0v1.3h1.3v2.6h-1.3v-1.3h-1.2v-2.6zm6.3 0v1.3h1.3v26.9h-5.1v-3.8h1.3v-1.3h1.3v-2.6h1.2v-2.5h-1.2v-1.3h-1.3v-1.3h-1.3v-2.6h1.3v-1.3h1.3v-5.1h-1.3v-1.3h-1.3v-3.8h1.3v-1.3zm5.1 0v28.2h-2.6v-26.9h1.3v-1.3zm-14 1.3v1.3h-1.3v5.1h-1.2v-6.4zm-7.6 5.1v3.9h-1.3v-3.9zm11.4 1.3v7.7h-1.3v1.3h-1.2v1.3h-1.3v-1.3h-1.3v-1.3h-1.2v-3.9h2.5v1.3h1.3v-1.3h1.2v-3.8zm-10.1 2.6v1.2h1.3v1.3h1.2v3.9h-1.2v-1.3h-1.3v1.3h-2.6v-1.3h-2.5v-2.6h2.5v-1.3h1.3v-1.2zm-10.2 1.2v1.3h1.3v-1.3h2.6v5.2h-1.3v1.3h1.3v1.2h-1.3v1.3h-1.3v-1.3h-1.3v-1.2h1.3v-1.3h-1.3v-1.3h-2.5v-2.6h1.3v-1.3zm0 7.7v1.3h-2.6v-1.3zm15.3 0v1.3h1.3v1.3h1.2v1.3h1.3v1.3h1.3v3.8h-6.4v-9zm-12.7 2.6v1.3h1.3v5.1h-6.4v-3.8h2.6v-1.3h1.2v-1.3zm7.7 1.3v1.3h1.2v-1.3h1.3v5.1h-7.6v-3.8h3.8v-1.3z"/>
			<path id="Layer" class="s0" d="m441.2 12.5h1.2zm28 0h1.3zm2.5 0h2.6zm-30.5 0.4h1.2zm28 0h1.3zm2.5 0h2.5zm-30.5 0.4h1.3zm28 0h1.2zm2.6 0h2.5zm-31.8 0.5h1.3zm2.6 0h1.2zm25.4 0h1.3zm2.6 0h1.2zm3.8 0h1.3zm-34.3 0.4h1.3zm2.5 0h1.3zm25.4 0h1.3zm2.5 0h1.3zm3.8 0h1.3zm-34.3 0.4h1.2zm2.6 0h1.2zm25.5 0h1.2zm2.6 0h1.2zm3.8 0h1.3zm-34.3 0.4h1.3zm2.5 0h3.8zm7.7 0h3.8zm6.3 0h1.3zm2.5 0h2.6zm6.3 0h3.8zm5.1 0h2.6zm3.8 0h1.3zm3.8 0h3.8zm-38.1 0.5h1.2zm2.6 0h3.8zm7.6 0h3.8zm6.4 0h1.2zm2.6 0h2.5zm6.4 0h3.8zm5.1 0h2.5zm3.8 0h1.3zm3.8 0h3.8zm-38.1 0.4h1.3zm2.5 0h3.8zm7.6 0h3.9zm6.3 0h1.3zm2.5 0h2.6zm6.3 0h3.8zm5.1 0h2.6zm3.8 0h1.2zm3.9 0h3.8zm-38.2 0.4h1.3zm2.6 0h1.2zm3.8 0h1.3zm2.6 0h1.2zm5.1 0h2.5zm3.9 0h1.2zm3.8 0h1.3zm2.6 0h1.2zm3.8 0h1.3zm2.6 0h2.5zm3.8 0h1.3zm2.5 0h1.3zm5.1 0h1.2zm-41.9 0.4h1.3zm2.5 0h1.3zm3.8 0h1.3zm2.5 0h1.3zm5.1 0h2.5zm3.8 0h1.3zm3.8 0h1.3zm2.5 0h1.3zm3.8 0h1.3zm2.5 0h2.6zm3.8 0h1.2zm2.6 0h1.3zm5 0h1.3zm-41.9 0.5h1.2zm2.6 0h1.3zm3.8 0h1.2zm2.6 0h1.2zm5.1 0h2.6zm3.8 0h1.3zm3.8 0h1.2zm2.6 0h1.3zm3.8 0h1.2zm2.6 0h2.5zm3.8 0h1.3zm2.5 0h1.3zm5.1 0h1.3zm-42 0.4h1.3zm3.8 0h2.6zm3.8 0h1.2zm2.6 0h3.8zm5.1 0h1.2zm3.9 0h2.5zm3.8 0h1.3zm2.5 0h2.6zm5 0h2.6zm3.8 0h2.5zm3.9 0h3.8zm5.1 0h1.2zm-43.2 0.4h1.3zm3.8 0h2.5zm3.9 0h1.2zm2.6 0h3.8zm5.1 0h1.2zm3.8 0h2.6zm3.8 0h1.3zm2.5 0h2.6zm5 0h2.6zm3.8 0h2.5zm3.8 0h3.9zm5 0h1.3zm-43.2 0.5h1.3zm3.8 0h2.5zm3.8 0h1.3zm2.5 0h3.9zm5 0h1.3zm3.8 0h2.6zm3.8 0h1.3zm2.5 0h2.5zm5.1 0h2.6zm3.8 0h2.5zm3.8 0h3.8zm5.1 0h1.3zm-43.2 0.4h1.3zm2.5 0h1.3zm2.5 0h1.3zm2.5 0h2.6zm7.6 0h1.3zm2.5 0h1.3zm2.5 0h1.3zm2.5 0h1.3zm2.5 0h1.3zm2.5 0h1.3zm2.6 0h2.5zm3.8 0h2.6zm8.9 0h1.2zm-43.2 0.4h1.3zm2.5 0h1.3zm2.5 0h1.3zm2.6 0h2.5zm7.6 0h1.3zm2.5 0h1.3zm2.5 0h1.3zm2.6 0h1.2zm2.6 0h1.2zm2.6 0h1.3zm2.5 0h2.5zm3.8 0h2.6zm8.9 0h1.3zm-43.3 0.4h1.3zm2.6 0h1.2zm2.6 0h1.2zm2.6 0h2.5zm7.7 0h1.2zm2.6 0h1.2zm2.6 0h1.2zm2.6 0h1.3zm2.5 0h1.3zm2.5 0h1.3zm2.5 0h2.6zm3.8 0h2.5zm8.9 0h1.3zm-43.2 0.5h1.2zm2.6 0h1.3zm2.5 0h1.3zm2.5 0h1.3zm2.5 0h3.8zm5.1 0h1.3zm2.5 0h1.3zm2.5 0h1.3zm2.6 0h1.2zm2.6 0h3.8zm5.1 0h2.5zm3.8 0h2.6zm3.8 0h5.1zm-38.2 0.4h1.3zm2.5 0h1.3zm2.6 0h1.2zm2.6 0h1.2zm2.6 0h3.8zm5.1 0h1.2zm2.6 0h1.3zm2.5 0h1.3zm2.5 0h1.3zm2.5 0h3.8zm5.1 0h2.6zm3.8 0h2.5zm3.8 0h5.1zm-38.1 0.4h1.3zm2.5 0h1.3zm2.5 0h1.3zm2.5 0h1.3zm2.5 0h3.9zm5 0h1.3zm2.5 0h1.3zm2.6 0h1.2zm2.6 0h1.2zm2.6 0h3.8zm5.1 0h2.5zm3.8 0h2.6zm3.8 0h5.1zm-38.2 0.5h1.3zm2.6 0h1.2zm2.6 0h1.2zm2.6 0h2.5zm7.6 0h1.3zm2.6 0h1.2zm2.6 0h1.2zm2.6 0h2.5zm7.7 0h1.2zm5.1 0h2.5zm6.4 0h1.3zm-42 0.4h1.3zm2.5 0h1.3zm2.6 0h1.2zm2.6 0h2.5zm7.6 0h1.3zm2.5 0h1.3zm2.6 0h1.2zm2.6 0h2.5zm7.6 0h1.3zm5.1 0h2.5zm6.4 0h1.3zm-42 0.4h1.3zm2.5 0h1.3zm2.5 0h1.3zm2.6 0h2.5zm7.6 0h1.3zm2.5 0h1.3zm2.6 0h1.2zm2.6 0h2.5zm7.6 0h1.3zm5.1 0h2.5zm6.4 0h1.3zm-40.7 0.4h1.3zm5 0h1.3zm3.8 0h5.1zm6.4 0h1.2zm5.1 0h1.3zm3.8 0h5.1zm6.3 0h3.8zm6.4 0h3.8zm-36.8 0.5h1.2zm5.1 0h1.3zm3.8 0h5.1zm6.3 0h1.3zm5.1 0h1.3zm3.8 0h5.1zm6.3 0h3.8zm6.4 0h3.8zm-36.9 0.4h1.3zm5.1 0h1.3zm3.8 0h5.1zm6.3 0h1.3zm5.1 0h1.2zm3.9 0h5zm6.4 0h3.8zm6.4 0h3.8zm-20.4 0.4h1.3zm5.1 0h1.3zm6.3 0h1.3zm-11.5 0.4h1.3zm5.1 0h1.3zm6.3 0h1.3zm-11.4 0.5h1.2zm5.1 0h1.3zm6.3 0h1.3zm-12.7 0.4h1.3zm2.5 0h1.3zm2.5 0h1.3zm2.5 0h1.3zm3.8 0h1.3zm2.5 0h1.3zm-14 0.4h1.3zm2.5 0h1.3zm2.6 0h1.2zm2.6 0h1.2zm3.8 0h1.3zm2.6 0h1.2zm-13.9 0.5h1.2zm2.6 0h1.2zm2.6 0h1.2zm2.6 0h1.3zm3.8 0h1.2zm2.6 0h1.3zm-21.6 0.4h1.2zm5.1 0h1.3zm2.5 0h2.6zm5 0h1.3zm2.6 0h1.2zm3.8 0h1.3zm2.6 0h3.8zm-21.6 0.4h1.2zm5.1 0h1.3zm2.5 0h2.6zm5.1 0h1.2zm2.6 0h1.2zm3.8 0h1.3zm2.6 0h3.8zm-21.6 0.4h1.2zm5.1 0h1.3zm2.5 0h2.6zm5.1 0h1.2zm2.6 0h1.2zm3.9 0h1.2zm2.6 0h3.8zm-22.9 0.5h1.3zm2.5 0h1.3zm2.5 0h1.3zm2.5 0h1.3zm3.8 0h2.6zm6.3 0h1.3zm2.5 0h1.3zm2.5 0h1.3zm3.8 0h1.3zm-26.7 0.4h1.3zm2.5 0h1.3zm2.5 0h1.3zm2.6 0h1.2zm3.8 0h2.6zm6.3 0h1.3zm2.5 0h1.3zm2.6 0h1.2zm3.8 0h1.3zm-26.7 0.4h1.3zm2.5 0h1.3zm2.5 0h1.3zm2.6 0h1.2zm3.8 0h2.6zm6.3 0h1.3zm2.5 0h1.3zm2.6 0h1.2zm3.8 0h1.3zm-26.7 0.4h1.3zm2.5 0h3.9zm5 0h2.6zm3.8 0h1.3zm2.5 0h1.3zm2.5 0h1.3zm3.8 0h1.3zm3.8 0h2.5zm3.8 0h1.3zm-28 0.5h1.3zm2.6 0h3.8zm5.1 0h2.5zm3.8 0h1.3zm2.5 0h1.3zm2.5 0h1.3zm3.8 0h1.3zm3.8 0h2.5zm3.9 0h1.2zm-27.9 0.4h1.2zm2.6 0h3.8zm5.1 0h2.5zm3.8 0h1.3zm2.5 0h1.3zm2.6 0h1.2zm3.8 0h1.3zm3.8 0h2.6zm3.8 0h1.2zm-27.9 0.4h1.3zm2.5 0h1.3zm2.5 0h1.3zm2.5 0h2.6zm3.8 0h1.3zm2.5 0h1.3zm2.5 0h1.3zm2.5 0h2.6zm3.8 0h1.2zm2.6 0h1.3zm2.5 0h1.3zm-28 0.5h1.3zm2.5 0h1.3zm2.5 0h1.3zm2.5 0h2.6zm3.8 0h1.3zm2.5 0h1.3zm2.5 0h1.3zm2.5 0h2.6zm3.8 0h1.3zm2.5 0h1.3zm2.5 0h1.3zm-28 0.4h1.3zm2.5 0h1.3zm2.6 0h1.2zm2.6 0h2.5zm3.8 0h1.3zm2.5 0h1.3zm2.5 0h1.3zm2.6 0h2.5zm3.8 0h1.3zm2.5 0h1.3zm2.5 0h1.3zm-27.9 0.4h1.2zm2.6 0h1.2zm2.6 0h1.2zm2.6 0h2.5zm3.8 0h1.3zm2.6 0h1.2zm2.6 0h2.5zm3.8 0h1.3zm2.5 0h1.3zm2.5 0h1.3zm2.6 0h1.2zm-27.9 0.4h1.2zm2.6 0h1.3zm2.5 0h1.3zm2.5 0h2.5zm3.9 0h1.2zm2.6 0h1.2zm2.6 0h2.5zm3.8 0h1.3zm2.6 0h1.2zm2.6 0h1.2zm2.6 0h1.2zm-27.9 0.5h1.3zm2.5 0h1.3zm2.5 0h1.3zm2.5 0h2.6zm3.8 0h1.3zm2.5 0h1.3zm2.5 0h2.5zm3.9 0h1.2zm2.6 0h1.2zm2.6 0h1.3zm2.5 0h1.3zm-26.7 0.4h1.3zm2.5 0h1.3zm2.5 0h2.5zm6.4 0h1.3zm2.5 0h1.3zm3.8 0h2.5zm3.9 0h1.2zm2.6 0h1.2zm2.6 0h1.2zm-26.6 0.4h1.2zm2.6 0h1.2zm2.6 0h2.5zm6.4 0h1.3zm2.5 0h1.3zm3.8 0h2.5zm3.8 0h1.3zm2.5 0h1.3zm2.6 0h1.2zm-26.7 0.5h1.3zm2.6 0h1.2zm2.6 0h2.5zm6.4 0h1.2zm2.6 0h1.2zm3.9 0h2.5zm3.8 0h1.3zm2.5 0h1.3zm2.5 0h1.3zm-25.4 0.4h1.3zm2.5 0h1.3zm3.8 0h3.8zm7.6 0h2.6zm5 0h1.3zm5.1 0h1.3zm-24.2 0.4h1.3zm2.5 0h1.3zm3.8 0h3.8zm7.7 0h2.5zm5.1 0h1.3zm5 0h1.3zm-24.1 0.4h1.2zm2.6 0h1.2zm3.9 0h3.8zm7.6 0h2.5zm5.1 0h1.3zm5.1 0h1.2zm-25.4 3h3.8zm7.7 0h3.8zm6.3 0h1.3zm2.5 0h2.6zm6.3 0h3.9zm-22.9 0.5h3.8zm7.6 0h3.8zm6.4 0h1.3zm2.5 0h2.5zm6.4 0h3.8zm-22.9 0.4h3.8zm7.7 0h3.8zm6.3 0h1.3zm2.6 0h2.5zm6.3 0h3.9zm-24.2 0.4h1.3zm5.1 0h1.2zm2.6 0h1.3zm5 0h2.6zm3.8 0h1.3zm3.8 0h1.2zm2.6 0h1.3zm5 0h1.3zm-27.9 0.4h1.2zm5.1 0h1.3zm2.5 0h1.3zm5.1 0h2.5zm3.8 0h1.3zm3.8 0h1.3zm2.5 0h1.3zm5.1 0h1.2zm-27.9 0.5h1.3zm5 0h1.3zm2.6 0h1.2zm5.1 0h2.5zm3.9 0h1.2zm3.8 0h1.3zm2.6 0h1.2zm5.1 0h1.3zm-29.2 0.4h1.2zm2.6 0h3.8zm7.6 0h3.8zm5.1 0h1.3zm3.8 0h2.5zm3.8 0h1.3zm2.5 0h3.9zm5 0h1.3zm-30.5 0.4h1.3zm2.5 0h3.8zm7.7 0h3.8zm5.1 0h1.2zm3.8 0h2.6zm3.8 0h1.3zm2.5 0h3.8zm5.1 0h1.3zm-30.5 0.4h1.3zm2.5 0h3.8zm7.6 0h3.8zm5.1 0h1.3zm3.8 0h2.6zm3.8 0h1.2zm2.6 0h3.8zm5.1 0h1.2zm-30.5 0.5h1.3zm2.6 0h1.2zm3.8 0h1.3zm2.6 0h1.2zm6.4 0h1.3zm2.5 0h1.3zm3.8 0h2.5zm8.9 0h1.3zm-30.5 0.4h1.3zm2.5 0h1.3zm3.8 0h1.3zm2.5 0h1.3zm6.3 0h1.3zm2.5 0h1.3zm3.8 0h2.6zm8.9 0h1.2zm-30.5 0.4h1.3zm2.5 0h1.3zm3.8 0h1.3zm2.5 0h1.3zm6.4 0h1.2zm2.6 0h1.2zm3.9 0h2.5zm8.9 0h1.3zm-30.5 0.5h1.2zm2.6 0h3.8zm5.1 0h1.2zm2.6 0h3.8zm5.1 0h1.3zm2.5 0h1.3zm5 0h1.3zm2.6 0h5zm-25.4 0.4h1.3zm2.5 0h3.9zm5 0h1.3zm2.5 0h3.9zm5 0h1.3zm2.6 0h1.2zm5.1 0h1.3zm2.5 0h5.1zm-25.4 0.4h1.3zm2.5 0h3.8zm5.1 0h1.3zm2.5 0h3.8zm5.1 0h1.3zm2.5 0h1.3zm5.1 0h1.2zm2.6 0h5.1zm-24.2 0.4h1.3zm5.1 0h1.3zm2.5 0h1.3zm6.3 0h1.3zm2.5 0h1.3zm6.4 0h1.2zm5.1 0h1.3zm-28 0.5h1.3zm5.1 0h1.2zm2.6 0h1.3zm6.3 0h1.3zm2.5 0h1.3zm6.3 0h1.3zm5.1 0h1.3zm-28 0.4h1.3zm5.1 0h1.2zm2.6 0h1.3zm6.3 0h1.3zm2.5 0h1.3zm6.3 0h1.3zm5.1 0h1.3zm-26.7 0.4h3.8zm7.6 0h5.1zm6.4 0h1.2zm8.9 0h3.8zm-22.8 0.4h3.8zm7.6 0h5.1zm6.3 0h1.3zm8.9 0h3.8zm-22.9 0.5h3.9zm7.6 0h5.1zm6.3 0h1.3zm8.9 0h3.8z"/>
			<path id="Layer" fill-rule="evenodd" class="s11" d="m442.4 12.3v1.2h-1.2v-1.2zm-1.3 10.2h-1.3v-9h1.3zm1.3 0v1.3h-1.3v-1.3zm0-5.1v-3.8h1.3v1.2h2.5v1.3h1.3v1.3h1.2v-1.3h1.3v-1.3h3.8v1.3h2.6v-1.3h1.2v1.3h1.3v-1.3h2.6v1.3h1.2v1.3h1.3v-1.3h1.3v-1.3h2.5v-1.2h1.3v-1.3h1.3v1.3h1.2v-1.3h2.6v1.3h1.2v3.8h1.3v-1.3h1.3v-1.3h3.8v1.3h1.3v1.3h1.2v2.6h-1.2v2.5h-1.3v1.3h-3.8v-1.3h-2.6v1.3h-3.8v-1.3h-1.2v2.6h1.2v1.3h2.6v1.3h1.2v1.3h1.3v5.1h-1.3v1.3h-1.2v-1.3h-1.3v-3.9h-1.3v3.9h-1.2v1.3h-1.3v-1.3h-2.6v1.3h-2.5v-1.3h-1.3v-1.3h-1.2v1.3h-1.3v1.3h-3.8v-1.3h-2.6v1.3h-1.2v-1.3h-1.3v1.3h-1.3v-1.3h-1.3v-1.3h-1.2v-5.1h1.2v-1.3h1.3v1.3h1.3v1.3h1.3v-1.3h1.2v-1.3h1.3v1.3h1.3v-2.6h1.2v-1.3h-1.2v-1.3h-1.3v1.3h-5.1v-1.3h-2.5v1.3h-1.3v-1.3h-1.3v-3.8h-1.2v-1.3zm1.2 1.3v3.8h-1.2v-3.8zm2.5 3.8h1.3v-5.1h-1.3zm0-6.4h-2.5v1.3h2.5zm3.8 1.3h-1.3v1.2h1.3v1.3h-1.3v1.3h1.3v1.3h5.1v-5.1h-1.3v-1.3h-3.8zm0 2.5h3.8v1.3h-3.8zm3.8-2.5v1.2h-3.8v-1.2zm5.1 0h-1.3v-1.3h-1.2v6.4h1.2v1.3h1.3v1.3h-1.3v1.2h1.3v1.3h-2.5v1.3h1.2v3.9h-1.2v1.2h3.8v-1.2h1.2v-3.9h1.3v3.9h1.3v1.2h2.5v-1.2h1.3v-1.3h-1.3v-1.3h1.3v-5.1h1.3v8.9h1.2v-3.8h1.3v-1.3h2.6v5.1h1.2v-5.1h-1.2v-1.3h-2.6v1.3h-1.3v-3.8h-1.2v-1.3h-3.8v-1.3h5v-9h-1.2v3.9h-1.3v-1.3h-2.5v1.3h-1.3v3.8h1.3v1.3h-2.6v-5.1h-1.3v-1.3h-2.5zm1.3 5.1v-3.8h-1.3v3.8h-1.3v-3.8h1.3v-1.3h2.5v5.1zm2.6 0v1.3h1.3v1.3h1.2v2.5h1.3v1.3h-1.3v2.6h1.3v1.3h-2.5v-3.9h1.2v-1.3h-1.2v-2.5h-1.3v2.5h-1.3v1.3h-1.3v3.9h-1.2v-5.2h2.5v-2.5h1.3v-1.3h-1.3v-1.3zm6.4-3.8v2.5h-3.8v-3.8h2.5v1.3zm-1.3 0h-1.2v1.2h1.2zm-8.9 6.5h1.3v1.2h-1.3zm12.7-11.5v1.3h1.3v6.4h-1.3v1.3h3.9v-1.3h-1.3v-7.7zm6.3 3.8h-1.2v3.9h1.2v1.3h3.8v-1.3h-3.8v-1.3h5.1v-2.6h-1.3v-1.2h-3.8zm3.8 0v1.2h-3.8v-1.2zm-27.9 15.4h1.3v-5.2h-1.3zm-1.3 0v1.3h1.3v-1.3zm0 0v-2.5h-1.3v2.5zm-2.5-5.1h-1.3v5.1h1.3zm0 5.2v1.2h1.2v-1.2zm2.6 5.1v1.3h-3.8v-1.3zm-3.8 2.6h-1.3v-1.3h1.3zm-1.3 3.8h-1.3v-3.8h1.3zm1.3 0v-3.9h3.8v1.3h-2.6v1.3h2.6v1.3zm0 1.3h-1.3v-1.3h1.3zm3.8 0v1.3h-3.8v-1.3zm1.2-1.3v1.3h-1.2v-1.3zm0 0v-1.3h1.2v1.3zm2.6 0v1.3h-1.3v-1.3zm5.1 1.3v1.3h-5.1v-1.3zm-1.3-5.2v-1.2h2.6v6.4h-1.3v-5.2zm3.8 5.2v1.3h-1.2v-1.3zm1.2-3.9v3.9h-1.2v-3.9zm0-1.3h2.5v1.3h-2.5zm5 0v-1.3h1.3v-1.2h3.8v1.2h1.3v1.3h1.3v2.6h-1.3v2.6h-1.3v1.2h-3.8v-1.2h-1.3v-1.3h-1.2v-1.3h-1.3v-1.3h1.3v-1.3zm1.2 0h-1.2v3.9h1.2v1.3h3.8v-1.3h-3.8v-1.3h5.1v-2.6h-1.3v-1.3h-3.8zm3.8 0v1.3h-3.8v-1.3zm-7.6 0v-1.2h-2.5v1.2h-1.3v-1.2h-1.3v-1.3h1.3v1.3h1.3v-1.3h2.5v1.3h1.3v1.2zm-11.5-1.2v-1.3h3.9v1.3zm0 1.2h3.8v1.3h-3.8v1.3h3.8v1.3h-3.8v-1.3h-1.3v-1.3h1.3v-1.3h-1.3v-1.2h1.3zm-2.6 2.5h-1.3v-1.3h1.3zm-1.3-3.8h1.3v1.3h-1.3z"/>
			<path id="Layer" fill-rule="evenodd" class="s0" d="m441.2 13.8h1.2zm28 0h1.3zm2.5 0h2.6zm-30.5 0.4h1.2zm28 0h1.3zm2.5 0h2.5zm-30.5 0.4h1.3zm28 0h1.2zm2.6 0h2.5zm-30.5 0.4h1.3zm27.9 0h1.3zm3.8 0h1.3zm-31.8 0.5h1.3zm28 0h1.2zm3.8 0h1.3zm-31.8 0.4h1.3zm28 0h1.2zm3.9 0h1.2zm-31.7 0.4h1.2zm2.6 0h2.5zm6.4 0h3.8zm6.3 0h1.3zm2.5 0h2.6zm6.3 0h2.6zm3.8 0h1.3zm3.8 0h1.2zm5.1 0h3.8zm-36.8 0.4h1.3zm2.5 0h2.5zm6.4 0h3.8zm6.4 0h1.2zm2.6 0h2.5zm6.4 0h2.5zm3.8 0h1.3zm3.8 0h1.3zm5.1 0h3.8zm-36.9 0.5h1.3zm2.5 0h2.6zm6.3 0h3.8zm6.4 0h1.3zm2.5 0h2.6zm6.3 0h2.5zm3.9 0h1.2zm3.8 0h1.3zm5.1 0h3.8zm-36.8 0.4h2.5zm5.1 0h1.3zm7.6 0h1.2zm2.6 0h2.5zm5.1 0h1.3zm2.5 0h1.3zm3.8 0h2.6zm5 0h1.3zm3.8 0h1.3zm5.1 0h1.2zm-40.6 0.4h2.5zm5.1 0h1.3zm7.6 0h1.3zm2.5 0h2.6zm5 0h1.3zm2.5 0h1.3zm3.8 0h2.6zm5.1 0h1.2zm3.8 0h1.3zm5.1 0h1.3zm-40.7 0.5h2.5zm5.1 0h1.3zm7.6 0h1.3zm2.5 0h2.6zm5.1 0h1.2zm2.6 0h1.2zm3.9 0h2.5zm5.1 0h1.3zm3.8 0h1.2zm5.1 0h1.3zm-40.7 0.4h1.3zm5.1 0h1.2zm3.9 0h5zm6.4 0h1.3zm5 0h1.3zm2.6 0h1.2zm5.1 0h1.3zm3.8 0h1.3zm3.8 0h6.3zm-35.5 0.4h1.2zm5.1 0h1.3zm3.8 0h5.1zm6.3 0h1.3zm5.1 0h1.3zm2.5 0h1.3zm5.1 0h1.2zm3.8 0h1.3zm3.8 0h6.4zm-35.6 0.4h1.3zm5 0h1.3zm3.8 0h5.1zm6.4 0h1.2zm5.1 0h1.3zm2.5 0h1.3zm5.1 0h1.3zm3.8 0h1.2zm3.9 0h6.3zm-35.6 0.5h1.3zm5.1 0h1.2zm2.6 0h1.3zm5 0h1.3zm2.6 0h1.2zm5.1 0h1.3zm2.5 0h1.3zm5.1 0h1.2zm3.9 0h1.2zm3.8 0h1.3zm-35.6 0.4h1.3zm5.1 0h1.3zm2.5 0h1.3zm5.1 0h1.2zm2.6 0h1.2zm5.1 0h1.3zm2.5 0h1.3zm5.1 0h1.3zm3.8 0h1.2zm3.9 0h1.2zm-35.6 0.4h1.3zm5.1 0h1.3zm2.5 0h1.3zm5.1 0h1.2zm2.6 0h1.2zm5.1 0h1.3zm2.5 0h1.3zm5.1 0h1.3zm3.8 0h1.3zm3.8 0h1.2zm-35.5 0.5h1.2zm5.1 0h1.3zm3.8 0h5.1zm6.3 0h1.3zm5.1 0h1.3zm3.8 0h5zm6.4 0h3.8zm6.4 0h3.8zm-36.9 0.4h1.3zm5.1 0h1.3zm3.8 0h5zm6.4 0h1.3zm5.1 0h1.2zm3.8 0h5.1zm6.4 0h3.8zm6.3 0h3.9zm-36.9 0.4h1.3zm5.1 0h1.2zm3.8 0h5.1zm6.4 0h1.2zm5.1 0h1.3zm3.8 0h5.1zm6.4 0h3.8zm6.3 0h3.8zm-20.3 3h1.3zm5.1 0h1.2zm6.4 0h1.2zm-11.4 0.4h1.3zm5.1 0h1.2zm6.4 0h1.3zm-11.5 0.5h1.3zm5.1 0h1.2zm6.4 0h1.3zm-6.4 0.4h1.3zm6.3 0h1.3zm-6.3 0.4h1.2zm6.4 0h1.3zm-6.4 0.4h1.3zm6.3 0h1.3zm-20.3 0.5h1.2zm5.1 0h1.3zm2.5 0h2.6zm5.1 0h3.8zm7.6 0h1.3zm2.5 0h2.6zm-22.9 0.4h1.2zm5.1 0h1.3zm2.5 0h2.6zm5.1 0h3.8zm7.6 0h1.3zm2.5 0h2.6zm-22.9 0.4h1.3zm5 0h1.3zm2.6 0h2.5zm5.1 0h3.8zm7.6 0h1.3zm2.5 0h2.6zm-22.9 0.4h1.3zm5.1 0h1.2zm3.8 0h1.3zm5.1 0h1.3zm6.3 0h2.6zm5 0h1.3zm-25.4 0.5h1.3zm5 0h1.3zm3.8 0h1.3zm5.1 0h1.3zm6.3 0h2.6zm5 0h1.3zm-25.4 0.4h1.3zm5 0h1.3zm3.8 0h1.3zm5.1 0h1.3zm6.3 0h2.5zm5.1 0h1.3zm-25.4 0.4h1.3zm2.5 0h1.3zm2.5 0h1.3zm3.8 0h1.3zm5 0h1.3zm6.4 0h1.2zm5.1 0h1.3zm-25.4 0.5h1.3zm2.5 0h1.3zm2.5 0h1.3zm3.8 0h1.3zm5 0h1.3zm6.4 0h1.2zm5.1 0h1.3zm-25.4 0.4h1.2zm2.6 0h1.3zm2.5 0h1.3zm3.8 0h1.3zm5 0h1.3zm6.4 0h1.2zm5.1 0h1.3zm-25.4 0.4h1.2zm2.6 0h1.3zm2.5 0h1.3zm3.8 0h1.2zm5.1 0h1.3zm3.8 0h1.3zm2.5 0h1.3zm5.1 0h1.3zm-25.5 0.4h1.3zm2.5 0h1.3zm2.6 0h1.2zm3.8 0h1.3zm5.1 0h1.3zm3.8 0h1.3zm2.5 0h1.3zm5 0h1.3zm-25.4 0.5h1.3zm2.5 0h1.3zm2.5 0h1.3zm3.8 0h1.3zm5.1 0h1.2zm3.8 0h1.3zm2.6 0h1.2zm5.1 0h1.3zm-24.2 0.4h1.3zm2.5 0h1.3zm3.8 0h3.8zm7.7 0h2.5zm5.1 0h1.3zm5 0h1.3zm-24.1 0.4h1.2zm2.6 0h1.3zm3.8 0h3.8zm7.6 0h2.5zm5.1 0h1.3zm5.1 0h1.3zm-24.2 0.5h1.3zm2.5 0h1.3zm3.8 0h3.8zm7.6 0h2.6zm5.1 0h1.2zm5.1 0h1.3zm-25.4 5.5h3.8zm7.6 0h3.8zm6.4 0h1.3zm2.5 0h2.5zm6.4 0h3.8zm-22.9 0.4h3.8zm7.7 0h3.8zm6.3 0h1.3zm2.5 0h2.6zm6.3 0h3.8zm-22.8 0.5h3.8zm7.6 0h3.8zm6.4 0h1.2zm2.6 0h2.5zm6.4 0h3.8zm-24.2 0.4h1.3zm12.7 0h1.3zm2.5 0h2.6zm5.1 0h1.2zm2.6 0h1.3zm5 0h1.3zm-28 0.4h1.3zm12.7 0h1.3zm2.5 0h2.6zm5.1 0h1.2zm2.6 0h1.2zm5.1 0h1.3zm-28 0.4h1.3zm12.7 0h1.3zm2.5 0h2.6zm5.1 0h1.2zm2.6 0h1.2zm5.1 0h1.3zm-28 0.5h1.3zm8.9 0h5.1zm6.3 0h1.3zm7.6 0h6.4zm-22.9 0.4h1.3zm8.9 0h5.1zm6.3 0h1.3zm7.6 0h6.4zm-22.9 0.4h1.3zm8.9 0h5zm6.4 0h1.3zm7.6 0h6.4zm-22.9 0.5h1.2zm5.1 0h1.3zm2.5 0h1.3zm5.1 0h1.3zm2.5 0h1.3zm7.6 0h1.3zm-22.9 0.4h1.3zm5.1 0h1.2zm2.6 0h1.2zm5.1 0h1.3zm2.5 0h1.3zm7.6 0h1.3zm-22.9 0.4h1.3zm5.1 0h1.3zm2.5 0h1.3zm5.1 0h1.2zm2.6 0h1.2zm7.7 0h1.2zm-21.6 0.4h3.8zm7.7 0h5zm6.4 0h1.3zm8.9 0h3.8zm-22.9 0.5h3.8zm7.6 0h5.1zm6.4 0h1.2zm8.9 0h3.9zm-22.9 0.4h3.8zm7.6 0h5.1zm6.4 0h1.2zm8.9 0h3.8z"/>
			<path id="Layer" fill-rule="evenodd" class="s12" d="m442.4 13.5v3.9h1.3v1.3h-1.3v3.8h-1.2v-9zm3.8 3.9h-2.6v-1.3h2.6zm1.3 0v5.1h-1.3v-5.1zm22.9-3.8v8.9h-5.1v-1.2h3.8v-2.6h-1.3v-1.3h1.3v-3.8zm-5.1 7.7h-1.3v-3.9h1.3zm0-5.1h2.5v1.3h-2.5zm8.9-2.6v7.7h1.3v1.3h-3.8v-1.3h1.2v-6.4h-1.2v-1.3zm-20.4 2.6v1.2h-3.8v-1.2zm-3.8 5.1h3.8v-1.3h-3.8v-1.3h3.8v-1.3h1.3v5.2h-5.1zm-1.3 0v-1.3h1.3v1.3zm8.9-5.2v1.3h1.3v1.3h-1.3v3.9h-1.3v-6.5zm3.8 1.3h-2.5v-1.3h2.5zm1.3 0v5.2h-1.3v-5.2zm19.1-1.2v1.2h-3.8v-1.2zm-3.8 5.1h-1.3v-3.9h1.3v1.3h3.8v-1.3h1.3v2.6h-5.1zm3.8 0v1.3h-3.8v-1.3zm-22.9 3.9v1.2h-1.3v-1.2zm5.1 0v2.5h1.3v1.3h-1.3v3.9h-1.3v-3.9h-1.2v-1.3h1.2v-2.5zm2.6 7.7v1.2h-2.6v-1.2zm0-1.3h1.3v1.3h-1.3zm3.8-6.5v3.9h1.3v1.3h-1.3v3.8h-1.2v-9zm3.8 3.9h-2.6v-1.3h2.6zm1.3 0v5.1h-1.3v-5.1zm-25.4-1.3v5.2h-1.3v-5.2zm1.3 5.2v1.2h-1.3v-1.2zm1.3 0h-1.3v-2.6h1.3zm1.2 0v1.3h-1.2v-1.3zm0-5.1h1.2v5.1h-1.2zm5.1 0v5.1h1.2v1.3h-3.8v-1.3h1.3v-3.8h-1.3v-1.3zm-6.3 11.5v1.3h-3.9v-1.3zm-3.8 5.2h-1.2v-3.9h1.2zm3.8 0v1.3h-3.8v-1.3zm0-1.3h1.3v1.3h-1.3zm7.7-3.8v1.2h-3.9v-1.2zm-3.8 5.1h3.8v-1.3h-3.8v-1.3h3.8v-1.3h1.3v5.2h-5.1zm-1.2 0v-1.3h1.2v1.3zm8.9-5.2v1.3h1.3v1.3h-1.3v3.9h-1.2v-6.5zm3.8 1.3h-2.6v-1.3h2.6zm1.2 0v1.3h-1.2v-1.3zm6.3-1.2v1.2h-3.8v-1.2zm-3.8 5.1h-1.3v-3.9h1.3v1.3h3.8v-1.3h1.3v2.6h-5.1zm3.8 0v1.3h-3.8v-1.3z"/>
		</g>
	</g>
	<g id="Clip-Path" clip-path="url(#cp3)">
		<g id="Layer">
			<path id="Layer" class="s0" d="m127 25.5h4zm0 1h4zm-4 1h8zm0 1h8zm0 1h4zm6 0h10zm-6 1h4zm6 0h10zm-8 1h4zm6 0h2zm4 0h12zm-10 1h4zm6 0h2zm4 0h12zm-12 1h16zm18 0h8zm-18 1h16zm18 0h8zm-18 1h6zm8 0h6zm8 0h2zm4 0h8zm-20 1h6zm8 0h6zm8 0h2zm4 0h8zm-20 1h4zm6 0h2zm4 0h14zm16 0h6zm-26 1h4zm6 0h2zm4 0h14zm16 0h6zm-26 1h22zm24 0h2zm4 0h8zm-28 1h22zm24 0h2zm4 0h8zm-30 1h2zm4 0h2zm4 0h34zm-8 1h2zm4 0h2zm4 0h34zm-10 1h2zm4 0h2zm4 0h2zm4 0h22zm24 0h2zm4 0h4zm-40 1h2zm4 0h2zm4 0h2zm4 0h22zm24 0h2zm4 0h4zm-44 1h4zm6 0h2zm4 0h2zm4 0h2zm4 0h2zm4 0h14zm16 0h2zm4 0h2zm4 0h4zm-46 1h4zm6 0h2zm4 0h2zm4 0h2zm4 0h2zm4 0h14zm16 0h2zm4 0h2zm4 0h4zm-44 1h4zm6 0h2zm4 0h2zm4 0h36zm-14 1h4zm6 0h2zm4 0h2zm4 0h36zm-12 1h12zm18 0h10zm22 0h6zm-40 1h12zm18 0h10zm22 0h6z"/>
			<path id="Layer" fill-rule="evenodd" class="s9" d="m131 25v4h8v2h4v2h2v2h2v2h4v2h4v2h4v4h2v2h2v2h-2v2h-6v-2h-12v2h-10v-2h-6v-2h2v-2h-2v-2h-2v-2h-2v2h-2v-2h-2v-8h2v-2h2v-4h4v-2zm-10 18v2h2v-2h2v2h2v2h-2v2h2v2h-12v-2h-2v-2h-2v-2h4v-2h2v-2h2v2zm0 2h-2v2h2zm-2 0v-2h-2v2zm-2 4h2v-2h-2zm0-4h-2v2h2zm4 4h2v-2h-2zm2-4v2h2v-2zm6-16h-2v2h-2v2h2v-2h2v2h2v-2h-2zm8 4h-2v2h-2v2h2v-2h2v2h2v-2h-2zm-10 2h-2v2h-2v2h2v-2h2v2h2v-2h-2zm18 2h-2v2h-2v2h2v-2h2v2h2v-2h-2zm6 6h-2v2h-2v2h2v-2h2v2h2v-2h2v2h2v-2h-2v-2h-2v2h-2zm-18 2h-2v2h2z"/>
			<path id="Layer" class="s0" d="m127 29.5h2zm0 1h2zm-2 1h2zm4 0h2zm-4 1h2zm4 0h2zm6 1h2zm0 1h2zm-10 1h2zm8 0h2zm4 0h2zm-12 1h2zm8 0h2zm4 0h2zm-14 1h2zm4 0h2zm16 0h2zm-20 1h2zm4 0h2zm16 0h2zm-2 1h2zm4 0h2zm-4 1h2zm4 0h2zm-26 1h2zm4 0h2zm-4 1h2zm4 0h2zm-6 1h2zm4 0h2zm4 0h2zm24 0h2zm4 0h2zm-36 1h2zm4 0h2zm4 0h2zm24 0h2zm4 0h2zm-38 1h2zm4 0h2zm4 0h2zm4 0h2zm4 0h2zm16 0h2zm4 0h2zm4 0h2zm-40 1h2zm4 0h2zm4 0h2zm4 0h2zm4 0h2zm16 0h2zm4 0h2zm4 0h2zm-38 1h2zm4 0h2zm4 0h2zm-8 1h2zm4 0h2zm4 0h2z"/>
			<path id="Layer" fill-rule="evenodd" class="s13" d="m129 29v2h-2v-2zm-2 4h-2v-2h2zm4-2v2h-2v-2zm6 2v2h-2v-2zm-2 4h-2v-2h2zm-8-2v2h-2v-2zm-2 4h-2v-2h2zm14-4v2h-2v-2zm-10 2v2h-2v-2zm16 0v2h-2v-2zm-2 4h-2v-2h2zm4-2v2h-2v-2zm-28 8v-2h2v-2h2v-2h2v2h2v2h2v2h-2v2h-2v-2h-2v2h-2v-2zm0-2h-2v-2h2zm-2 2h-2v-2h2zm2 0v2h-2v-2zm2-6v2h-2v-2zm0 4v2h2v-2zm4 0v2h2v-2zm0 0v-2h-2v2zm26-2v2h-2v-2zm2 2v2h-2v-2zm2 0h-2v-2h2zm2 0v2h-2v-2zm-8 2h-2v-2h2zm-16-2v2h-2v-2z"/>
		</g>
	</g>
	<path id="Layer" fill-rule="evenodd" class="s0" d="m26.4 15.2h15.6zm0 0.4h15.6zm0 0.4h15.5zm0 0.4h15.6zm-3.1 0.3h3.1zm18.6 0h3.1zm-18.6 0.4h3.1zm18.7 0h3.1zm-18.7 0.4h3.1zm18.7 0h3.1zm-18.7 0.4h3.1zm18.7 0h3.1zm-20.2 0.4h1.5zm23.4 0h3.1zm-23.3 0.4h1.5zm23.3 0h3.2zm-23.4 0.4h1.6zm23.3 0h3.1zm-23.3 0.4h1.5zm23.4 0h3.1zm-24.9 0.3h1.6zm28 0h1.5zm-28 0.4h1.6zm28 0h1.5zm-28 0.4h1.6zm28 0h1.5zm-28 0.4h1.6zm28 0h1.5zm-29.5 0.4h1.5zm9.4 0h3.1zm9.3 0h3.1zm12.5 0h3.1zm-31.1 0.4h1.5zm9.4 0h3.1zm9.3 0h3.1zm12.5 0h3.1zm-31.1 0.4h1.5zm9.4 0h3.1zm9.3 0h3.1zm12.5 0h3.1zm-31.1 0.3h1.5zm9.3 0h3.2zm9.3 0h3.1zm12.4 0h3.2zm-32.7 0.4h1.5zm7.8 0h3.1zm15.6 0h4.7zm12.4 0h4.7zm-35.8 0.4h1.5zm7.8 0h3.1zm15.6 0h4.7zm12.4 0h4.7zm-35.8 0.4h1.5zm7.8 0h3.1zm15.6 0h4.7zm12.4 0h4.7zm-35.8 0.4h1.5zm7.8 0h3.1zm15.6 0h4.7zm12.4 0h4.7zm-37.4 0.4h1.6zm6.2 0h3.1zm23.4 0h4.6zm12.5 0h1.5zm-42 0.4h1.6zm6.2 0h3.1zm23.3 0h4.7zm12.5 0h1.5zm-42 0.4h1.6zm6.2 0h3.1zm23.3 0h4.7zm12.4 0h1.6zm-42 0.3h1.6zm6.2 0h3.1zm23.3 0h4.7zm12.4 0h1.6zm-43.6 0.4h1.6zm4.7 0h3.1zm31.1 0h4.6zm9.4 0h1.5zm-45.1 0.4h1.6zm4.6 0h3.2zm31.1 0h4.6zm9.4 0h1.5zm-45.1 0.4h1.6zm4.6 0h3.1zm31.2 0h4.6zm9.4 0h1.5zm-45.1 0.4h1.6zm4.6 0h3.1zm31.1 0h4.7zm9.3 0h1.6zm-46.7 0.4h6.3zm42 0h3.1zm6.2 0h1.5zm-48.2 0.4h6.2zm42 0h3.2zm6.2 0h1.5zm-48.2 0.4h6.2zm42 0h3.1zm6.3 0h1.5zm-48.2 0.3h6.2zm42 0h3.1zm6.3 0h1.5zm-49.8 0.4h4.7zm46.7 0h3.1zm4.6 0h1.6zm-51.3 0.4h4.6zm46.7 0h3.1zm4.7 0h1.5zm-51.3 0.4h4.7zm46.6 0h3.1zm4.7 0h1.6zm-51.4 0.4h4.7zm46.7 0h3.1zm4.6 0h1.6zm-52.9 0.4h3.1zm9.4 0h3.1zm42 0h3.1zm-51.4 0.4h3.2zm9.3 0h3.1zm42 0h3.1zm-51.3 0.4h3.1zm9.3 0h3.1zm42 0h3.1zm-51.3 0.3h3.1zm9.4 0h3.1zm42 0h3.1zm-52.9 0.4h3.1zm7.8 0h3.1zm48.2 0h1.6zm-56 0.4h3.1zm7.8 0h3.1zm48.2 0h1.5zm-56 0.4h3.2zm7.7 0h3.1zm48.3 0h1.5zm-56 0.4h3.1zm7.8 0h3.1zm48.2 0h1.6zm-57.6 0.4h1.6zm6.2 0h3.1zm52.9 0h1.6zm-59.1 0.4h1.5zm6.2 0h3.2zm52.8 0h1.6zm-59.1 0.3h1.5zm6.3 0h3.1zm52.9 0h1.5zm-59.1 0.4h1.6zm6.2 0h3.1zm52.9 0h1.5zm-60.6 0.4h1.5zm4.7 0h3.1zm18.7 0h7.8zm38.8 0h1.6zm-62.2 0.4h1.5zm4.7 0h3.1zm18.7 0h7.8zm38.8 0h1.6zm-62.2 0.4h1.5zm4.7 0h3.1zm18.7 0h7.8zm38.8 0h1.6zm-62.2 0.4h1.5zm4.7 0h3.1zm18.7 0h7.8zm38.8 0h1.6zm-63.8 0.4h6.2zm20.3 0h4.6zm12.5 0h23.3zm32.7 0h1.5zm-65.3 0.4h6.2zm20.2 0h4.7zm12.5 0h23.3zm32.7 0h1.5zm-65.3 0.3h6.2zm20.2 0h4.7zm12.4 0h23.4zm32.6 0h1.6zm-65.3 0.4h6.2zm20.2 0h4.7zm12.4 0h23.3zm32.7 0h1.6zm-66.9 0.4h4.6zm57.6 0h3.1zm9.3 0h1.6zm-66.9 0.4h4.7zm57.5 0h3.1zm9.4 0h1.5zm-66.9 0.4h4.7zm57.6 0h3.1zm9.3 0h1.6zm-66.9 0.4h4.6zm57.6 0h3.1zm9.3 0h1.6zm-68.4 0.4h4.6zm62.2 0h4.7zm6.2 0h1.6zm-68.5 0.4h4.7zm62.2 0h4.7zm6.2 0h1.6zm-68.5 0.3h4.7zm62.2 0h4.7zm6.2 0h1.6zm-68.5 0.4h4.7zm62.2 0h4.7zm6.2 0h1.6zm-68.5 0.4h3.1zm66.9 0h3.1zm-66.9 0.4h3.1zm66.9 0h3.1zm-66.8 0.4h3.1zm66.9 0h3.1zm-66.9 0.4h3.1zm66.9 0h3.1zm-66.9 0.4h3.1zm68.5 0h1.5zm-68.4 0.3h3.1zm68.4 0h1.6zm-68.5 0.4h3.1zm68.5 0h1.5zm-68.4 0.4h3.1zm68.5 0h1.5zm-68.4 0.4h3.1zm68.4 0h1.6zm-68.5 0.4h3.1zm68.5 0h1.5zm-68.4 0.4h3.1zm68.5 0h1.5zm-68.4 0.4h3.1zm68.4 0h1.6zm-66.9 0.4h1.5zm65.4 0h1.5zm-65.3 0.3h1.6zm65.3 0h1.5zm-65.3 0.4h1.6zm65.3 0h1.6zm-65.4 0.4h1.6zm65.3 0h1.6zm-63.8 0.4h4.7zm63.7 0h1.6zm-63.8 0.4h4.7zm63.8 0h1.5zm-63.8 0.4h4.7zm63.8 0h1.5zm-63.7 0.4h4.6zm63.8 0h1.6zm-59.2 0.4h4.7zm57.6 0h1.5zm-57.5 0.3h4.6zm57.6 0h1.5zm-57.5 0.4h4.7zm57.5 0h1.6zm-57.6 0.4h4.7zm57.5 0h1.6zm-52.9 0.4h6.2zm49.8 0h3.1zm-49.8 0.4h6.3zm49.7 0h3.1zm-49.7 0.4h6.2zm49.8 0h3.1zm-49.8 0.4h6.2zm49.8 0h3.1zm-43.5 0.4h43.5zm0 0.3h43.6zm0 0.4h43.5zm0 0.4h43.6z"/>
	<path id="Layer" fill-rule="evenodd" class="s14" d="m42 15v1.5h-15.6v-1.5zm-18.6 4.6h-1.6v1.6h-1.5v1.5h-1.6v1.6h-1.5v1.5h-1.6v1.6h3.1v-1.6h3.1v-1.5h3.1v-1.6h3.1v-1.5h3.2v1.5h-3.2v1.6h-3.1v1.5h-3.1v1.6h-3.1v1.5h-3.1v1.6h-3.1v1.5h-1.6v1.6h-3.1v1.5h-1.5v1.6h3.1v-1.6h3.1v-1.5h3.1v-1.6h3.1v-1.5h3.1v1.5h-3.1v1.6h-3.1v1.5h-3.1v1.6h-3.1v1.5h-3.1v1.6h-1.6v1.5h-1.5v6.2h4.6v1.6h4.7v1.5h6.2v1.6h43.6v-1.6h3.1v-1.5h1.5v-3.1h1.6v-3.1h-1.6v-1.6h-4.6v-1.5h-3.1v-1.6h-23.4v-1.5h-7.8v1.5h-4.6v-1.5h4.6v-1.6h7.8v1.6h23.4v1.5h3.1v1.6h4.6v1.5h1.6v-4.6h-1.6v-1.6h-1.5v-1.5h-1.6v-1.6h-3.1v-1.5h-3.1v-1.6h-3.1v-1.5h-4.7v-1.6h-4.6v-1.5h-4.7v-1.6h-3.1v-1.5h3.1v1.5h4.7v1.6h4.6v1.5h4.7v1.6h3.1v1.5h3.1v-1.5h-1.5v-1.6h-1.6v-1.5h-4.7v-1.6h-3.1v-1.5h-1.5v-1.6h-3.1v-1.5h-3.2v-1.6h3.2v1.6h3.1v1.5h1.5v1.6h3.1v1.5h4.7v1.6h1.6v1.5h1.5v1.6h1.6v1.5h1.5v3.1h1.6v1.6h1.5v1.5h1.6v1.6h1.5v9.3h-1.5v3.1h-1.6v1.5h-1.5v1.6h-3.1v1.5h-43.6v-1.5h-6.2v-1.6h-4.7v-1.5h-4.6v-1.6h-1.6v-1.5h-1.6v-6.2h1.6v-1.6h1.6v-1.5h1.5v-1.6h1.6v-1.5h1.5v-1.6h1.6v-1.5h1.5v-1.6h1.6v-1.5h1.5v-1.6h1.6v-1.5h1.6v-1.6h1.5v-1.5h1.6v-1.6h1.5v-1.5h1.6zm0-1.6v-1.5h3.1v1.5zm37.3 12.4h1.6v-1.5h-1.6z"/>
	<path id="Layer" fill-rule="evenodd" class="s0" d="m26.4 16.7h15.6zm0 0.4h15.6zm0 0.4h15.5zm0 0.4h15.6zm-3.1 0.4h21.7zm0 0.4h21.8zm0 0.4h21.8zm0 0.4h21.8zm-1.6 0.3h26.5zm0 0.4h26.4zm0 0.4h26.4zm0 0.4h26.5zm-1.6 0.4h7.8zm10.9 0h6.2zm9.4 0h9.3zm-20.2 0.4h7.7zm10.9 0h6.3zm9.3 0h9.3zm-20.2 0.4h7.8zm10.9 0h6.2zm9.3 0h9.4zm-20.3 0.3h7.8zm10.9 0h6.2zm9.4 0h9.3zm-21.8 0.4h6.2zm9.4 0h12.4zm17.1 0h7.8zm-26.4 0.4h6.2zm9.3 0h12.5zm17.1 0h7.7zm-26.4 0.4h6.2zm9.4 0h12.4zm17.1 0h7.8zm-26.5 0.4h6.3zm9.3 0h12.4zm17.2 0h7.7zm-28 0.4h4.7zm7.8 0h20.2zm24.9 0h7.8zm-32.7 0.4h4.7zm7.7 0h20.3zm24.9 0h7.7zm-32.6 0.4h4.6zm7.8 0h20.2zm24.9 0h7.8zm-32.7 0.3h4.7zm7.8 0h20.2zm24.9 0h7.8zm-34.3 0.4h3.2zm6.2 0h28zm32.6 0h4.7zm-38.9 0.4h3.1zm6.3 0h28zm32.6 0h4.7zm-38.9 0.4h3.1zm6.2 0h28zm32.7 0h4.7zm-38.9 0.4h3.1zm6.2 0h28zm32.7 0h4.6zm-35.7 0.4h35.7zm38.9 0h3.1zm-38.8 0.4h35.7zm38.9 0h3.1zm-38.9 0.4h35.8zm38.9 0h3.1zm-38.9 0.3h35.8zm38.9 0h3.1zm-42 0.4h42zm0 0.4h42zm0 0.4h42zm0 0.4h42zm-3.1 0.4h6.2zm9.4 0h38.8zm-9.3 0.4h6.2zm9.4 0h38.9zm-9.4 0.4h6.2zm9.4 0h38.9zm-9.4 0.3h6.3zm9.3 0h38.9zm-10.9 0.4h4.7zm7.7 0h45.1zm-7.7 0.4h4.6zm7.8 0h45.1zm-7.8 0.4h4.7zm7.8 0h45.1zm-7.8 0.4h4.7zm7.8 0h45.1zm-10.9 0.4h4.7zm7.7 0h49.8zm-7.8 0.4h4.7zm7.8 0h49.8zm-7.8 0.3h4.6zm7.8 0h49.8zm-7.8 0.4h4.7zm7.8 0h49.7zm-9.3 0.4h3.1zm6.2 0h15.6zm23.3 0h31.1zm-29.5 0.4h3.1zm6.2 0h15.6zm23.3 0h31.1zm-29.5 0.4h3.1zm6.2 0h15.6zm23.3 0h31.1zm-29.6 0.4h3.2zm6.2 0h15.5zm23.4 0h31.1zm-26.5 0.4h14zm18.7 0h7.8zm31.1 0h9.3zm-49.8 0.4h14zm18.7 0h7.8zm31.1 0h9.3zm-49.7 0.3h14zm18.6 0h7.8zm31.1 0h9.3zm-49.7 0.4h14zm18.6 0h7.8zm31.1 0h9.4zm-52.9 0.4h52.9zm56 0h6.2zm-56 0.4h52.9zm56 0h6.2zm-56 0.4h52.9zm56 0h6.2zm-56 0.4h52.9zm56 0h6.2zm-57.5 0.4h57.5zm62.2 0h1.6zm-62.2 0.4h57.5zm62.2 0h1.6zm-62.2 0.3h57.5zm62.3 0h1.5zm-62.2 0.4h57.5zm62.3 0h1.5zm-63.8 0.4h63.8zm0 0.4h63.8zm0 0.4h63.8zm0 0.4h63.8zm0 0.4h65.3zm0 0.3h65.3zm0 0.4h65.4zm0 0.4h65.3zm0 0.4h65.3zm0 0.4h65.4zm0 0.4h65.3zm0 0.4h65.3zm0 0.4h63.8zm0 0.3h63.8zm0 0.4h63.8zm0 0.4h63.7zm4.7 0.4h59.1zm0 0.4h59.1zm0 0.4h59.1zm0 0.4h59.1zm4.7 0.4h52.9zm0 0.3h52.9zm0 0.4h52.9zm0 0.4h52.9zm6.2 0.4h43.5zm0 0.4h43.6zm0 0.4h43.6zm0 0.4h43.5z"/>
	<path id="Layer" fill-rule="evenodd" class="s15" d="m42 16.5v1.6h3.1v1.5h3.1v1.6h1.6v1.5h3.1v1.6h4.7v1.5h1.5v1.6h1.6v1.5h-3.1v-1.5h-3.2v-1.6h-4.6v-1.5h-4.7v-1.6h-4.7v-1.5h-3.1v1.5h3.1v1.6h4.7v1.5h4.7v1.6h4.6v1.5h3.2v1.6h3.1v1.5h3.1v1.6h1.5v1.5h1.6v1.6h1.5v4.6h-1.5v-1.5h-4.7v-1.6h-3.1v-1.5h-23.3v-1.6h-7.8v1.6h-4.7v1.5h4.7v-1.5h7.8v1.5h23.3v1.6h3.1v1.5h4.7v1.6h1.5v3.1h-1.5v3.1h-1.6v1.5h-3.1v1.6h-43.5v-1.6h-6.3v-1.5h-4.6v-1.6h-4.7v-6.2h1.6v-1.5h1.5v-1.6h3.1v-1.5h3.1v-1.6h3.2v-1.5h3.1v-1.6h3.1v-1.5h-3.1v1.5h-3.1v1.6h-3.2v1.5h-3.1v1.6h-3.1v-1.6h1.6v-1.5h3.1v-1.6h1.5v-1.5h3.2v-1.6h3.1v-1.5h3.1v-1.6h3.1v-1.5h3.1v-1.6h3.1v-1.5h-3.1v1.5h-3.1v1.6h-3.1v1.5h-3.1v1.6h-3.1v-1.6h1.5v-1.5h1.6v-1.6h1.5v-1.5h1.6v-1.6h1.5v-1.5h3.1v-1.6z"/>
	<path id="Layer" class="s0" d="m60.7 29.1h1.5zm0 0.4h1.6zm0 0.4h1.5zm0 0.4h1.6z"/>
	<path id="Layer" fill-rule="evenodd" class="s16" d="m62.2 28.9v1.6h-1.5v-1.6z"/>
</svg>