<svg width="658" height="124" viewBox="0 0 658 124" fill="none" xmlns="http://www.w3.org/2000/svg">
<g filter="url(#filter0_d_1_536)">
<path fill-rule="evenodd" clip-rule="evenodd" d="M60.7777 12V43.3333H103V53.7778H92.4445V64.2222H81.8891V74.6667H71.3332V85.1111H81.8891V106H71.3332V95.5556H60.7777V85.1111H39.6668V95.5556H18.5555V74.6667H29.1109V64.2222H18.5555V53.7778H8V43.3333H39.6668V22.4444H50.2223V12H60.7777Z" fill="#FFD500"/>
<path fill-rule="evenodd" clip-rule="evenodd" d="M60.7777 12V43.3333H103V53.7778H92.4445V64.2222H81.8891V74.6667H71.3332V85.1111H81.8891V106H71.3332V95.5556H60.7777V85.1111H39.6668V95.5556H18.5555V74.6667H29.1109V64.2222H18.5555V53.7778H8V43.3333H39.6668V22.4444H50.2223V12H60.7777Z" stroke="black" stroke-width="2"/>
</g>
<g filter="url(#filter1_d_1_536)">
<mask id="path-2-outside-1_1_536" maskUnits="userSpaceOnUse" x="138" y="13" width="380" height="109" fill="black">
<rect fill="white" x="138" y="13" width="380" height="109"/>
<path d="M185.5 60V30H170.5V60H185.5ZM140.5 120V30H155.5V15H200.5V30H215.5V120H185.5V75H170.5V120H140.5ZM245.5 120V105H230.5V30H245.5V15H290.5V30H305.5V45H275.5V30H260.5V105H275.5V90H305.5V105H290.5V120H245.5ZM365.5 75V45H380.5V75H365.5ZM320.5 120V15H350.5V30H365.5V45H350.5V120H320.5ZM395.5 120V45H380.5V30H395.5V15H425.5V120H395.5ZM440.5 120V15H515.5V30H470.5V60H500.5V75H470.5V105H515.5V120H440.5Z"/>
</mask>
<path d="M185.5 60V30H170.5V60H185.5ZM140.5 120V30H155.5V15H200.5V30H215.5V120H185.5V75H170.5V120H140.5ZM245.5 120V105H230.5V30H245.5V15H290.5V30H305.5V45H275.5V30H260.5V105H275.5V90H305.5V105H290.5V120H245.5ZM365.5 75V45H380.5V75H365.5ZM320.5 120V15H350.5V30H365.5V45H350.5V120H320.5ZM395.5 120V45H380.5V30H395.5V15H425.5V120H395.5ZM440.5 120V15H515.5V30H470.5V60H500.5V75H470.5V105H515.5V120H440.5Z" fill="white"/>
<path d="M185.5 60V62H187.5V60H185.5ZM185.5 30H187.5V28H185.5V30ZM170.5 30V28H168.5V30H170.5ZM170.5 60H168.5V62H170.5V60ZM140.5 120H138.5V122H140.5V120ZM140.5 30V28H138.5V30H140.5ZM155.5 30V32H157.5V30H155.5ZM155.5 15V13H153.5V15H155.5ZM200.5 15H202.5V13H200.5V15ZM200.5 30H198.5V32H200.5V30ZM215.5 30H217.5V28H215.5V30ZM215.5 120V122H217.5V120H215.5ZM185.5 120H183.5V122H185.5V120ZM185.5 75H187.5V73H185.5V75ZM170.5 75V73H168.5V75H170.5ZM170.5 120V122H172.5V120H170.5ZM187.5 60V30H183.5V60H187.5ZM185.5 28H170.5V32H185.5V28ZM168.5 30V60H172.5V30H168.5ZM170.5 62H185.5V58H170.5V62ZM142.5 120V30H138.5V120H142.5ZM140.5 32H155.5V28H140.5V32ZM157.5 30V15H153.5V30H157.5ZM155.5 17H200.5V13H155.5V17ZM198.5 15V30H202.5V15H198.5ZM200.5 32H215.5V28H200.5V32ZM213.5 30V120H217.5V30H213.5ZM215.5 118H185.5V122H215.5V118ZM187.5 120V75H183.5V120H187.5ZM185.5 73H170.5V77H185.5V73ZM168.5 75V120H172.5V75H168.5ZM170.5 118H140.5V122H170.5V118ZM245.5 120H243.5V122H245.5V120ZM245.5 105H247.5V103H245.5V105ZM230.5 105H228.5V107H230.5V105ZM230.5 30V28H228.5V30H230.5ZM245.5 30V32H247.5V30H245.5ZM245.5 15V13H243.5V15H245.5ZM290.5 15H292.5V13H290.5V15ZM290.5 30H288.5V32H290.5V30ZM305.5 30H307.5V28H305.5V30ZM305.5 45V47H307.5V45H305.5ZM275.5 45H273.5V47H275.5V45ZM275.5 30H277.5V28H275.5V30ZM260.5 30V28H258.5V30H260.5ZM260.5 105H258.5V107H260.5V105ZM275.5 105V107H277.5V105H275.5ZM275.5 90V88H273.5V90H275.5ZM305.5 90H307.5V88H305.5V90ZM305.5 105V107H307.5V105H305.5ZM290.5 105V103H288.5V105H290.5ZM290.5 120V122H292.5V120H290.5ZM247.5 120V105H243.5V120H247.5ZM245.5 103H230.5V107H245.5V103ZM232.5 105V30H228.5V105H232.5ZM230.5 32H245.5V28H230.5V32ZM247.5 30V15H243.5V30H247.5ZM245.5 17H290.5V13H245.5V17ZM288.5 15V30H292.5V15H288.5ZM290.5 32H305.5V28H290.5V32ZM303.5 30V45H307.5V30H303.5ZM305.5 43H275.5V47H305.5V43ZM277.5 45V30H273.5V45H277.5ZM275.5 28H260.5V32H275.5V28ZM258.5 30V105H262.5V30H258.5ZM260.5 107H275.5V103H260.5V107ZM277.5 105V90H273.5V105H277.5ZM275.5 92H305.5V88H275.5V92ZM303.5 90V105H307.5V90H303.5ZM305.5 103H290.5V107H305.5V103ZM288.5 105V120H292.5V105H288.5ZM290.5 118H245.5V122H290.5V118ZM365.5 75H363.5V77H365.5V75ZM365.5 45V43H363.5V45H365.5ZM380.5 45H382.5V43H380.5V45ZM380.5 75V77H382.5V75H380.5ZM320.5 120H318.5V122H320.5V120ZM320.5 15V13H318.5V15H320.5ZM350.5 15H352.5V13H350.5V15ZM350.5 30H348.5V32H350.5V30ZM365.5 30H367.5V28H365.5V30ZM365.5 45V47H367.5V45H365.5ZM350.5 45V43H348.5V45H350.5ZM350.5 120V122H352.5V120H350.5ZM395.5 120H393.5V122H395.5V120ZM395.5 45H397.5V43H395.5V45ZM380.5 45H378.5V47H380.5V45ZM380.5 30V28H378.5V30H380.5ZM395.5 30V32H397.5V30H395.5ZM395.5 15V13H393.5V15H395.5ZM425.5 15H427.5V13H425.5V15ZM425.5 120V122H427.5V120H425.5ZM367.5 75V45H363.5V75H367.5ZM365.5 47H380.5V43H365.5V47ZM378.5 45V75H382.5V45H378.5ZM380.5 73H365.5V77H380.5V73ZM322.5 120V15H318.5V120H322.5ZM320.5 17H350.5V13H320.5V17ZM348.5 15V30H352.5V15H348.5ZM350.5 32H365.5V28H350.5V32ZM363.5 30V45H367.5V30H363.5ZM365.5 43H350.5V47H365.5V43ZM348.5 45V120H352.5V45H348.5ZM350.5 118H320.5V122H350.5V118ZM397.5 120V45H393.5V120H397.5ZM395.5 43H380.5V47H395.5V43ZM382.5 45V30H378.5V45H382.5ZM380.5 32H395.5V28H380.5V32ZM397.5 30V15H393.5V30H397.5ZM395.5 17H425.5V13H395.5V17ZM423.5 15V120H427.5V15H423.5ZM425.5 118H395.5V122H425.5V118ZM440.5 120H438.5V122H440.5V120ZM440.5 15V13H438.5V15H440.5ZM515.5 15H517.5V13H515.5V15ZM515.5 30V32H517.5V30H515.5ZM470.5 30V28H468.5V30H470.5ZM470.5 60H468.5V62H470.5V60ZM500.5 60H502.5V58H500.5V60ZM500.5 75V77H502.5V75H500.5ZM470.5 75V73H468.5V75H470.5ZM470.5 105H468.5V107H470.5V105ZM515.5 105H517.5V103H515.5V105ZM515.5 120V122H517.5V120H515.5ZM442.5 120V15H438.5V120H442.5ZM440.5 17H515.5V13H440.5V17ZM513.5 15V30H517.5V15H513.5ZM515.5 28H470.5V32H515.5V28ZM468.5 30V60H472.5V30H468.5ZM470.5 62H500.5V58H470.5V62ZM498.5 60V75H502.5V60H498.5ZM500.5 73H470.5V77H500.5V73ZM468.5 75V105H472.5V75H468.5ZM470.5 107H515.5V103H470.5V107ZM513.5 105V120H517.5V105H513.5ZM515.5 118H440.5V122H515.5V118Z" fill="black" mask="url(#path-2-outside-1_1_536)"/>
</g>
<g filter="url(#filter2_d_1_536)">
<path fill-rule="evenodd" clip-rule="evenodd" d="M599.222 12V43.3333H641V53.7778H630.556V64.2222H620.111V74.6667H609.667V85.1111H620.111V106H609.667V95.5556H599.222V85.1111H578.333V95.5556H557.444V74.6667H567.889V64.2222H557.444V53.7778H547V43.3333H578.333V22.4444H588.778V12H599.222Z" fill="#FFD500"/>
<path fill-rule="evenodd" clip-rule="evenodd" d="M599.222 12V43.3333H641V53.7778H630.556V64.2222H620.111V74.6667H609.667V85.1111H620.111V106H609.667V95.5556H599.222V85.1111H578.333V95.5556H557.444V74.6667H567.889V64.2222H557.444V53.7778H547V43.3333H578.333V22.4444H588.778V12H599.222Z" stroke="black" stroke-width="2"/>
</g>
<defs>
<filter id="filter0_d_1_536" x="7" y="11" width="101" height="100" filterUnits="userSpaceOnUse" color-interpolation-filters="sRGB">
<feFlood flood-opacity="0" result="BackgroundImageFix"/>
<feColorMatrix in="SourceAlpha" type="matrix" values="0 0 0 0 0 0 0 0 0 0 0 0 0 0 0 0 0 0 127 0" result="hardAlpha"/>
<feOffset dx="4" dy="4"/>
<feComposite in2="hardAlpha" operator="out"/>
<feColorMatrix type="matrix" values="0 0 0 0 0 0 0 0 0 0 0 0 0 0 0 0 0 0 1 0"/>
<feBlend mode="normal" in2="BackgroundImageFix" result="effect1_dropShadow_1_536"/>
<feBlend mode="normal" in="SourceGraphic" in2="effect1_dropShadow_1_536" result="shape"/>
</filter>
<filter id="filter1_d_1_536" x="140.5" y="15" width="379" height="109" filterUnits="userSpaceOnUse" color-interpolation-filters="sRGB">
<feFlood flood-opacity="0" result="BackgroundImageFix"/>
<feColorMatrix in="SourceAlpha" type="matrix" values="0 0 0 0 0 0 0 0 0 0 0 0 0 0 0 0 0 0 127 0" result="hardAlpha"/>
<feOffset dx="4" dy="4"/>
<feComposite in2="hardAlpha" operator="out"/>
<feColorMatrix type="matrix" values="0 0 0 0 0 0 0 0 0 0 0 0 0 0 0 0 0 0 1 0"/>
<feBlend mode="normal" in2="BackgroundImageFix" result="effect1_dropShadow_1_536"/>
<feBlend mode="normal" in="SourceGraphic" in2="effect1_dropShadow_1_536" result="shape"/>
</filter>
<filter id="filter2_d_1_536" x="546" y="11" width="100" height="100" filterUnits="userSpaceOnUse" color-interpolation-filters="sRGB">
<feFlood flood-opacity="0" result="BackgroundImageFix"/>
<feColorMatrix in="SourceAlpha" type="matrix" values="0 0 0 0 0 0 0 0 0 0 0 0 0 0 0 0 0 0 127 0" result="hardAlpha"/>
<feOffset dx="4" dy="4"/>
<feComposite in2="hardAlpha" operator="out"/>
<feColorMatrix type="matrix" values="0 0 0 0 0 0 0 0 0 0 0 0 0 0 0 0 0 0 1 0"/>
<feBlend mode="normal" in2="BackgroundImageFix" result="effect1_dropShadow_1_536"/>
<feBlend mode="normal" in="SourceGraphic" in2="effect1_dropShadow_1_536" result="shape"/>
</filter>
</defs>
</svg>
