<svg width="150" height="160" viewBox="0 0 150 160" fill="none" xmlns="http://www.w3.org/2000/svg">
<g clip-path="url(#clip0_1_292)">
<path d="M48 0.990234H63H48ZM48 1.99023H63H48ZM48 2.99023H63H48ZM42 3.99023H48H42ZM63 3.99023H69H63ZM42 4.99023H48H42ZM63 4.99023H69H63ZM42 5.99023H48H42ZM63 5.99023H69H63ZM39 6.99023H42H39ZM69 6.99023H72H69ZM39 7.99023H42H39ZM69 7.99023H72H69ZM39 8.99023H42H39ZM69 8.99023H72H69ZM36 9.99023H39H36ZM72 9.99023H75H72ZM36 10.9902H39H36ZM72 10.9902H75H72ZM36 11.9902H39H36ZM72 11.9902H75H72ZM36 12.9902H39H36ZM72 12.9902H75H72ZM36 13.9902H39H36ZM72 13.9902H75H72ZM36 14.9902H39H36ZM72 14.9902H75H72ZM48 51.9902H54H48ZM57 51.9902H63H57ZM48 52.9902H54H48ZM57 52.9902H63H57ZM48 53.9902H54H48ZM57 53.9902H63H57Z" fill="black"/>
<path fill-rule="evenodd" clip-rule="evenodd" d="M63 0.490234V3.49023H48V0.490234H63ZM42 6.49023V3.49023H48V6.49023H42ZM42 6.49023H39V9.49023H36V15.4902H39V9.49023H42V6.49023ZM69 6.49023H63V3.49023H69V6.49023ZM72 9.49023H69V6.49023H72V9.49023ZM72 9.49023V15.4902H75V9.49023H72ZM54 51.4902V54.4902H48V51.4902H54ZM63 51.4902V54.4902H57V51.4902H63Z" fill="#253A5E"/>
<path d="M48 3.99023H63H48ZM48 4.99023H63H48ZM48 5.99023H63H48ZM42 6.99023H69H42ZM42 7.99023H69H42ZM42 8.99023H69H42ZM39 9.99023H57H39ZM66 9.99023H72H66ZM39 10.9902H57H39ZM66 10.9902H72H66ZM39 11.9902H57H39ZM66 11.9902H72H66ZM39 12.9902H60H39ZM69 12.9902H72H69ZM39 13.9902H60H39ZM69 13.9902H72H69ZM39 14.9902H60H39ZM69 14.9902H72H69ZM36 15.9902H60H36ZM69 15.9902H75H69ZM36 16.9902H60H36ZM69 16.9902H75H69ZM36 17.9902H60H36ZM69 17.9902H75H69ZM39 18.9902H63H39ZM69 18.9902H72H69ZM39 19.9902H63H39ZM69 19.9902H72H69ZM39 20.9902H63H39ZM69 20.9902H72H69ZM42 21.9902H69H42ZM42 22.9902H69H42ZM42 23.9902H69H42ZM42 24.9902H69H42ZM42 25.9902H69H42ZM42 26.9902H69H42ZM45 27.9902H66H45ZM45 28.9902H66H45ZM45 29.9902H66H45ZM45 30.9902H66H45ZM45 31.9902H66H45ZM45 32.9902H66H45ZM48 33.9902H63H48ZM48 34.9902H63H48ZM48 35.9902H63H48ZM48 36.9902H63H48ZM48 37.9902H63H48ZM48 38.9902H63H48ZM48 39.9902H63H48ZM48 40.9902H63H48ZM48 41.9902H63H48ZM48 42.9902H63H48ZM48 43.9902H63H48ZM48 44.9902H63H48ZM45 45.9902H66H45ZM45 46.9902H66H45ZM45 47.9902H66H45ZM48 48.9902H63H48ZM48 49.9902H63H48ZM48 50.9902H63H48Z" fill="black"/>
<path fill-rule="evenodd" clip-rule="evenodd" d="M63 3.49023V6.49023H69V9.49023H72V15.4902H75V18.4902H72V21.4902H69V12.4902H66V9.49023H57V12.4902H60V18.4902H63V21.4902H69V27.4902H66V33.4902H63V45.4902H66V48.4902H63V51.4902H48V48.4902H45V45.4902H48V33.4902H45V27.4902H42V21.4902H39V18.4902H36V15.4902H39V9.49023H42V6.49023H48V3.49023H63Z" fill="#1E00FF"/>
<path d="M102 3.99023H108H102ZM102 4.99023H108H102ZM102 5.99023H108H102ZM99 6.99023H102H99ZM105 6.99023H108H105ZM99 7.99023H102H99ZM105 7.99023H108H105ZM99 8.99023H102H99ZM105 8.99023H108H105ZM96 9.99023H99H96ZM102 9.99023H108H102ZM135 9.99023H141H135ZM96 10.9902H99H96ZM102 10.9902H108H102ZM135 10.9902H141H135ZM96 11.9902H99H96ZM102 11.9902H108H102ZM135 11.9902H141H135ZM93 12.9902H96H93ZM99 12.9902H102H99ZM105 12.9902H108H105ZM132 12.9902H135H132ZM138 12.9902H141H138ZM93 13.9902H96H93ZM99 13.9902H102H99ZM105 13.9902H108H105ZM132 13.9902H135H132ZM138 13.9902H141H138ZM93 14.9902H96H93ZM99 14.9902H102H99ZM105 14.9902H108H105ZM132 14.9902H135H132ZM138 14.9902H141H138ZM90 15.9902H93H90ZM96 15.9902H99H96ZM105 15.9902H108H105ZM129 15.9902H132H129ZM135 15.9902H141H135ZM90 16.9902H93H90ZM96 16.9902H99H96ZM105 16.9902H108H105ZM129 16.9902H132H129ZM135 16.9902H141H135ZM90 17.9902H93H90ZM96 17.9902H99H96ZM105 17.9902H108H105ZM129 17.9902H132H129ZM135 17.9902H141H135ZM90 18.9902H93H90ZM96 18.9902H99H96ZM102 18.9902H105H102ZM126 18.9902H129H126ZM132 18.9902H135H132ZM138 18.9902H141H138ZM90 19.9902H93H90ZM96 19.9902H99H96ZM102 19.9902H105H102ZM126 19.9902H129H126ZM132 19.9902H135H132ZM138 19.9902H141H138ZM90 20.9902H93H90ZM96 20.9902H99H96ZM102 20.9902H105H102ZM126 20.9902H129H126ZM132 20.9902H135H132ZM138 20.9902H141H138ZM87 21.9902H90H87ZM93 21.9902H96H93ZM102 21.9902H105H102ZM123 21.9902H126H123ZM129 21.9902H132H129ZM138 21.9902H141H138ZM87 22.9902H90H87ZM93 22.9902H96H93ZM102 22.9902H105H102ZM123 22.9902H126H123ZM129 22.9902H132H129ZM138 22.9902H141H138ZM87 23.9902H90H87ZM93 23.9902H96H93ZM102 23.9902H105H102ZM123 23.9902H126H123ZM129 23.9902H132H129ZM138 23.9902H141H138ZM87 24.9902H90H87ZM93 24.9902H96H93ZM102 24.9902H105H102ZM123 24.9902H126H123ZM129 24.9902H132H129ZM135 24.9902H138H135ZM87 25.9902H90H87ZM93 25.9902H96H93ZM102 25.9902H105H102ZM123 25.9902H126H123ZM129 25.9902H132H129ZM135 25.9902H138H135ZM87 26.9902H90H87ZM93 26.9902H96H93ZM102 26.9902H105H102ZM123 26.9902H126H123ZM129 26.9902H132H129ZM135 26.9902H138H135ZM84 27.9902H87H84ZM90 27.9902H93H90ZM99 27.9902H102H99ZM120 27.9902H123H120ZM126 27.9902H129H126ZM135 27.9902H138H135ZM84 28.9902H87H84ZM90 28.9902H93H90ZM99 28.9902H102H99ZM120 28.9902H123H120ZM126 28.9902H129H126ZM135 28.9902H138H135ZM84 29.9902H87H84ZM90 29.9902H93H90ZM99 29.9902H102H99ZM120 29.9902H123H120ZM126 29.9902H129H126ZM135 29.9902H138H135ZM81 30.9902H84H81ZM90 30.9902H93H90ZM99 30.9902H102H99ZM120 30.9902H123H120ZM126 30.9902H129H126ZM135 30.9902H138H135ZM81 31.9902H84H81ZM90 31.9902H93H90ZM99 31.9902H102H99ZM120 31.9902H123H120ZM126 31.9902H129H126ZM135 31.9902H138H135ZM81 32.9902H84H81ZM90 32.9902H93H90ZM99 32.9902H102H99ZM120 32.9902H123H120ZM126 32.9902H129H126ZM135 32.9902H138H135ZM81 33.9902H84H81ZM87 33.9902H90H87ZM102 33.9902H105H102ZM117 33.9902H120H117ZM123 33.9902H126H123ZM132 33.9902H135H132ZM81 34.9902H84H81ZM87 34.9902H90H87ZM102 34.9902H105H102ZM117 34.9902H120H117ZM123 34.9902H126H123ZM132 34.9902H135H132ZM81 35.9902H84H81ZM87 35.9902H90H87ZM102 35.9902H105H102ZM117 35.9902H120H117ZM123 35.9902H126H123ZM132 35.9902H135H132ZM81 36.9902H84H81ZM87 36.9902H90H87ZM99 36.9902H102H99ZM114 36.9902H117H114ZM123 36.9902H126H123ZM132 36.9902H135H132ZM81 37.9902H84H81ZM87 37.9902H90H87ZM99 37.9902H102H99ZM114 37.9902H117H114ZM123 37.9902H126H123ZM132 37.9902H135H132ZM81 38.9902H84H81ZM87 38.9902H90H87ZM99 38.9902H102H99ZM114 38.9902H117H114ZM123 38.9902H126H123ZM132 38.9902H135H132ZM81 39.9902H84H81ZM87 39.9902H90H87ZM102 39.9902H105H102ZM114 39.9902H117H114ZM120 39.9902H123H120ZM135 39.9902H138H135ZM81 40.9902H84H81ZM87 40.9902H90H87ZM102 40.9902H105H102ZM114 40.9902H117H114ZM120 40.9902H123H120ZM135 40.9902H138H135ZM81 41.9902H84H81ZM87 41.9902H90H87ZM102 41.9902H105H102ZM114 41.9902H117H114ZM120 41.9902H123H120ZM135 41.9902H138H135ZM81 42.9902H84H81ZM87 42.9902H90H87ZM99 42.9902H102H99ZM108 42.9902H111H108ZM114 42.9902H117H114ZM120 42.9902H123H120ZM132 42.9902H135H132ZM81 43.9902H84H81ZM87 43.9902H90H87ZM99 43.9902H102H99ZM108 43.9902H111H108ZM114 43.9902H117H114ZM120 43.9902H123H120ZM132 43.9902H135H132ZM81 44.9902H84H81ZM87 44.9902H90H87ZM99 44.9902H102H99ZM108 44.9902H111H108ZM114 44.9902H117H114ZM120 44.9902H123H120ZM132 44.9902H135H132ZM84 45.9902H87H84ZM90 45.9902H93H90ZM99 45.9902H117H99ZM120 45.9902H123H120ZM135 45.9902H138H135ZM84 46.9902H87H84ZM90 46.9902H93H90ZM99 46.9902H117H99ZM120 46.9902H123H120ZM135 46.9902H138H135ZM84 47.9902H87H84ZM90 47.9902H93H90ZM99 47.9902H117H99ZM120 47.9902H123H120ZM135 47.9902H138H135ZM84 48.9902H87H84ZM93 48.9902H102H93ZM105 48.9902H111H105ZM114 48.9902H123H114ZM132 48.9902H135H132ZM84 49.9902H87H84ZM93 49.9902H102H93ZM105 49.9902H111H105ZM114 49.9902H123H114ZM132 49.9902H135H132ZM84 50.9902H87H84ZM93 50.9902H102H93ZM105 50.9902H111H105ZM114 50.9902H123H114ZM132 50.9902H135H132ZM87 51.9902H90H87ZM93 51.9902H96H93ZM99 51.9902H102H99ZM117 51.9902H120H117ZM123 51.9902H126H123ZM129 51.9902H132H129ZM87 52.9902H90H87ZM93 52.9902H96H93ZM99 52.9902H102H99ZM117 52.9902H120H117ZM123 52.9902H126H123ZM129 52.9902H132H129ZM87 53.9902H90H87ZM93 53.9902H96H93ZM99 53.9902H102H99ZM117 53.9902H120H117ZM123 53.9902H126H123ZM129 53.9902H132H129ZM90 54.9902H93H90ZM126 54.9902H129H126ZM90 55.9902H93H90ZM126 55.9902H129H126ZM90 56.9902H93H90ZM126 56.9902H129H126ZM90 57.9902H93H90ZM126 57.9902H129H126ZM90 58.9902H93H90ZM126 58.9902H129H126ZM90 59.9902H93H90ZM126 59.9902H129H126ZM87 60.9902H90H87ZM102 60.9902H108H102ZM117 60.9902H123H117ZM129 60.9902H132H129ZM87 61.9902H90H87ZM102 61.9902H108H102ZM117 61.9902H123H117ZM129 61.9902H132H129ZM87 62.9902H90H87ZM102 62.9902H108H102ZM117 62.9902H123H117ZM129 62.9902H132H129ZM87 63.9902H90H87ZM96 63.9902H105H96ZM108 63.9902H111H108ZM114 63.9902H117H114ZM120 63.9902H126H120ZM129 63.9902H132H129ZM87 64.9902H90H87ZM96 64.9902H105H96ZM108 64.9902H111H108ZM114 64.9902H117H114ZM120 64.9902H126H120ZM129 64.9902H132H129ZM87 65.9902H90H87ZM96 65.9902H105H96ZM108 65.9902H111H108ZM114 65.9902H117H114ZM120 65.9902H126H120ZM129 65.9902H132H129ZM87 66.9902H90H87ZM93 66.9902H102H93ZM111 66.9902H114H111ZM123 66.9902H132H123ZM87 67.9902H90H87ZM93 67.9902H102H93ZM111 67.9902H114H111ZM123 67.9902H132H123ZM87 68.9902H90H87ZM93 68.9902H102H93ZM111 68.9902H114H111ZM123 68.9902H132H123ZM87 69.9902H99H87ZM111 69.9902H114H111ZM126 69.9902H132H126ZM87 70.9902H99H87ZM111 70.9902H114H111ZM126 70.9902H132H126ZM87 71.9902H99H87ZM111 71.9902H114H111ZM126 71.9902H132H126ZM87 72.9902H99H87ZM126 72.9902H132H126ZM87 73.9902H99H87ZM126 73.9902H132H126ZM87 74.9902H99H87ZM126 74.9902H132H126ZM87 75.9902H96H87ZM129 75.9902H132H129ZM87 76.9902H96H87ZM129 76.9902H132H129ZM87 77.9902H96H87ZM129 77.9902H132H129ZM87 78.9902H93H87ZM99 78.9902H105H99ZM114 78.9902H120H114ZM129 78.9902H132H129ZM87 79.9902H93H87ZM99 79.9902H105H99ZM114 79.9902H120H114ZM129 79.9902H132H129ZM87 80.9902H93H87ZM99 80.9902H105H99ZM114 80.9902H120H114ZM129 80.9902H132H129ZM81 81.9902H96H81ZM99 81.9902H105H99ZM114 81.9902H120H114ZM129 81.9902H138H129ZM81 82.9902H96H81ZM99 82.9902H105H99ZM114 82.9902H120H114ZM129 82.9902H138H129ZM81 83.9902H96H81ZM99 83.9902H105H99ZM114 83.9902H120H114ZM129 83.9902H138H129ZM75 84.9902H81H75ZM93 84.9902H102H93ZM126 84.9902H129H126ZM138 84.9902H144H138ZM75 85.9902H81H75ZM93 85.9902H102H93ZM126 85.9902H129H126ZM138 85.9902H144H138ZM75 86.9902H81H75ZM93 86.9902H102H93ZM126 86.9902H129H126ZM138 86.9902H144H138ZM72 87.9902H75H72ZM102 87.9902H126H102ZM144 87.9902H147H144ZM72 88.9902H75H72ZM102 88.9902H126H102ZM144 88.9902H147H144ZM72 89.9902H75H72ZM102 89.9902H126H102ZM144 89.9902H147H144ZM27 90.9902H33H27ZM69 90.9902H72H69ZM147 90.9902H150H147ZM27 91.9902H33H27ZM69 91.9902H72H69ZM147 91.9902H150H147ZM27 92.9902H33H27ZM69 92.9902H72H69ZM147 92.9902H150H147ZM21 93.9902H27H21ZM33 93.9902H36H33ZM54 93.9902H72H54ZM147 93.9902H150H147ZM21 94.9902H27H21ZM33 94.9902H36H33ZM54 94.9902H72H54ZM147 94.9902H150H147ZM21 95.9902H27H21ZM33 95.9902H36H33ZM54 95.9902H72H54ZM147 95.9902H150H147ZM18 96.9902H21H18ZM36 96.9902H51H36ZM69 96.9902H72H69ZM93 96.9902H102H93ZM126 96.9902H132H126ZM147 96.9902H150H147ZM18 97.9902H21H18ZM36 97.9902H51H36ZM69 97.9902H72H69ZM93 97.9902H102H93ZM126 97.9902H132H126ZM147 97.9902H150H147ZM18 98.9902H21H18ZM36 98.9902H51H36ZM69 98.9902H72H69ZM93 98.9902H102H93ZM126 98.9902H132H126ZM147 98.9902H150H147ZM15 99.9902H18H15ZM69 99.9902H72H69ZM87 99.9902H93H87ZM99 99.9902H102H99ZM126 99.9902H129H126ZM132 99.9902H138H132ZM147 99.9902H150H147ZM15 100.99H18H15ZM69 100.99H72H69ZM87 100.99H93H87ZM99 100.99H102H99ZM126 100.99H129H126ZM132 100.99H138H132ZM147 100.99H150H147ZM15 101.99H18H15ZM69 101.99H72H69ZM87 101.99H93H87ZM99 101.99H102H99ZM126 101.99H129H126ZM132 101.99H138H132ZM147 101.99H150H147ZM15 102.99H18H15ZM33 102.99H42H33ZM72 102.99H75H72ZM99 102.99H102H99ZM126 102.99H129H126ZM144 102.99H147H144ZM15 103.99H18H15ZM33 103.99H42H33ZM72 103.99H75H72ZM99 103.99H102H99ZM126 103.99H129H126ZM144 103.99H147H144ZM15 104.99H18H15ZM33 104.99H42H33ZM72 104.99H75H72ZM99 104.99H102H99ZM126 104.99H129H126ZM144 104.99H147H144ZM12 105.99H15H12ZM30 105.99H33H30ZM39 105.99H42H39ZM75 105.99H105H75ZM117 105.99H123H117ZM126 105.99H144H126ZM12 106.99H15H12ZM30 106.99H33H30ZM39 106.99H42H39ZM75 106.99H105H75ZM117 106.99H123H117ZM126 106.99H144H126ZM12 107.99H15H12ZM30 107.99H33H30ZM39 107.99H42H39ZM75 107.99H105H75ZM117 107.99H123H117ZM126 107.99H144H126ZM9 108.99H12H9ZM27 108.99H30H27ZM39 108.99H42H39ZM48 108.99H51H48ZM72 108.99H75H72ZM78 108.99H81H78ZM84 108.99H87H84ZM105 108.99H108H105ZM114 108.99H129H114ZM9 109.99H12H9ZM27 109.99H30H27ZM39 109.99H42H39ZM48 109.99H51H48ZM72 109.99H75H72ZM78 109.99H81H78ZM84 109.99H87H84ZM105 109.99H108H105ZM114 109.99H129H114ZM9 110.99H12H9ZM27 110.99H30H27ZM39 110.99H42H39ZM48 110.99H51H48ZM72 110.99H75H72ZM78 110.99H81H78ZM84 110.99H87H84ZM105 110.99H108H105ZM114 110.99H129H114ZM9 111.99H12H9ZM21 111.99H24H21ZM27 111.99H30H27ZM39 111.99H42H39ZM45 111.99H48H45ZM72 111.99H75H72ZM78 111.99H81H78ZM84 111.99H87H84ZM108 111.99H111H108ZM114 111.99H120H114ZM126 111.99H129H126ZM9 112.99H12H9ZM21 112.99H24H21ZM27 112.99H30H27ZM39 112.99H42H39ZM45 112.99H48H45ZM72 112.99H75H72ZM78 112.99H81H78ZM84 112.99H87H84ZM108 112.99H111H108ZM114 112.99H120H114ZM126 112.99H129H126ZM9 113.99H12H9ZM21 113.99H24H21ZM27 113.99H30H27ZM39 113.99H42H39ZM45 113.99H48H45ZM72 113.99H75H72ZM78 113.99H81H78ZM84 113.99H87H84ZM108 113.99H111H108ZM114 113.99H120H114ZM126 113.99H129H126ZM9 114.99H12H9ZM18 114.99H21H18ZM24 114.99H27H24ZM39 114.99H42H39ZM45 114.99H75H45ZM78 114.99H81H78ZM84 114.99H87H84ZM111 114.99H129H111ZM9 115.99H12H9ZM18 115.99H21H18ZM24 115.99H27H24ZM39 115.99H42H39ZM45 115.99H75H45ZM78 115.99H81H78ZM84 115.99H87H84ZM111 115.99H129H111ZM9 116.99H12H9ZM18 116.99H21H18ZM24 116.99H27H24ZM39 116.99H42H39ZM45 116.99H75H45ZM78 116.99H81H78ZM84 116.99H87H84ZM111 116.99H129H111ZM12 117.99H15H12ZM18 117.99H21H18ZM36 117.99H39H36ZM42 117.99H45H42ZM72 117.99H75H72ZM78 117.99H81H78ZM87 117.99H90H87ZM117 117.99H126H117ZM12 118.99H15H12ZM18 118.99H21H18ZM36 118.99H39H36ZM42 118.99H45H42ZM72 118.99H75H72ZM78 118.99H81H78ZM87 118.99H90H87ZM117 118.99H126H117ZM12 119.99H15H12ZM18 119.99H21H18ZM36 119.99H39H36ZM42 119.99H45H42ZM72 119.99H75H72ZM78 119.99H81H78ZM87 119.99H90H87ZM117 119.99H126H117ZM12 120.99H18H12ZM36 120.99H39H36ZM42 120.99H45H42ZM72 120.99H75H72ZM78 120.99H84H78ZM90 120.99H93H90ZM12 121.99H18H12ZM36 121.99H39H36ZM42 121.99H45H42ZM72 121.99H75H72ZM78 121.99H84H78ZM90 121.99H93H90ZM12 122.99H18H12ZM36 122.99H39H36ZM42 122.99H45H42ZM72 122.99H75H72ZM78 122.99H84H78ZM90 122.99H93H90ZM12 123.99H15H12ZM39 123.99H42H39ZM45 123.99H48H45ZM75 123.99H78H75ZM81 123.99H87H81ZM93 123.99H96H93ZM12 124.99H15H12ZM39 124.99H42H39ZM45 124.99H48H45ZM75 124.99H78H75ZM81 124.99H87H81ZM93 124.99H96H93ZM12 125.99H15H12ZM39 125.99H42H39ZM45 125.99H48H45ZM75 125.99H78H75ZM81 125.99H87H81ZM93 125.99H96H93ZM39 126.99H42H39ZM45 126.99H48H45ZM78 126.99H81H78ZM84 126.99H90H84ZM96 126.99H99H96ZM39 127.99H42H39ZM45 127.99H48H45ZM78 127.99H81H78ZM84 127.99H90H84ZM96 127.99H99H96ZM39 128.99H42H39ZM45 128.99H48H45ZM78 128.99H81H78ZM84 128.99H90H84ZM96 128.99H99H96ZM42 129.99H45H42ZM48 129.99H51H48ZM81 129.99H84H81ZM90 129.99H93H90ZM96 129.99H99H96ZM42 130.99H45H42ZM48 130.99H51H48ZM81 130.99H84H81ZM90 130.99H93H90ZM96 130.99H99H96ZM42 131.99H45H42ZM48 131.99H51H48ZM81 131.99H84H81ZM90 131.99H93H90ZM96 131.99H99H96ZM42 132.99H45H42ZM51 132.99H54H51ZM81 132.99H87H81ZM93 132.99H99H93ZM42 133.99H45H42ZM51 133.99H54H51ZM81 133.99H87H81ZM93 133.99H99H93ZM42 134.99H45H42ZM51 134.99H54H51ZM81 134.99H87H81ZM93 134.99H99H93ZM42 135.99H45H42ZM54 135.99H57H54ZM81 135.99H90H81ZM96 135.99H99H96ZM42 136.99H45H42ZM54 136.99H57H54ZM81 136.99H90H81ZM96 136.99H99H96ZM42 137.99H45H42ZM54 137.99H57H54ZM81 137.99H90H81ZM96 137.99H99H96ZM45 138.99H48H45ZM57 138.99H60H57ZM84 138.99H87H84ZM90 138.99H93H90ZM96 138.99H99H96ZM45 139.99H48H45ZM57 139.99H60H57ZM84 139.99H87H84ZM90 139.99H93H90ZM96 139.99H99H96ZM45 140.99H48H45ZM57 140.99H60H57ZM84 140.99H87H84ZM90 140.99H93H90ZM96 140.99H99H96ZM45 141.99H48H45ZM57 141.99H60H57ZM81 141.99H84H81ZM87 141.99H90H87ZM96 141.99H99H96ZM45 142.99H48H45ZM57 142.99H60H57ZM81 142.99H84H81ZM87 142.99H90H87ZM96 142.99H99H96ZM45 143.99H48H45ZM57 143.99H60H57ZM81 143.99H84H81ZM87 143.99H90H87ZM96 143.99H99H96ZM45 144.99H48H45ZM51 144.99H54H51ZM57 144.99H60H57ZM81 144.99H90H81ZM93 144.99H96H93ZM45 145.99H48H45ZM51 145.99H54H51ZM57 145.99H60H57ZM81 145.99H90H81ZM93 145.99H96H93ZM45 146.99H48H45ZM51 146.99H54H51ZM57 146.99H60H57ZM81 146.99H90H81ZM93 146.99H96H93ZM45 147.99H51H45ZM57 147.99H60H57ZM84 147.99H87H84ZM90 147.99H93H90ZM45 148.99H51H45ZM57 148.99H60H57ZM84 148.99H87H84ZM90 148.99H93H90ZM45 149.99H51H45ZM57 149.99H60H57ZM84 149.99H87H84ZM90 149.99H93H90ZM45 150.99H48H45ZM54 150.99H57H54ZM84 150.99H90H84ZM45 151.99H48H45ZM54 151.99H57H54ZM84 151.99H90H84ZM45 152.99H48H45ZM54 152.99H57H54ZM84 152.99H90H84ZM45 153.99H48H45ZM51 153.99H54H51ZM45 154.99H48H45ZM51 154.99H54H51ZM45 155.99H48H45ZM51 155.99H54H51ZM45 156.99H51H45ZM45 157.99H51H45ZM45 158.99H51H45Z" fill="black"/>
<path fill-rule="evenodd" clip-rule="evenodd" d="M108 3.49023V18.4902H105V12.4902H102V9.49023H105V6.49023H102V3.49023H108ZM99 9.49023H102V6.49023H99V9.49023ZM99 12.4902V9.49023H96V12.4902H93V15.4902H90V21.4902H87V27.4902H84V30.4902H81V45.4902H84V51.4902H87V54.4902H90V60.4902H87V81.4902H81V84.4902H75V87.4902H72V90.4902H69V93.4902H54V96.4902H69V102.49H72V105.49H75V108.49H72V114.49H48V111.49H51V108.49H48V111.49H45V117.49H42V102.49H33V105.49H30V108.49H27V114.49H24V111.49H21V114.49H18V120.49H15V117.49H12V108.49H15V105.49H18V99.4902H21V96.4902H27V93.4902H33V96.4902H36V99.4902H51V96.4902H36V93.4902H33V90.4902H27V93.4902H21V96.4902H18V99.4902H15V105.49H12V108.49H9V117.49H12V126.49H15V123.49H18V120.49H21V114.49H24V117.49H27V114.49H30V108.49H33V105.49H39V117.49H36V123.49H39V129.49H42V138.49H45V159.49H51V156.49H54V153.49H57V150.49H60V138.49H57V135.49H54V132.49H51V129.49H48V123.49H45V117.49H72V123.49H75V126.49H78V129.49H81V138.49H84V141.49H81V147.49H84V153.49H90V150.49H93V147.49H96V144.49H99V126.49H96V123.49H93V120.49H90V117.49H87V108.49H105V111.49H108V114.49H111V117.49H117V120.49H126V117.49H129V108.49H144V105.49H147V102.49H150V90.4902H147V87.4902H144V84.4902H138V81.4902H132V60.4902H129V54.4902H132V51.4902H135V48.4902H138V45.4902H135V42.4902H138V39.4902H135V33.4902H138V24.4902H141V9.49023H135V12.4902H132V15.4902H129V18.4902H126V21.4902H123V27.4902H120V33.4902H117V36.4902H114V45.4902H111V42.4902H108V45.4902H102V42.4902H105V39.4902H102V36.4902H105V33.4902H102V27.4902H105V18.4902H102V27.4902H99V33.4902H102V36.4902H99V39.4902H102V42.4902H99V48.4902H93V45.4902H90V33.4902H93V27.4902H96V21.4902H99V15.4902H102V12.4902H99ZM96 15.4902V12.4902H99V15.4902H96ZM96 15.4902H93V21.4902H90V27.4902H87V30.4902H84V45.4902H87V51.4902H90V54.4902H93V60.4902H90V69.4902H93V66.4902H96V63.4902H102V60.4902H108V63.4902H105V66.4902H102V69.4902H99V75.4902H96V78.4902H93V81.4902H96V84.4902H99V78.4902H105V84.4902H102V87.4902H93V84.4902H81V87.4902H75V90.4902H72V102.49H75V105.49H99V99.4902H93V96.4902H102V105.49H105V108.49H108V111.49H111V114.49H114V108.49H117V105.49H123V108.49H126V96.4902H132V99.4902H129V105.49H144V102.49H147V90.4902H144V87.4902H138V84.4902H129V75.4902H126V69.4902H123V66.4902H120V63.4902H117V60.4902H123V63.4902H126V66.4902H129V60.4902H126V54.4902H129V51.4902H132V48.4902H135V45.4902H132V42.4902H135V39.4902H132V33.4902H135V24.4902H138V18.4902H135V15.4902H138V12.4902H135V15.4902H132V18.4902H129V21.4902H126V27.4902H123V33.4902H120V36.4902H117V48.4902H120V39.4902H123V51.4902H120V54.4902H117V51.4902H114V48.4902H111V51.4902H105V48.4902H102V54.4902H99V51.4902H96V54.4902H93V48.4902H90V45.4902H87V33.4902H90V27.4902H93V21.4902H96V15.4902ZM126 33.4902V27.4902H129V33.4902H126ZM132 21.4902V18.4902H135V21.4902H132ZM126 33.4902H123V39.4902H126V33.4902ZM123 51.4902V54.4902H126V51.4902H123ZM129 27.4902V21.4902H132V27.4902H129ZM114 66.4902V63.4902H117V66.4902H114ZM114 66.4902H111V63.4902H108V66.4902H111V72.4902H114V66.4902ZM126 87.4902H102V90.4902H126V87.4902ZM126 87.4902H129V84.4902H126V87.4902ZM132 99.4902V102.49H138V99.4902H132ZM93 99.4902H87V102.49H93V99.4902ZM90 129.49H84V126.49H81V123.49H78V108.49H75V123.49H78V126.49H81V129.49H84V132.49H87V135.49H90V138.49H87V141.49H84V144.49H87V141.49H90V147.49H87V150.49H90V147.49H93V144.49H96V135.49H93V132.49H96V126.49H93V123.49H90V120.49H87V117.49H84V108.49H81V120.49H84V123.49H87V126.49H90V129.49ZM90 141.49V138.49H93V141.49H90ZM90 129.49V132.49H93V129.49H90ZM45 129.49H48V132.49H51V135.49H54V138.49H57V150.49H54V153.49H51V156.49H48V150.49H51V147.49H54V144.49H51V147.49H48V138.49H45V129.49ZM45 129.49H42V123.49H45V129.49ZM42 123.49H39V117.49H42V123.49ZM120 78.4902V84.4902H114V78.4902H120ZM120 111.49V114.49H126V111.49H120Z" fill="#341C27"/>
<path d="M102 6.99023H105H102ZM102 7.99023H105H102ZM102 8.99023H105H102ZM99 9.99023H102H99ZM99 10.9902H102H99ZM99 11.9902H102H99ZM96 12.9902H99H96ZM135 12.9902H138H135ZM96 13.9902H99H96ZM135 13.9902H138H135ZM96 14.9902H99H96ZM135 14.9902H138H135ZM93 15.9902H96H93ZM132 15.9902H135H132ZM93 16.9902H96H93ZM132 16.9902H135H132ZM93 17.9902H96H93ZM132 17.9902H135H132ZM93 18.9902H96H93ZM129 18.9902H132H129ZM93 19.9902H96H93ZM129 19.9902H132H129ZM93 20.9902H96H93ZM129 20.9902H132H129ZM90 21.9902H93H90ZM126 21.9902H129H126ZM90 22.9902H93H90ZM126 22.9902H129H126ZM90 23.9902H93H90ZM126 23.9902H129H126ZM90 24.9902H93H90ZM126 24.9902H129H126ZM90 25.9902H93H90ZM126 25.9902H129H126ZM90 26.9902H93H90ZM126 26.9902H129H126ZM87 27.9902H90H87ZM123 27.9902H126H123ZM87 28.9902H90H87ZM123 28.9902H126H123ZM87 29.9902H90H87ZM123 29.9902H126H123ZM84 30.9902H90H84ZM123 30.9902H126H123ZM84 31.9902H90H84ZM123 31.9902H126H123ZM84 32.9902H90H84ZM123 32.9902H126H123ZM84 33.9902H87H84ZM120 33.9902H123H120ZM84 34.9902H87H84ZM120 34.9902H123H120ZM84 35.9902H87H84ZM120 35.9902H123H120ZM84 36.9902H87H84ZM117 36.9902H123H117ZM84 37.9902H87H84ZM117 37.9902H123H117ZM84 38.9902H87H84ZM117 38.9902H123H117ZM84 39.9902H87H84ZM117 39.9902H120H117ZM84 40.9902H87H84ZM117 40.9902H120H117ZM84 41.9902H87H84ZM117 41.9902H120H117ZM84 42.9902H87H84ZM117 42.9902H120H117ZM84 43.9902H87H84ZM117 43.9902H120H117ZM84 44.9902H87H84ZM117 44.9902H120H117ZM87 45.9902H90H87ZM117 45.9902H120H117ZM87 46.9902H90H87ZM117 46.9902H120H117ZM87 47.9902H90H87ZM117 47.9902H120H117ZM87 48.9902H93H87ZM102 48.9902H105H102ZM111 48.9902H114H111ZM87 49.9902H93H87ZM102 49.9902H105H102ZM111 49.9902H114H111ZM87 50.9902H93H87ZM102 50.9902H105H102ZM111 50.9902H114H111ZM90 51.9902H93H90ZM96 51.9902H99H96ZM102 51.9902H108H102ZM111 51.9902H117H111ZM120 51.9902H123H120ZM90 52.9902H93H90ZM96 52.9902H99H96ZM102 52.9902H108H102ZM111 52.9902H117H111ZM120 52.9902H123H120ZM90 53.9902H93H90ZM96 53.9902H99H96ZM102 53.9902H108H102ZM111 53.9902H117H111ZM120 53.9902H123H120ZM93 54.9902H126H93ZM93 55.9902H126H93ZM93 56.9902H126H93ZM93 57.9902H126H93ZM93 58.9902H126H93ZM93 59.9902H126H93ZM90 60.9902H102H90ZM108 60.9902H117H108ZM123 60.9902H129H123ZM90 61.9902H102H90ZM108 61.9902H117H108ZM123 61.9902H129H123ZM90 62.9902H102H90ZM108 62.9902H117H108ZM123 62.9902H129H123ZM90 63.9902H96H90ZM111 63.9902H114H111ZM126 63.9902H129H126ZM90 64.9902H96H90ZM111 64.9902H114H111ZM126 64.9902H129H126ZM90 65.9902H96H90ZM111 65.9902H114H111ZM126 65.9902H129H126ZM90 66.9902H93H90ZM90 67.9902H93H90ZM90 68.9902H93H90ZM27 93.9902H33H27ZM27 94.9902H33H27ZM27 95.9902H33H27ZM21 96.9902H36H21ZM54 96.9902H69H54ZM21 97.9902H36H21ZM54 97.9902H69H54ZM21 98.9902H36H21ZM54 98.9902H69H54ZM18 99.9902H51H18ZM54 99.9902H69H54ZM18 100.99H51H18ZM54 100.99H69H54ZM18 101.99H51H18ZM54 101.99H69H54ZM18 102.99H33H18ZM42 102.99H51H42ZM54 102.99H72H54ZM18 103.99H33H18ZM42 103.99H51H42ZM54 103.99H72H54ZM18 104.99H33H18ZM42 104.99H51H42ZM54 104.99H72H54ZM15 105.99H30H15ZM42 105.99H51H42ZM54 105.99H75H54ZM15 106.99H30H15ZM42 106.99H51H42ZM54 106.99H75H54ZM15 107.99H30H15ZM42 107.99H51H42ZM54 107.99H75H54ZM12 108.99H27H12ZM42 108.99H48H42ZM75 108.99H78H75ZM81 108.99H84H81ZM12 109.99H27H12ZM42 109.99H48H42ZM75 109.99H78H75ZM81 109.99H84H81ZM12 110.99H27H12ZM42 110.99H48H42ZM75 110.99H78H75ZM81 110.99H84H81ZM12 111.99H21H12ZM24 111.99H27H24ZM42 111.99H45H42ZM48 111.99H51H48ZM75 111.99H78H75ZM81 111.99H84H81ZM12 112.99H21H12ZM24 112.99H27H24ZM42 112.99H45H42ZM48 112.99H51H48ZM75 112.99H78H75ZM81 112.99H84H81ZM12 113.99H21H12ZM24 113.99H27H24ZM42 113.99H45H42ZM48 113.99H51H48ZM75 113.99H78H75ZM81 113.99H84H81ZM12 114.99H18H12ZM42 114.99H45H42ZM75 114.99H78H75ZM81 114.99H84H81ZM12 115.99H18H12ZM42 115.99H45H42ZM75 115.99H78H75ZM81 115.99H84H81ZM12 116.99H18H12ZM42 116.99H45H42ZM75 116.99H78H75ZM81 116.99H84H81ZM15 117.99H18H15ZM39 117.99H42H39ZM75 117.99H78H75ZM81 117.99H87H81ZM15 118.99H18H15ZM39 118.99H42H39ZM75 118.99H78H75ZM81 118.99H87H81ZM15 119.99H18H15ZM39 119.99H42H39ZM75 119.99H78H75ZM81 119.99H87H81ZM39 120.99H42H39ZM75 120.99H78H75ZM84 120.99H90H84ZM39 121.99H42H39ZM75 121.99H78H75ZM84 121.99H90H84ZM39 122.99H42H39ZM75 122.99H78H75ZM84 122.99H90H84ZM42 123.99H45H42ZM78 123.99H81H78ZM87 123.99H93H87ZM42 124.99H45H42ZM78 124.99H81H78ZM87 124.99H93H87ZM42 125.99H45H42ZM78 125.99H81H78ZM87 125.99H93H87ZM42 126.99H45H42ZM81 126.99H84H81ZM90 126.99H96H90ZM42 127.99H45H42ZM81 127.99H84H81ZM90 127.99H96H90ZM42 128.99H45H42ZM81 128.99H84H81ZM90 128.99H96H90ZM45 129.99H48H45ZM84 129.99H90H84ZM93 129.99H96H93ZM45 130.99H48H45ZM84 130.99H90H84ZM93 130.99H96H93ZM45 131.99H48H45ZM84 131.99H90H84ZM93 131.99H96H93ZM45 132.99H51H45ZM87 132.99H93H87ZM45 133.99H51H45ZM87 133.99H93H87ZM45 134.99H51H45ZM87 134.99H93H87ZM45 135.99H54H45ZM90 135.99H96H90ZM45 136.99H54H45ZM90 136.99H96H90ZM45 137.99H54H45ZM90 137.99H96H90ZM48 138.99H57H48ZM87 138.99H90H87ZM93 138.99H96H93ZM48 139.99H57H48ZM87 139.99H90H87ZM93 139.99H96H93ZM48 140.99H57H48ZM87 140.99H90H87ZM93 140.99H96H93ZM48 141.99H57H48ZM84 141.99H87H84ZM90 141.99H96H90ZM48 142.99H57H48ZM84 142.99H87H84ZM90 142.99H96H90ZM48 143.99H57H48ZM84 143.99H87H84ZM90 143.99H96H90ZM48 144.99H51H48ZM54 144.99H57H54ZM90 144.99H93H90ZM48 145.99H51H48ZM54 145.99H57H54ZM90 145.99H93H90ZM48 146.99H51H48ZM54 146.99H57H54ZM90 146.99H93H90ZM51 147.99H57H51ZM87 147.99H90H87ZM51 148.99H57H51ZM87 148.99H90H87ZM51 149.99H57H51ZM87 149.99H90H87ZM48 150.99H54H48ZM48 151.99H54H48ZM48 152.99H54H48ZM48 153.99H51H48ZM48 154.99H51H48ZM48 155.99H51H48Z" fill="black"/>
<path fill-rule="evenodd" clip-rule="evenodd" d="M105 6.49023V9.49023H102V6.49023H105ZM99 12.4902V9.49023H102V12.4902H99ZM99 12.4902H96V15.4902H93V21.4902H90V27.4902H87V30.4902H84V45.4902H87V51.4902H90V54.4902H93V60.4902H90V69.4902H93V66.4902H96V63.4902H102V60.4902H108V63.4902H111V66.4902H114V63.4902H117V60.4902H123V63.4902H126V66.4902H129V60.4902H126V54.4902H123V51.4902H120V54.4902H117V51.4902H114V48.4902H111V54.4902H108V51.4902H105V48.4902H102V54.4902H99V51.4902H96V54.4902H93V48.4902H90V45.4902H87V33.4902H90V27.4902H93V21.4902H96V15.4902H99V12.4902ZM138 12.4902V15.4902H135V12.4902H138ZM132 18.4902V15.4902H135V18.4902H132ZM132 18.4902H129V21.4902H126V27.4902H123V33.4902H120V36.4902H117V48.4902H120V39.4902H123V33.4902H126V27.4902H129V21.4902H132V18.4902ZM33 93.4902V96.4902H36V99.4902H51V108.49H48V111.49H45V117.49H42V102.49H33V105.49H30V108.49H27V114.49H24V111.49H21V114.49H18V120.49H15V117.49H12V108.49H15V105.49H18V99.4902H21V96.4902H27V93.4902H33ZM42 123.49H39V117.49H42V123.49ZM45 129.49H42V123.49H45V129.49ZM51 147.49V150.49H48V156.49H51V153.49H54V150.49H57V138.49H54V135.49H51V132.49H48V129.49H45V138.49H48V147.49H51ZM51 147.49H54V144.49H51V147.49ZM69 96.4902V102.49H72V105.49H75V108.49H54V96.4902H69ZM78 123.49H75V108.49H78V123.49ZM81 126.49H78V123.49H81V126.49ZM84 129.49H81V126.49H84V129.49ZM90 129.49V132.49H93V135.49H96V144.49H93V147.49H90V141.49H93V138.49H90V135.49H87V132.49H84V129.49H90ZM87 141.49H90V138.49H87V141.49ZM87 141.49H84V144.49H87V141.49ZM90 147.49H87V150.49H90V147.49ZM90 129.49V126.49H87V123.49H84V120.49H81V108.49H84V117.49H87V120.49H90V123.49H93V126.49H96V132.49H93V129.49H90ZM51 111.49V114.49H48V111.49H51Z" fill="#884B2B"/>
<path d="M57 9.99023H66H57ZM57 10.9902H66H57ZM57 11.9902H66H57ZM60 12.9902H69H60ZM60 13.9902H69H60ZM60 14.9902H69H60ZM60 15.9902H69H60ZM60 16.9902H69H60ZM60 17.9902H69H60ZM63 18.9902H69H63ZM63 19.9902H69H63ZM63 20.9902H69H63Z" fill="black"/>
<path fill-rule="evenodd" clip-rule="evenodd" d="M66 9.49023V12.4902H69V21.4902H63V18.4902H60V12.4902H57V9.49023H66Z" fill="#3868FB"/>
<path d="M18 12.9902H33H18ZM18 13.9902H33H18ZM18 14.9902H33H18ZM12 15.9902H18H12ZM33 15.9902H36H33ZM12 16.9902H18H12ZM33 16.9902H36H33ZM12 17.9902H18H12ZM33 17.9902H36H33ZM9 18.9902H12H9ZM9 19.9902H12H9ZM9 20.9902H12H9ZM6 21.9902H9H6ZM6 22.9902H9H6ZM6 23.9902H9H6ZM6 24.9902H9H6ZM6 25.9902H9H6ZM6 26.9902H9H6ZM3 27.9902H6H3ZM3 28.9902H6H3ZM3 29.9902H6H3ZM3 30.9902H6H3ZM3 31.9902H6H3ZM3 32.9902H6H3ZM0 33.9902H3H0ZM0 34.9902H3H0ZM0 35.9902H3H0ZM0 36.9902H3H0ZM0 37.9902H3H0ZM0 38.9902H3H0ZM0 39.9902H3H0ZM0 40.9902H3H0ZM0 41.9902H3H0ZM0 42.9902H3H0ZM0 43.9902H3H0ZM0 44.9902H3H0ZM3 45.9902H6H3ZM3 46.9902H6H3ZM3 47.9902H6H3ZM3 48.9902H6H3ZM45 48.9902H48H45ZM3 49.9902H6H3ZM45 49.9902H48H45ZM3 50.9902H6H3ZM45 50.9902H48H45ZM6 51.9902H9H6ZM42 51.9902H45H42ZM6 52.9902H9H6ZM42 52.9902H45H42ZM6 53.9902H9H6ZM42 53.9902H45H42ZM6 54.9902H9H6ZM42 54.9902H45H42ZM6 55.9902H9H6ZM42 55.9902H45H42ZM6 56.9902H9H6ZM42 56.9902H45H42ZM9 57.9902H12H9ZM39 57.9902H42H39ZM9 58.9902H12H9ZM39 58.9902H42H39ZM9 59.9902H12H9ZM39 59.9902H42H39ZM12 60.9902H18H12ZM33 60.9902H39H33ZM12 61.9902H18H12ZM33 61.9902H39H33ZM12 62.9902H18H12ZM33 62.9902H39H33ZM18 63.9902H24H18ZM27 63.9902H33H27ZM18 64.9902H24H18ZM27 64.9902H33H27ZM18 65.9902H24H18ZM27 65.9902H33H27Z" fill="black"/>
<path fill-rule="evenodd" clip-rule="evenodd" d="M33 12.4902V15.4902H18V12.4902H33ZM12 18.4902V15.4902H18V18.4902H12ZM12 18.4902H9V21.4902H6V27.4902H3V33.4902H0V45.4902H3V51.4902H6V57.4902H9V60.4902H12V63.4902H18V66.4902H24V63.4902H18V60.4902H12V57.4902H9V51.4902H6V45.4902H3V33.4902H6V27.4902H9V21.4902H12V18.4902ZM36 15.4902V18.4902H33V15.4902H36ZM48 48.4902V51.4902H45V48.4902H48ZM42 57.4902V51.4902H45V57.4902H42ZM42 57.4902H39V60.4902H33V63.4902H27V66.4902H33V63.4902H39V60.4902H42V57.4902Z" fill="#752438"/>
<path d="M78 12.9902H90H78ZM78 13.9902H90H78ZM78 14.9902H90H78ZM75 15.9902H78H75ZM75 16.9902H78H75ZM75 17.9902H78H75ZM105 27.9902H108H105ZM105 28.9902H108H105ZM105 29.9902H108H105ZM105 30.9902H108H105ZM105 31.9902H108H105ZM105 32.9902H108H105ZM108 33.9902H111H108ZM108 34.9902H111H108ZM108 35.9902H111H108ZM108 36.9902H111H108ZM108 37.9902H111H108ZM108 38.9902H111H108ZM108 39.9902H111H108ZM108 40.9902H111H108ZM108 41.9902H111H108ZM63 48.9902H66H63ZM63 49.9902H66H63ZM63 50.9902H66H63ZM66 51.9902H69H66ZM66 52.9902H69H66ZM66 53.9902H69H66ZM66 54.9902H69H66ZM66 55.9902H69H66ZM66 56.9902H69H66ZM69 57.9902H72H69ZM69 58.9902H72H69ZM69 59.9902H72H69ZM72 60.9902H78H72ZM72 61.9902H78H72ZM72 62.9902H78H72ZM78 63.9902H81H78ZM84 63.9902H87H84ZM78 64.9902H81H78ZM84 64.9902H87H84ZM78 65.9902H81H78ZM84 65.9902H87H84Z" fill="black"/>
<path fill-rule="evenodd" clip-rule="evenodd" d="M90 12.4902V15.4902H78V12.4902H90ZM78 15.4902V18.4902H75V15.4902H78ZM108 27.4902V33.4902H105V27.4902H108ZM111 33.4902V42.4902H108V33.4902H111ZM66 48.4902V51.4902H63V48.4902H66ZM69 57.4902H66V51.4902H69V57.4902ZM72 60.4902H69V57.4902H72V60.4902ZM78 63.4902H72V60.4902H78V63.4902ZM78 63.4902V66.4902H81V63.4902H78ZM87 63.4902V66.4902H84V63.4902H87Z" fill="#505402"/>
<path d="M102 12.9902H105H102ZM102 13.9902H105H102ZM102 14.9902H105H102ZM99 15.9902H105H99ZM99 16.9902H105H99ZM99 17.9902H105H99ZM99 18.9902H102H99ZM135 18.9902H138H135ZM99 19.9902H102H99ZM135 19.9902H138H135ZM99 20.9902H102H99ZM135 20.9902H138H135ZM96 21.9902H102H96ZM132 21.9902H138H132ZM96 22.9902H102H96ZM132 22.9902H138H132ZM96 23.9902H102H96ZM132 23.9902H138H132ZM96 24.9902H102H96ZM132 24.9902H135H132ZM96 25.9902H102H96ZM132 25.9902H135H132ZM96 26.9902H102H96ZM132 26.9902H135H132ZM93 27.9902H99H93ZM129 27.9902H135H129ZM93 28.9902H99H93ZM129 28.9902H135H129ZM93 29.9902H99H93ZM129 29.9902H135H129ZM93 30.9902H99H93ZM129 30.9902H135H129ZM93 31.9902H99H93ZM129 31.9902H135H129ZM93 32.9902H99H93ZM129 32.9902H135H129ZM90 33.9902H102H90ZM126 33.9902H132H126ZM90 34.9902H102H90ZM126 34.9902H132H126ZM90 35.9902H102H90ZM126 35.9902H132H126ZM90 36.9902H99H90ZM126 36.9902H132H126ZM90 37.9902H99H90ZM126 37.9902H132H126ZM90 38.9902H99H90ZM126 38.9902H132H126ZM90 39.9902H102H90ZM123 39.9902H135H123ZM90 40.9902H102H90ZM123 40.9902H135H123ZM90 41.9902H102H90ZM123 41.9902H135H123ZM90 42.9902H99H90ZM123 42.9902H132H123ZM90 43.9902H99H90ZM123 43.9902H132H123ZM90 44.9902H99H90ZM123 44.9902H132H123ZM93 45.9902H99H93ZM123 45.9902H135H123ZM93 46.9902H99H93ZM123 46.9902H135H123ZM93 47.9902H99H93ZM123 47.9902H135H123ZM123 48.9902H132H123ZM123 49.9902H132H123ZM123 50.9902H132H123ZM126 51.9902H129H126ZM126 52.9902H129H126ZM126 53.9902H129H126ZM81 84.9902H93H81ZM129 84.9902H138H129ZM81 85.9902H93H81ZM129 85.9902H138H129ZM81 86.9902H93H81ZM129 86.9902H138H129ZM75 87.9902H102H75ZM126 87.9902H144H126ZM75 88.9902H102H75ZM126 88.9902H144H126ZM75 89.9902H102H75ZM126 89.9902H144H126ZM72 90.9902H147H72ZM72 91.9902H147H72ZM72 92.9902H147H72ZM72 93.9902H147H72ZM72 94.9902H147H72ZM72 95.9902H147H72ZM72 96.9902H93H72ZM102 96.9902H126H102ZM132 96.9902H147H132ZM72 97.9902H93H72ZM102 97.9902H126H102ZM132 97.9902H147H132ZM72 98.9902H93H72ZM102 98.9902H126H102ZM132 98.9902H147H132ZM72 99.9902H87H72ZM93 99.9902H99H93ZM102 99.9902H126H102ZM129 99.9902H132H129ZM138 99.9902H147H138ZM72 100.99H87H72ZM93 100.99H99H93ZM102 100.99H126H102ZM129 100.99H132H129ZM138 100.99H147H138ZM72 101.99H87H72ZM93 101.99H99H93ZM102 101.99H126H102ZM129 101.99H132H129ZM138 101.99H147H138ZM75 102.99H99H75ZM102 102.99H126H102ZM129 102.99H144H129ZM75 103.99H99H75ZM102 103.99H126H102ZM129 103.99H144H129ZM75 104.99H99H75ZM102 104.99H126H102ZM129 104.99H144H129ZM105 105.99H117H105ZM123 105.99H126H123ZM105 106.99H117H105ZM123 106.99H126H123ZM105 107.99H117H105ZM123 107.99H126H123ZM54 108.99H72H54ZM108 108.99H114H108ZM54 109.99H72H54ZM108 109.99H114H108ZM54 110.99H72H54ZM108 110.99H114H108ZM54 111.99H72H54ZM111 111.99H114H111ZM54 112.99H72H54ZM111 112.99H114H111ZM54 113.99H72H54ZM111 113.99H114H111Z" fill="black"/>
<path fill-rule="evenodd" clip-rule="evenodd" d="M105 12.4902V18.4902H102V27.4902H99V33.4902H102V36.4902H99V39.4902H102V42.4902H99V48.4902H93V45.4902H90V33.4902H93V27.4902H96V21.4902H99V15.4902H102V12.4902H105ZM138 18.4902V24.4902H135V33.4902H132V39.4902H135V42.4902H132V45.4902H135V48.4902H132V51.4902H129V54.4902H126V51.4902H123V39.4902H126V33.4902H129V27.4902H132V21.4902H135V18.4902H138ZM93 84.4902V87.4902H102V90.4902H126V87.4902H129V84.4902H138V87.4902H144V90.4902H147V102.49H144V105.49H129V99.4902H132V102.49H138V99.4902H132V96.4902H126V108.49H123V105.49H117V108.49H114V114.49H111V111.49H108V108.49H105V105.49H102V96.4902H93V99.4902H87V102.49H93V99.4902H99V105.49H75V102.49H72V90.4902H75V87.4902H81V84.4902H93ZM72 108.49V114.49H54V108.49H72Z" fill="#D7B594"/>
<path d="M18 15.9902H33H18ZM18 16.9902H33H18ZM18 17.9902H33H18ZM12 18.9902H39H12ZM12 19.9902H39H12ZM12 20.9902H39H12ZM9 21.9902H27H9ZM36 21.9902H42H36ZM9 22.9902H27H9ZM36 22.9902H42H36ZM9 23.9902H27H9ZM36 23.9902H42H36ZM9 24.9902H30H9ZM39 24.9902H42H39ZM9 25.9902H30H9ZM39 25.9902H42H39ZM9 26.9902H30H9ZM39 26.9902H42H39ZM6 27.9902H30H6ZM39 27.9902H45H39ZM6 28.9902H30H6ZM39 28.9902H45H39ZM6 29.9902H30H6ZM39 29.9902H45H39ZM6 30.9902H33H6ZM39 30.9902H45H39ZM6 31.9902H33H6ZM39 31.9902H45H39ZM6 32.9902H33H6ZM39 32.9902H45H39ZM3 33.9902H48H3ZM3 34.9902H48H3ZM3 35.9902H48H3ZM3 36.9902H48H3ZM3 37.9902H48H3ZM3 38.9902H48H3ZM3 39.9902H48H3ZM3 40.9902H48H3ZM3 41.9902H48H3ZM3 42.9902H48H3ZM3 43.9902H48H3ZM3 44.9902H48H3ZM6 45.9902H45H6ZM6 46.9902H45H6ZM6 47.9902H45H6ZM6 48.9902H45H6ZM6 49.9902H45H6ZM6 50.9902H45H6ZM9 51.9902H42H9ZM9 52.9902H42H9ZM9 53.9902H42H9ZM9 54.9902H42H9ZM9 55.9902H42H9ZM9 56.9902H42H9ZM12 57.9902H39H12ZM12 58.9902H39H12ZM12 59.9902H39H12ZM18 60.9902H33H18ZM18 61.9902H33H18ZM18 62.9902H33H18Z" fill="black"/>
<path fill-rule="evenodd" clip-rule="evenodd" d="M33 15.4902V18.4902H39V21.4902H42V27.4902H45V33.4902H48V45.4902H45V51.4902H42V57.4902H39V60.4902H33V63.4902H18V60.4902H12V57.4902H9V51.4902H6V45.4902H3V33.4902H6V27.4902H9V21.4902H12V18.4902H18V15.4902H33ZM36 21.4902H27V24.4902H30V30.4902H33V33.4902H39V24.4902H36V21.4902Z" fill="#E6120B"/>
<path d="M78 15.9902H90H78ZM78 16.9902H90H78ZM78 17.9902H90H78ZM72 18.9902H90H72ZM72 19.9902H90H72ZM72 20.9902H90H72ZM69 21.9902H87H69ZM69 22.9902H87H69ZM69 23.9902H87H69ZM69 24.9902H87H69ZM69 25.9902H87H69ZM69 26.9902H87H69ZM66 27.9902H84H66ZM102 27.9902H105H102ZM66 28.9902H84H66ZM102 28.9902H105H102ZM66 29.9902H84H66ZM102 29.9902H105H102ZM66 30.9902H81H66ZM102 30.9902H105H102ZM66 31.9902H81H66ZM102 31.9902H105H102ZM66 32.9902H81H66ZM102 32.9902H105H102ZM63 33.9902H81H63ZM105 33.9902H108H105ZM63 34.9902H81H63ZM105 34.9902H108H105ZM63 35.9902H81H63ZM105 35.9902H108H105ZM63 36.9902H81H63ZM102 36.9902H108H102ZM63 37.9902H81H63ZM102 37.9902H108H102ZM63 38.9902H81H63ZM102 38.9902H108H102ZM63 39.9902H81H63ZM105 39.9902H108H105ZM63 40.9902H81H63ZM105 40.9902H108H105ZM63 41.9902H81H63ZM105 41.9902H108H105ZM63 42.9902H81H63ZM102 42.9902H108H102ZM63 43.9902H81H63ZM102 43.9902H108H102ZM63 44.9902H81H63ZM102 44.9902H108H102ZM66 45.9902H84H66ZM66 46.9902H84H66ZM66 47.9902H84H66ZM66 48.9902H84H66ZM66 49.9902H84H66ZM66 50.9902H84H66ZM69 51.9902H87H69ZM69 52.9902H87H69ZM69 53.9902H87H69ZM69 54.9902H90H69ZM69 55.9902H90H69ZM69 56.9902H90H69ZM72 57.9902H90H72ZM72 58.9902H90H72ZM72 59.9902H90H72ZM78 60.9902H87H78ZM78 61.9902H87H78ZM78 62.9902H87H78Z" fill="black"/>
<path fill-rule="evenodd" clip-rule="evenodd" d="M90 15.4902V21.4902H87V27.4902H84V30.4902H81V45.4902H84V51.4902H87V54.4902H90V60.4902H87V63.4902H78V60.4902H72V57.4902H69V51.4902H66V45.4902H63V33.4902H66V27.4902H69V21.4902H72V18.4902H78V15.4902H90ZM105 27.4902V33.4902H102V27.4902H105ZM108 33.4902V45.4902H102V42.4902H105V39.4902H102V36.4902H105V33.4902H108Z" fill="#F3FF00"/>
<path d="M27 21.9902H36H27ZM27 22.9902H36H27ZM27 23.9902H36H27ZM30 24.9902H39H30ZM30 25.9902H39H30ZM30 26.9902H39H30ZM30 27.9902H39H30ZM30 28.9902H39H30ZM30 29.9902H39H30ZM33 30.9902H39H33ZM33 31.9902H39H33ZM33 32.9902H39H33Z" fill="black"/>
<path fill-rule="evenodd" clip-rule="evenodd" d="M36 21.4902V24.4902H39V33.4902H33V30.4902H30V24.4902H27V21.4902H36Z" fill="#F4592D"/>
<path d="M54 51.9902H57H54ZM54 52.9902H57H54ZM54 53.9902H57H54ZM54 54.9902H57H54ZM54 55.9902H57H54ZM54 56.9902H57H54ZM54 57.9902H57H54ZM54 58.9902H57H54ZM54 59.9902H57H54ZM54 60.9902H57H54ZM54 61.9902H57H54ZM54 62.9902H57H54ZM24 63.9902H27H24ZM54 63.9902H57H54ZM81 63.9902H84H81ZM24 64.9902H27H24ZM54 64.9902H57H54ZM81 64.9902H84H81ZM24 65.9902H27H24ZM54 65.9902H57H54ZM81 65.9902H84H81ZM27 66.9902H30H27ZM54 66.9902H57H54ZM78 66.9902H81H78ZM27 67.9902H30H27ZM54 67.9902H57H54ZM78 67.9902H81H78ZM27 68.9902H30H27ZM54 68.9902H57H54ZM78 68.9902H81H78ZM30 69.9902H33H30ZM54 69.9902H57H54ZM75 69.9902H78H75ZM30 70.9902H33H30ZM54 70.9902H57H54ZM75 70.9902H78H75ZM30 71.9902H33H30ZM54 71.9902H57H54ZM75 71.9902H78H75ZM33 72.9902H36H33ZM54 72.9902H57H54ZM72 72.9902H75H72ZM33 73.9902H36H33ZM54 73.9902H57H54ZM72 73.9902H75H72ZM33 74.9902H36H33ZM54 74.9902H57H54ZM72 74.9902H75H72ZM36 75.9902H39H36ZM51 75.9902H54H51ZM69 75.9902H72H69ZM36 76.9902H39H36ZM51 76.9902H54H51ZM69 76.9902H72H69ZM36 77.9902H39H36ZM51 77.9902H54H51ZM69 77.9902H72H69ZM36 78.9902H39H36ZM51 78.9902H54H51ZM66 78.9902H69H66ZM36 79.9902H39H36ZM51 79.9902H54H51ZM66 79.9902H69H66ZM36 80.9902H39H36ZM51 80.9902H54H51ZM66 80.9902H69H66ZM39 81.9902H42H39ZM51 81.9902H54H51ZM63 81.9902H66H63ZM39 82.9902H42H39ZM51 82.9902H54H51ZM63 82.9902H66H63ZM39 83.9902H42H39ZM51 83.9902H54H51ZM63 83.9902H66H63ZM42 84.9902H45H42ZM51 84.9902H54H51ZM60 84.9902H63H60ZM42 85.9902H45H42ZM51 85.9902H54H51ZM60 85.9902H63H60ZM42 86.9902H45H42ZM51 86.9902H54H51ZM60 86.9902H63H60ZM45 87.9902H48H45ZM51 87.9902H54H51ZM57 87.9902H60H57ZM45 88.9902H48H45ZM51 88.9902H54H51ZM57 88.9902H60H57ZM45 89.9902H48H45ZM51 89.9902H54H51ZM57 89.9902H60H57ZM48 90.9902H57H48ZM48 91.9902H57H48ZM48 92.9902H57H48ZM51 93.9902H54H51ZM51 94.9902H54H51ZM51 95.9902H54H51ZM51 96.9902H54H51ZM51 97.9902H54H51ZM51 98.9902H54H51ZM51 99.9902H54H51ZM51 100.99H54H51ZM51 101.99H54H51ZM51 102.99H54H51ZM51 103.99H54H51ZM51 104.99H54H51ZM51 105.99H54H51ZM51 106.99H54H51ZM51 107.99H54H51ZM51 108.99H54H51ZM51 109.99H54H51ZM51 110.99H54H51ZM51 111.99H54H51ZM51 112.99H54H51ZM51 113.99H54H51ZM48 117.99H51H48ZM54 117.99H57H54ZM48 118.99H51H48ZM54 118.99H57H54ZM48 119.99H51H48ZM54 119.99H57H54ZM48 120.99H51H48ZM57 120.99H60H57ZM48 121.99H51H48ZM57 121.99H60H57ZM48 122.99H51H48ZM57 122.99H60H57Z" fill="black"/>
<path fill-rule="evenodd" clip-rule="evenodd" d="M57 51.4902V75.4902H54V51.4902H57ZM57 90.4902V93.4902H54V114.49H51V93.4902H48V90.4902H51V75.4902H54V90.4902H57ZM45 87.4902H48V90.4902H45V87.4902ZM42 84.4902H45V87.4902H42V84.4902ZM39 81.4902H42V84.4902H39V81.4902ZM36 75.4902H39V81.4902H36V75.4902ZM33 72.4902H36V75.4902H33V72.4902ZM30 69.4902H33V72.4902H30V69.4902ZM27 66.4902H30V69.4902H27V66.4902ZM27 66.4902V63.4902H24V66.4902H27ZM57 90.4902V87.4902H60V90.4902H57ZM63 84.4902V87.4902H60V84.4902H63ZM66 81.4902V84.4902H63V81.4902H66ZM69 78.4902V81.4902H66V78.4902H69ZM72 75.4902V78.4902H69V75.4902H72ZM75 72.4902V75.4902H72V72.4902H75ZM78 69.4902V72.4902H75V69.4902H78ZM81 66.4902V69.4902H78V66.4902H81ZM81 66.4902H84V63.4902H81V66.4902ZM51 117.49V123.49H48V117.49H51ZM57 117.49V120.49H54V117.49H57ZM60 120.49V123.49H57V120.49H60Z" fill="#090A14"/>
<path d="M108 51.9902H111H108ZM108 52.9902H111H108ZM108 53.9902H111H108Z" fill="black"/>
<path fill-rule="evenodd" clip-rule="evenodd" d="M111 51.4902V54.4902H108V51.4902H111Z" fill="#241527"/>
<path d="M105 63.9902H108H105ZM117 63.9902H120H117ZM105 64.9902H108H105ZM117 64.9902H120H117ZM105 65.9902H108H105ZM117 65.9902H120H117ZM102 66.9902H111H102ZM114 66.9902H123H114ZM102 67.9902H111H102ZM114 67.9902H123H114ZM102 68.9902H111H102ZM114 68.9902H123H114ZM99 69.9902H111H99ZM114 69.9902H126H114ZM99 70.9902H111H99ZM114 70.9902H126H114ZM99 71.9902H111H99ZM114 71.9902H126H114ZM99 72.9902H126H99ZM99 73.9902H126H99ZM99 74.9902H126H99ZM96 75.9902H129H96ZM96 76.9902H129H96ZM96 77.9902H129H96ZM93 78.9902H99H93ZM105 78.9902H114H105ZM120 78.9902H129H120ZM93 79.9902H99H93ZM105 79.9902H114H105ZM120 79.9902H129H120ZM93 80.9902H99H93ZM105 80.9902H114H105ZM120 80.9902H129H120ZM96 81.9902H99H96ZM105 81.9902H114H105ZM120 81.9902H129H120ZM96 82.9902H99H96ZM105 82.9902H114H105ZM120 82.9902H129H120ZM96 83.9902H99H96ZM105 83.9902H114H105ZM120 83.9902H129H120ZM102 84.9902H126H102ZM102 85.9902H126H102ZM102 86.9902H126H102ZM120 111.99H126H120ZM120 112.99H126H120ZM120 113.99H126H120Z" fill="black"/>
<path fill-rule="evenodd" clip-rule="evenodd" d="M108 63.4902V66.4902H111V72.4902H114V66.4902H117V63.4902H120V66.4902H123V69.4902H126V75.4902H129V84.4902H126V87.4902H102V84.4902H105V78.4902H99V84.4902H96V81.4902H93V78.4902H96V75.4902H99V69.4902H102V66.4902H105V63.4902H108ZM114 78.4902V84.4902H120V78.4902H114ZM126 111.49V114.49H120V111.49H126Z" fill="#EBEDE9"/>
</g>
<defs>
<clipPath id="clip0_1_292">
<rect width="150" height="159" fill="white" transform="translate(0 0.490234)"/>
</clipPath>
</defs>
</svg>
