<svg width="31" height="32" viewBox="0 0 31 32" fill="none" xmlns="http://www.w3.org/2000/svg">
<g filter="url(#filter0_d_1_41)">
<path fill-rule="evenodd" clip-rule="evenodd" d="M14.8889 1.13965V9.47298H26V12.2508H23.2222V15.0285H20.4445V17.8063H17.6666V20.5841H20.4445V26.1396H17.6666V23.3619H14.8889V20.5841H9.33337V23.3619H3.77775V17.8063H6.55551V15.0285H3.77775V12.2508H1V9.47298H9.33337V3.91743H12.1111V1.13965H14.8889Z" fill="#FFD500"/>
<path fill-rule="evenodd" clip-rule="evenodd" d="M14.8889 1.13965V9.47298H26V12.2508H23.2222V15.0285H20.4445V17.8063H17.6666V20.5841H20.4445V26.1396H17.6666V23.3619H14.8889V20.5841H9.33337V23.3619H3.77775V17.8063H6.55551V15.0285H3.77775V12.2508H1V9.47298H9.33337V3.91743H12.1111V1.13965H14.8889Z" stroke="black" stroke-width="2"/>
</g>
<defs>
<filter id="filter0_d_1_41" x="0" y="0.139648" width="31" height="31" filterUnits="userSpaceOnUse" color-interpolation-filters="sRGB">
<feFlood flood-opacity="0" result="BackgroundImageFix"/>
<feColorMatrix in="SourceAlpha" type="matrix" values="0 0 0 0 0 0 0 0 0 0 0 0 0 0 0 0 0 0 127 0" result="hardAlpha"/>
<feOffset dx="4" dy="4"/>
<feComposite in2="hardAlpha" operator="out"/>
<feColorMatrix type="matrix" values="0 0 0 0 0 0 0 0 0 0 0 0 0 0 0 0 0 0 1 0"/>
<feBlend mode="normal" in2="BackgroundImageFix" result="effect1_dropShadow_1_41"/>
<feBlend mode="normal" in="SourceGraphic" in2="effect1_dropShadow_1_41" result="shape"/>
</filter>
</defs>
</svg>
