<svg version="1.2" xmlns="http://www.w3.org/2000/svg" viewBox="0 0 393 573" width="393" height="573">
	<title>image</title>
	<defs>
		<clipPath clipPathUnits="userSpaceOnUse" id="cp1">
			<path d="m304.39 74l88.05 43.88-64.39 148.17-88.05-43.87z"/>
		</clipPath>
	</defs>
	<style>
		.s0 { fill: #000000 } 
		.s1 { fill: #d7b594 } 
		.s2 { fill: #df84a5 } 
		.s3 { fill: #d7e100 } 
		.s4 { fill: #da863e } 
		.s5 { fill: #341c27 } 
		.s6 { fill: #884b2b } 
		.s7 { fill: #241527 } 
		.s8 { fill: #ebede9 } 
		.s9 { fill: none;stroke: #602c2c } 
		.s10 { fill: #ffffff } 
	</style>
	<path id="Layer" fill-rule="evenodd" class="s0" d="m191.8 222.5h38.2zm0 0.9h38.3zm0 0.9h38.3zm-16.4 0.9h71zm0 0.9h71.1zm0 0.9h71zm-10.9 0.9h92.9zm0 0.9h92.9zm0 1h93zm-8.2 0.9h109.3zm0 0.9h109.3zm0 0.9h109.3zm-8.2 0.9h125.7zm0 0.9h125.7zm0 0.9h125.8zm-5.5 1h136.6zm0 0.9h136.7zm0 0.9h136.6zm-8.2 0.9h153.1zm0 0.9h153zm0 0.9h153.1zm-5.5 0.9h164zm0 1h164zm0 0.9h163.9zm-2.7 0.9h169.5zm0 0.9h169.4zm0 0.9h169.4zm-5.4 0.9h180.3zm0 0.9h180.4zm0 0.9h180.4zm-5.5 1h191.3zm0 0.9h191.3zm0 0.9h191.3zm-2.7 0.9h196.8zm0 0.9h196.8zm0 0.9h196.7zm-2.7 0.9h202.2zm0 0.9h202.3zm0 1h202.2zm-5.5 0.9h213.2zm0 0.9h213.2zm0 0.9h213.2zm-2.8 0.9h218.7zm0 0.9h218.6zm0 0.9h218.6zm-2.7 1h224.1zm0 0.9h224.1zm0 0.9h224.1zm-2.7 0.9h229.5zm0 0.9h229.6zm0 0.9h229.6zm-2.8 0.9h235.1zm0 0.9h235zm0 1h235zm-5.4 0.9h245.9zm0 0.9h246zm0 0.9h246zm-2.8 0.9h246zm0 0.9h246zm0 0.9h245.9zm0 1h243.3zm0 0.9h243.2zm0 0.9h243.2zm-2.7 0.9h243.2zm0 0.9h243.3zm0 0.9h243.2zm-2.7 0.9h243.2zm0 0.9h243.2zm0 1h243.3zm-2.8 0.9h243.3zm0 0.9h243.2zm0 0.9h243.2zm-2.7 0.9h243.2zm0 0.9h243.3zm0 0.9h243.2zm-2.7 1h243.2zm0 0.9h243.2zm0 0.9h243.3zm0 0.9h240.5zm0 0.9h240.5zm0 0.9h240.5zm-2.8 0.9h240.5zm0 1h240.5zm0 0.9h240.5zm-2.7 0.9h240.5zm0 0.9h240.5zm0 0.9h240.5zm-2.7 0.9h240.5zm0 0.9h240.5zm0 0.9h240.5zm0 1h237.7zm0 0.9h237.8zm0 0.9h237.8zm-2.8 0.9h237.8zm0 0.9h237.8zm0 0.9h237.7zm0 0.9h235.1zm0 1h235zm0 0.9h235zm-2.7 0.9h235zm0 0.9h235.1zm0 0.9h235zm-2.7 0.9h235zm0 0.9h235zm0 0.9h235.1zm0 1h232.3zm0 0.9h232.3zm0 0.9h232.3zm-2.8 0.9h232.3zm0 0.9h232.3zm0 0.9h232.3zm0 0.9h229.6zm0 0.9h229.6zm0 1h229.5zm0 0.9h226.9zm0 0.9h226.8zm0 0.9h226.8zm-2.7 0.9h226.8zm0 0.9h226.9zm0 0.9h226.8zm0 1h224.1zm0 0.9h224.1zm0 0.9h224.1zm-2.7 0.9h224.1zm0 0.9h224.1zm0 0.9h224.1zm0 0.9h221.3zm0 0.9h221.4zm0 1h221.4zm0 0.9h218.6zm0 0.9h218.7zm0 0.9h218.6zm-2.7 0.9h218.6zm0 0.9h218.6zm0 0.9h218.7zm0 1h215.9zm0 0.9h215.9zm0 0.9h215.9zm0 0.9h213.1zm0 0.9h213.2zm0 0.9h213.2zm-2.7 0.9h213.1zm0 0.9h213.2zm0 1h213.2zm0 0.9h210.4zm0 0.9h210.4zm0 0.9h210.5zm0 0.9h207.7zm0 0.9h207.7zm0 0.9h207.7zm0 1h205zm0 0.9h204.9zm0 0.9h205zm-2.7 0.9h204.9zm0 0.9h205zm0 0.9h205zm0 0.9h202.2zm0 1h202.3zm0 0.9h202.2zm0 0.9h199.5zm0 0.9h199.5zm0 0.9h199.5zm0 0.9h196.8zm0 0.9h196.8zm0 0.9h196.7zm0 1h194.1zm0 0.9h194zm0 0.9h194zm0 0.9h191.4zm0 0.9h191.3zm0 0.9h191.3zm-2.8 0.9h191.3zm0 1h191.3zm0 0.9h191.3zm0 0.9h188.6zm0 0.9h188.6zm0 0.9h188.6zm0 0.9h185.8zm0 0.9h185.8zm0 0.9h185.9zm0 1h183.1zm0 0.9h183.1zm0 0.9h183.1zm0 0.9h180.4zm0 0.9h180.4zm0 0.9h180.3zm0 0.9h177.7zm0 0.9h177.6zm0 1h177.7zm0 0.9h174.9zm0 0.9h174.9zm0 0.9h174.9zm0 0.9h174.9zm0 0.9h174.9zm0 0.9h174.9zm0 1h177.7zm0 0.9h177.6zm0 0.9h177.6zm0 0.9h180.4zm0 0.9h180.4zm0 0.9h180.4zm0 0.9h183.1zm0 0.9h183.1zm0 1h183.1zm0 0.9h185.8zm0 0.9h185.9zm0 0.9h185.8zm0 0.9h188.6zm0 0.9h188.6zm0 0.9h188.5zm0 1h191.3zm0 0.9h191.3zm0 0.9h191.3zm2.8 0.9h191.3zm0 0.9h191.3zm0 0.9h191.3zm0 0.9h194zm0 0.9h194.1zm0 1h194zm0 0.9h196.8zm0 0.9h196.8zm0 0.9h196.7zm0 0.9h199.5zm0 0.9h199.5zm0 0.9h199.5zm0 1h202.3zm0 0.9h202.2zm0 0.9h202.3zm0 0.9h204.9zm0 0.9h205zm0 0.9h205zm2.7 0.9h205zm0 1h205zm0 0.9h204.9zm0 0.9h207.7zm0 0.9h207.7zm0 0.9h207.7zm0 0.9h210.5zm0 0.9h210.4zm0 0.9h210.4zm0 1h213.2zm0 0.9h213.2zm0 0.9h213.2zm2.7 0.9h213.2zm0 0.9h213.1zm0 0.9h213.2zm0 0.9h215.9zm0 1h215.9zm0 0.9h215.9zm0 0.9h218.6zm0 0.9h218.7zm0 0.9h218.6zm2.8 0.9h218.6zm0 0.9h218.6zm0 0.9h218.7zm0 1h221.3zm0 0.9h221.4zm0 0.9h221.4zm0 0.9h224.1zm0 0.9h224.1zm0 0.9h224.1zm2.7 0.9h224.1zm0 1h224.1zm0 0.9h224.1zm0 0.9h226.8zm0 0.9h226.9zm0 0.9h226.8zm2.7 0.9h226.9zm0 0.9h226.8zm0 0.9h226.8zm0 1h229.6zm0 0.9h229.6zm0 0.9h229.6zm0 0.9h232.3zm0 0.9h232.3zm0 0.9h232.3zm2.7 0.9h232.3zm0 1h232.3zm0 0.9h232.3zm0 0.9h235zm0 0.9h235.1zm0 0.9h235zm2.7 0.9h235.1zm0 0.9h235zm0 0.9h235zm2.8 1h235zm0 0.9h235zm0 0.9h235.1zm0 0.9h237.7zm0 0.9h237.8zm0 0.9h237.8zm2.7 0.9h237.8zm0 1h237.7zm0 0.9h237.8zm0 0.9h240.5zm0 0.9h240.5zm0 0.9h240.5zm2.7 0.9h240.5zm0 0.9h240.5zm0 0.9h240.5zm2.7 1h240.5zm0 0.9h240.5zm0 0.9h240.5zm2.8 0.9h240.5zm0 0.9h240.5zm0 0.9h240.5zm0 0.9h243.2zm0 1h243.2zm0 0.9h243.3zm2.7 0.9h243.2zm0 0.9h243.3zm0 0.9h243.2zm2.7 0.9h243.3zm0 0.9h243.2zm0 0.9h243.2zm2.8 1h243.2zm0 0.9h243.2zm0 0.9h243.3zm2.7 0.9h243.2zm0 0.9h243.3zm0 0.9h243.2zm2.7 0.9h243.3zm0 1h243.2zm0 0.9h243.2zm0 0.9h246zm0 0.9h246zm0 0.9h245.9zm2.8 0.9h245.9zm0 0.9h246zm0 0.9h246zm5.4 1h235.1zm0 0.9h235zm0 0.9h235zm2.8 0.9h229.5zm0 0.9h229.6zm0 0.9h229.6zm2.7 0.9h224.1zm0 1h224.1zm0 0.9h224.1zm2.7 0.9h218.7zm0 0.9h218.6zm0 0.9h218.6zm2.8 0.9h213.1zm0 0.9h213.2zm0 0.9h213.2zm5.4 1h202.3zm0 0.9h202.2zm0 0.9h202.3zm2.7 0.9h196.8zm0 0.9h196.7zm0 0.9h196.8zm2.7 0.9h191.3zm0 1h191.4zm0 0.9h191.3zm5.4 0.9h180.4zm0 0.9h180.4zm0 0.9h180.3zm5.5 0.9h169.5zm0 0.9h169.4zm0 0.9h169.4zm2.8 1h164zm0 0.9h163.9zm0 0.9h164zm5.5 0.9h153zm0 0.9h153.1zm0 0.9h153zm8.2 0.9h136.7zm0 1h136.6zm0 0.9h136.6zm5.5 0.9h125.7zm0 0.9h125.7zm0 0.9h125.8zm8.2 0.9h109.3zm0 0.9h109.3zm0 0.9h109.3zm8.2 1h92.9zm0 0.9h93zm0 0.9h92.9zm10.9 0.9h71.1zm0 0.9h71zm0 0.9h71.1zm16.4 0.9h38.2zm0 1h38.3zm0 0.9h38.3z"/>
	<path id="Layer" fill-rule="evenodd" class="s1" d="m230 222v2.7h16.4v2.8h11v2.7h8.2v2.8h8.2v2.7h5.4v2.7h8.2v2.8h5.5v2.7h2.7v2.8h5.5v2.7h5.5v2.7h2.7v2.8h2.7v2.7h5.5v2.8h2.7v2.7h2.8v2.7h2.7v2.8h2.7v2.7h5.5v2.8h-2.7v2.7h-2.8v2.7h-2.7v2.8h-2.7v2.7h-2.8v2.8h-2.7v2.7h-2.7v2.7h-2.8v2.8h-2.7v2.7h-2.7v2.8h-2.8v2.7h-2.7v2.7h-2.7v2.8h-2.8v2.7h-2.7v2.8h-2.7v2.7h-2.8v2.7h-2.7v2.8h-2.7v2.7h-2.8v2.8h-2.7v2.7h-2.7v2.7h-2.8v2.8h-2.7v2.7h-2.7v2.8h-2.8v2.7h-2.7v2.7h-2.7v2.8h-2.8v2.7h-2.7v2.8h-2.7v2.7h-2.8v2.7h-2.7v2.8h-2.7v2.7h-2.8v2.8h-2.7v2.7h-2.7v2.7h-2.8v2.8h-2.7v2.7h-2.7v2.8h-2.8v2.7h-2.7v2.7h-2.7v2.8h-2.8v2.7h-2.7v5.5h2.7v2.7h2.8v2.8h2.7v2.7h2.7v2.8h2.8v2.7h2.7v2.7h2.7v2.8h2.8v2.7h2.7v2.8h2.7v2.7h2.8v2.7h2.7v2.8h2.7v2.7h2.8v2.8h2.7v2.7h2.7v2.7h2.8v2.8h2.7v2.7h2.7v2.8h2.8v2.7h2.7v2.7h2.7v2.8h2.8v2.7h2.7v2.8h2.7v2.7h2.8v2.7h2.7v2.8h2.7v2.7h2.8v2.8h2.7v2.7h2.7v2.7h2.8v2.8h2.7v2.7h2.7v2.8h2.8v2.7h2.7v2.7h2.7v2.8h2.8v2.7h2.7v2.8h2.7v2.7h2.8v2.7h2.7v2.8h2.7v2.7h2.8v2.8h2.7v2.7h-5.5v2.7h-2.7v2.8h-2.7v2.7h-2.8v2.8h-2.7v2.7h-5.5v2.7h-2.7v2.8h-2.7v2.7h-5.5v2.8h-5.5v2.7h-2.7v2.7h-5.5v2.8h-8.2v2.7h-5.4v2.8h-8.2v2.7h-8.2v2.7h-11v2.8h-16.4v2.7h-38.2v-2.7h-16.4v-2.8h-11v-2.7h-8.1v-2.7h-8.2v-2.8h-5.5v-2.7h-8.2v-2.8h-5.5v-2.7h-2.7v-2.7h-5.5v-2.8h-5.4v-2.7h-2.8v-2.8h-2.7v-2.7h-5.5v-2.7h-2.7v-2.8h-2.7v-2.7h-2.8v-2.8h-2.7v-2.7h-5.5v-2.7h-2.7v-5.5h-2.7v-2.8h-2.8v-2.7h-2.7v-2.7h-2.7v-2.8h-2.8v-5.5h-2.7v-2.7h-2.7v-2.7h-2.8v-5.5h-2.7v-5.5h-2.7v-2.7h-2.8v-5.5h-2.7v-8.2h-2.7v-5.5h-2.8v-8.2h-2.7v-8.3h-2.7v-10.9h-2.8v-16.5h-2.7v-38.3h2.7v-16.5h2.8v-10.9h2.7v-8.2h2.7v-8.3h2.8v-5.4h2.7v-8.3h2.7v-5.4h2.8v-2.8h2.7v-5.5h2.7v-5.4h2.8v-2.8h2.7v-2.7h2.7v-5.5h2.8v-2.7h2.7v-2.8h2.7v-2.7h2.8v-2.8h2.7v-5.4h2.7v-2.8h5.5v-2.7h2.7v-2.8h2.8v-2.7h2.7v-2.7h2.7v-2.8h5.5v-2.7h2.7v-2.8h2.8v-2.7h5.4v-2.7h5.5v-2.8h2.7v-2.7h5.5v-2.8h8.2v-2.7h5.5v-2.7h8.2v-2.8h8.1v-2.7h11v-2.8h16.4v-2.7z"/>
	<path id="Layer" fill-rule="evenodd" class="s0" d="m331.2 274.5h5.4zm0 0.9h5.5zm0 0.9h5.5zm-2.8 1h8.2zm0 0.9h8.2zm0 0.9h8.2zm-2.7 0.9h13.7zm0 0.9h13.6zm0 0.9h13.7zm-2.8 0.9h19.2zm0 0.9h19.1zm0 1h19.1zm-2.7 0.9h24.6zm0 0.9h24.6zm0 0.9h24.6zm-2.7 0.9h30zm0 0.9h30.1zm0 0.9h30.1zm-2.8 1h35.6zm0 0.9h35.5zm0 0.9h35.5zm-2.7 0.9h38.2zm0 0.9h38.3zm0 0.9h38.3zm-2.8 0.9h43.8zm0 1h43.7zm0 0.9h43.7zm-2.7 0.9h49.2zm0 0.9h49.2zm0 0.9h49.2zm-2.8 0.9h54.7zm0 0.9h54.6zm0 0.9h54.7zm-2.7 1h57.4zm0 0.9h57.4zm0 0.9h57.3zm-2.7 0.9h62.9zm0 0.9h62.8zm0 0.9h62.9zm-2.7 0.9h65.5zm0 1h65.6zm0 0.9h65.6zm-2.7 0.9h71zm0 0.9h71.1zm0 0.9h71.1zm-2.8 0.9h76.5zm0 0.9h76.6zm0 0.9h76.5zm-2.7 1h79.2zm0 0.9h79.3zm0 0.9h79.2zm-2.7 0.9h84.7zm0 0.9h84.7zm0 0.9h84.8zm-2.8 0.9h87.5zm0 0.9h87.4zm0 1h87.5zm-2.8 0.9h90.2zm0 0.9h90.2zm0 0.9h90.2zm-2.7 0.9h95.6zm0 0.9h95.7zm0 0.9h95.6zm-2.7 1h98.4zm0 0.9h98.4zm0 0.9h98.4zm-2.8 0.9h103.9zm0 0.9h103.8zm0 0.9h103.9zm-2.7 0.9h106.5zm0 0.9h106.6zm0 1h106.6zm-2.7 0.9h109.3zm0 0.9h109.3zm0 0.9h109.3zm-2.7 0.9h114.8zm0 0.9h114.8zm0 0.9h114.7zm-2.7 1h117.5zm0 0.9h117.5zm0 0.9h117.6zm-2.8 0.9h120.3zm0 0.9h120.2zm0 0.9h120.3zm-2.8 0.9h125.8zm0 0.9h125.7zm0 1h125.7zm-2.7 0.9h128.4zm0 0.9h128.5zm0 0.9h128.4zm-2.7 0.9h131.2zm0 0.9h131.1zm0 0.9h131.2zm-2.7 1h133.9zm0 0.9h133.9zm0 0.9h133.9zm-2.7 0.9h139.4zm0 0.9h139.4zm0 0.9h139.3zm-2.7 0.9h142.1zm0 1h142.1zm0 0.9h142.1zm-2.7 0.9h144.9zm0 0.9h144.8zm0 0.9h144.9zm-2.8 0.9h147.6zm0 0.9h147.6zm0 0.9h147.6zm-2.8 1h150.3zm0 0.9h150.3zm0 0.9h150.4zm-2.8 0.9h153.1zm0 0.9h153zm0 0.9h153.1zm-2.8 0.9h158.5zm0 1h158.5zm0 0.9h158.6zm-2.8 0.9h161.3zm0 0.9h161.2zm0 0.9h161.3zm-2.8 0.9h164zm0 0.9h164zm0 0.9h164zm-2.8 1h166.7zm0 0.9h166.7zm0 0.9h166.8zm-2.8 0.9h169.5zm0 0.9h169.4zm0 0.9h169.4zm-2.7 0.9h172.2zm0 0.9h172.2zm0 1h172.1zm-2.7 0.9h174.9zm0 0.9h174.9zm0 0.9h174.9zm8.2 0.9h166.7zm0 0.9h166.8zm0 0.9h166.7zm13.6 1h153.1zm0 0.9h153zm0 0.9h153.1zm13.6 0.9h139.4zm0 0.9h139.4zm0 0.9h139.4zm16.4 0.9h123zm0 0.9h122.9zm0 1h123zm13.7 0.9h109.3zm0 0.9h109.3zm0 0.9h109.3zm13.7 0.9h95.7zm0 0.9h95.6zm0 0.9h95.7zm13.6 1h82zm0 0.9h82zm0 0.9h82zm13.7 0.9h65.5zm0 0.9h65.6zm0 0.9h65.6zm13.7 0.9h51.9zm0 0.9h51.9zm0 1h52zm16.4 0.9h35.5zm0 0.9h35.5zm0 0.9h35.6zm13.6 0.9h21.9zm0 0.9h21.8zm0 0.9h21.9zm13.7 1h8.2zm0 0.9h8.2zm0 0.9h8.2z"/>
	<path id="Layer" fill-rule="evenodd" class="s2" d="m336.6 274.1v5.4h2.8v2.8h2.7v2.7h2.7v2.8h2.8v2.7h2.7v5.5h2.7v2.7h2.8v2.8h2.7v5.4h2.7v5.5h2.8v2.8h2.7v5.4h2.7v8.3h2.8v5.4h2.7v8.3h2.7v8.2h2.8v10.9h2.7v16.5h2.7v38.3h-2.7v13.7h-8.2v-2.7h-13.7v-2.7h-13.6v-2.8h-16.4v-2.7h-13.7v-2.8h-13.7v-2.7h-13.6v-2.7h-13.7v-2.8h-13.7v-2.7h-16.4v-2.8h-13.6v-2.7h-13.7v-2.7h-8.2v-2.8h2.7v-2.7h2.8v-2.8h2.7v-2.7h2.7v-2.7h2.8v-2.8h2.7v-2.7h2.7v-2.8h2.8v-2.7h2.7v-2.7h2.7v-2.8h2.8v-2.7h2.7v-2.8h2.7v-2.7h2.8v-2.7h2.7v-2.8h2.7v-2.7h2.8v-2.8h2.7v-2.7h2.7v-2.7h2.8v-2.8h2.7v-2.7h2.7v-2.8h2.8v-2.7h2.7v-2.7h2.7v-2.8h2.8v-2.7h2.7v-2.8h2.7v-2.7h2.8v-2.7h2.7v-2.8h2.7v-2.7h2.8v-2.8h2.7v-2.7h2.7v-2.7h2.8v-2.8h2.7v-2.7h2.7v-2.8h2.8v-2.7h2.7v-2.7h2.7v-2.8h2.8v-2.7h2.7v-2.8h2.7v-2.7h2.8v-2.7z"/>
	<path id="Layer" fill-rule="evenodd" class="s0" d="m210.9 397.8h2.7zm0 0.9h2.8zm0 0.9h2.7zm2.7 1h2.8zm0 0.9h2.7zm0 0.9h2.7zm2.8 0.9h5.4zm0 0.9h5.5zm0 0.9h5.5zm2.7 0.9h5.5zm0 0.9h5.4zm0 1h5.5zm2.7 0.9h8.2zm0 0.9h8.2zm0 0.9h8.2zm2.8 0.9h8.2zm0 0.9h8.2zm0 0.9h8.2zm2.7 1h10.9zm0 0.9h11zm0 0.9h10.9zm2.7 0.9h11zm0 0.9h10.9zm0 0.9h10.9zm2.8 0.9h13.6zm0 0.9h13.7zm0 1h13.6zm2.8 0.9h13.6zm0 0.9h13.7zm0 0.9h13.7zm2.7 0.9h13.7zm0 0.9h13.6zm0 0.9h13.7zm2.7 1h16.4zm0 0.9h16.4zm0 0.9h16.4zm2.8 0.9h16.4zm0 0.9h16.3zm0 0.9h16.4zm2.8 0.9h19.1zm0 1h19.1zm0 0.9h19.2zm2.7 0.9h19.1zm0 0.9h19.2zm0 0.9h19.1zm2.7 0.9h19.2zm0 0.9h19.1zm0 0.9h19.1zm2.8 1h21.8zm0 0.9h21.9zm0 0.9h21.8zm2.8 0.9h21.8zm0 0.9h21.9zm0 0.9h21.9zm2.7 0.9h24.6zm0 0.9h24.6zm0 1h24.6zm2.7 0.9h24.6zm0 0.9h24.6zm0 0.9h24.6zm2.8 0.9h27.3zm0 0.9h27.3zm0 0.9h27.3zm2.8 1h27.3zm0 0.9h27.3zm0 0.9h27.4zm2.7 0.9h27.3zm0 0.9h27.4zm0 0.9h27.3zm2.7 0.9h30.1zm0 0.9h30zm0 1h30.1zm2.7 0.9h30.1zm0 0.9h30.1zm0 0.9h30zm2.8 0.9h32.8zm0 0.9h32.7zm0 0.9h32.8zm2.8 1h32.8zm0 0.9h32.8zm0 0.9h32.8zm2.7 0.9h32.8zm0 0.9h32.8zm0 0.9h32.8zm2.7 0.9h35.5zm0 0.9h35.6zm0 1h35.5zm2.7 0.9h35.6zm0 0.9h35.5zm0 0.9h35.5zm2.7 0.9h38.3zm0 0.9h38.3zm0 0.9h38.2zm2.8 1h38.2zm0 0.9h38.3zm0 0.9h38.2zm2.8 0.9h41zm0 0.9h41zm0 0.9h41zm2.7 0.9h41zm0 0.9h41zm0 1h41zm2.7 0.9h41zm0 0.9h41zm0 0.9h41zm2.7 0.9h43.8zm0 0.9h43.7zm0 0.9h43.7zm2.7 1h43.8zm0 0.9h43.7zm0 0.9h43.7zm2.8 0.9h38.2zm0 0.9h38.3zm0 0.9h38.2zm2.8 0.9h35.5zm0 1h35.5zm0 0.9h35.6zm2.7 0.9h30.1zm0 0.9h30zm0 0.9h30.1zm2.7 0.9h24.6zm0 0.9h24.6zm0 0.9h24.6zm2.7 1h19.2zm0 0.9h19.1zm0 0.9h19.1zm2.8 0.9h13.6zm0 0.9h13.7zm0 0.9h13.7zm2.7 0.9h8.2zm0 0.9h8.2zm0 1h8.2zm2.7 0.9h5.5zm0 0.9h5.5zm0 0.9h5.4z"/>
	<path id="Layer" fill-rule="evenodd" class="s3" d="m210.9 397.4v2.7h2.7v-2.7zm5.5 2.7h-2.7v2.7h2.7zm0 2.8v2.7h2.7v2.8h2.8v2.7h2.7v2.7h2.7v2.8h2.8v2.7h2.7v2.8h2.7v2.7h2.8v2.7h2.7v2.8h2.7v2.7h2.8v2.8h2.7v2.7h2.7v2.7h2.8v2.8h2.7v2.7h2.7v2.8h2.8v2.7h2.7v2.7h2.7v2.8h2.8v2.7h2.7v2.8h2.7v2.7h2.8v2.7h2.7v2.8h2.7v2.7h2.8v2.8h2.7v2.7h2.7v2.7h2.8v2.8h2.7v2.7h2.7v2.8h2.8v2.7h2.7v2.7h2.7v2.8h2.8v2.7h2.7v2.8h2.7v2.7h2.8v2.7h2.7v2.8h2.7v2.7h2.8v2.8h2.7v2.7h5.5v-5.5h2.7v-2.7h2.7v-2.8h2.8v-2.7h2.7v-2.7h2.7v-5.5h2.8v-2.8h-2.8v-2.7h-5.4v-2.7h-2.8v-2.8h-2.7v-2.7h-5.5v-2.8h-2.7v-2.7h-5.5v-2.7h-2.7v-2.8h-5.5v-2.7h-2.7v-2.8h-2.7v-2.7h-5.5v-2.7h-2.7v-2.8h-5.5v-2.7h-2.7v-2.8h-2.8v-2.7h-5.4v-2.7h-2.8v-2.8h-5.4v-2.7h-2.8v-2.8h-5.4v-2.7h-2.8v-2.7h-2.7v-2.8h-5.5v-2.7h-2.7v-2.8h-5.5v-2.7h-2.7v-2.7h-2.7v-2.8h-5.5v-2.7h-2.7v-2.8h-5.5v-2.7h-2.7v-2.7h-5.5v-2.8h-2.7v-2.7z"/>
	<path id="Layer" fill-rule="evenodd" class="s0" d="m213.6 397.8h5.5zm0 0.9h5.5zm0 0.9h5.4zm2.8 1h16.4zm0 0.9h16.4zm0 0.9h16.4zm5.4 0.9h24.6zm0 0.9h24.6zm0 0.9h24.6zm2.8 0.9h38.2zm0 0.9h38.3zm0 1h38.2zm5.5 0.9h46.5zm0 0.9h46.4zm0 0.9h46.5zm2.7 0.9h57.4zm0 0.9h57.4zm0 0.9h57.4zm5.5 1h65.5zm0 0.9h65.6zm0 0.9h65.6zm2.8 0.9h76.5zm0 0.9h76.5zm0 0.9h76.5zm5.5 0.9h84.7zm0 0.9h84.7zm0 1h84.8zm2.7 0.9h98.4zm0 0.9h98.4zm0 0.9h98.4zm2.7 0.9h109.3zm0 0.9h109.3zm0 0.9h109.3zm5.5 1h117.5zm0 0.9h117.5zm0 0.9h117.6zm2.7 0.9h123zm0 0.9h123zm0 0.9h122.9zm5.5 0.9h114.8zm0 1h114.8zm0 0.9h114.8zm2.7 0.9h112zm0 0.9h112.1zm0 0.9h112zm2.8 0.9h109.3zm0 0.9h109.3zm0 0.9h109.3zm5.5 1h103.8zm0 0.9h103.9zm0 0.9h103.8zm2.8 0.9h98.4zm0 0.9h98.3zm0 0.9h98.4zm5.5 0.9h92.9zm0 0.9h92.9zm0 1h93zm2.7 0.9h90.2zm0 0.9h90.2zm0 0.9h90.1zm5.5 0.9h82zm0 0.9h82zm0 0.9h82zm2.7 1h79.3zm0 0.9h79.2zm0 0.9h79.3zm2.7 0.9h76.5zm0 0.9h76.6zm0 0.9h76.5zm5.5 0.9h68.3zm0 0.9h68.3zm0 1h68.3zm2.8 0.9h65.5zm0 0.9h65.6zm0 0.9h65.6zm5.5 0.9h57.4zm0 0.9h57.4zm0 0.9h57.4zm2.7 1h54.7zm0 0.9h54.6zm0 0.9h54.7zm2.7 0.9h51.9zm0 0.9h52zm0 0.9h51.9zm5.5 0.9h43.7zm0 0.9h43.7zm0 1h43.7zm2.8 0.9h41zm0 0.9h41zm0 0.9h41zm5.4 0.9h32.8zm0 0.9h32.8zm0 0.9h32.8zm2.7 1h27.4zm0 0.9h27.3zm0 0.9h27.3zm5.5 0.9h21.9zm0 0.9h21.8zm0 0.9h21.9zm2.7 0.9h16.4zm0 0.9h16.4zm0 1h16.4zm2.8 0.9h13.6zm0 0.9h13.7zm0 0.9h13.6zm5.5 0.9h5.5zm0 0.9h5.4zm0 0.9h5.5z"/>
	<path id="Layer" fill-rule="evenodd" class="s4" d="m219.1 397.4v2.7h13.7v2.7h13.6v2.8h16.4v2.7h13.7v2.8h13.7v2.7h13.6v2.7h13.7v2.8h13.7v2.7h16.4v2.8h13.6v2.7h13.7v2.7h8.2v2.8h-2.7v10.9h-2.8v8.3h-2.7v8.2h-2.7v5.5h-2.8v8.2h-2.7v5.5h-2.7v2.7h-2.8v5.5h-2.7v5.5h-2.7v2.7h-5.5v-2.7h-5.5v-2.8h-2.7v-2.7h-2.7v-2.8h-5.5v-2.7h-2.7v-2.7h-5.5v-2.8h-2.7v-2.7h-5.5v-2.8h-2.7v-2.7h-2.8v-2.7h-5.4v-2.8h-2.8v-2.7h-5.4v-2.8h-2.8v-2.7h-2.7v-2.7h-5.5v-2.8h-2.7v-2.7h-5.5v-2.8h-2.7v-2.7h-5.5v-2.7h-2.7v-2.8h-2.7v-2.7h-5.5v-2.8h-2.7v-2.7h-5.5v-2.7h-2.7v-2.8h-2.8v-2.7h-5.4v-2.8h-2.8v-2.7h-5.4v-2.7h-2.8v-2.8h-5.4v-2.7h-2.8v-2.8h-5.4v-2.7h-2.8v-2.7z"/>
	<g id="Clip-Path" clip-path="url(#cp1)">
		<g id="Layer">
			<path id="Layer" fill-rule="evenodd" class="s0" d="m339.4 92l5 2.5zm-0.3 0.9l5 2.5zm-0.4 0.9l5 2.5zm-2.9-0.3l2.5 1.2zm5.1 2.5l2.5 1.3zm-5.4-1.6l2.5 1.2zm5 2.5l2.5 1.3zm-5.4-1.6l2.5 1.2zm5.1 2.5l2.5 1.3zm-8-2.9l2.5 1.3zm5.1 2.5l5 2.5zm27.7 13.8l5 2.5zm-33.1-15.4l2.5 1.2zm5.1 2.6l5 2.5zm27.7 13.8l5 2.5zm-33.1-15.4l2.5 1.2zm5.1 2.5l5 2.5zm27.7 13.8l5 2.5zm-35.6-16.6l2.5 1.2zm5 2.5l2.5 1.3zm5.1 2.5l2.5 1.2zm22.6 11.3l2.6 1.3zm5 2.5l2.5 1.2zm-38.1-17.9l2.5 1.3zm5 2.5l2.5 1.3zm5.1 2.5l2.5 1.2zm22.6 11.3l2.5 1.2zm5.1 2.6l2.5 1.2zm-38.1-17.9l2.5 1.3zm5 2.5l2.5 1.2zm5.1 2.5l2.5 1.3zm22.6 11.3l2.5 1.2zm5.1 2.5l2.5 1.3zm-40.7-19.2l2.5 1.3zm5.1 2.5l2.5 1.2zm7.5 3.8l2.6 1.2zm20.1 10.1l2.5 1.2zm5 2.5l5.1 2.5zm-38.2-17.9l2.6 1.3zm5 2.5l2.5 1.3zm7.5 3.7l2.6 1.3zm20.1 10l2.5 1.3zm5 2.5l5.1 2.5zm-38.2-17.9l2.6 1.2zm5 2.5l2.5 1.3zm7.6 3.7l2.5 1.3zm20.1 10l2.5 1.3zm5 2.5l5.1 2.5zm-38.2-17.9l2.6 1.2zm5 2.5l2.5 1.3zm5 2.5l2.6 1.3zm20.1 10l2.5 1.2zm5 2.5l2.5 1.3zm5.1 2.5l2.5 1.3zm-40.6-19.2l2.5 1.3zm5 2.5l2.5 1.2zm5 2.5l2.6 1.3zm20.1 10l2.5 1.3zm5 2.5l2.6 1.2zm5 2.5l2.5 1.3zm-40.6-19.2l2.5 1.3zm5 2.5l2.5 1.2zm5.1 2.5l2.5 1.3zm20.1 10l2.5 1.3zm5 2.5l2.6 1.2zm5 2.5l2.5 1.3zm-43.2-20.4l2.6 1.2zm5 2.5l2.5 1.3zm7.6 3.8l2.5 1.2zm17.6 8.8l2.5 1.2zm5 2.5l2.5 1.3zm7.6 3.8l2.5 1.2zm-43.1-20.4l2.5 1.3zm5 2.5l2.5 1.2zm7.6 3.8l2.5 1.2zm17.6 8.8l2.5 1.3zm5 2.5l2.6 1.2zm7.5 3.8l2.5 1.2zm-43.1-20.4l2.5 1.3zm5 2.5l2.5 1.2zm7.6 3.8l2.5 1.2zm17.6 8.8l2.5 1.3zm5 2.5l2.6 1.2zm7.5 3.8l2.5 1.3zm-43.1-20.5l2.5 1.3zm5 2.5l2.5 1.3zm7.6 3.7l2.5 1.3zm17.6 8.7l2.5 1.3zm5 2.5l2.6 1.3zm5 2.5l2.5 1.2zm-40.6-19.1l2.5 1.2zm5 2.5l2.5 1.3zm7.6 3.7l2.5 1.3zm17.6 8.8l2.5 1.2zm5 2.5l2.6 1.3zm5 2.5l2.5 1.2zm-40.6-19.1l2.5 1.2zm5 2.5l2.5 1.3zm7.6 3.8l2.5 1.2zm17.6 8.8l2.5 1.2zm5.1 2.5l2.5 1.3zm5 2.5l2.5 1.3zm-43.1-20.5l2.5 1.3zm5 2.5l2.5 1.3zm7.6 3.7l2.5 1.3zm17.6 8.8l2.5 1.2zm5 2.5l2.6 1.3zm7.5 3.7l2.5 1.3zm-43.1-20.4l2.5 1.2zm5 2.5l2.5 1.3zm7.6 3.7l2.5 1.3zm17.6 8.8l2.5 1.2zm5 2.5l2.6 1.3zm7.5 3.7l2.5 1.3zm-43.1-20.4l2.5 1.2zm5 2.5l2.5 1.3zm7.6 3.8l2.5 1.2zm17.6 8.8l2.5 1.2zm5.1 2.6l2.5 1.2zm7.5 3.8l2.5 1.2zm-45.6-21.6l2.5 1.2zm7.5 3.8l2.5 1.2zm7.6 3.8l2.5 1.2zm17.6 8.8l2.5 1.3zm5.1 2.5l2.5 1.2zm7.5 3.8l2.5 1.2zm-45.6-21.6l2.5 1.2zm7.5 3.8l2.5 1.2zm7.6 3.8l2.5 1.3zm17.6 8.7l2.5 1.3zm5.1 2.5l2.5 1.2zm7.5 3.8l2.5 1.3zm-45.6-21.7l2.5 1.2zm7.5 3.8l2.5 1.3zm7.6 3.7l2.5 1.3zm17.6 8.8l2.5 1.2zm5.1 2.5l2.5 1.3zm7.5 3.7l2.5 1.3zm-45.6-21.7l2.5 1.3zm5 2.5l2.5 1.2zm12.6 6.3l2.5 1.3zm12.6 6.2l2.5 1.3zm5.1 2.5l2.5 1.2zm7.5 3.8l2.5 1.2zm-43.1-20.4l2.5 1.3zm5 2.5l2.5 1.2zm12.6 6.3l2.5 1.3zm12.6 6.2l2.5 1.3zm5.1 2.5l2.5 1.3zm7.5 3.7l2.5 1.3zm-43.1-20.4l2.5 1.2zm5 2.5l2.5 1.3zm12.6 6.2l2.5 1.3zm12.6 6.3l2.5 1.2zm5.1 2.5l2.5 1.3zm7.5 3.7l2.5 1.3zm-43.1-20.4l2.5 1.2zm5 2.5l2.5 1.3zm10.1 5l2.5 1.3zm12.6 6.2l2.5 1.3zm7.6 3.7l2.5 1.3zm7.5 3.8l2.6 1.2zm-43.2-20.4l2.5 1.2zm5 2.6l2.6 1.2zm10 5l2.5 1.3zm12.6 6.2l2.5 1.3zm7.6 3.8l2.5 1.2zm7.5 3.8l2.6 1.2zm-43.2-20.4l2.5 1.3zm5 2.5l2.6 1.2zm10 5l2.5 1.3zm12.6 6.3l2.5 1.2zm7.6 3.8l2.5 1.2zm7.5 3.8l2.6 1.2zm-43.2-20.4l2.5 1.3zm5.1 2.5l2.5 1.2zm12.5 6.3l2.6 1.3zm10 5l2.5 1.2zm5.1 2.5l2.5 1.3zm12.6 6.3l2.5 1.2zm-45.7-21.6l2.5 1.2zm5.1 2.5l2.5 1.3zm12.5 6.2l2.6 1.3zm10 5l2.5 1.3zm5.1 2.5l2.5 1.2zm12.6 6.3l2.5 1.2zm-45.7-21.6l2.5 1.2zm5.1 2.5l2.5 1.3zm12.6 6.3l2.5 1.2zm10 5l2.5 1.3zm5.1 2.5l2.5 1.2zm12.6 6.3l2.5 1.3zm-45.7-21.7l2.5 1.2zm5.1 2.6l2.5 1.2zm10 5l2.6 1.3zm-1.2 2.7l15.1 7.5zm13.7 3.6l2.5 1.2zm5.1 2.5l2.5 1.3zm10.1 5l2.5 1.3zm-43.2-20.5l2.5 1.3zm5.1 2.5l2.5 1.3zm10 5l2.6 1.2zm-1.2 2.7l15.1 7.5zm13.7 3.6l2.5 1.3zm5.1 2.5l2.5 1.2zm10.1 5l2.5 1.3zm-43.2-20.4l2.5 1.2zm5.1 2.5l2.5 1.3zm10 5l2.6 1.3zm-1.2 2.7l15.1 7.5zm13.7 3.6l2.5 1.2zm5.1 2.5l2.5 1.3zm10.1 5l2.5 1.2zm-40.7-19.1l2.5 1.2zm5.1 2.5l2.5 1.3zm16.3 4.8l2.5 1.3zm8.9 7.7l2.5 1.2zm12.6 6.3l2.5 1.3zm-43.2-20.5l2.5 1.3zm5.1 2.5l2.5 1.3zm16.2 4.8l2.6 1.2zm8.9 7.7l2.5 1.3zm12.6 6.3l2.5 1.2zm-43.2-20.4l2.5 1.3zm5.1 2.5l2.5 1.2zm16.2 4.9l2.6 1.2zm8.8 7.7l2.6 1.3zm12.5 6.2l2.6 1.3zm-43.2-20.4l2.5 1.2zm7.6 3.8l7.5 3.8zm10.1 5l5 2.5zm7.6 3.7l7.5 3.8zm15.1 7.5l2.5 1.3zm-40.6-19.2l2.5 1.3zm7.5 3.7l7.6 3.8zm10 5l5.1 2.5zm7.5 3.8l7.6 3.7zm15.1 7.6l2.5 1.2zm-40.7-19.2l2.6 1.3zm7.5 3.8l7.5 3.7zm10.1 5l5 2.5zm7.6 3.8l7.5 3.8zm15.1 7.5l2.5 1.2zm-38.1-17.9l2.5 1.3zm5.1 2.5l2.5 1.2zm5 2.6l2.5 1.2zm15.1 7.5l2.5 1.3zm5.1 2.5l2.5 1.2zm5 2.6l2.5 1.2zm-35.6-16.6l2.5 1.2zm5.1 2.5l2.5 1.3zm5 2.5l2.5 1.2zm15.1 7.6l2.5 1.2zm5.1 2.5l2.5 1.3zm5 2.5l2.5 1.2zm-35.6-16.6l2.5 1.2zm5.1 2.5l2.5 1.3zm5 2.5l2.5 1.2zm15.1 7.6l2.5 1.2zm5.1 2.5l2.5 1.3zm5 2.5l2.5 1.2zm-33.1-15.4l2.6 1.3zm30.2 15l2.5 1.3zm-30.6-14.1l2.5 1.2zm30.2 15.1l2.5 1.2zm-30.6-14.1l2.5 1.2zm30.2 15.1l2.6 1.2zm-30.6-14.1l2.5 1.2zm5 2.5l5.1 2.5zm22.6 11.3l5 2.5zm-28-12.9l2.5 1.3zm5 2.5l5 2.5zm22.7 11.3l5 2.5zm-28-12.9l2.5 1.2zm5 2.6l5 2.5zm22.7 11.2l5 2.6zm-30.6-14.2l2.5 1.3zm12.6 6.2l5.1 2.5zm12.5 6.3l5.1 2.5zm10 5l2.5 1.3zm-35.6-16.7l2.5 1.3zm12.6 6.2l5.1 2.6zm12.5 6.2l5.1 2.5zm10 5l2.5 1.3zm-35.6-16.7l2.6 1.3zm9.6 5.9l10.1 5zm12.6 6.3l10 5zm13 5.4l2.5 1.2zm-35.6-16.6l2.5 1.2zm13 5.4l5 2.5zm12.6 6.3l5 2.5zm9.7 5.9l2.5 1.3zm-35.6-16.7l2.5 1.3zm10.1 5l10.1 5zm12.5 6.3l10.1 5zm12.6 6.2l2.5 1.3zm-35.6-16.7l2.5 1.3zm10.1 5l10 5zm12.6 6.3l10.1 5zm12.5 6.3l2.6 1.2zm-35.7-16.6l2.6 1.2zm7.5 3.8l2.5 1.2zm7.6 3.8l12.5 6.3zm17.7 8.7l5 2.6zm-33.1-15.4l2.5 1.2zm7.6 3.8l2.5 1.2zm7.5 3.8l12.6 6.3zm17.6 8.7l5 2.5zm-33.1-15.4l2.6 1.3zm7.5 3.8l2.5 1.2zm7.6 3.8l12.6 6.2zm17.6 8.8l5 2.5zm-33.1-15.4l5 2.5zm7.6 3.8l2.5 1.2zm10.1 5.1l10 5zm17.6 8.7l2.5 1.3zm-35.6-16.7l5.1 2.6zm7.5 3.7l2.5 1.3zm10.1 5l10.1 5zm17.6 8.8l2.5 1.2zm-35.6-16.6l5 2.5zm7.6 3.7l2.5 1.3zm10 5l10.1 5zm17.6 8.8l2.5 1.3zm-35.6-16.7l7.6 3.8zm20.1 10l5 2.5zm15.1 7.5l2.5 1.3zm-35.6-16.7l7.6 3.8zm20.1 10l5 2.5zm15.1 7.5l2.5 1.3zm-35.6-16.7l7.6 3.8zm20.1 10l5 2.5zm15.1 7.6l2.5 1.2zm-35.6-16.6l7.6 3.7zm20.1 10l5 2.6zm15.1 7.5l2.5 1.2zm-35.6-16.6l7.6 3.7zm20.1 10.1l5 2.5zm15.1 7.5l2.5 1.2zm-35.6-16.6l7.6 3.8zm20.1 10l5 2.5zm15.1 7.5l2.5 1.3zm-35.6-16.7l5.1 2.5zm10 5l5.1 2.5zm12.5 6.3l5.1 2.5zm12.6 6.3l2.5 1.2zm-41.5-17.3l12.6 6.2zm15.9 5.8l5 2.5zm12.6 6.2l5 2.6zm12.6 6.2l2.5 1.3zm-41.4-17.4l12.6 6.3zm15.9 5.7l5 2.5zm12.6 6.3l5 2.5zm12.6 6.3l2.5 1.2zm-34.8-18.4l5 2.5zm9.3 6.8l5 2.5zm12.6 6.3l5 2.5zm12.6 6.2l7.6 3.8zm-34.9-18.5l5.1 2.6zm9.2 6.8l5.1 2.5zm0.5 5.7l20.2 10zm24.6 6.8l7.5 3.8zm-40.6-19.2l12.5 6.3zm15.1 7.5l5.1 2.5zm0.5 5.8l20.2 10zm24.6 6.8l7.5 3.8zm-45.7-21.7l5.1 2.5zm15.1 7.5l7.5 3.8zm27.7 13.8l2.5 1.2zm10.1 5l5 2.6zm-53.2-25.5l5 2.5zm15.1 7.6l7.5 3.7zm27.7 13.8l2.5 1.3zm10.1 5l5 2.5zm-53.2-25.5l5 2.6zm15.1 7.5l7.6 3.7zm27.6 13.8l2.6 1.3zm10 5l5.1 2.5zm-55.8-26.7l2.5 1.3zm37.2 13l5 2.5zm23.2 17.1l2.6 1.2zm-60.8-29.2l2.5 1.3zm37.2 13.1l5 2.5zm23.2 17l2.5 1.2zm-60.7-29.2l2.5 1.3zm25.1 12.5l20.2 10.1zm35.2 17.5l2.5 1.3zm-63.3-30.5l2.5 1.3zm65.4 32.6l2.6 1.2zm-65.8-31.7l2.5 1.3zm65.4 32.6l2.5 1.2zm-65.8-31.7l2.5 1.3zm65.4 32.6l2.5 1.2zm-65.8-31.7l2.6 1.3zm10 5l7.6 3.8zm42.7 21.3l7.6 3.8zm12.6 6.2l2.5 1.3zm-65.8-31.7l2.5 1.2zm10.1 5l7.5 3.8zm42.8 21.3l7.5 3.8zm12.6 6.2l2.5 1.3zm-65.8-31.7l2.5 1.3zm10.1 5l7.5 3.7zm42.8 21.3l7.6 3.8zm12.5 6.3l2.6 1.2zm-65.8-31.7l2.5 1.3zm12.6 6.3l2.5 1.2zm42.7 21.3l2.6 1.3zm10 5l2.5 1.2zm-65.8-31.7l2.5 1.3zm12.6 6.3l2.5 1.2zm42.8 21.3l2.5 1.3zm10.1 5l2.5 1.3zm-65.8-31.7l2.5 1.2zm12.6 6.3l2.5 1.2zm42.8 21.3l2.5 1.3zm10.1 5l2.5 1.3zm-65.8-31.7l2.5 1.2zm15.1 7.5l12.6 6.3zm32.7 16.3l7.5 3.8zm17.6 8.7l2.5 1.3zm-65.8-31.7l2.6 1.3zm3 7l25.2 12.5zm44.7 16.8l7.6 3.8zm17.6 8.7l2.5 1.3zm-65.8-31.7l2.5 1.3zm3.1 7l25.1 12.5zm44.8 16.8l7.5 3.8zm17.6 8.7l2.5 1.3zm-63.2-30.4l2.5 1.2zm0.5 5.8l25.2 12.5zm44.7 16.8l2.5 1.3zm15.1 7.5l2.5 1.2zm-60.7-29.1l2.5 1.2zm22.6 11.3l2.5 1.2zm22.7 11.3l2.5 1.3zm15.1 7.5l2.5 1.3zm-60.8-29.2l2.6 1.2zm22.6 11.3l2.5 1.3zm22.7 11.2l2.5 1.3zm15.1 7.5l2.5 1.3zm-46.3-27.4l12.6 6.2zm20.7 15.8l7.6 3.8zm10 5l15.1 7.5zm-31.1-19.9l12.6 6.3zm20.6 15.8l7.6 3.7zm10.1 5l15.1 7.5zm-21.1-14.8l2.5 1.2zm10.6 10.8l7.6 3.7zm10 5.1l15.1 7.5zm-23-10.4l7.5 3.8zm12.6 6.2l12.6 6.3zm-13-5.4l7.6 3.8zm12.5 6.3l12.6 6.2zm-12.9-5.3l7.5 3.7zm12.6 6.3l12.6 6.3zm-35.6-16.7l2.5 1.3zm20.1 10l2.5 1.2zm5 2.5l7.6 3.8zm10.1 5l5 2.5zm10 5l2.6 1.3zm-45.7-21.7l2.5 1.3zm20.1 10l2.5 1.3zm5.1 2.5l7.5 3.7zm10.1 5l5 2.6zm10.1 5l2.5 1.2zm-45.7-21.6l2.5 1.2zm20.2 10l2.5 1.3zm5 2.5l7.6 3.8zm7.1 4.6l15.1 7.5zm13 5.4l2.5 1.3zm-50.7-24.2l2.5 1.2zm5 2.5l5.1 2.6zm17.6 8.7l2.5 1.3zm5 2.5l2.5 1.2zm13 5.4l5 2.5zm-41-18.2l2.5 1.2zm5.1 2.5l5 2.5zm17.6 8.8l2.5 1.3zm5.1 2.5l2.5 1.2zm10 5l15.1 7.6zm-38.1-18l2.5 1.3zm5 2.5l5.1 2.5zm17.6 8.8l2.5 1.2zm5 2.5l2.6 1.3zm10 5l15.1 7.5zm-38.1-17.9l7.5 3.8zm10.1 5l2.5 1.3zm5 2.5l2.6 1.2zm5 2.5l2.5 1.3zm5 2.5l2.6 1.2zm17.6 8.8l7.5 3.8zm-43.2-20.4l7.6 3.7zm10.1 5l2.5 1.3zm5 2.5l2.5 1.3zm5.1 2.5l2.5 1.2zm5 2.5l2.5 1.3zm17.6 8.8l7.6 3.7zm-43.2-20.4l7.6 3.8zm10 5l2.5 1.2zm5.1 2.5l2.5 1.3zm5 2.5l2.5 1.3zm5.1 2.5l2.5 1.2zm17.6 8.8l7.5 3.7zm-43.1-20.4l2.5 1.3zm7.5 3.7l2.6 1.3zm5 2.5l2.5 1.3zm5 2.5l2.6 1.2zm5 2.5l5 2.5zm25.2 12.6l2.5 1.2zm-48.2-22.9l2.5 1.3zm7.6 3.7l2.5 1.3zm5 2.5l2.5 1.2zm5.1 2.5l2.5 1.3zm5 2.5l5 2.5zm25.2 12.5l2.5 1.3zm-48.2-22.9l2.5 1.2zm7.6 3.8l2.5 1.2zm5 2.6l2.6 1.2zm5 2.5l2.5 1.3zm5 2.5l5.1 2.5zm25.1 12.5l2.5 1.3zm-45.6-21.7l2.5 1.3zm12.6 6.2l5 2.5zm7.5 3.8l5.1 2.5zm25.1 12.5l2.5 1.3zm-45.6-21.7l2.5 1.3zm12.6 6.2l5 2.6zm7.5 3.7l5.1 2.5zm25.1 12.6l2.5 1.2zm-45.6-21.7l2.5 1.3zm12.6 6.3l5 2.5zm7.5 3.7l5.1 2.5zm25.1 12.6l2.6 1.2zm-43.2-20.4l2.5 1.3zm15.1 7.5l2.5 1.2zm5.1 2.6l2.5 1.2zm20.1 10l2.5 1.3zm5 2.5l5.1 2.5zm-45.7-21.7l2.5 1.3zm15.1 7.5l2.5 1.3zm5.1 2.5l2.5 1.2zm20.1 10.1l2.5 1.2zm5 2.5l5.1 2.5zm-45.7-21.6l2.5 1.2zm15.1 7.5l2.5 1.3zm5.1 2.5l2.5 1.2zm20.1 10.1l2.5 1.2zm5.1 2.5l5 2.5zm-43.2-20.4l2.5 1.3zm7.6 3.7l5 2.6zm7.6 3.7l2.5 1.3zm5 2.5l2.5 1.2zm17.6 8.8l5.1 2.5zm7.5 3.8l7.6 3.7zm-45.7-21.6l2.5 1.2zm7.6 3.8l5 2.5zm7.5 3.7l2.6 1.3zm5 2.5l2.5 1.3zm17.6 8.7l5 2.5zm7.6 3.8l7.5 3.8zm-45.6-21.7l2.5 1.3zm7.5 3.7l5.1 2.5zm4.6 3.4l7.5 3.8zm8 2.9l2.5 1.2zm17.6 8.8l5 2.5zm7.6 3.7l7.5 3.8zm-43.1-20.4l7.5 3.8zm13 5.3l2.5 1.3zm7.2 4.6l2.5 1.3zm15.1 7.5l2.5 1.3zm5 2.5l5.1 2.5zm7.5 3.7l2.5 1.3zm-48.2-22.9l7.6 3.7zm10 5.1l7.6 3.7zm10 5l2.6 1.3zm15.1 7.5l2.5 1.3zm5 2.5l5 2.5zm7.6 3.7l2.5 1.3zm-48.2-22.9l7.6 3.7zm10 5l7.6 3.8zm10 5l2.5 1.3zm15.1 7.5l2.6 1.3zm5 2.5l5 2.5zm7.6 3.7l2.5 1.3zm-48.2-22.9l2.5 1.2zm5 2.5l5.1 2.5zm7.5 3.8l2.5 1.2zm7.6 3.8l2.5 1.3zm15.1 7.5l5 2.5zm10.1 5l2.5 1.3zm-45.7-21.7l2.5 1.2zm5.1 2.5l5 2.6zm7.6 3.7l2.5 1.3zm7.5 3.7l2.5 1.3zm15.1 7.5l5.1 2.5zm10 5l2.5 1.3zm-45.6-21.7l2.5 1.3zm5 2.5l5 2.5zm7.6 3.7l2.5 1.3zm7.6 3.8l2.5 1.2zm15.1 7.5l5 2.5zm10.1 5.1l2.5 1.2zm-43.2-20.4l2.5 1.3zm7.6 3.7l2.5 1.3zm7.5 3.7l2.6 1.3zm17.6 8.8l2.5 1.2zm7.5 3.8l2.6 1.2zm-40.7-19.1l2.5 1.2zm7.6 3.8l2.5 1.2zm7.5 3.8l2.6 1.2zm17.6 8.8l2.5 1.3zm7.5 3.7l2.5 1.3zm-40.6-19.2l2.5 1.3zm7.6 3.7l2.5 1.3zm7.5 3.8l2.5 1.2zm17.6 8.8l2.6 1.2zm7.5 3.8l2.5 1.3zm-38.1-18l2.5 1.3zm10.1 5l5 2.5zm10.1 5l7.5 3.8zm10.1 5l7.5 3.8zm-30.5-14.2l2.5 1.3zm10 5l5.1 2.5zm10 5l7.6 3.8zm10 5l7.6 3.8zm-30.6-14.2l2.5 1.3zm10.1 5l5 2.5zm10.1 5l7.5 3.8zm10.1 5l7.5 3.7zm-28-12.9l7.5 3.8zm10.1 5l2.5 1.3zm5 2.5l2.5 1.2zm7.6 3.8l2.5 1.2zm5 2.6l2.6 1.2zm-28.1-12.9l7.5 3.8zm10.1 5l2.5 1.2zm5.1 2.6l2.5 1.2zm7.5 3.8l2.5 1.2zm5.1 2.5l2.5 1.3zm-28.1-12.9l7.6 3.8zm10 5l2.5 1.2zm5.1 2.5l2.5 1.3zm7.5 3.7l2.6 1.3zm5 2.5l2.5 1.3zm-18-7.9l2.5 1.2zm5 2.5l2.6 1.3zm7.5 3.8l2.5 1.2zm5.1 2.5l2.5 1.3zm-18-7.9l2.5 1.2zm5 2.6l2.5 1.2zm7.6 3.8l2.5 1.2zm5 2.5l2.5 1.3zm-18-7.9l2.6 1.3zm5 2.5l2.5 1.2zm7.6 3.8l2.5 1.2zm5 2.5l2.5 1.3zm-18-7.9l2.5 1.3zm5.1 2.5l2.5 1.2zm7.5 3.8l2.5 1.2zm5.1 2.6l2.5 1.2zm-18-7.9l2.5 1.3zm5 2.5l2.6 1.2zm7.5 3.8l2.5 1.3zm5.1 2.5l2.5 1.2zm-18-7.9l2.5 1.3zm5 2.5l2.5 1.3zm7.6 3.7l2.5 1.3zm5 2.5l2.5 1.2zm-43.1-20.4l12.6 6.3zm-12.3 7l40.3 20.1zm42.4 8l2.5 1.2zm10.1 5.1l2.5 1.2zm5 2.5l2.5 1.3zm15.1 7.5l12.6 6.3zm-60.8-29.2l12.6 6.2zm-12.2 7.1l40.2 20zm42.5 8l2.5 1.3zm10 5l2.6 1.3zm5 2.5l2.5 1.2zm-9.3 7.4l40.2 20.1zm-36.3-29.1l12.6 6.3zm-12.3 7l40.3 20.1zm42.4 8l2.5 1.2zm10.1 5.1l2.5 1.2zm5 2.5l2.6 1.3zm-9.4 7.3l40.3 20.1zm-38.9-30.3l2.5 1.3zm15.1 7.5l2.5 1.2zm12.6 6.3l2.5 1.3zm5.1 2.5l2.5 1.2zm10 5l2.6 1.3zm5 2.5l2.5 1.3zm12.6 6.2l2.5 1.3zm-21.9 1.1l40.3 20zm-38.9-30.3l2.5 1.3zm15.1 7.5l2.5 1.3zm12.6 6.2l2.5 1.3zm5 2.5l2.6 1.3zm10 5l2.5 1.2zm5.1 2.5l2.5 1.3zm12.6 6.3l2.5 1.2zm15.1 7.5l2.5 1.3zm-75.9-36.7l2.5 1.2zm15.1 7.5l2.6 1.3zm12.5 6.3l2.5 1.2zm5.1 2.5l2.5 1.3zm10.1 5l2.5 1.3zm5 2.5l2.5 1.2zm12.6 6.3l2.5 1.2zm15.1 7.6l2.5 1.2zm-78.4-38l2.6 1.3zm7.5 3.8l2.5 1.2zm12.6 6.3l10.1 5zm15.1 7.5l2.5 1.3zm10 5l2.6 1.2zm7.5 3.8l10.1 5zm20.1 10l2.5 1.3zm7.6 3.8l2.5 1.2zm-80.9-39.2l2.5 1.2zm7.5 3.8l2.6 1.3zm12.5 6.2l10.1 5zm15.1 7.6l2.5 1.2zm10.1 5l2.5 1.3zm7.5 3.7l10.1 5.1zm20.1 10l2.5 1.2zm7.6 3.8l2.5 1.3zm-80.9-39.3l2.5 1.3zm7.6 3.8l2.5 1.2zm12.6 6.3l10 5zm15.1 7.5l2.5 1.3zm10.1 5l2.5 1.2zm7.6 3.8l10 5zm20.2 10l2.5 1.3zm7.5 3.8l2.5 1.2zm-83.4-40.5l2.5 1.3zm7.6 3.7l2.5 1.3zm30.2 15l2.5 1.3zm10.1 5l2.5 1.3zm30.2 15l2.5 1.3zm7.5 3.7l2.6 1.3zm-86-41.7l2.5 1.2zm7.6 3.8l2.5 1.2zm30.2 15.1l2.5 1.2zm10.1 5l2.5 1.3zm30.2 15l2.5 1.3zm7.6 3.7l2.5 1.3zm-86-41.7l2.6 1.2zm7.5 3.8l2.5 1.2zm30.2 15.1l2.5 1.2zm10.1 5.1l2.5 1.2zm30.2 15.1l2.5 1.2zm7.6 3.8l2.5 1.2zm-48.6-36.2l2.5 1.3zm34.9 18.4l12.6 6.3zm-35.3-17.6l2.6 1.3zm34.8 18.4l12.6 6.3zm-35.3-17.5l2.6 1.2zm47.4 24.7l2.5 1.3z"/>
			<path id="Layer" fill-rule="evenodd" class="s5" d="m344.6 94.1l-5.8 13.4-2.5-1.2 2.3-5.4-2.5-1.3 1.2-2.7 2.5 1.3 1.2-2.7-2.6-1.3 1.2-2.6zm-8.7-1.1l2.5 1.2-1.2 2.7-2.5-1.2zm0.2 6.6l-1.2 2.7-2.5-1.2-2.3 5.3-2.6-1.2-2.3 5.4-2.5-1.3-2.3 5.4-2.6-1.2-4.6 10.7 2.5 1.3-1.2 2.7 5 2.5 2.4-5.4 2.5 1.3 1.2-2.7-2.6-1.3 1.2-2.7 2.5 1.3 1.2-2.7-2.5-1.3 2.3-5.4 2.5 1.3 3.6-8.1 2.5 1.3-3.5 8-2.6-1.2-2.3 5.4 2.5 1.2-1.2 2.7-2.5-1.2-1.1 2.7 2.5 1.2-1.2 2.7-2.5-1.2-1.2 2.7 5 2.5 1.2-2.7 2.5 1.2-1.1 2.7 2.5 1.3 3.5-8.1 2.5 1.2 1.2-2.7 2.5 1.3 2.3-5.4 2.6 1.3 2.3-5.4 2.5 1.2 1.2-2.7 2.5 1.3 1.2-2.7 2.5 1.3 1.2-2.7 2.5 1.2 1.1-2.7 5.1 2.5-5.9 13.5-2.5-1.3-3.5 8.1-2.5-1.2-2.4 5.4 2.5 1.2-1.1 2.7-2.5-1.2-1.2 2.6 2.5 1.3-1.2 2.7-2.5-1.3-1.2 2.7-2.5-1.2-1.1 2.7-2.6-1.3-2.3 5.4 2.5 1.3-8.2 18.8 5.1 2.5-1.2 2.7 5 2.5-1.2 2.7 2.6 1.3-1.2 2.7 2.5 1.2-4.7 10.8-2.5-1.3-1.2 2.7-2.5-1.2-1.1 2.7-12.6-6.3-3.5 8.1-2.6-1.3-3.5 8.1 5.1 2.5-1.2 2.7 5 2.5-2.3 5.4-2.5-1.2-1.2 2.7-2.5-1.3-1.2 2.7-2.5-1.3-1.2 2.7-5-2.5-3.5 8.1 2.5 1.3-2.3 5.4 10 5 1.2-2.7 2.5 1.2 1.2-2.7 12.6 6.3-1.2 2.7 2.5 1.3-1.2 2.7 2.5 1.2-1.1 2.7 2.5 1.3-2.3 5.3-40.3-20 5.9-13.5-2.6-1.2 3.5-8.1-5-2.5-9.4 21.5-40.2-20 2.3-5.4 2.6 1.2 1.1-2.7 2.5 1.3 1.2-2.7 2.5 1.2 1.2-2.6 12.6 6.2-1.2 2.7 2.5 1.3-1.1 2.7 10 5 5.9-13.5-2.5-1.2-1.2 2.6-7.6-3.7 1.2-2.7-2.5-1.3 1.2-2.7-2.6-1.2 1.2-2.7-2.5-1.3 2.3-5.3-2.5-1.3 1.2-2.7-2.5-1.2 1.1-2.7-2.5-1.3 1.2-2.7-2.5-1.2 3.5-8.1 2.5 1.2-1.2 2.7 2.6 1.3 2.3-5.4 2.5 1.2-1.2 2.7 2.6 1.3-1.2 2.7 2.5 1.2-1.2 2.7 2.6 1.3 1.1-2.7 2.5 1.2-1.1 2.7 2.5 1.3 1.2-2.7 2.5 1.3 1.1-2.7 2.6 1.2 1.1-2.7 2.5 1.3 1.2-2.7-20.1-10.1 1.2-2.6-2.6-1.3 1.2-2.7-2.5-1.2 4.7-10.8 2.5 1.2 1.2-2.7 2.5 1.3 1.2-2.7 5 2.5 1.2-2.7 5 2.5 8.2-18.8 2.5 1.2 2.3-5.4-2.5-1.2 1.2-2.7-2.5-1.3 2.3-5.4-2.5-1.2 5.9-13.5 2.5 1.3 1.1-2.7 2.6 1.2 2.3-5.4 2.5 1.3 2.4-5.4 2.5 1.3 1.1-2.7 2.6 1.2 1.1-2.7 2.5 1.3-1.1 2.7zm-25.3 30l-1.2 2.7 2.5 1.2-2.3 5.4-2.5-1.2-3.5 8 2.5 1.3-1.2 2.7 2.5 1.2-2.3 5.4-2.5-1.2-1.2 2.7 2.5 1.2-1.2 2.7 2.6 1.3 2.3-5.4 5 2.5-2.3 5.4-2.5-1.3-1.2 2.7-7.5-3.7 1.1-2.7-10-5-1.2 2.6-5-2.5-1.2 2.7-2.5-1.2-4.7 10.8 2.5 1.2-1.2 2.7 20.2 10 1.1-2.7-10-5 1.1-2.7 12.6 6.3-2.3 5.4 2.5 1.2-1.2 2.7 2.5 1.3-1.1 2.7 2.5 1.2-1.2 2.7-7.5-3.7 1.1-2.7-2.5-1.3-1.1 2.7-2.6-1.2-1.1 2.7-2.5-1.3-1.2 2.7-2.5-1.3-2.4 5.4-5-2.5 1.2-2.7 2.5 1.3 1.2-2.7-2.6-1.3-1.1 2.7-2.5-1.2 1.1-2.7-2.5-1.3 1.2-2.7-2.5-1.2-1.2 2.7-5-2.5-1.2 2.7 2.5 1.2-1.2 2.7 2.5 1.3-1.1 2.7 2.5 1.2-1.2 2.7 5.1 2.5 1.1-2.7 5.1 2.5-1.2 2.7-2.5-1.2-1.2 2.7 2.5 1.2-1.2 2.7-5-2.5 1.2-2.7-2.5-1.2-1.2 2.6 2.5 1.3-1.2 2.7 2.6 1.2-1.2 2.7 7.5 3.8 1.2-2.7 2.5 1.3 1.2-2.7 2.5 1.2-8.2 18.9-2.5-1.3-1.2 2.7-10-5 1.1-2.7-2.5-1.2 1.2-2.7-12.6-6.3-1.2 2.7-2.5-1.3-1.1 2.7-2.6-1.2-1.1 2.7 5 2.5 1.2-2.7 2.5 1.2-1.2 2.7 27.7 13.8 8.2-18.8 2.5 1.2 1.2-2.7 7.5 3.8-4.7 10.8 2.6 1.2-4.7 10.8 27.6 13.8 1.2-2.7 2.5 1.2-1.1 2.7 5 2.5 1.2-2.7-2.6-1.2 1.2-2.7-2.5-1.3 1.2-2.6-12.6-6.3-1.2 2.7-2.5-1.3-1.2 2.7-10-5 1.1-2.7-2.5-1.2 2.4-5.4-2.5-1.3 10.5-24.2 2.5 1.2-1.2 2.7 2.5 1.3-1.1 2.7-2.5-1.3-1.2 2.7 2.5 1.3-1.2 2.6-2.5-1.2-1.2 2.7 5.1 2.5 1.2-2.7 2.5 1.3 1.1-2.7 2.6 1.2 1.1-2.7-2.5-1.2-1.2 2.7-5-2.5 1.2-2.7 2.5 1.2 1.2-2.7-2.6-1.2 1.2-2.7-2.5-1.3 2.3-5.4-5-2.5 1.2-2.7-5-2.5 1.1-2.7 2.5 1.3 3.6-8.1 7.5 3.8-1.2 2.7 2.5 1.2 3.6-8.1 7.5 3.8-1.2 2.7-5-2.5-1.2 2.7 12.6 6.2 1.2-2.7 2.5 1.3 4.7-10.8-2.5-1.2 1.1-2.7-5-2.5 1.2-2.7-7.6-3.8 5.9-13.5-2.5-1.2 1.1-2.7 2.5 1.2 2.4-5.3-5-2.6 1.1-2.6 2.5 1.2 1.2-2.7 2.5 1.3 1.2-2.7 2.5 1.2 1.2-2.7 2.5 1.3 1.2-2.7-2.5-1.3 1.1-2.7 2.5 1.3 1.2-2.7-2.5-1.2 2.3-5.4 2.6 1.2 3.5-8.1 2.5 1.3 2.3-5.4-2.5-1.3 1.2-2.6 2.5 1.2 1.2-2.7-2.5-1.2-1.2 2.7-2.5-1.3-1.2 2.7-2.5-1.3-1.2 2.7-2.5-1.2-2.3 5.4-2.6-1.3-2.3 5.4-2.5-1.3-1.2 2.7-2.5-1.2-4.7 10.8 2.5 1.2 3.5-8.1 2.6 1.3-4.7 10.8-2.5-1.3-1.2 2.7-2.5-1.2 1.1-2.7-2.5-1.3 1.2-2.7-2.5-1.2-1.2 2.7-5-2.6 1.1-2.7-2.5-1.2-2.3 5.4-2.5-1.3 1.1-2.7-2.5-1.2-1.1 2.7-2.6-1.3 2.4-5.4-2.5-1.2 1.1-2.7-2.5-1.3 4.7-10.7 2.5 1.2 2.4-5.4 2.5 1.3 2.3-5.4 2.5 1.2 2.4-5.3-2.5-1.3-2.4 5.4-2.5-1.3-2.3 5.4-2.6-1.2-1.1 2.7-2.5-1.3-5.9 13.5 2.5 1.2-2.3 5.4zm18.6 48.6l-2.5-1.2-1.1 2.7-20.2-10 1.2-2.7 20.1 10 1.2-2.7 2.5 1.3zm4.1-79.9l-2.5-1.3-1.2 2.7 2.5 1.3zm14.5 30.1l2.3-5.4 2.6 1.3-2.4 5.4zm9.7-8.3l1.2-2.7 2.5 1.2-1.2 2.7zm-12 13.7l-2.5-1.3 2.3-5.3 2.5 1.2zm-4.7 10.8l-1.1 2.7-2.5-1.3 1.1-2.7zm11.9-20.3l2.4-5.4 2.5 1.3-2.4 5.4zm-40.5 15.8l1.1-2.7 5.1 2.5-1.2 2.7zm-2.2 12.1l-2.5-1.3 2.4-5.4 2.5 1.3zm19.9 3.4l-2.3 5.4-2.5-1.3-2.4 5.4 2.5 1.2-2.3 5.4-5-2.5 2.3-5.4-2.5-1.2 2.3-5.4-2.5-1.3 1.2-2.7-2.5-1.2 1.2-2.7-5.1-2.5 1.2-2.7 2.5 1.3 1.2-2.7 5 2.5-1.2 2.7 2.6 1.2-1.2 2.7 2.5 1.3 1.2-2.7 2.5 1.2 1.2-2.7 5 2.5-1.2 2.7 2.5 1.3-1.1 2.7zm0.8 33.2l-2.5-1.3 1.2-2.7 7.5 3.8-1.1 2.7-2.6-1.3-1.1 2.7-2.5-1.2zm-13.2 65.5l1.2-2.7 2.5 1.3-1.2 2.7zm-64.2-35.3l2.5 1.2-1.2 2.7-2.5-1.2zm35.7-11.7l2.5 1.2-2.3 5.4-2.6-1.2zm-2.5-1.3l1.2-2.7 2.5 1.3-1.2 2.7zm-1.3-4l-1.2 2.7 2.5 1.3-1.1 2.6-2.5-1.2-1.2 2.7-2.5-1.3 1.1-2.7-2.5-1.2 1.2-2.7 2.5 1.2 1.2-2.6zm-2.5-1.3l-2.5-1.3 1.1-2.6 2.5 1.2zm3.5-8.1l2.6 1.3 1.1-2.7 2.6 1.2-4.7 10.8-2.5-1.2 1.1-2.7-2.5-1.3zm6.2-0.2l1.2-2.7 2.5 1.3-1.2 2.7zm-13.2 16.3l-1.2 2.7-2.5-1.2 1.2-2.7zm-8.1-23.7l2.5 1.2-1.1 2.7-2.6-1.2zm15.8-15.1l1.2-2.7-2.6-1.3 1.2-2.7 7.6 3.8-1.2 2.7-2.5-1.3-1.2 2.7zm25.5 25.9l-1.2 2.7 5.1 2.5 1.1-2.7z"/>
			<path id="Layer" fill-rule="evenodd" class="s0" d="m338.2 94.7l2.6 1.2zm-0.4 0.9l2.5 1.3zm-0.4 0.9l2.5 1.3zm-2.9-0.4l2.5 1.2zm-0.4 0.9l2.5 1.3zm-0.3 0.9l2.5 1.3zm-2.9-0.4l2.5 1.3zm32.7 16.2l2.5 1.3zm-33.1-15.4l2.5 1.3zm32.7 16.3l2.5 1.2zm-33.1-15.4l2.6 1.3zm32.7 16.3l2.5 1.2zm-35.6-16.6l2.5 1.2zm32.7 16.3l2.5 1.3zm-33.1-15.4l2.5 1.2zm32.7 16.3l2.6 1.3zm-33.1-15.4l2.5 1.2zm32.7 16.3l2.5 1.3zm-33.1-15.4l2.5 1.2zm30.2 15.1l2.5 1.2zm-30.6-14.1l2.6 1.2zm30.1 15.1l2.6 1.2zm-30.6-14.1l2.5 1.2zm30.2 15.1l2.5 1.2zm-33.1-15.4l2.5 1.3zm30.2 15l2.5 1.3zm-30.6-14.2l2.6 1.3zm30.2 15l2.5 1.3zm-30.6-14.2l2.5 1.3zm30.2 15l2.5 1.3zm-30.6-14.2l2.5 1.3zm30.2 15l2.6 1.3zm-30.6-14.1l2.5 1.2zm30.2 15.1l2.5 1.2zm-30.6-14.1l2.5 1.2zm30.2 15.1l2.5 1.2zm-33.1-15.4l2.6 1.3zm30.1 15l2.6 1.3zm-30.6-14.2l2.5 1.3zm30.2 15l2.5 1.3zm-30.6-14.2l2.5 1.3zm30.2 15l2.5 1.3zm-33.1-15.4l5.1 2.5zm32.7 16.3l2.5 1.2zm-33.1-15.4l5 2.5zm32.7 16.3l2.6 1.3zm-33.1-15.4l5 2.5zm32.7 16.3l2.5 1.2zm-33.1-15.4l2.5 1.3zm30.2 15l2.5 1.3zm-30.5-14.1l2.5 1.2zm30.2 15.1l2.5 1.2zm-30.6-14.1l2.5 1.2zm30.2 15.1l2.5 1.2zm-30.6-14.1l2.6 1.2zm27.6 13.8l5.1 2.5zm-28.1-12.9l2.5 1.3zm27.7 13.8l5 2.5zm-28-12.9l2.5 1.2zm27.6 13.8l5.1 2.5zm-28.1-12.9l2.5 1.3zm27.7 13.8l2.5 1.2zm-28-12.9l2.5 1.3zm27.6 13.8l2.6 1.2zm-28.1-12.8l2.5 1.2zm27.7 13.8l2.5 1.2zm-28.1-12.8l2.6 1.2zm27.6 13.8l2.5 1.3zm-28-12.9l2.5 1.2zm3.3 13.7l27.6 13.7zm-3.6-12.7l2.5 1.3zm3.3 13.6l27.6 13.8zm-1.1-11.5l2.5 1.2zm0.8 12.4l27.6 13.8zm-1.1-11.5l2.5 1.3zm25.2 12.5l2.5 1.3zm-25.6-11.7l2.6 1.3zm25.1 12.5l2.5 1.3zm-25.5-11.7l5 2.6zm12.6 6.2l2.5 1.3zm7.6 3.7l2.5 1.3zm-20.5-9.1l5 2.5zm12.6 6.2l2.5 1.3zm7.5 3.7l2.5 1.3zm-20.5-9.1l5.1 2.5zm12.5 6.2l2.6 1.3zm7.5 3.8l2.5 1.2zm-18-7.9l2.5 1.3zm5.1 2.5l2.5 1.3zm5 2.5l5 2.5zm7.6 3.7l5 2.5zm7.6 3.8l2.5 1.2zm-25.6-11.6l2.5 1.3zm5.1 2.5l2.5 1.2zm5 2.5l5.1 2.5zm7.5 3.8l5 2.5zm7.6 3.8l2.5 1.2zm-25.5-11.6l2.5 1.2zm5 2.5l2.5 1.3zm5 2.5l5.1 2.5zm-1.6 3.6l17.6 8.8zm16.7 3.9l2.5 1.3zm1.4-10.3l2.5 1.3zm-0.4 0.9l2.5 1.2zm-0.4 0.9l2.6 1.3zm-24.9 0.7l2.6 1.3zm16.6 3.9l5 2.5zm-17-3l2.5 1.2zm7.6 3.8l17.6 8.8zm-10.9-3.2l10.1 5zm10.5 4.1l17.6 8.8zm-7.6-3.8l2.5 1.3zm12.2 7.1l7.6 3.8zm12.5 6.3l5.1 2.5zm-28.1-12.9l10.1 5zm15.1 7.5l7.5 3.8zm12.6 6.2l5 2.5zm-28-12.8l10 5zm15.1 7.5l7.6 3.8zm12.5 6.2l5.1 2.5zm-28.1-12.9l7.6 3.8zm17.6 8.8l2.5 1.2zm12.6 6.3l2.5 1.2zm-30.6-14.1l7.6 3.8zm17.6 8.7l2.5 1.3zm12.6 6.3l2.5 1.2zm-30.6-14.1l7.5 3.7zm17.7 8.8l2.5 1.3zm12.5 6.2l2.6 1.3zm-30.6-14.2l5 2.5zm-0.4 0.9l5.1 2.5zm-0.4 0.9l5 2.6zm2.1 2.1l2.5 1.3zm-0.4 0.9l2.6 1.2zm-0.4 0.9l2.5 1.3zm-10.6 38.4l2.5 1.2zm-0.4 0.9l2.6 1.3zm-0.4 0.9l2.5 1.2zm-2.9-0.3l2.5 1.2zm5 2.5l7.6 3.8zm-5.5-1.6l2.6 1.3zm5 2.5l7.5 3.7zm-5.4-1.6l2.5 1.3zm2.2 2.1l12.5 6.3zm-20.1-10l2.5 1.2zm15.1 7.5l2.5 1.3zm8 2.8l7.5 3.8zm-23.4-9.5l2.5 1.3zm15.1 7.5l2.5 1.3zm5.1 2.5l12.5 6.2zm-20.5-9.1l2.5 1.2zm15.1 7.6l2.5 1.2zm5.1 2.5l12.6 6.3zm-25.6-11.6l5 2.5zm7.6 3.7l2.5 1.3zm5 2.5l2.6 1.2zm5 2.5l2.5 1.3zm7.5 3.8l12.6 6.2zm-25.5-11.6l5 2.5zm1.7 3.1l10.1 5zm10.8 3.2l2.6 1.2zm5 2.5l2.5 1.3zm7.6 3.8l12.5 6.2zm-25.5-11.6l5 2.5zm1.8 3l10 5.1zm1.8 3l12.5 6.3zm14.2 2.7l2.5 1.2zm7.5 3.8l12.6 6.2zm-17.2-9.6l2.5 1.2zm9.3 6.8l2.5 1.3zm7.6 3.7l12.5 6.3zm-17.2-9.7l2.5 1.3zm9.3 6.8l2.5 1.3zm7.6 3.7l12.6 6.3zm-23.1-10.4l10.1 5zm15.1 7.5l2.5 1.3zm7.5 3.8l12.6 6.2zm-11.4-8.9l2.5 1.2zm6 7.4l2.5 1.2zm5.1 2.5l12.5 6.3zm-20.5-9.1l12.6 6.2zm15.1 7.6l2.5 1.2zm5.1 2.5l12.5 6.3zm-20.5-9.1l12.6 6.2zm15.1 7.5l2.5 1.3zm5 2.5l12.6 6.3zm-18-7.9l5 2.5zm10.1 5l2.5 1.3zm5.1 2.5l2.5 1.2zm5 2.5l7.6 3.8zm20.1 10l2.5 1.3zm-40.6-19.2l5 2.5zm10 5l2.6 1.3zm5 2.5l2.5 1.3zm5 2.5l7.6 3.7zm20.1 10.1l2.5 1.2zm-40.6-19.2l5 2.6zm10.1 5l2.5 1.2zm5 2.5l2.5 1.3zm5.1 2.5l7.5 3.8zm20.2 10l2.5 1.2zm-33.1-15.4l2.5 1.3zm10.1 5l2.5 1.3zm5 2.5l5 2.5zm15.1 7.5l2.5 1.2zm7.6 3.8l2.5 1.3zm-38.1-17.9l2.5 1.2zm10.1 5l2.5 1.3zm5 2.5l5 2.5zm15.1 7.5l2.5 1.3zm7.6 3.7l2.5 1.3zm-38.1-17.9l2.5 1.2zm10.1 5l2.5 1.3zm5 2.5l5 2.5zm15.1 7.5l2.6 1.3zm7.5 3.7l2.5 1.3zm-43.1-20.4l2.5 1.2zm7.5 3.8l2.5 1.2zm5.1 2.6l5 2.5zm7.5 3.7l2.6 1.3zm17.6 8.8l5 2.5zm-38.1-17.9l2.5 1.2zm7.5 3.8l2.6 1.2zm5 2.5l5 2.5zm7.6 3.8l2.5 1.2zm17.6 8.8l5 2.5zm-38.1-17.9l2.5 1.3zm7.6 3.7l2.5 1.3zm5 2.5l5 2.5zm7.6 3.8l2.5 1.2zm17.6 8.8l5 2.5zm-35.6-16.6l5.1 2.5zm7.5 3.7l5 2.5zm7.6 3.8l5 2.5zm12.6 6.3l2.5 1.2zm5 2.5l5.1 2.5zm-33.1-15.4l5 2.5zm7.6 3.8l5 2.5zm7.5 3.8l5.1 2.5zm12.6 6.2l2.5 1.3zm5 2.5l5 2.5zm-33.1-15.4l5.1 2.5zm7.5 3.8l5 2.5zm7.6 3.8l5 2.5zm12.6 6.2l2.5 1.3zm5.1 2.5l5 2.5zm-30.6-14.1l7.6 3.7zm12.5 6.3l5.1 2.5zm12.5 6.3l2.6 1.2zm-25.6-11.6l7.6 3.7zm12.5 6.3l5.1 2.5zm12.5 6.3l2.6 1.2zm-25.6-11.6l7.6 3.8zm12.5 6.2l5.1 2.5zm12.6 6.3l2.5 1.3zm-13-5.4l2.5 1.2zm12.6 6.3l2.5 1.3zm-13-5.4l2.6 1.2zm12.5 6.3l2.6 1.3zm-13-5.4l2.5 1.2zm12.6 6.3l2.5 1.3zm-13-5.4l2.5 1.2zm12.6 6.3l2.5 1.3zm-12.9-5.4l2.5 1.3zm12.6 6.2l2.5 1.3zm-13-5.4l2.5 1.3zm12.6 6.2l2.5 1.3zm-13-5.4l2.6 1.3zm12.5 6.2l2.6 1.3zm-13-5.4l2.5 1.3zm12.6 6.2l2.5 1.3zm-13-5.4l2.5 1.3zm12.6 6.2l2.5 1.3zm-12.9-5.4l2.5 1.3zm15.1 7.5l2.5 1.3zm-15.5-6.7l2.5 1.3zm15.1 7.5l2.5 1.3zm-15.4-6.7l2.5 1.3zm15.1 7.5l2.5 1.3zm-43.2-20.5l12.6 6.3zm27.7 13.8l2.5 1.3zm15.1 7.5l2.5 1.2zm17.6 8.8l12.6 6.3zm-60.8-29.2l12.6 6.3zm27.7 13.7l2.5 1.3zm15.1 7.5l2.5 1.3zm17.6 8.8l12.6 6.2zm-60.8-29.2l12.6 6.3zm27.7 13.8l2.5 1.2zm15.1 7.6l2.5 1.2zm17.6 8.8l12.6 6.3zm-63.3-30.5l5 2.5zm7.6 3.8l10 5zm20.2 10l5 2.5zm17.6 8.8l5 2.5zm-1.1 2.7l27.6 13.8zm28.9 11.1l5 2.5zm-73.3-35.4l5 2.5zm7.6 3.7l10 5zm20.1 10.1l5.1 2.5zm17.6 8.8l5 2.5zm-1.2 2.7l27.7 13.7zm28.9 11.1l5 2.5zm-73.4-35.4l5.1 2.5zm4.6 3.4l27.7 13.8zm23 10.4l5.1 2.5zm17.6 8.8l5 2.5zm-1.2 2.7l27.7 13.8zm28.9 11l5 2.6zm-75.9-36.8l5.1 2.6zm10.4 4.1l10.1 5zm53.6 24.5l10 5zm14 10.2l5 2.6zm-78.4-38l5.1 2.5zm7.5 3.8l27.7 13.7zm56.5 24.9l10.1 5zm13.9 10.3l5 2.5zm-78.4-38l5.1 2.5zm7.5 3.8l27.7 13.8zm56.5 24.8l10.1 5.1zm13.9 10.2l5 2.5z"/>
			<path id="Layer" fill-rule="evenodd" class="s6" d="m341 95.5l-1.2 2.7-2.5-1.3 1.1-2.7zm-7.3 2.9l1.1-2.7 2.6 1.3-1.2 2.7zm-1.2 2.7l-2.5-1.3-2.3 5.4-2.6-1.2-2.3 5.3-2.5-1.2-2.4 5.4-2.5-1.3-4.7 10.8 2.6 1.3-1.2 2.6 2.5 1.3-2.3 5.4-2.6-1.3 1.2-2.7-2.5-1.2 2.3-5.4-2.5-1.3 5.9-13.4 2.5 1.2 1.2-2.7 2.5 1.3 2.3-5.4 2.5 1.3 2.4-5.4 2.5 1.2 1.2-2.7 2.5 1.3zm-17.8 33.7l1.2-2.6 2.5 1.2-1.1 2.7 2.5 1.3 2.3-5.4 2.5 1.2-1.1 2.7 2.5 1.3-1.2 2.7 2.5 1.2 2.4-5.4 2.5 1.3-1.2 2.7 2.5 1.2-1.1 2.7 2.5 1.3 1.1-2.7 2.6 1.2-1.2 2.7 2.5 1.3-1.2 2.7-2.5-1.3-1.2 2.7 5.1 2.5-2.4 5.4-2.5-1.2 1.2-2.7-2.5-1.3 1.1-2.7-5-2.5-1.2 2.7-2.5-1.2-1.1 2.6-2.6-1.2 1.2-2.7-2.5-1.3 1.2-2.6-5.1-2.6-1.1 2.7-2.6-1.2-1.1 2.7-2.5-1.3-2.4 5.4-2.5-1.2 1.2-2.7-2.5-1.3 3.5-8.1 2.5 1.3 2.3-5.4zm2.7 7.9l1.2-2.7-5-2.5-1.2 2.7zm48.9-28.1l-1.2 2.7-2.5-1.2 1.2-2.7zm-7.4 2.8l1.2-2.6 2.5 1.2-1.2 2.7zm-1.1 2.7l-2.5-1.3-2.4 5.4-2.5-1.2-2.3 5.4-2.6-1.3-2.3 5.4-2.5-1.3-3.5 8.1-2.5-1.2 4.6-10.8 2.6 1.3 1.1-2.7 2.5 1.2 2.4-5.4 2.5 1.3 2.3-5.4 2.6 1.2 1.1-2.6 2.5 1.2zm-62.6 73.7l1.2-2.7 7.5 3.7-1.1 2.7 2.5 1.3-4.7 10.8-2.5-1.3-2.4 5.4-2.5-1.2-3.5 8-2.5-1.2-8.2 18.8-27.7-13.8 1.2-2.6-2.5-1.3-1.2 2.7-5-2.5 1.2-2.7 2.5 1.2 1.1-2.6 2.6 1.2 1.1-2.7 12.6 6.3-1.2 2.7 2.5 1.2-1.1 2.7 10 5 1.2-2.7 2.5 1.3 8.2-18.9-2.5-1.2-1.2 2.7-2.5-1.3-1.1 2.7-7.6-3.7 1.2-2.7-2.5-1.3 1.1-2.7-2.5-1.2 1.2-2.7 2.5 1.2-1.2 2.7 5.1 2.5 1.1-2.7-2.5-1.2 1.2-2.7 2.5 1.2 1.2-2.7-5.1-2.5-1.1 2.7-5.1-2.5 1.2-2.7-2.5-1.2 1.2-2.7-2.6-1.3 1.2-2.7-2.5-1.2 1.2-2.7 5 2.5 1.2-2.7 2.5 1.2-1.2 2.7 2.5 1.3-1.1 2.7 2.5 1.2 1.2-2.6 2.5 1.2-1.2 2.7-2.5-1.3-1.2 2.7 5 2.5 2.4-5.3 2.5 1.2 1.2-2.7 2.5 1.3 1.2-2.7 2.5 1.2-1.2 2.7zm-19.4 16.6l2.5 1.2 1.2-2.7 2.5 1.3 1.1-2.7 2.6 1.2 1.1-2.7-2.5-1.2 1.2-2.7 2.5 1.2 4.7-10.7-2.5-1.3-1.2 2.7-2.5-1.2-2.4 5.3-2.5-1.2-1.1 2.7 2.5 1.2-1.2 2.7-2.5-1.2-1.2 2.7 2.5 1.2-1.1 2.7-2.6-1.2zm10.9-11l-1.1 2.7-2.6-1.3 1.2-2.6zm10.9-11l-1.2 2.7-2.5-1.3 1.2-2.7zm-10.6 24.3l2.6 1.2 2.3-5.4-2.5-1.2zm2.3-5.4l1.2-2.7-2.5-1.2-1.2 2.7zm-36.9 14.4l2.6 1.2 1.1-2.7-2.5-1.2zm17.8-33.8l2.5 1.2 1.1-2.6-2.5-1.3zm43 28l-1.2 2.6-2.5-1.2 1.2-2.7zm-4.9 4.1l-2.5-1.2 1.1-2.7 2.6 1.2zm5 2.5l-1.2 2.7-2.5-1.2-1.2 2.7-5-2.5 1.2-2.7 2.5 1.2 1.2-2.7zm1.1-2.7l2.6 1.3-1.2 2.7-2.5-1.3zm-12.4 0.4l-5.9 13.5-2.5-1.3 5.8-13.4zm17.2 38l-27.7-13.8 4.7-10.8 2.5 1.3-2.3 5.4 2.5 1.2-1.2 2.7 10.1 5 1.1-2.7 2.6 1.3 1.1-2.7 12.6 6.3-1.2 2.7 2.6 1.2-1.2 2.7 2.5 1.3-1.2 2.7-5-2.5 1.2-2.7-2.5-1.3 1.1-2.7-2.5-1.2-1.2 2.7 2.6 1.2z"/>
			<path id="Layer" fill-rule="evenodd" class="s0" d="m335.9 100.1l2.5 1.2zm-0.4 0.9l2.5 1.3zm-0.3 0.9l2.5 1.2zm-2.9-0.3l5 2.5zm-0.4 0.9l5 2.5zm-0.4 0.9l5.1 2.5zm-0.4 0.9l2.5 1.3zm30.2 15l2.5 1.3zm-30.6-14.2l2.5 1.3zm30.2 15l2.6 1.3zm-30.6-14.2l2.5 1.3zm30.2 15l2.5 1.3zm-33.1-15.4l5 2.5zm30.2 15l5 2.5zm-30.5-14.1l5 2.5zm30.2 15l5 2.5zm-30.6-14.1l5.1 2.5zm30.2 15l5 2.5zm-30.6-14.1l5 2.5zm30.2 15.1l2.6 1.2zm-30.6-14.1l5 2.5zm30.2 15l2.5 1.3zm-30.6-14.2l5.1 2.5zm30.2 15.1l2.5 1.2zm-33.1-15.4l5 2.5zm30.2 15.1l5 2.5zm-30.6-14.2l5.1 2.5zm30.2 15.1l5 2.5zm-30.6-14.1l5.1 2.5zm30.1 15l5.1 2.5zm-30.6-14.1l5 2.5zm30.2 15l5 2.5zm-30.5-14.1l5 2.5zm30.2 15l5 2.5zm-33.5-14.5l10.1 5zm33.1 15.4l5 2.6zm-30.2-15.1l5.1 2.5zm27.2 14.7l5.1 2.5zm-30.6-14.1l10.1 5zm30.2 15l5 2.5zm-30.6-14.1l10.1 5zm30.2 15l5 2.6zm-30.6-14.2l7.6 3.8zm30.1 15l5.1 2.5zm-30.6-14.1l7.5 3.7zm30.2 15.1l5.1 2.5zm-30.6-14.2l7.5 3.8zm27.3 14.7l10.1 5zm-27.7-13.8l10.1 5zm30.6 14.2l5 2.5zm-31-13.3l10.1 5zm27.7 13.8l10 5.1zm-28.1-12.9l10.1 5zm27.7 13.8l10.1 5zm-28.1-12.9l7.5 3.7zm27.7 13.8l7.6 3.8zm-28.1-12.9l7.5 3.8zm27.7 13.8l7.6 3.7zm-28.1-12.9l7.5 3.8zm27.7 13.8l7.6 3.7zm-25.6-11.6l5 2.5zm25.2 12.5l10.1 5.1zm-25.6-11.7l5.1 2.5zm25.1 12.6l10.1 5zm-25.6-11.7l5.1 2.5zm25.1 12.6l10.1 5zm-0.4 0.9l7.5 3.8zm-0.4 0.9l7.6 3.7zm-0.4 0.9l7.6 3.8zm2.1 2.1l2.5 1.3zm-0.4 0.9l2.5 1.2zm-0.4 0.9l2.5 1.3zm-49.8 9l10.1 5zm-9.9 1.7l62.9 31.3zm3.7-1.4l22.6 11.2zm-4.1 2.4l62.9 31.3zm3.7-1.4l22.7 11.3zm-4.1 2.3l62.9 31.3zm10.3-2.5l10 5zm37 20.6l15.1 7.6zm-37.4-19.7l10.1 5zm36.9 20.6l15.1 7.5zm-43.1-20.4l22.6 11.3zm42.8 21.3l15.1 7.5zm4.5-3.2l7.5 3.7zm-0.4 0.9l7.6 3.8zm-0.4 0.9l7.5 3.7zm-50.5-17.5l7.5 3.8zm15.1 7.5l35.2 17.5zm42.8 21.3l5 2.6zm-58.2-28l7.5 3.8zm15.1 7.5l35.3 17.6zm42.7 21.3l5.1 2.5zm-58.3-28l7.6 3.8zm12.1 7.2l40.3 20zm45.7 21.7l5 2.5zm-58.3-27.9l10.1 5zm15.5 6.6l35.2 17.6zm39.9 20.9l7.5 3.8zm-55.7-26.7l10.1 5zm12.5 6.3l40.3 20zm42.8 21.3l7.5 3.8zm-55.7-26.7l10 5zm12.6 6.3l40.3 20.1zm42.7 21.3l7.6 3.7zm-55.8-26.6l12.6 6.2zm25.2 12.6l20.1 10zm27.7 13.8l10 5zm-53.2-25.4l12.6 6.2zm25.2 12.6l20.1 10zm27.7 13.8l10 5zm-53.2-25.4l12.6 6.2zm25.1 12.6l20.2 10zm27.6 13.8l10.1 5zm-50.7-24.2l20.1 10.1zm22.7 11.3l20.1 10zm22.6 11.3l12.6 6.2zm-45.7-21.6l20.2 10zm22.6 11.3l20.1 10zm22.7 11.3l12.5 6.3zm-45.6-21.7l20.1 10zm22.6 11.3l20.2 10zm22.6 11.3l12.6 6.3zm-20.5-9.2l7.5 3.8zm15.1 7.5l2.5 1.3zm-15.5-6.6l7.6 3.7zm15.1 7.5l2.5 1.3zm-15.5-6.6l7.6 3.7zm15.1 7.6l2.5 1.2zm-13-5.4l5 2.5zm-0.4 0.9l5.1 2.6zm-0.4 0.8l5 2.6zm2.1 2.1l2.6 1.3zm-0.4 0.9l2.5 1.2zm-0.4 0.9l2.5 1.3zm1 4.8l2.5 1.3zm-0.4 0.9l2.5 1.2zm-0.4 0.9l2.5 1.3zm-0.4 0.9l7.6 3.7zm-0.4 0.9l7.5 3.8zm-0.3 0.9l7.5 3.7zm-0.4 0.9l7.6 3.8zm-0.4 0.9l7.5 3.8zm-0.4 0.9l7.6 3.7zm-0.4 0.9l5 2.5zm-0.4 0.9l5.1 2.5zm-0.4 0.9l5 2.5zm-2.9-0.3l7.5 3.7zm-0.3 0.9l7.5 3.8zm-0.4 0.9l7.6 3.8zm-0.4 0.9l7.5 3.7zm-0.4 0.9l7.6 3.8zm-0.4 0.9l7.5 3.7zm-2.9-0.3l10.1 5zm-0.4 0.9l10.1 5zm-0.4 0.9l10 5zm-0.4 0.9l7.6 3.8zm-0.4 0.9l7.5 3.7zm-0.3 0.9l7.5 3.8z"/>
			<path id="Layer" fill-rule="evenodd" class="s1" d="m338.6 100.9l-2.3 5.4-2.5-1.3-3.6 8.1-2.5-1.3-2.3 5.4 2.5 1.3-1.2 2.7-2.5-1.3-1.2 2.7 2.6 1.3-1.2 2.7-2.5-1.3-2.4 5.4-5-2.5 1.2-2.7-2.5-1.2 4.6-10.8 2.6 1.2 2.3-5.4 2.5 1.3 2.4-5.4 2.5 1.3 2.3-5.4 2.5 1.2 1.2-2.7zm25.3 19.2l-2.3 5.4-2.5-1.3-3.5 8.1-2.6-1.2-2.3 5.4 2.5 1.2-1.2 2.7-2.5-1.2-1.1 2.7 2.5 1.2-1.2 2.7-2.5-1.3-1.2 2.7-2.5-1.2-1.2 2.7-2.5-1.3 1.2-2.7-2.5-1.2 4.7-10.8 2.5 1.3 2.3-5.4 2.5 1.2 2.4-5.4 2.5 1.3 2.3-5.4 2.5 1.3 1.2-2.7zm-63.5 40.4l-1.2 2.7 7.6 3.8-1.2 2.7 20.2 10 1.1-2.7 2.5 1.3 1.2-2.7 7.6 3.7-1.2 2.7 5 2.5-1.2 2.7 2.6 1.3-4.7 10.8-2.5-1.3-1.2 2.7-12.6-6.3 1.2-2.7 5 2.5 1.2-2.7 2.5 1.3 1.2-2.7 2.5 1.3 1.2-2.7-7.6-3.8-1.2 2.7 2.6 1.3-1.2 2.6-7.6-3.7-3.5 8.1-2.5-1.3 1.2-2.7-7.6-3.7-3.5 8-2.5-1.2 1.2-2.7-2.5-1.3 1.1-2.7-2.5-1.2 1.2-2.7-2.5-1.3 2.3-5.3-12.6-6.3 1.2-2.7 2.5 1.2 1.2-2.6-7.6-3.8-1.1 2.7 2.5 1.2-1.2 2.7 2.5 1.3-1.1 2.7 10 5-1.1 2.7-20.2-10 1.2-2.7-2.5-1.3 4.7-10.8 2.5 1.3 1.2-2.7 5 2.5 1.2-2.7zm7.2 39.7l-1.2 2.7 5.1 2.5-2.4 5.4-2.5-1.3-4.7 10.8-2.5-1.3-1.2 2.7-7.5-3.7 2.3-5.4 2.5 1.2 2.4-5.4 2.5 1.3 4.7-10.8z"/>
			<path id="Layer" class="s0" d="m325.7 137.6l2.5 1.3zm-0.4 0.9l2.6 1.2zm-0.4 0.9l2.5 1.3z"/>
			<path id="Layer" fill-rule="evenodd" class="s7" d="m328.4 138.4l-1.1 2.7-2.6-1.2 1.2-2.7z"/>
			<path id="Layer" fill-rule="evenodd" class="s0" d="m312.3 147.3l5 2.5zm17.7 8.8l5 2.5zm-18-7.9l5 2.5zm17.6 8.8l5.1 2.5zm-18-7.9l5 2.6zm17.6 8.7l5 2.5zm-18-7.8l7.6 3.7zm17.6 8.8l7.5 3.8zm-18-7.9l7.6 3.7zm17.6 8.8l7.5 3.8zm-20.9-8.3l12.6 6.3zm20.5 9.1l7.6 3.8zm-17.6-8.8l7.5 3.8zm14.7 8.4l10.1 5zm-18-7.9l12.6 6.3zm17.6 8.8l10 5zm-18-7.9l12.6 6.3zm17.6 8.8l10.1 5zm-18-7.9l12.6 6.3zm17.6 8.8l10 5zm-18-7.9l12.6 6.3zm17.6 8.7l10.1 5zm-18-7.8l12.6 6.2zm17.6 8.8l10 5zm-20.5-9.1l5.1 2.5zm10 5l7.6 3.8zm12.6 6.2l7.5 3.8zm-23-10.4l5 2.5zm10.1 5l7.5 3.8zm12.6 6.3l7.5 3.7zm-23-10.3l5 2.5zm10.1 5l7.5 3.7zm12.6 6.3l7.6 3.8zm-20.5-9.2l2.5 1.3zm7.5 3.7l7.6 3.8zm12.5 6.3l7.6 3.7zm-20.5-9.1l2.5 1.3zm7.5 3.7l7.6 3.8zm12.6 6.3l7.5 3.7zm-20.5-9.1l2.5 1.2zm4.7 3.4l20.1 10.1zm15.5 6.6l7.5 3.8zm-12.6-6.3l7.6 3.7zm-3.3 0.6l20.1 10zm-0.4 0.9l20.1 10zm5.4 30l5 2.5zm-0.4 0.9l5.1 2.5zm-0.4 0.9l5 2.5z"/>
			<path id="Layer" fill-rule="evenodd" class="s8" d="m317.5 149.4l-1.1 2.7 2.5 1.2-1.2 2.7 2.5 1.3-2.3 5.4 2.5 1.2-2.3 5.4 5 2.5 2.3-5.4-2.5-1.2 2.4-5.4 2.5 1.2 2.3-5.4 5.1 2.6-1.2 2.7 2.5 1.2-5.9 13.5-2.5-1.3-1.1 2.7-20.2-10 1.2-2.7 2.5 1.2 2.4-5.3-5.1-2.6-2.3 5.4-2.5-1.2 1.1-2.7-2.5-1.3 1.2-2.7 2.5 1.3 2.4-5.4 2.5 1.3 2.3-5.4zm0.1 49.2l-1.2 2.7-5-2.6 1.1-2.6z"/>
		</g>
	</g>
	<path id="Layer" fill-rule="evenodd" class="s0" d="m2.4 65.9l213.6-55zm0.2 0.9l213.6-55zm0.2 0.9l213.6-55.1zm106.7-39.9l5.1-1.3zm-10 3.5l7.6-2zm10.2-2.6l5.1-1.3zm-10 3.5l2.6-0.6zm7.6-2l7.6-2zm-7.4 2.9l2.5-0.7zm7.7-1.9l7.6-2zm-7.4 2.9l2.5-0.7zm7.7-1.9l7.6-2zm-7.4 2.9l2.5-0.7zm12.7-3.3l2.6-0.6zm-12.6 4.2l2.6-0.7zm12.7-3.3l2.5-0.6zm-12.5 4.2l2.6-0.7zm12.7-3.3l2.5-0.6zm-12.5 4.2l2.6-0.7zm12.7-3.3l2.5-0.6zm-12.5 4.2l2.6-0.7zm12.7-3.3l2.5-0.6zm-12.5 4.2l2.5-0.7zm12.8-3.3l2.5-0.6zm-15-6.7l7.7-2zm10.1-2.6l5.1-1.3zm-9.9 3.5l7.6-2zm-96.3 38.3l2.5-0.7zm211.1-54.3l2.5-0.7zm-210.8 55.3l2.5-0.7zm211.1-54.3l2.5-0.7zm-210.8 55.3l2.5-0.7zm211-54.3l2.6-0.7zm-210.9 55.3l2.6-0.7zm211-54.4l2.6-0.6zm-210.9 55.3l2.6-0.7zm211-54.4l2.6-0.6zm-210.9 55.3l2.6-0.7zm211-54.4l2.6-0.6zm-210.9 55.3l2.6-0.7zm208.5-53.7l2.5-0.7zm-208.3 54.7l2.5-0.7zm208.5-53.7l2.6-0.7zm-208.3 54.7l2.5-0.7zm208.5-53.7l2.6-0.7zm-208.3 54.7l2.5-0.7zm211.1-54.4l2.5-0.6zm-210.8 55.3l2.5-0.7zm211.1-54.4l2.5-0.6zm-210.8 55.3l2.5-0.7zm211-54.4l2.6-0.6zm-210.8 55.3l2.5-0.7zm211-54.4l2.6-0.6zm-210.9 55.3l2.6-0.7zm211-54.4l2.6-0.6zm-210.9 55.3l2.6-0.7zm211-54.4l2.6-0.6zm-208.3 54.6l5-1.3zm208.5-53.7l2.6-0.7zm-208.3 54.6l5.1-1.3zm208.5-53.7l2.5-0.7zm-208.3 54.7l5.1-1.3zm208.5-53.8l2.6-0.6zm-208.3 54.6l2.5-0.6zm203.4-52.4l7.6-2zm-203.2 53.3l2.6-0.6zm203.4-52.5l7.6-1.9zm-203.2 53.3l2.5-0.7zm203.5-52.4l7.6-1.9zm-203.2 53.3l2.5-0.7zm206-53l2.5-0.7zm-205.7 54l2.5-0.7zm206-53l2.5-0.7zm-205.7 54l2.5-0.7zm206-53l2.5-0.7zm-205.7 54l7.6-2zm205.9-53.1l2.6-0.6zm-205.8 54l7.7-2zm205.9-53.1l2.6-0.6zm-205.8 53.9l7.6-1.9zm206-53.1l2.5-0.6zm-208.3 54.6l2.6-0.7zm205.9-53l5.1-1.3zm-205.7 53.9l2.5-0.6zm206-53.1l5.1-1.3zm-205.8 54l2.5-0.7zm206-53.1l5.1-1.3zm-205.8 54l2.6-0.6zm211-54.4l2.6-0.7zm-210.9 55.3l2.6-0.6zm211-54.4l2.5-0.7zm-210.8 55.3l2.6-0.6zm211-54.4l2.5-0.7zm-210.8 55.3l2.5-0.6zm211.1-54.4l2.5-0.7zm-210.8 55.3l2.5-0.7zm211.1-54.3l2.5-0.7zm-210.8 55.3l2.5-0.7zm211.1-54.3l2.5-0.7zm-210.8 55.3l2.5-0.7zm211.1-54.3l2.5-0.7zm-210.8 55.3l2.5-0.7zm211-54.3l2.6-0.7zm-210.9 55.3l2.6-0.7zm211-54.3l2.6-0.7zm-208.3 54.6l2.5-0.6zm208.5-53.7l2.6-0.7zm-208.3 54.6l2.5-0.6zm208.5-53.7l2.6-0.7zm-208.3 54.6l2.5-0.6zm208.5-53.7l2.5-0.7zm-208.3 54.6l2.6-0.6zm208.5-53.8l2.5-0.6zm-208.3 54.6l2.6-0.6zm208.5-53.8l2.5-0.6zm-208.3 54.6l2.6-0.6zm208.5-53.8l2.5-0.6zm-208.3 54.6l28-7.2zm205.9-53.1l2.6-0.6zm-205.8 54l28-7.2zm206-53.1l2.5-0.7zm-205.8 54l28-7.2zm206-53.1l2.5-0.6zm-208.3 54.6l2.6-0.6zm170.3-43.9l10.2-2.7zm15.3-3.9l12.7-3.3zm20.3-5.2l2.5-0.7zm-205.7 54l2.5-0.6zm170.4-43.9l10.2-2.7zm15.2-3.9l12.7-3.3zm20.4-5.2l2.5-0.7zm-205.7 54l2.5-0.6zm170.4-43.9l10.1-2.7zm15.3-3.9l12.7-3.3zm20.4-5.2l2.5-0.7zm-205.8 54l2.6-0.6zm208.5-53.8l2.5-0.6zm-208.3 54.6l2.6-0.6zm208.5-53.8l2.5-0.6zm-208.3 54.6l2.6-0.6zm208.5-53.8l2.5-0.6zm-208.3 54.6l2.6-0.6zm208.5-53.8l2.5-0.6zm-208.3 54.6l2.5-0.7zm208.5-53.7l2.6-0.6zm-208.3 54.6l2.5-0.7zm208.5-53.7l2.6-0.6zm-208.3 54.6l2.5-0.7zm211.1-54.3l2.5-0.7zm-210.8 55.3l2.5-0.7zm211.1-54.3l2.5-0.7zm-210.8 55.3l2.5-0.7zm211-54.3l2.6-0.7zm-210.9 55.3l2.6-0.7zm211-54.3l2.6-0.7zm-210.9 55.3l2.6-0.7zm211-54.3l2.6-0.7zm-210.9 55.3l2.6-0.7zm211-54.4l2.6-0.6zm-210.9 55.3l2.6-0.7zm211-54.4l2.5-0.6zm-210.8 55.3l2.5-0.7zm211.1-54.4l2.5-0.6zm-210.8 55.3l2.5-0.7zm211.1-54.4l2.5-0.6zm-208.3 54.6l5.1-1.3zm30.5-7.9l7.6-1.9zm178-45.9l2.6-0.6zm-208.3 54.6l5.1-1.3zm30.5-7.9l7.6-1.9zm178-45.9l2.5-0.7zm-208.3 54.7l5.1-1.3zm30.5-7.9l7.7-2zm178-45.8l2.5-0.7zm-210.8 55.3l2.5-0.7zm211-54.3l2.6-0.7zm-210.9 55.3l2.6-0.7zm211-54.3l2.6-0.7zm-210.9 55.3l2.6-0.7zm211-54.3l2.6-0.7zm-210.9 55.3l2.6-0.7zm211-54.3l2.6-0.7zm-210.9 55.3l2.6-0.7zm211-54.3l2.5-0.7zm-210.8 55.3l2.6-0.7zm211-54.3l2.5-0.7zm-210.8 55.3l2.5-0.7zm211.1-54.3l2.5-0.7zm-210.8 55.3l2.5-0.7zm211.1-54.4l2.5-0.6zm-210.8 55.3l2.5-0.7zm211.1-54.4l2.5-0.6zm-210.8 55.3l2.5-0.7zm211.1-54.4l2.5-0.6zm-210.8 55.3l2.5-0.7zm211-54.4l2.6-0.6zm-210.9 55.3l2.6-0.7zm211-54.4l2.6-0.6zm-210.9 55.3l2.6-0.7zm211-54.4l2.6-0.6zm-210.9 55.3l2.6-0.7zm211-54.4l2.5-0.6zm-210.8 55.3l2.6-0.7zm211-54.4l2.5-0.6zm-210.8 55.3l2.5-0.7zm211.1-54.4l2.5-0.6zm-210.8 55.3l2.5-0.7zm211.1-54.4l2.5-0.6zm-210.8 55.3l2.5-0.7zm211.1-54.4l2.5-0.6zm-210.8 55.3l2.5-0.7zm211.1-54.4l2.5-0.6zm-210.8 55.3l2.5-0.7zm211-54.4l2.6-0.6zm-210.9 55.2l2.6-0.6zm211-54.4l2.6-0.6zm-210.9 55.2l2.6-0.6zm211-54.4l2.6-0.6zm-210.9 55.2l2.6-0.6zm211-54.4l2.6-0.6zm-210.9 55.2l2.6-0.6zm211-54.4l2.5-0.7zm-210.8 55.3l2.5-0.6zm185.7-47.8l25.4-6.6zm-185.4 48.7l2.5-0.6zm185.6-47.8l25.5-6.6zm-185.4 48.7l2.5-0.6zm185.6-47.8l25.4-6.6zm-182.8 48.1l20.3-5.3zm208.5-53.7l2.6-0.6zm-208.3 54.6l20.3-5.2zm208.5-53.8l2.5-0.6zm-208.3 54.6l20.4-5.2zm208.5-53.8l2.5-0.6zm-210.8 55.3l2.5-0.7zm211.1-54.4l2.5-0.6zm-210.8 55.3l2.5-0.7zm211.1-54.4l2.5-0.6zm-210.8 55.3l2.5-0.7zm211.1-54.4l2.5-0.6zm-210.8 55.3l2.5-0.7zm211-54.4l2.6-0.6zm-210.9 55.3l2.6-0.7zm211-54.4l2.6-0.6zm-210.9 55.3l2.6-0.7zm211-54.4l2.6-0.6zm-210.9 55.3l2.6-0.7zm211-54.4l2.6-0.6zm-210.9 55.3l2.6-0.7zm211-54.4l2.5-0.6zm-210.8 55.2l2.5-0.6zm211.1-54.4l2.5-0.6zm-210.8 55.2l2.5-0.6zm211.1-54.4l2.5-0.6zm-210.8 55.2l2.5-0.6zm211.1-54.4l2.5-0.6zm-210.8 55.2l2.5-0.6zm211.1-54.4l2.5-0.7zm-210.8 55.3l2.5-0.6zm211-54.4l2.6-0.7zm-210.8 55.3l2.5-0.6zm211-54.4l2.6-0.7zm-210.9 55.3l2.6-0.6zm211-54.4l2.6-0.7zm-210.9 55.3l2.6-0.6zm211-54.4l2.6-0.7zm-210.9 55.3l2.6-0.6zm211-54.4l2.5-0.7zm-210.8 55.3l2.5-0.6zm211.1-54.4l2.5-0.7zm-208.3 54.7l2.6-0.7zm200.9-51.8l7.6-1.9zm-200.7 52.7l2.6-0.7zm200.8-51.8l7.7-1.9zm-200.7 52.6l2.5-0.6zm200.9-51.8l7.6-1.9zm-200.6 52.6l2.5-0.6zm206-53.1l2.5-0.7zm-205.7 54l2.5-0.6zm206-53.1l2.5-0.7zm-205.8 54l2.6-0.6zm205.9-53.1l2.6-0.7zm-205.8 54l5.1-1.3zm1.8 19.7l211-54.4zm204.2-72.7l2.6-0.7zm-205.8 54l5.1-1.3zm1.7 19.7l211.1-54.4zm204.2-72.8l2.5-0.6zm-205.7 53.9l5.1-1.3zm1.7 19.7l211-54.3zm204.3-72.8l2.5-0.7zm-208.3 54.7l2.6-0.7zm205.9-53.1l5.1-1.3zm-205.8 54l2.6-0.7zm205.9-53l5.1-1.3zm-205.7 53.9l2.5-0.6zm206-53.1l5.1-1.3zm-205.8 54l2.5-0.7zm211.1-54.4l2.5-0.6zm-210.8 55.3l2.5-0.7zm211.1-54.4l2.5-0.6zm-210.8 55.3l2.5-0.7zm211.1-54.4l2.5-0.6zm-210.8 55.3l2.5-0.7zm211.1-54.4l2.5-0.6zm-210.8 55.3l2.5-0.7zm211-54.4l2.6-0.6zm-210.8 55.3l2.5-0.7zm211-54.4l2.6-0.6zm-208.3 54.6l2.5-0.6zm208.5-53.8l2.6-0.6zm-208.3 54.6l2.5-0.6zm208.5-53.8l2.6-0.6zm-208.3 54.6l2.5-0.6zm208.5-53.8l2.5-0.6zm-210.8 55.3l2.6-0.7zm208.5-53.7l2.5-0.7zm-208.3 54.7l2.5-0.7zm208.5-53.7l2.6-0.7zm-208.3 54.7l2.5-0.7zm208.5-53.7l2.6-0.7zm-208.3 54.7l2.5-0.7zm208.5-53.7l2.6-0.7zm-208.3 54.6l2.5-0.6zm208.5-53.7l2.5-0.7zm-208.2 54.6l2.5-0.6zm208.5-53.7l2.5-0.7zm-194.7 31l17.8-4.6zm0.2 0.9l17.8-4.6zm0.2 0.9l17.8-4.5zm85.8-1l15.3-4zm0.2 0.9l15.2-3.9zm0.2 0.9l15.3-3.9zm0.2 0.9l2.5-0.7zm7.7-1.9l7.6-2zm-7.4 2.9l2.5-0.7zm7.6-1.9l7.7-2zm-7.5 2.9l2.6-0.7zm7.6-2l7.6-1.9zm-7.4 2.8l2.6-0.6zm12.7-3.3l2.5-0.6zm-12.5 4.1l2.6-0.6zm12.7-3.3l2.5-0.6zm-12.5 4.1l2.5-0.6zm12.8-3.3l2.5-0.6zm-12.5 4.1l2.5-0.6zm12.7-3.3l2.6-0.6zm-12.5 4.1l2.5-0.6zm12.7-3.3l2.6-0.7zm-12.5 4.2l2.5-0.6zm12.7-3.3l2.6-0.7zm-12.5 4.2l2.5-0.6zm12.7-3.3l2.6-0.7zm-12.5 4.2l2.5-0.6zm12.7-3.3l2.5-0.7zm-12.5 4.2l2.6-0.6zm12.7-3.3l2.5-0.7zm-12.5 4.2l2.6-0.6zm12.7-3.3l2.5-0.7zm-12.5 4.2l2.6-0.6zm12.7-3.3l2.5-0.7zm-12.5 4.2l2.5-0.6zm12.8-3.3l2.5-0.7zm-12.5 4.2l2.5-0.6zm12.8-3.3l2.5-0.7zm-12.5 4.2l2.5-0.6zm12.7-3.3l2.6-0.7zm-12.5 4.2l2.5-0.6zm12.7-3.3l2.6-0.7zm-12.5 4.2l2.5-0.7zm12.7-3.2l2.6-0.7zm-12.5 4.2l2.5-0.7zm12.7-3.2l2.6-0.7zm-12.6 4.2l2.6-0.7zm12.7-3.2l2.5-0.7zm-12.5 4.2l2.6-0.7zm12.7-3.2l2.5-0.7zm-12.5 4.2l2.6-0.7zm12.7-3.2l2.5-0.7zm-12.5 4.2l2.6-0.7zm12.7-3.2l2.5-0.7zm-12.5 4.2l2.5-0.7zm12.8-3.2l2.5-0.7zm-12.5 4.2l2.5-0.7zm12.7-3.2l2.6-0.7zm-12.5 4.2l2.5-0.7zm12.7-3.2l2.6-0.7zm-12.5 4.2l2.5-0.7zm12.7-3.3l2.6-0.6zm-12.5 4.2l2.5-0.7zm12.7-3.3l2.6-0.6zm-12.6 4.2l2.6-0.7zm12.7-3.3l2.5-0.6zm-12.5 4.2l2.6-0.7zm12.7-3.3l2.5-0.6zm-12.5 4.2l2.6-0.7zm12.7-3.3l2.5-0.6zm-12.5 4.2l2.6-0.7zm12.7-3.3l2.5-0.6zm-12.5 4.2l2.5-0.7zm12.8-3.3l2.5-0.6zm-12.5 4.2l2.5-0.7zm12.8-3.3l2.5-0.6zm-12.5 4.2l2.5-0.7zm12.7-3.3l2.6-0.6zm-12.5 4.2l2.5-0.7zm12.7-3.3l2.6-0.6zm-12.5 4.2l2.5-0.7zm12.7-3.3l2.6-0.6zm-12.6 4.1l2.6-0.6zm12.7-3.3l2.5-0.6zm-12.5 4.1l2.6-0.6zm12.7-3.3l2.5-0.6zm-12.5 4.1l2.6-0.6zm12.7-3.3l2.5-0.6zm-12.5 4.1l2.6-0.6zm12.7-3.3l2.5-0.6zm-12.5 4.1l2.6-0.6zm12.7-3.3l2.5-0.6zm-12.5 4.1l2.5-0.6zm12.8-3.3l2.5-0.7zm-12.5 4.2l2.5-0.6zm12.7-3.3l2.6-0.7zm-12.5 4.2l2.5-0.6zm12.7-3.3l2.6-0.7zm-12.5 4.2l2.5-0.6zm12.7-3.3l2.6-0.7zm-12.5 4.2l2.5-0.6zm12.7-3.3l2.6-0.7zm-12.6 4.2l2.6-0.6zm12.7-3.3l2.5-0.7zm-12.5 4.2l2.6-0.6zm12.7-3.3l2.5-0.7zm-12.5 4.2l2.6-0.6zm12.7-3.3l2.5-0.7zm-12.5 4.2l2.6-0.6zm12.7-3.3l2.5-0.7zm-12.5 4.2l2.5-0.6zm12.8-3.3l2.5-0.7zm-12.5 4.2l2.5-0.6zm12.7-3.3l2.6-0.7zm-12.5 4.2l2.5-0.7zm12.7-3.2l2.6-0.7zm-12.5 4.2l2.5-0.7zm12.7-3.2l2.6-0.7zm-12.5 4.2l2.5-0.7zm12.7-3.2l2.6-0.7zm-12.6 4.2l2.6-0.7zm12.7-3.2l2.5-0.7zm-12.5 4.2l2.6-0.7zm12.7-3.2l2.5-0.7zm-12.5 4.2l2.6-0.7zm12.7-3.2l2.5-0.7zm-12.5 4.2l15.3-3.9zm0.2 0.9l15.2-4zm0.2 0.9l15.3-3.9z"/>
	<path id="Layer" fill-rule="evenodd" class="s9" d="m2.4 65.9l213.6-55m-213.3 55.9l213.5-55m-213.3 55.9l213.5-55m-106.9 15.1l5.1-1.3m-15 4.8l7.6-2m2.5-0.6l5.1-1.3m-15 4.8l2.5-0.6m5.1-1.4l7.6-1.9m-15 4.8l2.5-0.6m5.1-1.4l7.6-1.9m-15 4.8l2.5-0.6m5.1-1.3l7.6-2m-15 4.8l2.5-0.6m10.2-2.6l2.5-0.7m-15 4.8l2.5-0.6m10.2-2.6l2.5-0.7m-15 4.8l2.5-0.6m10.2-2.6l2.6-0.7m-15.1 4.9l2.5-0.7m10.2-2.6l2.6-0.7m-15.1 4.9l2.5-0.7m10.2-2.6l2.6-0.7m-15.1 4.9l2.6-0.7m10.1-2.6l2.6-0.7m-17.5-6l7.6-2m2.5-0.6l5.1-1.3m-15 4.8l7.6-2m-103.9 40.2l2.5-0.6m208.5-53.7l2.5-0.7m-213.3 56l2.5-0.7m208.5-53.7l2.5-0.7m-213.3 56l2.5-0.7m208.5-53.7l2.6-0.7m-213.4 56l2.5-0.7m208.5-53.7l2.6-0.7m-213.4 56l2.5-0.7m208.5-53.7l2.6-0.7m-213.4 56l2.5-0.7m208.5-53.7l2.6-0.6m-213.4 55.9l2.5-0.7m206-53l2.5-0.7m-210.8 55.3l2.5-0.7m206-53l2.5-0.7m-210.8 55.3l2.5-0.6m206-53.1l2.5-0.7m-210.8 55.3l2.5-0.6m208.5-53.8l2.6-0.6m-213.4 55.9l2.5-0.6m208.5-53.8l2.6-0.6m-213.4 55.9l2.5-0.6m208.5-53.7l2.6-0.7m-213.4 55.9l2.5-0.6m208.6-53.7l2.5-0.7m-213.4 55.9l2.6-0.6m208.5-53.7l2.5-0.7m-213.4 56l2.6-0.7m208.5-53.7l2.5-0.7m-210.8 55.3l5-1.3m203.5-52.4l2.5-0.7m-210.8 55.3l5.1-1.3m203.4-52.4l2.5-0.7m-210.8 55.3l5.1-1.3m203.4-52.4l2.5-0.7m-210.8 55.3l2.5-0.6m200.9-51.8l7.6-1.9m-210.8 55.2l2.5-0.6m200.9-51.8l7.6-1.9m-210.8 55.2l2.5-0.6m200.9-51.8l7.6-1.9m-210.8 55.3l2.5-0.7m203.4-52.4l2.6-0.7m-208.3 54.7l2.5-0.7m203.4-52.4l2.6-0.7m-208.3 54.7l2.5-0.7m203.5-52.4l2.5-0.7m-208.3 54.7l7.6-2m198.4-51.1l2.5-0.6m-208.3 54.6l7.6-2m198.4-51.1l2.5-0.6m-208.3 54.6l7.6-2m198.4-51.1l2.5-0.6m-210.8 55.3l2.5-0.7m203.4-52.4l5.1-1.3m-210.8 55.3l2.5-0.7m203.4-52.4l5.1-1.3m-210.8 55.3l2.5-0.7m203.4-52.4l5.1-1.3m-210.8 55.3l2.5-0.7m208.5-53.7l2.6-0.7m-213.4 56l2.5-0.7m208.5-53.7l2.6-0.6m-213.4 55.9l2.5-0.7m208.5-53.7l2.6-0.6m-213.4 55.9l2.5-0.7m208.5-53.7l2.6-0.6m-213.4 55.9l2.5-0.6m208.5-53.8l2.6-0.6m-213.4 55.9l2.5-0.6m208.5-53.8l2.6-0.6m-213.4 55.9l2.5-0.6m208.5-53.8l2.6-0.6m-213.4 55.9l2.5-0.6m208.5-53.7l2.6-0.7m-213.4 55.9l2.6-0.6m208.5-53.7l2.5-0.7m-210.8 55.3l2.5-0.7m206-53l2.5-0.7m-210.8 55.3l2.5-0.7m206-53l2.5-0.7m-210.8 55.3l2.5-0.6m206-53.1l2.5-0.7m-210.8 55.3l2.5-0.6m206-53.1l2.5-0.7m-210.8 55.3l2.5-0.6m206-53.1l2.5-0.7m-210.8 55.3l2.5-0.6m206-53.1l2.5-0.7m-210.8 55.3l27.9-7.2m178-45.8l2.6-0.7m-208.3 54.6l28-7.2m177.9-45.8l2.6-0.7m-208.3 54.7l28-7.3m177.9-45.8l2.6-0.7m-210.9 55.3l2.6-0.6m167.8-43.3l10.2-2.6m5.1-1.3l12.7-3.3m7.6-2l2.5-0.6m-208.2 54.6l2.5-0.6m167.8-43.3l10.2-2.6m5.1-1.3l12.7-3.3m7.6-1.9l2.6-0.7m-208.3 54.6l2.5-0.6m167.8-43.3l10.2-2.6m5.1-1.3l12.7-3.3m7.6-1.9l2.6-0.7m-208.3 54.6l2.5-0.6m206-53.1l2.5-0.6m-210.8 55.2l2.5-0.6m206-53.1l2.5-0.6m-210.8 55.3l2.5-0.7m206-53.1l2.5-0.6m-210.8 55.3l2.5-0.7m206-53.1l2.5-0.6m-210.8 55.3l2.5-0.7m206-53.1l2.5-0.6m-210.8 55.3l2.5-0.7m206-53l2.5-0.7m-210.8 55.3l2.5-0.7m208.5-53.7l2.6-0.7m-213.4 56l2.5-0.7m208.5-53.7l2.6-0.6m-213.4 55.9l2.5-0.7m208.5-53.7l2.6-0.6m-213.4 55.9l2.5-0.6m208.5-53.8l2.6-0.6m-213.4 55.9l2.5-0.6m208.5-53.8l2.6-0.6m-213.4 55.9l2.5-0.6m208.5-53.8l2.6-0.6m-213.4 55.9l2.6-0.6m208.5-53.8l2.5-0.6m-213.4 55.9l2.6-0.6m208.5-53.7l2.5-0.7m-213.4 55.9l2.6-0.6m208.5-53.7l2.5-0.7m-210.8 55.3l5-1.3m25.5-6.6l7.6-1.9m170.4-43.9l2.5-0.7m-210.8 55.3l5.1-1.3m25.4-6.6l7.6-1.9m170.4-43.9l2.5-0.7m-210.8 55.3l5.1-1.3m25.4-6.5l7.6-2m170.4-43.9l2.5-0.7m-213.4 56l2.6-0.7m208.5-53.7l2.5-0.7m-213.4 56l2.6-0.7m208.5-53.7l2.5-0.7m-213.4 56l2.6-0.7m208.5-53.7l2.5-0.6m-213.4 55.9l2.6-0.7m208.5-53.7l2.5-0.6m-213.4 55.9l2.6-0.6m208.5-53.8l2.5-0.6m-213.3 55.9l2.5-0.6m208.5-53.8l2.5-0.6m-213.3 55.9l2.5-0.6m208.5-53.8l2.5-0.6m-213.3 55.9l2.5-0.6m208.5-53.8l2.5-0.6m-213.3 55.9l2.5-0.6m208.5-53.7l2.5-0.7m-213.3 55.9l2.5-0.6m208.5-53.7l2.6-0.7m-213.4 56l2.5-0.7m208.5-53.7l2.6-0.7m-213.4 56l2.5-0.7m208.5-53.7l2.6-0.7m-213.4 56l2.5-0.7m208.5-53.7l2.6-0.7m-213.4 56l2.5-0.7m208.5-53.7l2.6-0.7m-213.4 56l2.5-0.7m208.5-53.7l2.6-0.7m-213.4 56l2.5-0.7m208.5-53.7l2.6-0.6m-213.4 55.9l2.5-0.7m208.5-53.7l2.6-0.6m-213.4 55.9l2.5-0.6m208.5-53.8l2.6-0.6m-213.4 55.9l2.5-0.6m208.5-53.8l2.6-0.6m-213.4 55.9l2.5-0.6m208.5-53.8l2.6-0.6m-213.4 55.9l2.6-0.6m208.5-53.8l2.5-0.6m-213.4 55.9l2.6-0.6m208.5-53.7l2.5-0.7m-213.4 55.9l2.6-0.6m208.5-53.7l2.5-0.7m-213.4 56l2.6-0.7m208.5-53.7l2.5-0.7m-213.4 56l2.6-0.7m183-47.2l25.5-6.5m-210.9 55.3l2.6-0.7m183-47.2l25.5-6.5m-210.9 55.3l2.6-0.7m183.1-47.2l25.4-6.5m-208.3 54.6l20.3-5.2m188.2-48.5l2.5-0.7m-210.8 55.3l20.3-5.2m188.2-48.5l2.5-0.6m-210.8 55.2l20.3-5.2m188.2-48.5l2.5-0.6m-213.4 55.9l2.6-0.7m208.5-53.7l2.5-0.6m-213.3 55.9l2.5-0.6m208.5-53.8l2.5-0.6m-213.3 55.9l2.5-0.6m208.5-53.8l2.5-0.6m-213.3 55.9l2.5-0.6m208.5-53.8l2.5-0.6m-213.3 55.9l2.5-0.6m208.5-53.7l2.6-0.7m-213.4 55.9l2.5-0.6m208.5-53.7l2.6-0.7m-213.4 56l2.5-0.7m208.5-53.7l2.6-0.7m-213.4 56l2.5-0.7m208.5-53.7l2.6-0.7m-213.4 56l2.5-0.7m208.5-53.7l2.6-0.7m-213.4 56l2.5-0.7m208.5-53.7l2.6-0.7m-213.4 56l2.5-0.7m208.5-53.7l2.6-0.7m-213.4 56l2.5-0.7m208.5-53.7l2.6-0.6m-213.4 55.9l2.5-0.7m208.5-53.7l2.6-0.6m-213.4 55.9l2.5-0.7m208.5-53.7l2.6-0.6m-213.4 55.9l2.5-0.6m208.5-53.8l2.6-0.6m-213.4 55.9l2.6-0.6m208.5-53.8l2.5-0.6m-213.4 55.9l2.6-0.6m208.5-53.8l2.5-0.6m-213.4 55.9l2.6-0.6m208.5-53.7l2.5-0.7m-210.8 55.3l2.5-0.7m198.3-51.1l7.7-1.9m-208.3 54.6l2.5-0.7m198.3-51.1l7.7-1.9m-208.3 54.6l2.5-0.7m198.3-51.1l7.7-1.9m-208.3 54.6l2.5-0.6m203.4-52.5l2.6-0.6m-208.3 54.6l2.5-0.6m203.4-52.5l2.6-0.6m-208.3 54.6l2.5-0.6m203.4-52.4l2.6-0.7m-208.3 54.6l5.1-1.3m-3.4 21l211.1-54.3m-6.9-18.4l2.6-0.7m-208.3 54.6l5.1-1.3m-3.4 21.1l211.1-54.4m-6.9-18.4l2.6-0.7m-208.3 54.6l5.1-1.3m-3.4 21.1l211.1-54.4m-6.8-18.4l2.5-0.7m-210.8 55.3l2.5-0.6m203.4-52.5l5.1-1.3m-210.8 55.3l2.5-0.6m203.4-52.5l5.1-1.3m-210.8 55.3l2.5-0.6m203.4-52.4l5.1-1.4m-210.8 55.3l2.5-0.6m208.5-53.7l2.6-0.7m-213.4 55.9l2.5-0.6m208.5-53.7l2.6-0.7m-213.4 55.9l2.5-0.6m208.5-53.7l2.6-0.7m-213.4 56l2.5-0.7m208.5-53.7l2.6-0.7m-213.4 56l2.5-0.7m208.5-53.7l2.6-0.7m-213.4 56l2.5-0.7m208.5-53.7l2.6-0.7m-210.9 55.3l2.6-0.6m205.9-53.1l2.6-0.7m-210.9 55.3l2.6-0.6m205.9-53.1l2.6-0.6m-210.9 55.2l2.6-0.6m205.9-53.1l2.6-0.6m-213.4 55.9l2.5-0.7m206-53l2.5-0.7m-210.8 55.3l2.5-0.6m206-53.1l2.6-0.7m-210.9 55.3l2.6-0.6m205.9-53.1l2.6-0.7m-210.9 55.3l2.6-0.6m205.9-53.1l2.6-0.7m-210.9 55.3l2.6-0.6m205.9-53.1l2.6-0.6m-210.9 55.2l2.6-0.6m205.9-53.1l2.6-0.6m-197.4 31.6l17.8-4.6m-17.6 5.5l17.8-4.6m-17.5 5.5l17.7-4.6m68.1 3.6l15.3-3.9m-15.1 4.8l15.3-3.9m-15.1 4.8l15.3-3.9m-15.1 4.8l2.6-0.6m5-1.3l7.7-2m-15.1 4.8l2.6-0.6m5-1.3l7.7-2m-15.1 4.9l2.6-0.7m5.1-1.3l7.6-2m-15.1 4.9l2.6-0.7m10.1-2.6l2.6-0.7m-15.1 4.9l2.6-0.7m10.1-2.6l2.6-0.7m-15.1 4.9l2.6-0.7m10.1-2.6l2.6-0.7m-15.1 4.9l2.6-0.7m10.2-2.6l2.5-0.6m-15.1 4.8l2.6-0.7m10.2-2.6l2.5-0.6m-15.1 4.8l2.6-0.7m10.2-2.6l2.5-0.6m-15 4.8l2.5-0.6m10.2-2.7l2.5-0.6m-15 4.8l2.5-0.6m10.2-2.7l2.5-0.6m-15 4.8l2.5-0.6m10.2-2.7l2.5-0.6m-15 4.8l2.5-0.6m10.2-2.6l2.5-0.7m-15 4.8l2.5-0.6m10.2-2.6l2.5-0.7m-15 4.8l2.5-0.6m10.2-2.6l2.5-0.7m-15 4.9l2.5-0.7m10.2-2.6l2.5-0.7m-15 4.9l2.5-0.7m10.2-2.6l2.5-0.7m-15 4.9l2.5-0.7m10.2-2.6l2.5-0.7m-15 4.9l2.5-0.7m10.2-2.6l2.5-0.7m-15 4.9l2.5-0.7m10.2-2.6l2.5-0.6m-15 4.8l2.5-0.7m10.2-2.6l2.6-0.6m-15.1 4.8l2.5-0.7m10.2-2.6l2.6-0.6m-15.1 4.8l2.5-0.6m10.2-2.7l2.6-0.6m-15.1 4.8l2.5-0.6m10.2-2.7l2.6-0.6m-15.1 4.8l2.6-0.6m10.1-2.7l2.6-0.6m-15.1 4.8l2.6-0.6m10.1-2.6l2.6-0.7m-15.1 4.8l2.6-0.6m10.1-2.6l2.6-0.7m-15.1 4.8l2.6-0.6m10.1-2.6l2.6-0.7m-15.1 4.9l2.6-0.7m10.1-2.6l2.6-0.7m-15.1 4.9l2.6-0.7m10.1-2.6l2.6-0.7m-15.1 4.9l2.6-0.7m10.1-2.6l2.6-0.7m-15.1 4.9l2.6-0.7m10.2-2.6l2.5-0.7m-15.1 4.9l2.6-0.7m10.2-2.6l2.5-0.6m-15.1 4.8l2.6-0.7m10.2-2.6l2.5-0.6m-15.1 4.8l2.6-0.7m10.2-2.6l2.5-0.6m-15 4.8l2.5-0.6m10.2-2.7l2.5-0.6m-15 4.8l2.5-0.6m10.2-2.7l2.5-0.6m-15 4.8l2.5-0.6m10.2-2.7l2.5-0.6m-15 4.8l2.5-0.6m10.2-2.6l2.5-0.7m-15 4.8l2.5-0.6m10.2-2.6l2.5-0.7m-15 4.8l2.5-0.6m10.2-2.6l2.5-0.7m-15 4.9l2.5-0.7m10.2-2.6l2.5-0.7m-15 4.9l2.5-0.7m10.2-2.6l2.5-0.7m-15 4.9l2.5-0.7m10.2-2.6l2.5-0.7m-15 4.9l2.5-0.7m10.2-2.6l2.5-0.7m-15 4.9l2.5-0.7m10.2-2.6l2.5-0.6m-15 4.8l2.5-0.7m10.2-2.6l2.6-0.6m-15.1 4.8l2.5-0.7m10.2-2.6l2.6-0.6m-15.1 4.8l2.5-0.6m10.2-2.7l2.6-0.6m-15.1 4.8l2.6-0.6m10.1-2.7l2.6-0.6m-15.1 4.8l2.6-0.6m10.1-2.7l2.6-0.6m-15.1 4.8l2.6-0.6m10.1-2.6l2.6-0.7m-15.1 4.8l2.6-0.6m10.1-2.6l2.6-0.7m-15.1 4.8l2.6-0.6m10.1-2.6l2.6-0.7m-15.1 4.9l2.6-0.7m10.1-2.6l2.6-0.7m-15.1 4.9l2.6-0.7m10.1-2.6l2.6-0.7m-15.1 4.9l2.6-0.7m10.2-2.6l2.5-0.7m-15.1 4.9l2.6-0.7m10.2-2.6l2.5-0.7m-15.1 4.9l2.6-0.7m10.2-2.6l2.5-0.6m-15.1 4.8l2.6-0.7m10.2-2.6l2.5-0.6m-15 4.8l15.2-3.9m-15 4.8l15.2-3.9m-15 4.8l15.2-3.9"/>
	<path id="Layer" fill-rule="evenodd" class="s0" d="m5.6 68l208.5-53.7zm0.2 0.9l208.5-53.7zm0.2 0.9l208.5-53.8zm0.2 0.9l208.5-53.7zm0.2 0.9l208.5-53.7zm0.2 0.9l208.5-53.7zm0.2 0.9l206-53.1zm0.2 0.9l205.9-53zm0.3 0.9l205.9-53.1zm0.2 0.9l208.5-53.7zm0.2 0.9l208.5-53.7zm0.2 0.9l208.5-53.8zm0.2 1l208.5-53.8zm0.2 0.9l208.5-53.7zm0.2 0.9l208.5-53.7zm5.3-0.4l203.4-52.4zm0.2 0.9l203.5-52.4zm0.2 0.9l203.4-52.4zm88.1-50.6l5.1-1.3zm0.2 0.9l5.1-1.3zm-90.7 51.2l200.9-51.8zm91.1-49.4l10.2-2.6zm0.2 0.9l10.1-2.6zm-91.1 49.4l200.9-51.8zm0.2 1l200.9-51.8zm0.2 0.9l203.4-52.4zm0.2 0.9l203.4-52.4zm90.1-54l5.1-1.3zm0.6 2.8l10.2-2.7zm0.2 0.9l10.2-2.6zm0.2 0.9l10.1-2.6zm-90.9 50.3l203.4-52.4zm91.1-49.4l10.2-2.6zm-85.8 49l198.3-51.1zm0.2 0.9l198.4-51.1zm0.2 0.9l198.3-51.1zm-7.4 2.9l203.4-52.5zm0.2 0.9l203.4-52.4zm0.2 0.9l203.4-52.4zm0.2 0.9l208.5-53.7zm0.2 0.9l208.5-53.7zm0.2 0.9l208.5-53.7zm0.2 0.9l208.5-53.7zm0.2 0.9l208.5-53.8zm0.2 0.9l208.5-53.7zm0.2 0.9l208.5-53.7zm0.3 0.9l208.5-53.7zm0.2 0.9l208.5-53.7zm2.7 0.2l206-53zm0.2 0.9l205.9-53.1zm0.2 0.9l206-53.1zm0.2 0.9l205.9-53zm0.3 0.9l205.9-53.1zm0.2 0.9l206-53.1zm25.6-5.6l178-45.9zm0.2 0.9l178-45.8zm0.2 0.9l178-45.9zm-27.8 8.1l167.8-43.2zm0.6 2.7l206-53.1zm195.2-53.1l7.6-2zm-195.6 51.4l167.8-43.3zm0.6 2.7l206-53zm195.2-53.2l7.6-2zm-195.6 51.4l167.8-43.2zm0.7 2.7l205.9-53.1zm195.2-53.2l7.6-1.9zm-195 54l206-53zm0.2 0.9l206-53.1zm0.2 0.9l205.9-53zm176.4-53.2l5.1-1.3zm0.2 0.9l5.1-1.3zm-176.4 53.1l208.5-53.7zm176.6-52.2l5-1.3zm-176.3 53.1l208.5-53.7zm0.2 0.9l208.5-53.7zm0.2 0.9l208.5-53.7zm0.2 0.9l208.5-53.8zm0.2 0.9l208.5-53.7zm0.2 0.9l208.5-53.7zm0.2 0.9l208.5-53.7zm0.2 0.9l208.5-53.7zm0.8 3.6l208.5-53.7zm37.6-12.6l170.3-43.9zm-37.3 13.5l208.5-53.7zm37.5-12.6l170.4-43.9zm-37.3 13.5l208.5-53.8zm37.5-12.5l170.4-43.9zm-37.4 13.5l208.5-53.8zm0.2 0.9l208.5-53.7zm0.2 0.9l208.5-53.7zm0.2 0.9l208.5-53.7zm0.2 0.9l208.5-53.7zm0.2 0.9l208.6-53.8zm0.2 0.9l208.5-53.7zm0.2 0.9l208.5-53.7zm0.2 0.9l208.5-53.7zm0.2 0.9l208.5-53.7zm0.2 0.9l208.5-53.7zm0.2 0.9l208.5-53.8zm0.2 0.9l208.5-53.7zm0.2 0.9l208.5-53.7zm0.2 0.9l208.5-53.7zm0.2 0.9l208.5-53.7zm0.2 0.9l208.5-53.8zm0.2 1l208.5-53.8zm0.2 0.9l208.5-53.7zm0.2 0.9l208.5-53.7zm0.2 0.9l208.5-53.7zm-0.2-24.9l25.4-6.6zm0.2 0.9l25.5-6.5zm0.2 0.9l25.4-6.6zm0 24l183.1-47.1zm0.2 0.9l183.1-47.2zm0.2 0.9l183-47.2zm20.6-4.3l188.1-48.5zm0.2 0.9l188.2-48.5zm0.2 0.9l188.2-48.4zm-20.2 6.1l208.5-53.7zm0.2 0.9l208.5-53.7zm0.2 0.9l208.5-53.8zm0.2 1l208.5-53.8zm0.2 0.9l208.5-53.7zm0.2 0.9l208.5-53.7zm0.2 0.9l208.5-53.7zm0.3 0.9l208.5-53.7zm0.2 0.9l208.5-53.8zm0.2 1l208.5-53.8zm0.2 0.9l208.5-53.7zm0.2 0.9l208.5-53.7zm0.2 0.9l208.5-53.7zm0.2 0.9l208.5-53.7zm0.2 0.9l208.5-53.8zm0.2 0.9l208.5-53.7zm0.2 0.9l208.5-53.7zm0.2 0.9l208.5-53.7zm2.7 0.2l198.4-51.1zm0.2 0.9l198.3-51.1zm0.2 0.9l198.3-51.1zm0.2 0.9l203.5-52.4zm0.2 0.9l203.4-52.4zm0.2 0.9l203.4-52.4zm-1.7 4.3l203.4-52.4zm32.4-11.2l172.9-44.6zm-32.2 12.1l203.4-52.4zm32.4-11.2l173-44.6zm-32.3 12.2l203.4-52.4zm32.5-11.3l172.9-44.5zm-32.3 12.1l208.5-53.7zm0.2 0.9l208.5-53.7zm0.2 0.9l208.5-53.7zm0.2 0.9l208.5-53.8zm0.3 1l208.5-53.8zm0.2 0.9l208.5-53.7zm2.7 0.3l206-53.1zm0.2 0.9l205.9-53.1zm0.2 0.9l206-53zm-2.4 1.5l206-53zm0.2 0.9l206-53.1zm0.2 0.9l205.9-53.1zm0.2 0.9l206-53zm0.2 0.9l205.9-53.1zm0.3 0.9l205.9-53zm1-19.5l10.2-2.6zm0.2 0.9l10.2-2.6zm0.2 0.9l10.1-2.7zm99.2-1.5l5.1-1.3zm0.2 0.9l5.1-1.3zm0.2 0.9l5.1-1.3zm0.2 0.9l10.2-2.6zm0.2 0.9l10.1-2.7zm0.2 1l10.2-2.7zm0.2 0.9l10.2-2.6zm0.2 0.9l10.1-2.6zm0.3 0.9l10.1-2.6zm0.2 0.9l10.2-2.6zm0.2 0.9l10.2-2.6zm0.2 0.9l10.1-2.6zm0.3 0.9l10.1-2.7zm0.2 1l10.2-2.7zm0.2 0.9l10.2-2.6zm0.2 0.9l10.1-2.6zm0.3 0.9l10.1-2.6zm0.2 0.9l10.2-2.6zm0.2 0.9l10.2-2.6zm0.2 0.9l10.1-2.6zm0.3 0.9l10.1-2.7zm0.2 0.9l10.2-2.6zm0.2 0.9l10.2-2.6zm0.2 0.9l10.1-2.6zm0.2 0.9l10.2-2.6zm0.2 0.9l10.2-2.6zm0.2 0.9l10.2-2.6zm0.2 0.9l10.1-2.7zm0.2 1l10.2-2.7zm0.2 0.9l10.2-2.6zm0.2 0.9l10.2-2.6zm0.2 0.9l10.1-2.6zm0.2 0.9l10.2-2.6zm0.2 0.9l10.2-2.6zm0.2 0.9l10.2-2.6zm0.2 0.9l10.1-2.7zm0.2 0.9l10.2-2.6zm0.2 0.9l10.2-2.6zm0.2 0.9l10.2-2.6zm0.2 0.9l10.1-2.6zm0.2 0.9l10.2-2.6zm0.2 0.9l10.2-2.6zm0.2 0.9l10.2-2.7zm0.2 1l10.1-2.7zm0.2 0.9l10.2-2.6zm0.2 0.9l10.2-2.6zm0.2 0.9l10.2-2.6zm0.2 0.9l10.1-2.6zm0.2 0.9l10.2-2.6zm0.2 0.9l10.2-2.6zm0.2 0.9l10.2-2.7zm0.2 1l10.1-2.7zm0.2 0.9l10.2-2.6zm0.2 0.9l10.2-2.6zm0.2 0.9l10.2-2.6zm0.2 0.9l10.1-2.6zm0.2 0.9l10.2-2.6zm0.2 0.9l10.2-2.6zm0.2 0.9l10.2-2.7zm0.2 0.9l10.1-2.6z"/>
	<path id="Layer" fill-rule="evenodd" class="s6" d="m214 13.8l1.2 5.5-2.5 0.6 0.6 2.7 2.5-0.6 1.9 8.2-5.1 1.3 0.6 2.7 2.5-0.7 1.3 5.5-2.6 0.6 0.6 2.8 5.1-1.4 3.1 13.7-2.6 0.6 0.6 2.7-2.5 0.7 0.6 2.7 2.6-0.6 1.2 5.4 2.5-0.6 7.4 32.6-25.5 6.6 0.7 2.7 25.4-6.6 4.3 19.1-7.7 2 0.6 2.7 5.1-1.3 1.3 5.4-2.6 0.7 0.6 2.7 5.1-1.3 1.8 8.2-2.5 0.6 1.2 5.5-205.9 53-1.3-5.4 2.6-0.7-0.6-2.7-2.6 0.7-1.8-8.2 5.1-1.3-0.6-2.7-2.6 0.6-1.2-5.4-2.5 0.6-3.7-16.3 20.3-5.2-0.6-2.8-20.3 5.3-5.5-24.5 5.1-1.3-0.7-2.8-5 1.3-3.7-16.3 28-7.2-0.7-2.7-25.4 6.5-1.2-5.4-2.5 0.6-2.5-10.9 7.6-1.9-0.6-2.7-5.1 1.3-1.2-5.5 2.6-0.6-0.7-2.8-5 1.4-3.1-13.7zm-106.7 16l0.6 2.7 5.1-1.3 1.2 5.5-10.1 2.6-1.9-8.2zm86 35.5l-10.2 2.6 0.6 2.7 10.2-2.6zm17.8-4.6l-12.7 3.3 0.6 2.7 12.7-3.3zm-154 57l-7.6 2 0.6 2.7 7.7-2zm6.5 53.1l-17.8 4.6 0.6 2.7 17.8-4.6zm76.7 6.1l0.6 2.8 5.1-1.3 11.6 51.7-10.1 2.6-12.3-54.4z"/>
	<path id="Layer" fill-rule="evenodd" class="s10" d="m64 98.8l-2.4 0.7-2.7-12.1-2.3 0.7-0.6-2.4 2.4-0.7-0.5-2.4 2.3-0.6zm6.3-16.8l-4.7 1.2-0.6-2.4 4.8-1.2zm5.1 11.4l-2.4 0.6-2.7-12 2.4-0.7zm-1.9 3.1l-4.7 1.2-0.6-2.4 4.8-1.2zm-5.3-1.2l-2.4 0.6-2.7-12 2.4-0.6zm9.2-15.1l-0.5-2.4 4.7-1.2 0.6 2.4zm7.1-1.9l2.7 12-2.4 0.7-2.7-12.1zm-4.4 13.9l-2.4 0.6-2.7-12 2.4-0.6zm5.3 1.2l-4.8 1.2-0.5-2.4 4.8-1.2zm20.9-8l-2.4 0.6 0.5 2.4-7.1 1.9-3.8-16.8 7.1-1.9 0.6 2.4 2.4-0.6 1.1 4.8-2.4 0.6 0.5 2.4 2.4-0.6zm-4-6.6l-1.1-4.8-4.8 1.3 1.1 4.8zm1.6 7.2l-1-4.8-4.8 1.2 1.1 4.8zm12.4-0.7l-7.2 1.9-0.5-2.4 2.4-0.6-2.7-12-2.4 0.6-0.5-2.4 7.1-1.9 0.6 2.4-2.4 0.6 2.7 12 2.3-0.6zm12-3l-9.5 2.4-3.8-16.8 2.4-0.6 3.2 14.4 7.2-1.8zm11.9-3.1l-9.5 2.4-3.8-16.8 2.4-0.6 3.2 14.4 7.2-1.8zm9.4-2.5l-7.1 1.9-0.5-2.4 2.3-0.6-2.7-12-2.3 0.6-0.6-2.4 7.2-1.9 0.5 2.4-2.4 0.6 2.7 12 2.4-0.6zm1.5-15.6l-0.5-2.4 7.1-1.9 0.6 2.4zm9.5-2.4l2.7 12-2.4 0.6-2.7-12zm-6.8 14.5l-2.4 0.6-2.7-12 2.4-0.6zm7.7 0.5l-7.2 1.9-0.5-2.4 7.2-1.9zm16.7-4.3l-4.8 1.2-1.1-4.8-2.4 0.7-1.6-7.2-2.4 0.6 2.7 12-2.4 0.6-3.7-16.8 4.7-1.3 1.1 4.9 2.4-0.7 1.6 7.2 2.4-0.6-2.7-12 2.4-0.6zm-73.8 47.4l-2.4 0.7 0.6 2.4-2.4 0.6 0.5 2.4-2.4 0.6-0.5-2.4-4.8 1.2-0.5-2.4 4.7-1.2-1-4.8-2.4 0.6-0.6-2.4 2.4-0.6-1.1-4.8-2.3 0.6 1 4.8-2.3 0.6-1.1-4.8 2.4-0.6-0.6-2.4 2.4-0.6-0.5-2.4 2.4-0.6 0.5 2.4 4.8-1.3 0.5 2.4-4.8 1.3 1.1 4.8 2.4-0.6 0.5 2.4 2.4-0.7zm-2.4 0.7l-1-4.9-2.4 0.7 1.1 4.8zm14.8-1.3l-2.4 0.6-1.6-7.2-4.8 1.2 1.7 7.2-2.4 0.6-3.3-14.4 2.4-0.6-0.5-2.4 4.7-1.2 0.6 2.4 2.4-0.6zm-9.3-7.8l4.7-1.2-1.1-4.8-4.7 1.2zm18-9.7l-7.2 1.8-0.5-2.4 7.1-1.8zm-4.4 13.8l-2.4 0.6-2.7-12 2.4-0.6zm7.7 0.6l-7.2 1.8-0.5-2.4 7.1-1.8zm16.7-4.3l-2.4 0.6-2.7-12-2.4 0.6 0.6 2.4-4.8 1.2-0.5-2.4-2.4 0.7 2.7 12-2.4 0.6-3.8-16.8 2.4-0.7 0.5 2.4 2.4-0.6 0.6 2.4 4.7-1.2-0.5-2.4 2.4-0.6-0.6-2.4 2.4-0.6zm11.9-3.1l-9.5 2.5-3.8-16.8 9.6-2.5 0.5 2.4-7.2 1.8 1.1 4.8 5.3-1.3 0.5 2.4-5.2 1.3 1 4.8 7.2-1.8zm-89.6 38.8l-4.8 1.3 3.2 14.4-2.4 0.6-3.2-14.4-4.8 1.2-0.5-2.4 11.9-3.1zm11.9-3l-7.2 1.8-0.5-2.4 7.2-1.8zm5 11.4l-2.3 0.6-2.7-12 2.3-0.7zm-9.5 2.5l-2.4 0.6-2.7-12 2.4-0.6zm7.7 0.6l-7.2 1.8-0.5-2.4 7.2-1.8zm14.3-3.8l-2.4 0.7-1-4.8-2.4 0.6-0.6-2.4-2.4 0.6 1.7 7.2-2.4 0.6-3.8-16.8 2.4-0.6 1.6 7.2 2.4-0.6-0.5-2.4 2.3-0.6-1-4.8 2.3-0.7 1.1 4.8-2.4 0.7 0.6 2.4-2.4 0.6 0.5 2.4 2.4-0.6 0.6 2.4 2.3-0.7zm11.9-3l-9.5 2.4-3.8-16.8 9.6-2.4 0.5 2.4-7.1 1.8 1 4.8 5.3-1.3 0.5 2.4-5.2 1.3 1 4.8 7.2-1.8zm14.3-3.7l-4.8 1.2-1.1-4.8-2.3 0.6-1.7-7.2-2.3 0.6 2.6 12.1-2.3 0.6-3.8-16.8 4.8-1.3 1 4.8 2.4-0.6 1.6 7.2 2.4-0.6-2.7-12 2.4-0.6zm15.9-19.4l-7.2 1.9-0.5-2.4 7.1-1.9zm-6 6.7l-2.4 0.6-1.1-4.8 2.4-0.6zm8.8 5.4l-2.4 0.6-1.1-4.8 2.4-0.7zm-3.5-4.1l-4.7 1.2-0.6-2.4 4.8-1.2zm1.6 7.2l-7.1 1.8-0.6-2.4 7.2-1.8zm13.7-6.1l-2.4 0.6-3.2-14.4 2.4-0.6zm-7.2 1.8l-2.3 0.6-3.3-14.4 2.4-0.6zm5.3 1.2l-4.8 1.2-0.5-2.4 4.8-1.2zm12.1-13.3l-2.4 0.6 0.6 2.4-4.8 1.2 1.6 7.2-2.4 0.6-3.7-16.8 7.1-1.8 0.6 2.4 2.3-0.6zm-2.3 0.6l-1.1-4.8-4.8 1.2 1.1 4.8zm14.3-3.7l-2.4 0.6 0.6 2.4-4.8 1.3 1.6 7.2-2.4 0.6-3.8-16.8 7.2-1.9 0.5 2.4 2.4-0.6zm-3.4-4.2l-4.8 1.3 1.1 4.8 4.7-1.3zm17.6 10.8l-9.6 2.4-3.7-16.8 2.3-0.6 3.3 14.4 7.1-1.8zm11.6-15.7l-2.4 0.6-1.1-4.8 2.4-0.6zm-1.3 5.4l-2.4 0.6-1-4.8 2.3-0.6zm-8.2-3l-2.4 0.6-1.1-4.8 2.4-0.6zm3.5 4.2l-2.4 0.6-1.1-4.8 2.4-0.6zm4 6.6l-2.4 0.6-1.6-7.2 2.4-0.6z"/>
</svg>